G04 --- HEADER BEGIN --- *
G04 #@! TF.GenerationSoftware,LibrePCB,LibrePCB,1.1.0*
G04 #@! TF.CreationDate,2024-04-23T21:01:02*
G04 #@! TF.ProjectId,motherboard (Version 2),e7e7bca0-b6b9-4684-b626-93943a2f5169,version_2*
G04 #@! TF.Part,Single*
G04 #@! TF.SameCoordinates*
G04 #@! TF.FileFunction,Soldermask,Bot*
G04 #@! TF.FilePolarity,Negative*
%FSLAX66Y66*%
%MOMM*%
G01*
G75*
G04 --- HEADER END --- *
G04 --- APERTURE LIST BEGIN --- *
%ADD10C,2.0796*%
%AMROUNDEDRECT11*20,1,1.47,-0.735,0.0,0.735,0.0,0.0*20,1,1.27,-0.835,0.0,0.835,0.0,0.0*1,1,0.2,-0.735,0.635*1,1,0.2,0.735,0.635*1,1,0.2,0.735,-0.635*1,1,0.2,-0.735,-0.635*%
%ADD11ROUNDEDRECT11*%
%AMROUNDEDRECT12*20,1,2.0,-1.35,0.0,1.35,0.0,0.0*20,1,1.8,-1.45,0.0,1.45,0.0,0.0*1,1,0.2,-1.35,0.9*1,1,0.2,1.35,0.9*1,1,0.2,1.35,-0.9*1,1,0.2,-1.35,-0.9*%
%ADD12ROUNDEDRECT12*%
%ADD13C,0.01*%
%ADD14C,1.708*%
%ADD15C,2.825*%
%ADD16C,3.2*%
G04 --- APERTURE LIST END --- *
G04 --- BOARD BEGIN --- *
D10*
G04 #@! TO.C,J6*
X42545000Y62865000D03*
X42545000Y65405000D03*
X42545000Y70485000D03*
X42545000Y60325000D03*
X42545000Y40005000D03*
X42545000Y42545000D03*
X42545000Y47625000D03*
X42545000Y52705000D03*
X42545000Y37465000D03*
X42545000Y57785000D03*
X42545000Y67945000D03*
X42545000Y45085000D03*
X42545000Y55245000D03*
X42545000Y50165000D03*
D11*
G04 #@! TO.C,D7*
X59055000Y44840000D03*
X59055000Y49140000D03*
D12*
G04 #@! TO.C,R3*
X50800000Y46060000D03*
X50800000Y50460000D03*
D10*
G04 #@! TO.C,J7*
X62865000Y62865000D03*
X62865000Y65405000D03*
X62865000Y70485000D03*
X62865000Y60325000D03*
X62865000Y40005000D03*
X62865000Y42545000D03*
X62865000Y47625000D03*
X62865000Y52705000D03*
X62865000Y37465000D03*
X62865000Y57785000D03*
X62865000Y67945000D03*
X62865000Y45085000D03*
X62865000Y55245000D03*
X62865000Y50165000D03*
D11*
G04 #@! TO.C,D4*
X46355000Y39125000D03*
X46355000Y43425000D03*
D13*
G04 #@! TO.C,J1*
G36*
X60533800Y24943800D02*
X60533800Y25896200D01*
X61886200Y25896200D01*
X61886200Y24943800D01*
X60533800Y24943800D01*
G37*
G36*
X62353800Y21543800D02*
X62353800Y22996200D01*
X64656200Y22996200D01*
X64656200Y21543800D01*
X62353800Y21543800D01*
G37*
G36*
X60533800Y23693800D02*
X60533800Y24646200D01*
X61886200Y24646200D01*
X61886200Y23693800D01*
X60533800Y23693800D01*
G37*
G36*
X60533800Y26193800D02*
X60533800Y27146200D01*
X61886200Y27146200D01*
X61886200Y26193800D01*
X60533800Y26193800D01*
G37*
G36*
X62353800Y30343800D02*
X62353800Y31796200D01*
X64656200Y31796200D01*
X64656200Y30343800D01*
X62353800Y30343800D01*
G37*
G36*
X60533800Y27443800D02*
X60533800Y28396200D01*
X61886200Y28396200D01*
X61886200Y27443800D01*
X60533800Y27443800D01*
G37*
G36*
X60533800Y28693800D02*
X60533800Y29646200D01*
X61886200Y29646200D01*
X61886200Y28693800D01*
X60533800Y28693800D01*
G37*
G04 #@! TO.C,J2*
G36*
X44876200Y28396200D02*
X44876200Y27443800D01*
X43523800Y27443800D01*
X43523800Y28396200D01*
X44876200Y28396200D01*
G37*
G36*
X43056200Y31796200D02*
X43056200Y30343800D01*
X40753800Y30343800D01*
X40753800Y31796200D01*
X43056200Y31796200D01*
G37*
G36*
X44876200Y29646200D02*
X44876200Y28693800D01*
X43523800Y28693800D01*
X43523800Y29646200D01*
X44876200Y29646200D01*
G37*
G36*
X44876200Y27146200D02*
X44876200Y26193800D01*
X43523800Y26193800D01*
X43523800Y27146200D01*
X44876200Y27146200D01*
G37*
G36*
X43056200Y22996200D02*
X43056200Y21543800D01*
X40753800Y21543800D01*
X40753800Y22996200D01*
X43056200Y22996200D01*
G37*
G36*
X44876200Y25896200D02*
X44876200Y24943800D01*
X43523800Y24943800D01*
X43523800Y25896200D01*
X44876200Y25896200D01*
G37*
G36*
X44876200Y24646200D02*
X44876200Y23693800D01*
X43523800Y23693800D01*
X43523800Y24646200D01*
X44876200Y24646200D01*
G37*
D11*
G04 #@! TO.C,D3*
X50800000Y39125000D03*
X50800000Y43425000D03*
D10*
G04 #@! TO.C,J8*
X52705000Y34925000D03*
X45085000Y34925000D03*
X47625000Y34925000D03*
X55245000Y34925000D03*
X42545000Y34925000D03*
X50165000Y34925000D03*
X57785000Y34925000D03*
X60325000Y34925000D03*
X62865000Y34925000D03*
D14*
G04 #@! TO.C,J4*
X58220000Y71150000D03*
X47220000Y71150000D03*
D15*
X50220000Y61150000D03*
X55220000Y61150000D03*
D11*
G04 #@! TO.C,D8*
X54610000Y44840000D03*
X54610000Y49140000D03*
D10*
G04 #@! TO.C,S1*
X52705000Y54610000D03*
X55245000Y54610000D03*
X50165000Y54610000D03*
D16*
G04 #@! TD*
X35800000Y41000000D03*
X36000000Y72000000D03*
G04 --- BOARD END --- *
G04 #@! TF.MD5,b7b547023df6db28fb2bf438e7205399*
M02*
