G04 --- HEADER BEGIN --- *
G04 #@! TF.GenerationSoftware,LibrePCB,LibrePCB,1.1.0*
G04 #@! TF.CreationDate,2024-04-23T21:01:02*
G04 #@! TF.ProjectId,motherboard (Version 2),e7e7bca0-b6b9-4684-b626-93943a2f5169,version_2*
G04 #@! TF.Part,Single*
G04 #@! TF.SameCoordinates*
G04 #@! TF.FileFunction,Copper,L1,Top*
G04 #@! TF.FilePolarity,Positive*
%FSLAX66Y66*%
%MOMM*%
G01*
G75*
G04 --- HEADER END --- *
G04 --- APERTURE LIST BEGIN --- *
G04 #@! TA.AperFunction,ComponentPad*
%ADD10C,1.8796*%
G04 #@! TA.AperFunction,SMDPad,CuDef*
%ADD11R,1.47X1.27*%
%ADD12R,3.2X1.5*%
%ADD13R,0.8X1.2*%
%ADD14R,1.3X2.15*%
%ADD15R,2.15X1.3*%
%ADD16R,1.2X0.8*%
G04 #@! TA.AperFunction,ComponentPad*
%ADD17C,1.508*%
%ADD18C,2.625*%
G04 #@! TA.AperFunction,SMDPad,CuDef*
%ADD19R,2.7X1.8*%
%ADD20R,2.1X1.4*%
G04 #@! TA.AperFunction,Conductor*
%ADD21C,0.5*%
G04 #@! TA.AperFunction,ViaPad*
%ADD22C,0.7*%
G04 #@! TA.AperFunction,Conductor*
%ADD23C,0.2*%
%ADD24C,0.01*%
G04 #@! TD*
G04 --- APERTURE LIST END --- *
G04 --- BOARD BEGIN --- *
D10*
G04 #@! TO.N,PB1*
G04 #@! TO.C,J6*
G04 #@! TO.P,J6,11,11*
X42545000Y62865000D03*
G04 #@! TO.N,PB0*
G04 #@! TO.P,J6,12,12*
X42545000Y65405000D03*
G04 #@! TO.N,VCC*
G04 #@! TO.P,J6,14,14*
X42545000Y70485000D03*
G04 #@! TO.N,PB2*
G04 #@! TO.P,J6,10,10*
X42545000Y60325000D03*
G04 #@! TO.N,PB6*
G04 #@! TO.P,J6,2,2*
X42545000Y40005000D03*
G04 #@! TO.N,PD0*
G04 #@! TO.P,J6,3,3*
X42545000Y42545000D03*
G04 #@! TO.N,PD3*
G04 #@! TO.P,J6,5,5*
X42545000Y47625000D03*
G04 #@! TO.N,PD1*
G04 #@! TO.P,J6,7,7*
X42545000Y52705000D03*
G04 #@! TO.N,PB5*
G04 #@! TO.P,J6,1,1*
X42545000Y37465000D03*
G04 #@! TO.N,PB3*
G04 #@! TO.P,J6,9,9*
X42545000Y57785000D03*
G04 #@! TO.N,PE6*
G04 #@! TO.P,J6,13,13*
X42545000Y67945000D03*
G04 #@! TO.N,PB7*
G04 #@! TO.P,J6,4,4*
X42545000Y45085000D03*
G04 #@! TO.N,RST*
G04 #@! TO.P,J6,8,8*
X42545000Y55245000D03*
G04 #@! TO.N,PD2*
G04 #@! TO.P,J6,6,6*
X42545000Y50165000D03*
D11*
G04 #@! TO.N,BAT*
G04 #@! TO.C,D2*
G04 #@! TO.P,D2,C,C*
X50800000Y43425000D03*
G04 #@! TO.N,MA2*
G04 #@! TO.P,D2,A,A*
X50800000Y39125000D03*
D12*
G04 #@! TO.N,N$5*
G04 #@! TO.C,F1*
G04 #@! TO.P,F1,1,1*
X54880000Y69870000D03*
G04 #@! TO.N,BAT*
G04 #@! TO.P,F1,2,2*
X54880000Y65670000D03*
D10*
G04 #@! TO.N,PD7*
G04 #@! TO.C,J7*
G04 #@! TO.P,J7,11,11*
X62865000Y62865000D03*
G04 #@! TO.N,PD6*
G04 #@! TO.P,J7,12,12*
X62865000Y65405000D03*
G04 #@! TO.N,GND*
G04 #@! TO.P,J7,14,14*
X62865000Y70485000D03*
G04 #@! TO.N,PB4*
G04 #@! TO.P,J7,10,10*
X62865000Y60325000D03*
G04 #@! TO.N,PF0*
G04 #@! TO.P,J7,2,2*
X62865000Y40005000D03*
G04 #@! TO.N,PF1*
G04 #@! TO.P,J7,3,3*
X62865000Y42545000D03*
G04 #@! TO.N,PF5*
G04 #@! TO.P,J7,5,5*
X62865000Y47625000D03*
G04 #@! TO.N,PF7*
G04 #@! TO.P,J7,7,7*
X62865000Y52705000D03*
G04 #@! TO.N,GND*
G04 #@! TO.P,J7,1,1*
X62865000Y37465000D03*
G04 #@! TO.N,PC6*
G04 #@! TO.P,J7,9,9*
X62865000Y57785000D03*
G04 #@! TO.N,PD4*
G04 #@! TO.P,J7,13,13*
X62865000Y67945000D03*
G04 #@! TO.N,PF4*
G04 #@! TO.P,J7,4,4*
X62865000Y45085000D03*
G04 #@! TO.N,PC7*
G04 #@! TO.P,J7,8,8*
X62865000Y55245000D03*
G04 #@! TO.N,PF6*
G04 #@! TO.P,J7,6,6*
X62865000Y50165000D03*
D13*
G04 #@! TO.N,PB4*
G04 #@! TO.C,J3*
G04 #@! TO.P,J3,9,9*
X56455000Y25680000D03*
D14*
G04 #@! TO.N,GND*
G04 #@! TO.P,J3,S1,SHIELD1*
X60855000Y23385000D03*
D13*
G04 #@! TO.N,PF7*
G04 #@! TO.P,J3,8,8*
X55205000Y25680000D03*
G04 #@! TO.N,PD7*
G04 #@! TO.P,J3,10,10*
X57705000Y25680000D03*
D14*
G04 #@! TO.N,GND*
G04 #@! TO.P,J3,S2,SHIELD2*
X44555000Y23385000D03*
D13*
G04 #@! TO.N,VCC*
G04 #@! TO.P,J3,1,1*
X46455000Y25680000D03*
G04 #@! TO.N,GND*
G04 #@! TO.P,J3,2,2*
X47705000Y25680000D03*
G04 #@! TO.N,PF6*
G04 #@! TO.P,J3,7,7*
X53955000Y25680000D03*
G04 #@! TO.N,PF5*
G04 #@! TO.P,J3,6,6*
X52705000Y25680000D03*
G04 #@! TO.N,PF4*
G04 #@! TO.P,J3,5,5*
X51455000Y25680000D03*
G04 #@! TO.N,PD6*
G04 #@! TO.P,J3,11,11*
X58955000Y25680000D03*
G04 #@! TO.N,PF1*
G04 #@! TO.P,J3,4,4*
X50205000Y25680000D03*
G04 #@! TO.N,PF0*
G04 #@! TO.P,J3,3,3*
X48955000Y25680000D03*
D10*
G04 #@! TO.N,MA1*
G04 #@! TO.C,J8*
G04 #@! TO.P,J8,5,5*
X52705000Y34925000D03*
G04 #@! TO.N,GND*
G04 #@! TO.P,J8,2,2*
X45085000Y34925000D03*
G04 #@! TO.N,BAT*
G04 #@! TO.P,J8,3,3*
X47625000Y34925000D03*
G04 #@! TO.N,MA2*
G04 #@! TO.P,J8,6,6*
X55245000Y34925000D03*
G04 #@! TO.N,GND*
G04 #@! TO.P,J8,1,1*
X42545000Y34925000D03*
G04 #@! TO.N,VCC*
G04 #@! TO.P,J8,4,4*
X50165000Y34925000D03*
G04 #@! TO.N,MB1*
G04 #@! TO.P,J8,7,7*
X57785000Y34925000D03*
G04 #@! TO.N,MB2*
G04 #@! TO.P,J8,8,8*
X60325000Y34925000D03*
G04 #@! TO.N,GND*
G04 #@! TO.P,J8,9,9*
X62865000Y34925000D03*
D11*
G04 #@! TO.N,BAT*
G04 #@! TO.C,D9*
G04 #@! TO.P,D9,C,C*
X54610000Y49140000D03*
G04 #@! TO.N,MB1*
G04 #@! TO.P,D9,A,A*
X54610000Y44840000D03*
D15*
G04 #@! TO.N,GND*
G04 #@! TO.C,J5*
G04 #@! TO.P,J5,S1,SHIELD1*
X36285000Y50210000D03*
D16*
G04 #@! TO.P,J5,5,5*
X38580000Y52110000D03*
G04 #@! TO.N,N$8*
G04 #@! TO.P,J5,2,2*
X38580000Y55860000D03*
G04 #@! TO.N,VCC*
G04 #@! TO.P,J5,1,1*
X38580000Y57110000D03*
G04 #@! TO.N,RST*
G04 #@! TO.P,J5,4,4*
X38580000Y53360000D03*
D15*
G04 #@! TO.N,GND*
G04 #@! TO.P,J5,S2,SHIELD2*
X36285000Y59010000D03*
D16*
G04 #@! TO.N,PB3*
G04 #@! TO.P,J5,3,3*
X38580000Y54610000D03*
D17*
G04 #@! TO.N,N/C*
G04 #@! TO.C,J4*
G04 #@! TO.P,J4,3*
X58220000Y71150000D03*
G04 #@! TO.P,J4,4*
X47220000Y71150000D03*
D18*
G04 #@! TO.N,GND*
G04 #@! TO.P,J4,-,-*
X50220000Y61150000D03*
G04 #@! TO.N,N$1*
G04 #@! TO.P,J4,+,+*
X55220000Y61150000D03*
D10*
G04 #@! TO.C,S1*
G04 #@! TO.P,S1,2,P*
X52705000Y54610000D03*
G04 #@! TO.N,N/C*
G04 #@! TO.P,S1,3,S*
X55245000Y54610000D03*
G04 #@! TO.N,N$4*
G04 #@! TO.P,S1,1,O*
X50165000Y54610000D03*
D19*
G04 #@! TO.N,PD4*
G04 #@! TO.C,R2*
G04 #@! TO.P,R2,2,2*
X60325000Y58715000D03*
G04 #@! TO.N,BAT*
G04 #@! TO.P,R2,1,1*
X60325000Y54315000D03*
D11*
G04 #@! TO.C,D5*
G04 #@! TO.P,D5,C,C*
X46355000Y43425000D03*
G04 #@! TO.N,MA1*
G04 #@! TO.P,D5,A,A*
X46355000Y39125000D03*
G04 #@! TO.N,BAT*
G04 #@! TO.C,D6*
G04 #@! TO.P,D6,C,C*
X59055000Y49140000D03*
G04 #@! TO.N,MB2*
G04 #@! TO.P,D6,A,A*
X59055000Y44840000D03*
D20*
G04 #@! TO.N,N$5*
G04 #@! TO.C,D1*
G04 #@! TO.P,D1,K,K*
X50270000Y70170000D03*
G04 #@! TO.N,N$4*
G04 #@! TO.P,D1,A,A*
X50270000Y65770000D03*
D19*
G04 #@! TO.N,N$8*
G04 #@! TO.C,R1*
G04 #@! TO.P,R1,2,2*
X39065000Y61665000D03*
G04 #@! TO.N,PB1*
G04 #@! TO.P,R1,1,1*
X39065000Y66065000D03*
D21*
G04 #@! TD.C*
G04 #@! TD.P*
G04 #@! TO.N,PD4*
X60325000Y64770000D02*
X62865000Y67945000D01*
X60325000Y58715000D02*
X60325000Y64770000D01*
G04 #@! TO.N,PF4*
X51455000Y26690000D02*
X55010000Y30880000D01*
X66200000Y32780000D02*
X66200000Y43800000D01*
X63700000Y30880000D02*
X66200000Y32780000D01*
X55010000Y30880000D02*
X63700000Y30880000D01*
X66200000Y43800000D02*
X64915000Y45085000D01*
X64915000Y45085000D02*
X62865000Y45085000D01*
X51455000Y25680000D02*
X51455000Y26690000D01*
G04 #@! TO.N,N$1*
X55020000Y57325000D02*
X52705000Y54610000D01*
X55220000Y61150000D02*
X55020000Y57325000D01*
G04 #@! TO.N,MA2*
X51045000Y39125000D02*
X55245000Y34925000D01*
X50800000Y39125000D02*
X51045000Y39125000D01*
G04 #@! TO.N,MA1*
X46355000Y39125000D02*
X48505000Y39125000D01*
X48505000Y39125000D02*
X52705000Y34925000D01*
D22*
G04 #@! TO.N,GND*
X53600000Y23600000D03*
X49400000Y23600000D03*
D21*
X53600000Y23600000D02*
X49400000Y23600000D01*
D22*
G04 #@! TO.N,PD7*
X38400000Y47800000D03*
D21*
X57705000Y25680000D02*
X57800000Y25585000D01*
X38400000Y47800000D02*
X39400000Y46800000D01*
X57800000Y24200000D02*
X55400000Y21800000D01*
X40200000Y24200000D02*
X40200000Y33800000D01*
X39400000Y36200000D02*
X39400000Y34800000D01*
X57800000Y25585000D02*
X57800000Y24200000D01*
X38400000Y47800000D02*
X38400000Y47800000D01*
X55400000Y21800000D02*
X42600000Y21800000D01*
X42600000Y21800000D02*
X40200000Y24200000D01*
X40200000Y33800000D02*
X39400000Y34800000D01*
X39400000Y36200000D02*
X39400000Y37000000D01*
X39400000Y37000000D02*
X39400000Y46800000D01*
G04 #@! TO.N,GND*
X38580000Y52110000D02*
X38185000Y52110000D01*
X36150000Y59010000D02*
X36125000Y57785000D01*
X41005000Y50165000D02*
X41005000Y36065000D01*
X36125000Y57785000D02*
X36125000Y51570000D01*
X36285000Y59010000D02*
X36150000Y59010000D01*
X38185000Y52110000D02*
X36285000Y50210000D01*
X38580000Y51590000D02*
X41005000Y50165000D01*
X38580000Y52110000D02*
X38580000Y51590000D01*
X41005000Y36065000D02*
X42545000Y34925000D01*
X38580000Y52110000D02*
X38580000Y52110000D01*
X36125000Y51570000D02*
X36285000Y50210000D01*
G04 #@! TO.N,N$4*
X52705000Y57115000D02*
X50165000Y54610000D01*
X50270000Y64030000D02*
X52705000Y62795000D01*
X50270000Y65770000D02*
X50270000Y64030000D01*
X52705000Y57115000D02*
X52705000Y62795000D01*
D22*
G04 #@! TO.N,PF7*
X65600000Y27600000D03*
D21*
X55205000Y25680000D02*
X55205000Y27005000D01*
X65600000Y27600000D02*
X55800000Y27600000D01*
X55205000Y27005000D02*
X55800000Y27600000D01*
D22*
G04 #@! TO.N,GND*
X59200000Y22400000D03*
D21*
X59200000Y22400000D02*
X59870000Y22400000D01*
X59870000Y22400000D02*
X60855000Y23385000D01*
D22*
G04 #@! TO.N,VCC*
X54750000Y22930000D03*
D21*
X54740000Y23140000D02*
X54750000Y22930000D01*
G04 #@! TO.N,N$5*
X50270000Y70170000D02*
X54580000Y70170000D01*
X54580000Y70170000D02*
X54880000Y69870000D01*
D22*
G04 #@! TO.N,VCC*
X47660000Y23340000D03*
X45800000Y27800000D03*
D21*
G04 #@! TO.N,PB1*
X39065000Y66065000D02*
X42265000Y62865000D01*
X42265000Y62865000D02*
X42545000Y62865000D01*
D22*
G04 #@! TO.N,PF6*
X64600000Y28400000D03*
D21*
X53955000Y25680000D02*
X53955000Y26955000D01*
X64600000Y28400000D02*
X55000000Y28400000D01*
X53955000Y26955000D02*
X55000000Y28400000D01*
D22*
G04 #@! TO.N,GND*
X46400000Y22600000D03*
D21*
X45340000Y22600000D02*
X44555000Y23385000D01*
X46400000Y22600000D02*
X45340000Y22600000D01*
D22*
X55990000Y30010000D03*
X64200000Y30000000D03*
D21*
X64200000Y30000000D02*
X55990000Y30010000D01*
G04 #@! TO.N,RST*
X40660000Y53360000D02*
X42545000Y55245000D01*
X38580000Y53360000D02*
X40660000Y53360000D01*
G04 #@! TO.N,PB3*
X38580000Y54610000D02*
X39370000Y54610000D01*
X39370000Y54610000D02*
X42545000Y57785000D01*
G04 #@! TO.N,MB2*
X60800000Y35400000D02*
X60325000Y34925000D01*
X60560000Y44840000D02*
X60800000Y44600000D01*
X60800000Y44600000D02*
X60800000Y35400000D01*
X59055000Y44840000D02*
X60560000Y44840000D01*
D22*
G04 #@! TO.N,PD6*
X38600000Y36800000D03*
D21*
X42400000Y21000000D02*
X39400000Y24000000D01*
X38600000Y36800000D02*
X38600000Y34600000D01*
X58955000Y25680000D02*
X58955000Y24155000D01*
X58955000Y24155000D02*
X55800000Y21000000D01*
X39400000Y24000000D02*
X39400000Y33600000D01*
X39400000Y33600000D02*
X38600000Y34600000D01*
X55800000Y21000000D02*
X42400000Y21000000D01*
G04 #@! TO.N,PF0*
X54410000Y32820000D02*
X54430000Y32800000D01*
X64400000Y39400000D02*
X63795000Y40005000D01*
X64400000Y33600000D02*
X64400000Y39400000D01*
X54430000Y32800000D02*
X63400000Y32800000D01*
X48955000Y25680000D02*
X48955000Y26730000D01*
X63400000Y32800000D02*
X64400000Y33600000D01*
X48955000Y26730000D02*
X54410000Y32820000D01*
X63795000Y40005000D02*
X62865000Y40005000D01*
D22*
G04 #@! TO.N,PB4*
X36800000Y49000000D03*
D21*
X40200000Y35200000D02*
X40200000Y36200000D01*
X55800000Y24600000D02*
X56455000Y25055000D01*
X40200000Y36200000D02*
X40200000Y37800000D01*
X41000000Y34400000D02*
X40200000Y35200000D01*
X41000000Y29600000D02*
X41000000Y34400000D01*
X45800000Y24600000D02*
X41000000Y29600000D01*
X36800000Y49000000D02*
X38400000Y49000000D01*
X40200000Y37800000D02*
X40200000Y47200000D01*
X55800000Y24600000D02*
X45800000Y24600000D01*
X56455000Y25055000D02*
X56455000Y25680000D01*
X38400000Y49000000D02*
X40200000Y47200000D01*
D22*
G04 #@! TO.N,GND*
X48000000Y27800000D03*
D23*
X48000000Y25975000D02*
X47705000Y25680000D01*
X48000000Y27800000D02*
X48000000Y25975000D01*
D21*
G04 #@! TO.N,MB1*
X53840000Y44840000D02*
X53000000Y44000000D01*
X54610000Y44840000D02*
X53840000Y44840000D01*
X56000000Y37000000D02*
X56000000Y36710000D01*
X53000000Y39000000D02*
X53000000Y44000000D01*
X56000000Y37000000D02*
X55000000Y37000000D01*
X55000000Y37000000D02*
X53000000Y39000000D01*
X56000000Y36710000D02*
X57785000Y34925000D01*
D22*
G04 #@! TO.N,PF5*
X63400000Y29200000D03*
D21*
X52705000Y26670000D02*
X54645000Y29210000D01*
X54645000Y29210000D02*
X63400000Y29200000D01*
X63975000Y47625000D02*
X62865000Y47625000D01*
X52705000Y25680000D02*
X52705000Y26670000D01*
G04 #@! TO.N,N$8*
X38100000Y58420000D02*
X39065000Y59385000D01*
X38560000Y55880000D02*
X38580000Y55860000D01*
X37030000Y56515000D02*
X37665000Y55880000D01*
X39065000Y59385000D02*
X39065000Y61665000D01*
X38100000Y58420000D02*
X37030000Y57150000D01*
X37665000Y55880000D02*
X38560000Y55880000D01*
X37030000Y57150000D02*
X37030000Y56515000D01*
G04 #@! TO.N,BAT*
X54880000Y64230000D02*
X57585000Y62360000D01*
X52940000Y49140000D02*
X50800000Y47000000D01*
X60325000Y50410000D02*
X59055000Y49140000D01*
X44800000Y40600000D02*
X44800000Y37750000D01*
X46355000Y43425000D02*
X46355000Y42155000D01*
X50800000Y43425000D02*
X50800000Y43425000D01*
X55200000Y49140000D02*
X59055000Y49140000D01*
X55200000Y49140000D02*
X52940000Y49140000D01*
X55200000Y49140000D02*
X54610000Y49140000D01*
X50800000Y43425000D02*
X50800000Y47000000D01*
X44800000Y37750000D02*
X47625000Y34925000D01*
X46355000Y43425000D02*
X50800000Y43425000D01*
X57585000Y62360000D02*
X57585000Y56055000D01*
X60325000Y54315000D02*
X60325000Y50410000D01*
X54880000Y65670000D02*
X54880000Y64230000D01*
X57585000Y56055000D02*
X60325000Y54315000D01*
X46355000Y42155000D02*
X44800000Y40600000D01*
G04 #@! TO.N,PF1*
X65370000Y33255000D02*
X65370000Y40875000D01*
X65370000Y40875000D02*
X63700000Y42545000D01*
X54610000Y31750000D02*
X63500000Y31750000D01*
X63500000Y31750000D02*
X65370000Y33255000D01*
X50205000Y25680000D02*
X50205000Y26710000D01*
X50205000Y26710000D02*
X54610000Y31750000D01*
X63700000Y42545000D02*
X62865000Y42545000D01*
D24*
G04 #@! TA.AperFunction,Conductor*
G04 #@! TO.N,VCC*
G36*
X33300000Y40140313D02*
X33321913Y40077844D01*
X35796435Y36984691D01*
X35796435Y39200255D01*
X35547399Y39218066D01*
X35540344Y39219080D01*
X35296364Y39272155D01*
X35289538Y39274160D01*
X35055596Y39361415D01*
X35049123Y39364371D01*
X34829977Y39484035D01*
X34823988Y39487884D01*
X34624110Y39637510D01*
X34618727Y39642175D01*
X34442175Y39818727D01*
X34437510Y39824110D01*
X34287884Y40023988D01*
X34284035Y40029977D01*
X34164371Y40249123D01*
X34161415Y40255596D01*
X34074160Y40489538D01*
X34072155Y40496364D01*
X34019080Y40740344D01*
X34018066Y40747399D01*
X34000255Y40996435D01*
X34000255Y41003565D01*
X34018066Y41252601D01*
X34019080Y41259656D01*
X34072155Y41503636D01*
X34074160Y41510462D01*
X34161415Y41744404D01*
X34164371Y41750877D01*
X34284035Y41970023D01*
X34287884Y41976012D01*
X34437510Y42175890D01*
X34442175Y42181273D01*
X34618727Y42357825D01*
X34624110Y42362490D01*
X34823988Y42512116D01*
X34829977Y42515965D01*
X35049123Y42635629D01*
X35055596Y42638585D01*
X35289538Y42725840D01*
X35296364Y42727845D01*
X35540344Y42780920D01*
X35547399Y42781934D01*
X35796435Y42799745D01*
X35803565Y42799745D01*
X36052601Y42781934D01*
X36059656Y42780920D01*
X36303636Y42727845D01*
X36310462Y42725840D01*
X36544404Y42638585D01*
X36550877Y42635629D01*
X36770023Y42515965D01*
X36776012Y42512116D01*
X36975890Y42362490D01*
X36981273Y42357825D01*
X37157825Y42181273D01*
X37162490Y42175890D01*
X37312116Y41976012D01*
X37315965Y41970023D01*
X37435629Y41750877D01*
X37438585Y41744404D01*
X37525840Y41510462D01*
X37527845Y41503636D01*
X37580920Y41259656D01*
X37581934Y41252601D01*
X37599745Y41003565D01*
X37599745Y40996435D01*
X37581934Y40747399D01*
X37580920Y40740344D01*
X37527845Y40496364D01*
X37525840Y40489538D01*
X37438585Y40255596D01*
X37435629Y40249123D01*
X37315965Y40029977D01*
X37312116Y40023988D01*
X37162490Y39824110D01*
X37157825Y39818727D01*
X36981273Y39642175D01*
X36975890Y39637510D01*
X36776012Y39487884D01*
X36770023Y39484035D01*
X36550877Y39364371D01*
X36544404Y39361415D01*
X36310462Y39274160D01*
X36303636Y39272155D01*
X36059656Y39219080D01*
X36052601Y39218066D01*
X35803565Y39200255D01*
X35796435Y39200255D01*
X35796435Y36984691D01*
X37231401Y35190984D01*
X37236424Y35183373D01*
X37281790Y35098710D01*
X37287086Y35082899D01*
X37299406Y35003816D01*
X37300000Y34996140D01*
X37300000Y21165685D01*
X37329289Y21094975D01*
X38094975Y20329289D01*
X38165685Y20300000D01*
X42162297Y20300000D01*
X42221624Y20319500D01*
X42257813Y20370395D01*
X42256751Y20432836D01*
X42200565Y20492386D01*
X42131055Y20521178D01*
X42119800Y20527676D01*
X42016510Y20606933D01*
X42012129Y20611362D01*
X42009448Y20612735D01*
X39012011Y23610172D01*
X39011362Y23612129D01*
X39006933Y23616510D01*
X38927676Y23719800D01*
X38921178Y23731055D01*
X38871249Y23851594D01*
X38867885Y23864150D01*
X38850429Y23996744D01*
X38850000Y24003281D01*
X38850000Y33371992D01*
X38828087Y33434461D01*
X38172571Y34253856D01*
X38168831Y34259216D01*
X38151871Y34287265D01*
X38145632Y34296400D01*
X38127675Y34319801D01*
X38121179Y34331052D01*
X38114911Y34346184D01*
X38108097Y34359656D01*
X38099621Y34373675D01*
X38094407Y34385576D01*
X38086196Y34413912D01*
X38082535Y34424350D01*
X38071248Y34451597D01*
X38067887Y34464143D01*
X38065750Y34480377D01*
X38062653Y34495158D01*
X38058095Y34510887D01*
X38056136Y34523747D01*
X38055539Y34553233D01*
X38054705Y34564260D01*
X38050426Y34596761D01*
X38050000Y34603270D01*
X38050000Y36429758D01*
X38032300Y36486562D01*
X38027889Y36492952D01*
X38022310Y36503583D01*
X37971031Y36638793D01*
X37968159Y36650446D01*
X37950729Y36793996D01*
X37950729Y36806004D01*
X37968159Y36949554D01*
X37971031Y36961207D01*
X38022310Y37096417D01*
X38027888Y37107045D01*
X38110034Y37226055D01*
X38117994Y37235040D01*
X38226230Y37330928D01*
X38236113Y37337751D01*
X38364149Y37404949D01*
X38375385Y37409210D01*
X38515774Y37443812D01*
X38527703Y37445261D01*
X38672297Y37445261D01*
X38684226Y37443812D01*
X38726070Y37433499D01*
X38788340Y37438234D01*
X38835657Y37478990D01*
X38850000Y37530592D01*
X38850000Y46530762D01*
X38820711Y46601472D01*
X38269424Y47152759D01*
X38222645Y47179142D01*
X38175385Y47190790D01*
X38164149Y47195051D01*
X38036113Y47262249D01*
X38026230Y47269072D01*
X37917994Y47364960D01*
X37910034Y47373945D01*
X37827888Y47492955D01*
X37822310Y47503583D01*
X37771031Y47638793D01*
X37768159Y47650446D01*
X37750729Y47793996D01*
X37750729Y47806004D01*
X37768159Y47949554D01*
X37771031Y47961207D01*
X37822310Y48096417D01*
X37827888Y48107045D01*
X37910034Y48226055D01*
X37917994Y48235040D01*
X37963270Y48275151D01*
X37994746Y48329088D01*
X37988084Y48391181D01*
X37945883Y48437214D01*
X37896958Y48450000D01*
X37165196Y48450000D01*
X37118724Y48438546D01*
X37035851Y48395051D01*
X37024615Y48390790D01*
X36884226Y48356188D01*
X36872297Y48354739D01*
X36727703Y48354739D01*
X36715774Y48356188D01*
X36575385Y48390790D01*
X36564149Y48395051D01*
X36436113Y48462249D01*
X36426230Y48469072D01*
X36317994Y48564960D01*
X36310034Y48573945D01*
X36227888Y48692955D01*
X36222310Y48703583D01*
X36171031Y48838793D01*
X36168159Y48850446D01*
X36150729Y48993996D01*
X36150729Y49006004D01*
X36167964Y49147947D01*
X36155757Y49209193D01*
X36109595Y49251253D01*
X36068694Y49260000D01*
X35213931Y49260000D01*
X35206118Y49260615D01*
X35125069Y49273452D01*
X35110282Y49278256D01*
X35040674Y49313723D01*
X35028101Y49322858D01*
X34972858Y49378101D01*
X34963723Y49390674D01*
X34928256Y49460282D01*
X34923452Y49475069D01*
X34910615Y49556118D01*
X34910000Y49563931D01*
X34910000Y49960001D01*
X34890500Y50019328D01*
X34810001Y50060000D01*
X33926013Y50060000D01*
X33921248Y50061566D01*
X33910000Y50083828D01*
X33910000Y52243987D01*
X33911566Y52248752D01*
X33933828Y52260000D01*
X35475001Y52260000D01*
X35534328Y52279500D01*
X35575000Y52359999D01*
X35575000Y56860001D01*
X35555500Y56919328D01*
X35475001Y56960000D01*
X33926013Y56960000D01*
X33921248Y56961566D01*
X33910000Y56983828D01*
X33910000Y59143987D01*
X33911566Y59148752D01*
X33933828Y59160000D01*
X34810001Y59160000D01*
X34869328Y59179500D01*
X34910000Y59259999D01*
X34910000Y59656069D01*
X34910615Y59663882D01*
X34923452Y59744931D01*
X34928256Y59759718D01*
X34963723Y59829326D01*
X34972858Y59841899D01*
X35028101Y59897142D01*
X35040674Y59906277D01*
X35110282Y59941744D01*
X35125069Y59946548D01*
X35206118Y59959385D01*
X35213931Y59960000D01*
X35996435Y59960000D01*
X35996435Y70200255D01*
X35747399Y70218066D01*
X35740344Y70219080D01*
X35496364Y70272155D01*
X35489538Y70274160D01*
X35255596Y70361415D01*
X35249123Y70364371D01*
X35029977Y70484035D01*
X35023988Y70487884D01*
X34824110Y70637510D01*
X34818727Y70642175D01*
X34642175Y70818727D01*
X34637510Y70824110D01*
X34487884Y71023988D01*
X34484035Y71029977D01*
X34364371Y71249123D01*
X34361415Y71255596D01*
X34274160Y71489538D01*
X34272155Y71496364D01*
X34219080Y71740344D01*
X34218066Y71747399D01*
X34200255Y71996435D01*
X34200255Y72003565D01*
X34218066Y72252601D01*
X34219080Y72259656D01*
X34272155Y72503636D01*
X34274160Y72510462D01*
X34361415Y72744404D01*
X34364371Y72750877D01*
X34484035Y72970023D01*
X34487884Y72976012D01*
X34637510Y73175890D01*
X34642175Y73181273D01*
X34818727Y73357825D01*
X34824110Y73362490D01*
X35023988Y73512116D01*
X35029977Y73515965D01*
X35249123Y73635629D01*
X35255596Y73638585D01*
X35489538Y73725840D01*
X35496364Y73727845D01*
X35740344Y73780920D01*
X35747399Y73781934D01*
X35996435Y73799745D01*
X36003565Y73799745D01*
X36252601Y73781934D01*
X36259656Y73780920D01*
X36503636Y73727845D01*
X36510462Y73725840D01*
X36744404Y73638585D01*
X36750877Y73635629D01*
X36970023Y73515965D01*
X36976012Y73512116D01*
X37175890Y73362490D01*
X37181273Y73357825D01*
X37357825Y73181273D01*
X37362490Y73175890D01*
X37512116Y72976012D01*
X37515965Y72970023D01*
X37635629Y72750877D01*
X37638585Y72744404D01*
X37725840Y72510462D01*
X37727845Y72503636D01*
X37780920Y72259656D01*
X37781934Y72252601D01*
X37799745Y72003565D01*
X37799745Y71996435D01*
X37781934Y71747399D01*
X37780920Y71740344D01*
X37727845Y71496364D01*
X37725840Y71489538D01*
X37638585Y71255596D01*
X37635629Y71249123D01*
X37515965Y71029977D01*
X37512116Y71023988D01*
X37362490Y70824110D01*
X37357825Y70818727D01*
X37181273Y70642175D01*
X37175890Y70637510D01*
X36976012Y70487884D01*
X36970023Y70484035D01*
X36750877Y70364371D01*
X36744404Y70361415D01*
X36510462Y70274160D01*
X36503636Y70272155D01*
X36259656Y70219080D01*
X36252601Y70218066D01*
X36003565Y70200255D01*
X35996435Y70200255D01*
X35996435Y59960000D01*
X38415001Y59960000D01*
X38474328Y59979500D01*
X38515000Y60059999D01*
X38515000Y60365001D01*
X38495500Y60424328D01*
X38415001Y60465000D01*
X37718931Y60465000D01*
X37711118Y60465615D01*
X37630069Y60478452D01*
X37615282Y60483256D01*
X37545674Y60518723D01*
X37533101Y60527858D01*
X37477858Y60583101D01*
X37468723Y60595674D01*
X37433256Y60665282D01*
X37428452Y60680069D01*
X37415615Y60761118D01*
X37415000Y60768931D01*
X37415000Y62561069D01*
X37415615Y62568882D01*
X37428452Y62649931D01*
X37433256Y62664718D01*
X37468723Y62734326D01*
X37477858Y62746899D01*
X37533101Y62802142D01*
X37545674Y62811277D01*
X37615282Y62846744D01*
X37630069Y62851548D01*
X37711118Y62864385D01*
X37718931Y62865000D01*
X40411069Y62865000D01*
X40418882Y62864385D01*
X40499931Y62851548D01*
X40514718Y62846744D01*
X40584326Y62811277D01*
X40596899Y62802142D01*
X40652142Y62746899D01*
X40661277Y62734326D01*
X40696744Y62664718D01*
X40701548Y62649931D01*
X40714385Y62568882D01*
X40715000Y62561069D01*
X40715000Y60768931D01*
X40714385Y60761118D01*
X40701548Y60680069D01*
X40696744Y60665282D01*
X40661277Y60595674D01*
X40652142Y60583101D01*
X40596899Y60527858D01*
X40584326Y60518723D01*
X40514718Y60483256D01*
X40499931Y60478452D01*
X40418882Y60465615D01*
X40411069Y60465000D01*
X39714999Y60465000D01*
X39655672Y60445500D01*
X39615000Y60365001D01*
X39615000Y59388270D01*
X39614574Y59381761D01*
X39597115Y59249141D01*
X39593754Y59236599D01*
X39543822Y59116054D01*
X39537324Y59104800D01*
X39455901Y58998687D01*
X39451596Y58993778D01*
X39409289Y58951471D01*
X39380000Y58880761D01*
X39380000Y57770462D01*
X39409289Y57699752D01*
X39417142Y57691899D01*
X39426277Y57679326D01*
X39461744Y57609718D01*
X39466548Y57594931D01*
X39479385Y57513882D01*
X39480000Y57506069D01*
X39480000Y57276018D01*
X39478434Y57271253D01*
X39456172Y57260005D01*
X39180000Y57260005D01*
X39180000Y57510000D01*
X37980000Y57510000D01*
X37980000Y56710000D01*
X39180000Y56710000D01*
X39180000Y56959995D01*
X39463987Y56959995D01*
X39468752Y56958429D01*
X39480000Y56936167D01*
X39480000Y56713931D01*
X39479385Y56706118D01*
X39466548Y56625069D01*
X39461744Y56610282D01*
X39422705Y56533664D01*
X39424920Y56532535D01*
X39409435Y56484322D01*
X39424848Y56437428D01*
X39422705Y56436336D01*
X39461744Y56359718D01*
X39466548Y56344931D01*
X39479385Y56263882D01*
X39480000Y56256069D01*
X39480000Y55739237D01*
X39499500Y55679910D01*
X39550395Y55643721D01*
X39612836Y55644783D01*
X39650709Y55668527D01*
X41331362Y57349180D01*
X41359524Y57404919D01*
X41357244Y57445771D01*
X41325166Y57565490D01*
X41323654Y57574066D01*
X41305581Y57780645D01*
X41305581Y57789355D01*
X41323654Y57995934D01*
X41325165Y58004506D01*
X41378840Y58204823D01*
X41381813Y58212992D01*
X41469461Y58400951D01*
X41473804Y58408473D01*
X41592754Y58578353D01*
X41598343Y58585013D01*
X41744987Y58731657D01*
X41751647Y58737246D01*
X41921527Y58856196D01*
X41929049Y58860539D01*
X42117008Y58948187D01*
X42125177Y58951160D01*
X42152226Y58958408D01*
X42204484Y58992599D01*
X42226268Y59051126D01*
X42209081Y59111164D01*
X42152226Y59151592D01*
X42125177Y59158840D01*
X42117008Y59161813D01*
X41929049Y59249461D01*
X41921527Y59253804D01*
X41751647Y59372754D01*
X41744987Y59378343D01*
X41598343Y59524987D01*
X41592754Y59531647D01*
X41473804Y59701527D01*
X41469461Y59709049D01*
X41381813Y59897008D01*
X41378840Y59905177D01*
X41325165Y60105494D01*
X41323654Y60114066D01*
X41305581Y60320645D01*
X41305581Y60329355D01*
X41323654Y60535934D01*
X41325165Y60544506D01*
X41378840Y60744823D01*
X41381813Y60752992D01*
X41469461Y60940951D01*
X41473804Y60948473D01*
X41592754Y61118353D01*
X41598343Y61125013D01*
X41744987Y61271657D01*
X41751647Y61277246D01*
X41921527Y61396196D01*
X41929049Y61400539D01*
X42117008Y61488187D01*
X42125177Y61491160D01*
X42152226Y61498408D01*
X42204484Y61532599D01*
X42226268Y61591126D01*
X42209081Y61651164D01*
X42152226Y61691592D01*
X42125177Y61698840D01*
X42117008Y61701813D01*
X41929049Y61789461D01*
X41921527Y61793804D01*
X41751647Y61912754D01*
X41744987Y61918343D01*
X41598343Y62064987D01*
X41592754Y62071647D01*
X41473804Y62241527D01*
X41469461Y62249049D01*
X41381813Y62437008D01*
X41378840Y62445177D01*
X41325165Y62645494D01*
X41323654Y62654066D01*
X41305581Y62860648D01*
X41305580Y62869347D01*
X41315776Y62985891D01*
X41286867Y63065316D01*
X39516472Y64835711D01*
X39445762Y64865000D01*
X37718931Y64865000D01*
X37711118Y64865615D01*
X37630069Y64878452D01*
X37615282Y64883256D01*
X37545674Y64918723D01*
X37533101Y64927858D01*
X37477858Y64983101D01*
X37468723Y64995674D01*
X37433256Y65065282D01*
X37428452Y65080069D01*
X37415615Y65161118D01*
X37415000Y65168931D01*
X37415000Y66961069D01*
X37415615Y66968882D01*
X37428452Y67049931D01*
X37433256Y67064718D01*
X37468723Y67134326D01*
X37477858Y67146899D01*
X37533101Y67202142D01*
X37545674Y67211277D01*
X37615282Y67246744D01*
X37630069Y67251548D01*
X37711118Y67264385D01*
X37718931Y67265000D01*
X40411069Y67265000D01*
X40418882Y67264385D01*
X40499931Y67251548D01*
X40514718Y67246744D01*
X40584326Y67211277D01*
X40596899Y67202142D01*
X40652142Y67146899D01*
X40661277Y67134326D01*
X40696744Y67064718D01*
X40701548Y67049931D01*
X40714385Y66968882D01*
X40715000Y66961069D01*
X40715000Y65234238D01*
X40744289Y65163528D01*
X41905608Y64002209D01*
X41961347Y63974047D01*
X42018579Y63982289D01*
X42117012Y64028188D01*
X42125172Y64031159D01*
X42152226Y64038408D01*
X42204484Y64072599D01*
X42226268Y64131126D01*
X42209081Y64191164D01*
X42152226Y64231592D01*
X42125177Y64238840D01*
X42117008Y64241813D01*
X41929049Y64329461D01*
X41921527Y64333804D01*
X41751647Y64452754D01*
X41744987Y64458343D01*
X41598343Y64604987D01*
X41592754Y64611647D01*
X41473804Y64781527D01*
X41469461Y64789049D01*
X41381813Y64977008D01*
X41378840Y64985177D01*
X41325165Y65185494D01*
X41323654Y65194066D01*
X41305581Y65400645D01*
X41305581Y65409355D01*
X41323654Y65615934D01*
X41325165Y65624506D01*
X41378840Y65824823D01*
X41381813Y65832992D01*
X41469461Y66020951D01*
X41473804Y66028473D01*
X41592754Y66198353D01*
X41598343Y66205013D01*
X41744987Y66351657D01*
X41751647Y66357246D01*
X41921527Y66476196D01*
X41929049Y66480539D01*
X42117008Y66568187D01*
X42125177Y66571160D01*
X42152226Y66578408D01*
X42204484Y66612599D01*
X42226268Y66671126D01*
X42209081Y66731164D01*
X42152226Y66771592D01*
X42125177Y66778840D01*
X42117008Y66781813D01*
X41929049Y66869461D01*
X41921527Y66873804D01*
X41751647Y66992754D01*
X41744987Y66998343D01*
X41598343Y67144987D01*
X41592754Y67151647D01*
X41473804Y67321527D01*
X41469461Y67329049D01*
X41381813Y67517008D01*
X41378840Y67525177D01*
X41325165Y67725494D01*
X41323654Y67734066D01*
X41305581Y67940645D01*
X41305581Y67949355D01*
X41323654Y68155934D01*
X41325165Y68164506D01*
X41378840Y68364823D01*
X41381813Y68372992D01*
X41469461Y68560951D01*
X41473804Y68568473D01*
X41570037Y68705909D01*
X41570037Y69728169D01*
X41568962Y69728350D01*
X41563982Y69732740D01*
X41473804Y69861527D01*
X41469461Y69869049D01*
X41381813Y70057008D01*
X41378840Y70065177D01*
X41325165Y70265494D01*
X41323654Y70274066D01*
X41305581Y70480645D01*
X41305581Y70489355D01*
X41323654Y70695934D01*
X41325165Y70704506D01*
X41378840Y70904823D01*
X41381813Y70912992D01*
X41469461Y71100951D01*
X41473804Y71108473D01*
X41561641Y71233917D01*
X41572507Y71242047D01*
X41573597Y71242055D01*
X41579263Y71238598D01*
X41784839Y71033022D01*
X41763585Y71007125D01*
X41676738Y70844646D01*
X41623258Y70668346D01*
X41605200Y70485000D01*
X41623258Y70301654D01*
X41676738Y70125354D01*
X41763585Y69962875D01*
X41784839Y69936978D01*
X41582149Y69734288D01*
X41570037Y69728169D01*
X41570037Y68705909D01*
X41592754Y68738353D01*
X41598343Y68745013D01*
X41744987Y68891657D01*
X41751647Y68897246D01*
X41921527Y69016196D01*
X41929049Y69020539D01*
X42117008Y69108187D01*
X42125177Y69111160D01*
X42152226Y69118408D01*
X42204484Y69152599D01*
X42226268Y69211126D01*
X42209081Y69271164D01*
X42152226Y69311592D01*
X42125177Y69318840D01*
X42117008Y69321813D01*
X41929049Y69409461D01*
X41921527Y69413804D01*
X41796083Y69501641D01*
X41787953Y69512507D01*
X41787945Y69513597D01*
X41791402Y69519263D01*
X41996978Y69724839D01*
X41996978Y71245161D01*
X41794288Y71447851D01*
X41788169Y71459963D01*
X41788350Y71461038D01*
X41792740Y71466018D01*
X41921527Y71556196D01*
X41929049Y71560539D01*
X42117008Y71648187D01*
X42125177Y71651160D01*
X42325494Y71704835D01*
X42334066Y71706346D01*
X42540645Y71724419D01*
X42549355Y71724419D01*
X42755934Y71706346D01*
X42764506Y71704835D01*
X42964823Y71651160D01*
X42972992Y71648187D01*
X43160951Y71560539D01*
X43168473Y71556196D01*
X43293917Y71468359D01*
X43302047Y71457493D01*
X43302055Y71456403D01*
X43298598Y71450737D01*
X43093022Y71245161D01*
X43067125Y71266415D01*
X42904646Y71353262D01*
X42728346Y71406742D01*
X42545000Y71424800D01*
X42361654Y71406742D01*
X42185354Y71353262D01*
X42022875Y71266415D01*
X41996978Y71245161D01*
X41996978Y69724839D01*
X42022875Y69703585D01*
X42185354Y69616738D01*
X42361654Y69563258D01*
X42545000Y69545200D01*
X42728346Y69563258D01*
X42904646Y69616738D01*
X43067125Y69703585D01*
X43093022Y69724839D01*
X43295712Y69522149D01*
X43301831Y69510037D01*
X43301650Y69508962D01*
X43297260Y69503982D01*
X43168473Y69413804D01*
X43160951Y69409461D01*
X42972992Y69321813D01*
X42964823Y69318840D01*
X42937774Y69311592D01*
X42885516Y69277401D01*
X42863732Y69218874D01*
X42880919Y69158836D01*
X42937774Y69118408D01*
X42964823Y69111160D01*
X42972992Y69108187D01*
X43160951Y69020539D01*
X43168473Y69016196D01*
X43338353Y68897246D01*
X43345013Y68891657D01*
X43491657Y68745013D01*
X43497246Y68738353D01*
X43516403Y68710993D01*
X43516403Y69727945D01*
X43510737Y69731402D01*
X43305161Y69936978D01*
X43326415Y69962875D01*
X43413262Y70125354D01*
X43466742Y70301654D01*
X43484800Y70485000D01*
X43466742Y70668346D01*
X43413262Y70844646D01*
X43326415Y71007125D01*
X43305161Y71033022D01*
X43507851Y71235712D01*
X43519963Y71241831D01*
X43521038Y71241650D01*
X43526018Y71237260D01*
X43616196Y71108473D01*
X43620539Y71100951D01*
X43708187Y70912992D01*
X43711160Y70904823D01*
X43764835Y70704506D01*
X43766346Y70695934D01*
X43784419Y70489355D01*
X43784419Y70480645D01*
X43766346Y70274066D01*
X43764835Y70265494D01*
X43711160Y70065177D01*
X43708187Y70057008D01*
X43620539Y69869049D01*
X43616196Y69861527D01*
X43528359Y69736083D01*
X43517493Y69727953D01*
X43516403Y69727945D01*
X43516403Y68710993D01*
X43616196Y68568473D01*
X43620539Y68560951D01*
X43708187Y68372992D01*
X43711160Y68364823D01*
X43764835Y68164506D01*
X43766346Y68155934D01*
X43784419Y67949355D01*
X43784419Y67940645D01*
X43766346Y67734066D01*
X43764835Y67725494D01*
X43711160Y67525177D01*
X43708187Y67517008D01*
X43620539Y67329049D01*
X43616196Y67321527D01*
X43497246Y67151647D01*
X43491657Y67144987D01*
X43345013Y66998343D01*
X43338353Y66992754D01*
X43168473Y66873804D01*
X43160951Y66869461D01*
X42972992Y66781813D01*
X42964823Y66778840D01*
X42937774Y66771592D01*
X42885516Y66737401D01*
X42863732Y66678874D01*
X42880919Y66618836D01*
X42937774Y66578408D01*
X42964823Y66571160D01*
X42972992Y66568187D01*
X43160951Y66480539D01*
X43168473Y66476196D01*
X43338353Y66357246D01*
X43345013Y66351657D01*
X43491657Y66205013D01*
X43497246Y66198353D01*
X43616196Y66028473D01*
X43620539Y66020951D01*
X43708187Y65832992D01*
X43711160Y65824823D01*
X43764835Y65624506D01*
X43766346Y65615934D01*
X43784419Y65409355D01*
X43784419Y65400645D01*
X43766346Y65194066D01*
X43764835Y65185494D01*
X43711160Y64985177D01*
X43708187Y64977008D01*
X43620539Y64789049D01*
X43616196Y64781527D01*
X43497246Y64611647D01*
X43491657Y64604987D01*
X43345013Y64458343D01*
X43338353Y64452754D01*
X43168473Y64333804D01*
X43160951Y64329461D01*
X42972992Y64241813D01*
X42964823Y64238840D01*
X42937774Y64231592D01*
X42885516Y64197401D01*
X42863732Y64138874D01*
X42880919Y64078836D01*
X42937774Y64038408D01*
X42964823Y64031160D01*
X42972992Y64028187D01*
X43160951Y63940539D01*
X43168473Y63936196D01*
X43338353Y63817246D01*
X43345013Y63811657D01*
X43491657Y63665013D01*
X43497246Y63658353D01*
X43616196Y63488473D01*
X43620539Y63480951D01*
X43708187Y63292992D01*
X43711160Y63284823D01*
X43764835Y63084506D01*
X43766346Y63075934D01*
X43784419Y62869355D01*
X43784419Y62860645D01*
X43766346Y62654066D01*
X43764835Y62645494D01*
X43711160Y62445177D01*
X43708187Y62437008D01*
X43620539Y62249049D01*
X43616196Y62241527D01*
X43497246Y62071647D01*
X43491657Y62064987D01*
X43345013Y61918343D01*
X43338353Y61912754D01*
X43168473Y61793804D01*
X43160951Y61789461D01*
X42972992Y61701813D01*
X42964823Y61698840D01*
X42937774Y61691592D01*
X42885516Y61657401D01*
X42863732Y61598874D01*
X42880919Y61538836D01*
X42937774Y61498408D01*
X42964823Y61491160D01*
X42972992Y61488187D01*
X43160951Y61400539D01*
X43168473Y61396196D01*
X43338353Y61277246D01*
X43345013Y61271657D01*
X43491657Y61125013D01*
X43497246Y61118353D01*
X43616196Y60948473D01*
X43620539Y60940951D01*
X43708187Y60752992D01*
X43711160Y60744823D01*
X43764835Y60544506D01*
X43766346Y60535934D01*
X43784419Y60329355D01*
X43784419Y60320645D01*
X43766346Y60114066D01*
X43764835Y60105494D01*
X43711160Y59905177D01*
X43708187Y59897008D01*
X43620539Y59709049D01*
X43616196Y59701527D01*
X43497246Y59531647D01*
X43491657Y59524987D01*
X43345013Y59378343D01*
X43338353Y59372754D01*
X43168473Y59253804D01*
X43160951Y59249461D01*
X42972992Y59161813D01*
X42964823Y59158840D01*
X42937774Y59151592D01*
X42885516Y59117401D01*
X42863732Y59058874D01*
X42880919Y58998836D01*
X42937774Y58958408D01*
X42964823Y58951160D01*
X42972992Y58948187D01*
X43160951Y58860539D01*
X43168473Y58856196D01*
X43338353Y58737246D01*
X43345013Y58731657D01*
X43491657Y58585013D01*
X43497246Y58578353D01*
X43616196Y58408473D01*
X43620539Y58400951D01*
X43708187Y58212992D01*
X43711160Y58204823D01*
X43764835Y58004506D01*
X43766346Y57995934D01*
X43784419Y57789355D01*
X43784419Y57780645D01*
X43766346Y57574066D01*
X43764835Y57565494D01*
X43711160Y57365177D01*
X43708187Y57357008D01*
X43620539Y57169049D01*
X43616196Y57161527D01*
X43497246Y56991647D01*
X43491657Y56984987D01*
X43345013Y56838343D01*
X43338353Y56832754D01*
X43168473Y56713804D01*
X43160951Y56709461D01*
X42972992Y56621813D01*
X42964823Y56618840D01*
X42937774Y56611592D01*
X42885516Y56577401D01*
X42863732Y56518874D01*
X42880919Y56458836D01*
X42937774Y56418408D01*
X42964823Y56411160D01*
X42972992Y56408187D01*
X43160951Y56320539D01*
X43168473Y56316196D01*
X43338353Y56197246D01*
X43345013Y56191657D01*
X43491657Y56045013D01*
X43497246Y56038353D01*
X43616196Y55868473D01*
X43620539Y55860951D01*
X43708187Y55672992D01*
X43711160Y55664823D01*
X43764835Y55464506D01*
X43766346Y55455934D01*
X43784419Y55249355D01*
X43784419Y55240645D01*
X43766346Y55034066D01*
X43764835Y55025494D01*
X43711160Y54825177D01*
X43708187Y54817008D01*
X43620539Y54629049D01*
X43616196Y54621527D01*
X43497246Y54451647D01*
X43491657Y54444987D01*
X43345013Y54298343D01*
X43338353Y54292754D01*
X43168473Y54173804D01*
X43160951Y54169461D01*
X42972992Y54081813D01*
X42964823Y54078840D01*
X42937774Y54071592D01*
X42885516Y54037401D01*
X42863732Y53978874D01*
X42880919Y53918836D01*
X42937774Y53878408D01*
X42964823Y53871160D01*
X42972992Y53868187D01*
X43160951Y53780539D01*
X43168473Y53776196D01*
X43338353Y53657246D01*
X43345013Y53651657D01*
X43491657Y53505013D01*
X43497246Y53498353D01*
X43616196Y53328473D01*
X43620539Y53320951D01*
X43708187Y53132992D01*
X43711160Y53124823D01*
X43764835Y52924506D01*
X43766346Y52915934D01*
X43784419Y52709355D01*
X43784419Y52700645D01*
X43766346Y52494066D01*
X43764835Y52485494D01*
X43711160Y52285177D01*
X43708187Y52277008D01*
X43620539Y52089049D01*
X43616196Y52081527D01*
X43497246Y51911647D01*
X43491657Y51904987D01*
X43345013Y51758343D01*
X43338353Y51752754D01*
X43168473Y51633804D01*
X43160951Y51629461D01*
X42972992Y51541813D01*
X42964823Y51538840D01*
X42937774Y51531592D01*
X42885516Y51497401D01*
X42863732Y51438874D01*
X42880919Y51378836D01*
X42937774Y51338408D01*
X42964823Y51331160D01*
X42972992Y51328187D01*
X43160951Y51240539D01*
X43168473Y51236196D01*
X43338353Y51117246D01*
X43345013Y51111657D01*
X43491657Y50965013D01*
X43497246Y50958353D01*
X43616196Y50788473D01*
X43620539Y50780951D01*
X43708187Y50592992D01*
X43711160Y50584823D01*
X43764835Y50384506D01*
X43766346Y50375934D01*
X43784419Y50169355D01*
X43784419Y50160645D01*
X43766346Y49954066D01*
X43764835Y49945494D01*
X43711160Y49745177D01*
X43708187Y49737008D01*
X43620539Y49549049D01*
X43616196Y49541527D01*
X43497246Y49371647D01*
X43491657Y49364987D01*
X43345013Y49218343D01*
X43338353Y49212754D01*
X43168473Y49093804D01*
X43160951Y49089461D01*
X42972992Y49001813D01*
X42964823Y48998840D01*
X42937774Y48991592D01*
X42885516Y48957401D01*
X42863732Y48898874D01*
X42880919Y48838836D01*
X42937774Y48798408D01*
X42964823Y48791160D01*
X42972992Y48788187D01*
X43160951Y48700539D01*
X43168473Y48696196D01*
X43338353Y48577246D01*
X43345013Y48571657D01*
X43491657Y48425013D01*
X43497246Y48418353D01*
X43616196Y48248473D01*
X43620539Y48240951D01*
X43708187Y48052992D01*
X43711160Y48044823D01*
X43764835Y47844506D01*
X43766346Y47835934D01*
X43784419Y47629355D01*
X43784419Y47620645D01*
X43766346Y47414066D01*
X43764835Y47405494D01*
X43711160Y47205177D01*
X43708187Y47197008D01*
X43620539Y47009049D01*
X43616196Y47001527D01*
X43497246Y46831647D01*
X43491657Y46824987D01*
X43345013Y46678343D01*
X43338353Y46672754D01*
X43168473Y46553804D01*
X43160951Y46549461D01*
X42972992Y46461813D01*
X42964823Y46458840D01*
X42937774Y46451592D01*
X42885516Y46417401D01*
X42863732Y46358874D01*
X42880919Y46298836D01*
X42937774Y46258408D01*
X42964823Y46251160D01*
X42972992Y46248187D01*
X43160951Y46160539D01*
X43168473Y46156196D01*
X43338353Y46037246D01*
X43345013Y46031657D01*
X43491657Y45885013D01*
X43497246Y45878353D01*
X43616196Y45708473D01*
X43620539Y45700951D01*
X43708187Y45512992D01*
X43711160Y45504823D01*
X43764835Y45304506D01*
X43766346Y45295934D01*
X43784419Y45089355D01*
X43784419Y45080645D01*
X43766346Y44874066D01*
X43764835Y44865494D01*
X43711160Y44665177D01*
X43708187Y44657008D01*
X43620539Y44469049D01*
X43616196Y44461527D01*
X43497246Y44291647D01*
X43491657Y44284987D01*
X43345013Y44138343D01*
X43338353Y44132754D01*
X43168473Y44013804D01*
X43160951Y44009461D01*
X42972992Y43921813D01*
X42964823Y43918840D01*
X42937774Y43911592D01*
X42885516Y43877401D01*
X42863732Y43818874D01*
X42880919Y43758836D01*
X42937774Y43718408D01*
X42964823Y43711160D01*
X42972992Y43708187D01*
X43160951Y43620539D01*
X43168473Y43616196D01*
X43338353Y43497246D01*
X43345013Y43491657D01*
X43491657Y43345013D01*
X43497246Y43338353D01*
X43616196Y43168473D01*
X43620539Y43160951D01*
X43708187Y42972992D01*
X43711160Y42964823D01*
X43764835Y42764506D01*
X43766346Y42755934D01*
X43784419Y42549355D01*
X43784419Y42540645D01*
X43766346Y42334066D01*
X43764835Y42325494D01*
X43711160Y42125177D01*
X43708187Y42117008D01*
X43620539Y41929049D01*
X43616196Y41921527D01*
X43497246Y41751647D01*
X43491657Y41744987D01*
X43345013Y41598343D01*
X43338353Y41592754D01*
X43168473Y41473804D01*
X43160951Y41469461D01*
X42972992Y41381813D01*
X42964823Y41378840D01*
X42937774Y41371592D01*
X42885516Y41337401D01*
X42863732Y41278874D01*
X42880919Y41218836D01*
X42937774Y41178408D01*
X42964823Y41171160D01*
X42972992Y41168187D01*
X43160951Y41080539D01*
X43168473Y41076196D01*
X43338353Y40957246D01*
X43345013Y40951657D01*
X43491657Y40805013D01*
X43497246Y40798353D01*
X43616196Y40628473D01*
X43620539Y40620951D01*
X43708187Y40432992D01*
X43711160Y40424823D01*
X43764835Y40224506D01*
X43766346Y40215934D01*
X43784419Y40009355D01*
X43784419Y40000645D01*
X43766346Y39794066D01*
X43764835Y39785494D01*
X43711160Y39585177D01*
X43708187Y39577008D01*
X43620539Y39389049D01*
X43616196Y39381527D01*
X43497246Y39211647D01*
X43491657Y39204987D01*
X43345013Y39058343D01*
X43338353Y39052754D01*
X43168473Y38933804D01*
X43160951Y38929461D01*
X42972992Y38841813D01*
X42964823Y38838840D01*
X42937774Y38831592D01*
X42885516Y38797401D01*
X42863732Y38738874D01*
X42880919Y38678836D01*
X42937774Y38638408D01*
X42964823Y38631160D01*
X42972992Y38628187D01*
X43160951Y38540539D01*
X43168473Y38536196D01*
X43338353Y38417246D01*
X43345013Y38411657D01*
X43491657Y38265013D01*
X43497246Y38258353D01*
X43616196Y38088473D01*
X43620539Y38080951D01*
X43708187Y37892992D01*
X43711160Y37884823D01*
X43764835Y37684506D01*
X43766346Y37675934D01*
X43784419Y37469355D01*
X43784419Y37460645D01*
X43766346Y37254066D01*
X43764835Y37245494D01*
X43711160Y37045177D01*
X43708187Y37037008D01*
X43620539Y36849049D01*
X43616196Y36841527D01*
X43497246Y36671647D01*
X43491657Y36664987D01*
X43345013Y36518343D01*
X43338353Y36512754D01*
X43168473Y36393804D01*
X43160951Y36389461D01*
X42972992Y36301813D01*
X42964823Y36298840D01*
X42937774Y36291592D01*
X42885516Y36257401D01*
X42863732Y36198874D01*
X42880919Y36138836D01*
X42937774Y36098408D01*
X42964823Y36091160D01*
X42972992Y36088187D01*
X43160951Y36000539D01*
X43168473Y35996196D01*
X43338353Y35877246D01*
X43345013Y35871657D01*
X43491657Y35725013D01*
X43497246Y35718353D01*
X43616196Y35548473D01*
X43620539Y35540951D01*
X43708187Y35352992D01*
X43711160Y35344823D01*
X43718408Y35317774D01*
X43752599Y35265516D01*
X43811126Y35243732D01*
X43871164Y35260919D01*
X43911592Y35317774D01*
X43918840Y35344823D01*
X43921813Y35352992D01*
X44009461Y35540951D01*
X44013804Y35548473D01*
X44132754Y35718353D01*
X44138343Y35725013D01*
X44284987Y35871657D01*
X44291647Y35877246D01*
X44461527Y35996196D01*
X44469049Y36000539D01*
X44657008Y36088187D01*
X44665177Y36091160D01*
X44865494Y36144835D01*
X44874066Y36146346D01*
X45080645Y36164419D01*
X45089355Y36164419D01*
X45295934Y36146346D01*
X45304510Y36144834D01*
X45385031Y36123259D01*
X45447383Y36126740D01*
X45495512Y36166534D01*
X45510646Y36227122D01*
X45481622Y36290561D01*
X44412011Y37360172D01*
X44411362Y37362129D01*
X44406933Y37366510D01*
X44327676Y37469800D01*
X44321178Y37481055D01*
X44271249Y37601594D01*
X44267885Y37614150D01*
X44250429Y37746744D01*
X44250000Y37753281D01*
X44250000Y40596730D01*
X44250426Y40603239D01*
X44267885Y40735859D01*
X44271246Y40748401D01*
X44321178Y40868946D01*
X44327676Y40880200D01*
X44409099Y40986313D01*
X44413404Y40991222D01*
X45741473Y42319291D01*
X45769635Y42375030D01*
X45759237Y42436608D01*
X45714333Y42480009D01*
X45670763Y42490000D01*
X45623931Y42490000D01*
X45616118Y42490615D01*
X45535069Y42503452D01*
X45520282Y42508256D01*
X45450674Y42543723D01*
X45438101Y42552858D01*
X45382858Y42608101D01*
X45373723Y42620674D01*
X45338256Y42690282D01*
X45333452Y42705069D01*
X45320615Y42786118D01*
X45320000Y42793931D01*
X45320000Y44056069D01*
X45320615Y44063882D01*
X45333452Y44144931D01*
X45338256Y44159718D01*
X45373723Y44229326D01*
X45382858Y44241899D01*
X45438101Y44297142D01*
X45450674Y44306277D01*
X45520282Y44341744D01*
X45535069Y44346548D01*
X45616118Y44359385D01*
X45623931Y44360000D01*
X47086069Y44360000D01*
X47093882Y44359385D01*
X47127370Y44354080D01*
X47127370Y70100496D01*
X47118205Y70101345D01*
X46936110Y70135385D01*
X46927242Y70137908D01*
X46754498Y70204830D01*
X46746268Y70208928D01*
X46588751Y70306458D01*
X46581407Y70312004D01*
X46444507Y70436806D01*
X46438295Y70443619D01*
X46326655Y70591455D01*
X46321811Y70599277D01*
X46239235Y70765113D01*
X46235910Y70773695D01*
X46185211Y70951884D01*
X46183519Y70960933D01*
X46166427Y71145392D01*
X46166427Y71154608D01*
X46183519Y71339067D01*
X46185211Y71348116D01*
X46235908Y71526300D01*
X46239238Y71534894D01*
X46321809Y71700719D01*
X46326656Y71708549D01*
X46438295Y71856381D01*
X46444507Y71863194D01*
X46581407Y71987996D01*
X46588751Y71993542D01*
X46746268Y72091072D01*
X46754498Y72095170D01*
X46927242Y72162092D01*
X46936110Y72164615D01*
X47118205Y72198655D01*
X47127370Y72199504D01*
X47312630Y72199504D01*
X47321795Y72198655D01*
X47503890Y72164615D01*
X47512758Y72162092D01*
X47685502Y72095170D01*
X47693732Y72091072D01*
X47851249Y71993542D01*
X47858593Y71987996D01*
X47995493Y71863194D01*
X48001705Y71856381D01*
X48113345Y71708545D01*
X48118189Y71700723D01*
X48200765Y71534887D01*
X48204090Y71526305D01*
X48254789Y71348116D01*
X48256481Y71339067D01*
X48273573Y71154608D01*
X48273573Y71145392D01*
X48256481Y70960933D01*
X48254789Y70951884D01*
X48204092Y70773700D01*
X48200762Y70765106D01*
X48118191Y70599281D01*
X48113344Y70591451D01*
X48001705Y70443619D01*
X47995493Y70436806D01*
X47858593Y70312004D01*
X47851249Y70306458D01*
X47693732Y70208928D01*
X47685502Y70204830D01*
X47512758Y70137908D01*
X47503890Y70135385D01*
X47321795Y70101345D01*
X47312630Y70100496D01*
X47127370Y70100496D01*
X47127370Y44354080D01*
X47174931Y44346548D01*
X47189718Y44341744D01*
X47259326Y44306277D01*
X47271899Y44297142D01*
X47327142Y44241899D01*
X47336277Y44229326D01*
X47371744Y44159718D01*
X47376548Y44144931D01*
X47390000Y44060000D01*
X47391976Y44060313D01*
X47413255Y44009502D01*
X47488819Y43975000D01*
X49666181Y43975000D01*
X49725508Y43994500D01*
X49762168Y44060449D01*
X49765000Y44060000D01*
X49778452Y44144931D01*
X49783256Y44159718D01*
X49818723Y44229326D01*
X49827858Y44241899D01*
X49883101Y44297142D01*
X49895674Y44306277D01*
X49965282Y44341744D01*
X49980069Y44346548D01*
X50061118Y44359385D01*
X50068931Y44360000D01*
X50150001Y44360000D01*
X50209328Y44379500D01*
X50250000Y44459999D01*
X50250000Y46996731D01*
X50250426Y47003240D01*
X50267885Y47135860D01*
X50271246Y47148402D01*
X50321179Y47268949D01*
X50327675Y47280200D01*
X50361043Y47323685D01*
X50406932Y47383489D01*
X50411362Y47387871D01*
X50412735Y47390552D01*
X52550172Y49527989D01*
X52552129Y49528638D01*
X52556510Y49533067D01*
X52659800Y49612324D01*
X52671055Y49618822D01*
X52734885Y49645261D01*
X52791594Y49668751D01*
X52804149Y49672115D01*
X52936743Y49689571D01*
X52943280Y49690000D01*
X53476181Y49690000D01*
X53535508Y49709500D01*
X53572168Y49775449D01*
X53575000Y49775000D01*
X53588452Y49859931D01*
X53593256Y49874718D01*
X53628723Y49944326D01*
X53637858Y49956899D01*
X53693101Y50012142D01*
X53705674Y50021277D01*
X53775282Y50056744D01*
X53790069Y50061548D01*
X53871118Y50074385D01*
X53878931Y50075000D01*
X55341069Y50075000D01*
X55348882Y50074385D01*
X55429931Y50061548D01*
X55444718Y50056744D01*
X55514326Y50021277D01*
X55526899Y50012142D01*
X55582142Y49956899D01*
X55591277Y49944326D01*
X55626744Y49874718D01*
X55631548Y49859931D01*
X55645000Y49775000D01*
X55646976Y49775313D01*
X55668255Y49724502D01*
X55743819Y49690000D01*
X57921181Y49690000D01*
X57980508Y49709500D01*
X58017168Y49775449D01*
X58020000Y49775000D01*
X58033452Y49859931D01*
X58038256Y49874718D01*
X58073723Y49944326D01*
X58082858Y49956899D01*
X58138101Y50012142D01*
X58150674Y50021277D01*
X58220282Y50056744D01*
X58235069Y50061548D01*
X58316118Y50074385D01*
X58323931Y50075000D01*
X59170762Y50075000D01*
X59241472Y50104289D01*
X59745711Y50608528D01*
X59775000Y50679238D01*
X59775000Y53015001D01*
X59755500Y53074328D01*
X59675001Y53115000D01*
X58978931Y53115000D01*
X58971118Y53115615D01*
X58890069Y53128452D01*
X58875282Y53133256D01*
X58805674Y53168723D01*
X58793101Y53177858D01*
X58737858Y53233101D01*
X58728723Y53245674D01*
X58693256Y53315282D01*
X58688452Y53330069D01*
X58675615Y53411118D01*
X58675000Y53418931D01*
X58675000Y54656327D01*
X58655500Y54715654D01*
X58628608Y54740743D01*
X57292922Y55588952D01*
X57287650Y55592805D01*
X57245539Y55628036D01*
X57242249Y55630672D01*
X57201293Y55662099D01*
X57188502Y55674891D01*
X57176270Y55688202D01*
X57146602Y55730441D01*
X57144106Y55733840D01*
X57112675Y55774802D01*
X57103643Y55790444D01*
X57095264Y55806482D01*
X57077534Y55854977D01*
X57076002Y55858906D01*
X57056250Y55906593D01*
X57051568Y55924064D01*
X57047631Y55941703D01*
X57043056Y55993130D01*
X57042594Y55997321D01*
X57035428Y56051757D01*
X57035000Y56058281D01*
X57035000Y62019152D01*
X57015500Y62078479D01*
X56991866Y62101409D01*
X56449054Y62476662D01*
X56389164Y62494358D01*
X56330454Y62473073D01*
X56295821Y62421106D01*
X56298771Y62358726D01*
X56327245Y62318365D01*
X56357222Y62292762D01*
X56362762Y62287222D01*
X56521990Y62100790D01*
X56526593Y62094454D01*
X56654694Y61885412D01*
X56658252Y61878430D01*
X56752074Y61651922D01*
X56754497Y61644467D01*
X56811731Y61406066D01*
X56812955Y61398342D01*
X56832192Y61153913D01*
X56832192Y61146087D01*
X56812955Y60901658D01*
X56811731Y60893934D01*
X56754497Y60655533D01*
X56752074Y60648078D01*
X56658252Y60421570D01*
X56654694Y60414588D01*
X56526593Y60205546D01*
X56521990Y60199210D01*
X56362762Y60012778D01*
X56357222Y60007238D01*
X56170790Y59848010D01*
X56164454Y59843407D01*
X55955412Y59715306D01*
X55948430Y59711748D01*
X55748251Y59628831D01*
X55700902Y59588112D01*
X55686656Y59541666D01*
X55569421Y57299543D01*
X55568654Y57293062D01*
X55563919Y57267499D01*
X55562379Y57254435D01*
X55561209Y57231754D01*
X55558852Y57218977D01*
X55551711Y57196936D01*
X55548515Y57184327D01*
X55544296Y57161550D01*
X55540280Y57149185D01*
X55530505Y57128684D01*
X55525639Y57116470D01*
X55518637Y57094861D01*
X55513050Y57083122D01*
X55500447Y57063681D01*
X55494096Y57052328D01*
X55484129Y57031426D01*
X55477049Y57020522D01*
X55462303Y57003252D01*
X55454441Y56992712D01*
X55440299Y56970896D01*
X55436391Y56965654D01*
X54434134Y55790221D01*
X54410479Y55732425D01*
X54425726Y55671865D01*
X54473929Y55632160D01*
X54536288Y55628796D01*
X54567584Y55643425D01*
X54621527Y55681196D01*
X54629049Y55685539D01*
X54817008Y55773187D01*
X54825177Y55776160D01*
X55025494Y55829835D01*
X55034066Y55831346D01*
X55240645Y55849419D01*
X55249355Y55849419D01*
X55455934Y55831346D01*
X55464506Y55829835D01*
X55664823Y55776160D01*
X55672992Y55773187D01*
X55860951Y55685539D01*
X55868473Y55681196D01*
X56038353Y55562246D01*
X56045013Y55556657D01*
X56191657Y55410013D01*
X56197246Y55403353D01*
X56316196Y55233473D01*
X56320539Y55225951D01*
X56408187Y55037992D01*
X56411160Y55029823D01*
X56464835Y54829506D01*
X56466346Y54820934D01*
X56484419Y54614355D01*
X56484419Y54605645D01*
X56466346Y54399066D01*
X56464835Y54390494D01*
X56411160Y54190177D01*
X56408187Y54182008D01*
X56320539Y53994049D01*
X56316196Y53986527D01*
X56197246Y53816647D01*
X56191657Y53809987D01*
X56045013Y53663343D01*
X56038353Y53657754D01*
X55868473Y53538804D01*
X55860951Y53534461D01*
X55672992Y53446813D01*
X55664823Y53443840D01*
X55464506Y53390165D01*
X55455934Y53388654D01*
X55249355Y53370581D01*
X55240645Y53370581D01*
X55034066Y53388654D01*
X55025494Y53390165D01*
X54825177Y53443840D01*
X54817008Y53446813D01*
X54629049Y53534461D01*
X54621527Y53538804D01*
X54451647Y53657754D01*
X54444987Y53663343D01*
X54298343Y53809987D01*
X54292754Y53816647D01*
X54173804Y53986527D01*
X54169461Y53994049D01*
X54081813Y54182008D01*
X54078840Y54190177D01*
X54071592Y54217226D01*
X54037401Y54269484D01*
X53978874Y54291268D01*
X53918836Y54274081D01*
X53878408Y54217226D01*
X53871160Y54190177D01*
X53868187Y54182008D01*
X53780539Y53994049D01*
X53776196Y53986527D01*
X53657246Y53816647D01*
X53651657Y53809987D01*
X53505013Y53663343D01*
X53498353Y53657754D01*
X53328473Y53538804D01*
X53320951Y53534461D01*
X53132992Y53446813D01*
X53124823Y53443840D01*
X52924506Y53390165D01*
X52915934Y53388654D01*
X52709355Y53370581D01*
X52700645Y53370581D01*
X52494066Y53388654D01*
X52485494Y53390165D01*
X52285177Y53443840D01*
X52277008Y53446813D01*
X52089049Y53534461D01*
X52081527Y53538804D01*
X51911647Y53657754D01*
X51904987Y53663343D01*
X51758343Y53809987D01*
X51752754Y53816647D01*
X51633804Y53986527D01*
X51629461Y53994049D01*
X51541813Y54182008D01*
X51538840Y54190177D01*
X51531592Y54217226D01*
X51497401Y54269484D01*
X51438874Y54291268D01*
X51378836Y54274081D01*
X51338408Y54217226D01*
X51331160Y54190177D01*
X51328187Y54182008D01*
X51240539Y53994049D01*
X51236196Y53986527D01*
X51117246Y53816647D01*
X51111657Y53809987D01*
X50965013Y53663343D01*
X50958353Y53657754D01*
X50788473Y53538804D01*
X50780951Y53534461D01*
X50592992Y53446813D01*
X50584823Y53443840D01*
X50384506Y53390165D01*
X50375934Y53388654D01*
X50169355Y53370581D01*
X50160645Y53370581D01*
X49954066Y53388654D01*
X49945494Y53390165D01*
X49745177Y53443840D01*
X49737008Y53446813D01*
X49549049Y53534461D01*
X49541527Y53538804D01*
X49371647Y53657754D01*
X49364987Y53663343D01*
X49218343Y53809987D01*
X49212754Y53816647D01*
X49093804Y53986527D01*
X49089461Y53994049D01*
X49001813Y54182008D01*
X48998840Y54190177D01*
X48945165Y54390494D01*
X48943654Y54399066D01*
X48925581Y54605645D01*
X48925581Y54614355D01*
X48943654Y54820934D01*
X48945165Y54829506D01*
X48998840Y55029823D01*
X49001813Y55037992D01*
X49089461Y55225951D01*
X49093804Y55233473D01*
X49212754Y55403353D01*
X49218343Y55410013D01*
X49364987Y55556657D01*
X49371647Y55562246D01*
X49541527Y55681196D01*
X49549049Y55685539D01*
X49737008Y55773187D01*
X49745177Y55776160D01*
X49945494Y55829835D01*
X49954066Y55831346D01*
X50160645Y55849419D01*
X50169355Y55849419D01*
X50216087Y55845330D01*
X50216087Y59537808D01*
X49971658Y59557045D01*
X49963934Y59558269D01*
X49725533Y59615503D01*
X49718078Y59617926D01*
X49491570Y59711748D01*
X49484588Y59715306D01*
X49275546Y59843407D01*
X49269210Y59848010D01*
X49082778Y60007238D01*
X49077238Y60012778D01*
X48918010Y60199210D01*
X48913407Y60205546D01*
X48785306Y60414588D01*
X48781748Y60421570D01*
X48687926Y60648078D01*
X48685503Y60655533D01*
X48628269Y60893934D01*
X48627045Y60901658D01*
X48607808Y61146087D01*
X48607808Y61153913D01*
X48627045Y61398342D01*
X48628269Y61406066D01*
X48685503Y61644467D01*
X48687926Y61651922D01*
X48781748Y61878430D01*
X48785306Y61885412D01*
X48913407Y62094454D01*
X48918010Y62100790D01*
X49077238Y62287222D01*
X49082778Y62292762D01*
X49269210Y62451990D01*
X49275546Y62456593D01*
X49484588Y62584694D01*
X49491570Y62588252D01*
X49718078Y62682074D01*
X49725533Y62684497D01*
X49963934Y62741731D01*
X49971658Y62742955D01*
X50216087Y62762192D01*
X50223913Y62762192D01*
X50468342Y62742955D01*
X50476066Y62741731D01*
X50714467Y62684497D01*
X50721922Y62682074D01*
X50948430Y62588252D01*
X50955412Y62584694D01*
X51164454Y62456593D01*
X51170790Y62451990D01*
X51357222Y62292762D01*
X51362762Y62287222D01*
X51521990Y62100790D01*
X51526593Y62094454D01*
X51654694Y61885412D01*
X51658252Y61878430D01*
X51752074Y61651922D01*
X51754497Y61644467D01*
X51811731Y61406066D01*
X51812955Y61398342D01*
X51832192Y61153913D01*
X51832192Y61146087D01*
X51812955Y60901658D01*
X51811731Y60893934D01*
X51754497Y60655533D01*
X51752074Y60648078D01*
X51658252Y60421570D01*
X51654694Y60414588D01*
X51526593Y60205546D01*
X51521990Y60199210D01*
X51362762Y60012778D01*
X51357222Y60007238D01*
X51170790Y59848010D01*
X51164454Y59843407D01*
X50955412Y59715306D01*
X50948430Y59711748D01*
X50721922Y59617926D01*
X50714467Y59615503D01*
X50476066Y59558269D01*
X50468342Y59557045D01*
X50223913Y59537808D01*
X50216087Y59537808D01*
X50216087Y55845330D01*
X50375934Y55831346D01*
X50384506Y55829835D01*
X50513271Y55795332D01*
X50575624Y55798813D01*
X50609371Y55820725D01*
X52125219Y57315685D01*
X52155000Y57386884D01*
X52155000Y62395850D01*
X52135500Y62455177D01*
X52100234Y62485034D01*
X50024135Y63538003D01*
X50018520Y63541330D01*
X50017449Y63542063D01*
X50006719Y63547876D01*
X50006733Y63547900D01*
X49989802Y63557675D01*
X49951918Y63586744D01*
X49947530Y63589926D01*
X49908147Y63616886D01*
X49893595Y63629939D01*
X49893576Y63629918D01*
X49890905Y63632449D01*
X49890924Y63632468D01*
X49877101Y63646291D01*
X49848036Y63684169D01*
X49844621Y63688378D01*
X49813558Y63724611D01*
X49802876Y63740994D01*
X49802853Y63740979D01*
X49800931Y63744108D01*
X49800955Y63744122D01*
X49791177Y63761058D01*
X49772913Y63805150D01*
X49770704Y63810100D01*
X49750069Y63853158D01*
X49743993Y63871740D01*
X49743967Y63871731D01*
X49742919Y63875255D01*
X49742946Y63875262D01*
X49737886Y63894147D01*
X49731655Y63941473D01*
X49730802Y63946826D01*
X49722015Y63993749D01*
X49720955Y64013273D01*
X49720928Y64013272D01*
X49720598Y64025455D01*
X49720427Y64026755D01*
X49720000Y64033272D01*
X49720000Y64670001D01*
X49700500Y64729328D01*
X49620001Y64770000D01*
X49223931Y64770000D01*
X49216118Y64770615D01*
X49135069Y64783452D01*
X49120282Y64788256D01*
X49050674Y64823723D01*
X49038101Y64832858D01*
X48982858Y64888101D01*
X48973723Y64900674D01*
X48938256Y64970282D01*
X48933452Y64985069D01*
X48920615Y65066118D01*
X48920000Y65073931D01*
X48920000Y66466069D01*
X48920615Y66473882D01*
X48933452Y66554931D01*
X48938256Y66569718D01*
X48973723Y66639326D01*
X48982858Y66651899D01*
X49038101Y66707142D01*
X49050674Y66716277D01*
X49120282Y66751744D01*
X49135069Y66756548D01*
X49216118Y66769385D01*
X49223931Y66770000D01*
X51316069Y66770000D01*
X51323882Y66769385D01*
X51404931Y66756548D01*
X51419718Y66751744D01*
X51489326Y66716277D01*
X51501899Y66707142D01*
X51557142Y66651899D01*
X51566277Y66639326D01*
X51601744Y66569718D01*
X51606548Y66554931D01*
X51619385Y66473882D01*
X51620000Y66466069D01*
X51620000Y65073931D01*
X51619385Y65066118D01*
X51606548Y64985069D01*
X51601744Y64970282D01*
X51566277Y64900674D01*
X51557142Y64888101D01*
X51501899Y64832858D01*
X51489326Y64823723D01*
X51419718Y64788256D01*
X51404931Y64783452D01*
X51323882Y64770615D01*
X51316069Y64770000D01*
X50919999Y64770000D01*
X50860672Y64750500D01*
X50820000Y64670001D01*
X50820000Y64429150D01*
X50839500Y64369823D01*
X50874766Y64339966D01*
X52950865Y63286997D01*
X52956480Y63283670D01*
X52957551Y63282937D01*
X52968281Y63277124D01*
X52968267Y63277100D01*
X52985198Y63267325D01*
X53023082Y63238256D01*
X53027470Y63235074D01*
X53066853Y63208114D01*
X53081405Y63195061D01*
X53081424Y63195082D01*
X53084095Y63192551D01*
X53084076Y63192532D01*
X53097899Y63178709D01*
X53126970Y63140823D01*
X53130386Y63136613D01*
X53161447Y63100382D01*
X53172124Y63084008D01*
X53172147Y63084023D01*
X53174071Y63080890D01*
X53174047Y63080876D01*
X53183823Y63063943D01*
X53202093Y63019835D01*
X53204302Y63014885D01*
X53224931Y62971840D01*
X53231006Y62953263D01*
X53231032Y62953272D01*
X53232081Y62949744D01*
X53232055Y62949737D01*
X53237113Y62930857D01*
X53243346Y62883512D01*
X53244200Y62878157D01*
X53252984Y62831250D01*
X53254044Y62811727D01*
X53254072Y62811729D01*
X53254403Y62799537D01*
X53254573Y62798244D01*
X53255000Y62791730D01*
X53255000Y57118282D01*
X53254356Y57108479D01*
X53254511Y57108469D01*
X53254412Y57107039D01*
X53245418Y57042200D01*
X53245326Y57041513D01*
X53237061Y56978739D01*
X53234967Y56971131D01*
X53234790Y56970480D01*
X53232863Y56963293D01*
X53208093Y56904647D01*
X53207825Y56904005D01*
X53183652Y56845646D01*
X53179644Y56838813D01*
X53179293Y56838211D01*
X53175622Y56831853D01*
X53136604Y56781729D01*
X53136178Y56781178D01*
X53096470Y56729428D01*
X53095493Y56728323D01*
X53095380Y56728424D01*
X53088869Y56721102D01*
X52342559Y55985077D01*
X52314011Y55929534D01*
X52323982Y55867886D01*
X52368583Y55824174D01*
X52438658Y55817286D01*
X52485490Y55829834D01*
X52494066Y55831346D01*
X52700645Y55849419D01*
X52709355Y55849419D01*
X52915931Y55831346D01*
X52924514Y55829833D01*
X52943130Y55824845D01*
X53005483Y55828325D01*
X53045106Y55856554D01*
X54458488Y57514149D01*
X54482258Y57573809D01*
X54588183Y59599634D01*
X54571807Y59659899D01*
X54526589Y59697243D01*
X54491566Y59711750D01*
X54484588Y59715306D01*
X54275546Y59843407D01*
X54269210Y59848010D01*
X54082778Y60007238D01*
X54077238Y60012778D01*
X53918010Y60199210D01*
X53913407Y60205546D01*
X53785306Y60414588D01*
X53781748Y60421570D01*
X53687926Y60648078D01*
X53685503Y60655533D01*
X53628269Y60893934D01*
X53627045Y60901658D01*
X53607808Y61146087D01*
X53607808Y61153913D01*
X53627045Y61398342D01*
X53628269Y61406066D01*
X53685503Y61644467D01*
X53687926Y61651922D01*
X53781748Y61878430D01*
X53785306Y61885412D01*
X53913407Y62094454D01*
X53918010Y62100790D01*
X54077238Y62287222D01*
X54082778Y62292762D01*
X54269210Y62451990D01*
X54275546Y62456593D01*
X54484588Y62584694D01*
X54491570Y62588252D01*
X54718078Y62682074D01*
X54725533Y62684497D01*
X54963934Y62741731D01*
X54971658Y62742955D01*
X55216087Y62762192D01*
X55223913Y62762192D01*
X55468342Y62742955D01*
X55476066Y62741731D01*
X55714467Y62684497D01*
X55721922Y62682075D01*
X55927091Y62597090D01*
X55989364Y62592402D01*
X56042276Y62625574D01*
X56065189Y62683668D01*
X56049169Y62744027D01*
X56022224Y62771734D01*
X54569933Y63775721D01*
X54564812Y63779781D01*
X54533469Y63808159D01*
X54527227Y63813365D01*
X54496290Y63837103D01*
X54487102Y63846290D01*
X54482944Y63851709D01*
X54470725Y63864964D01*
X54465659Y63869550D01*
X54457250Y63879451D01*
X54436100Y63912215D01*
X54431420Y63918856D01*
X54407676Y63949800D01*
X54401178Y63961055D01*
X54398563Y63967368D01*
X54390191Y63983334D01*
X54386490Y63989068D01*
X54380925Y64000816D01*
X54368975Y64037939D01*
X54366173Y64045565D01*
X54351248Y64081597D01*
X54347886Y64094145D01*
X54346994Y64100920D01*
X54343038Y64118512D01*
X54340948Y64125005D01*
X54338613Y64137797D01*
X54336678Y64176751D01*
X54335946Y64184842D01*
X54330428Y64226757D01*
X54330000Y64233281D01*
X54330000Y64520001D01*
X54310500Y64579328D01*
X54230001Y64620000D01*
X53283931Y64620000D01*
X53276118Y64620615D01*
X53195069Y64633452D01*
X53180282Y64638256D01*
X53110674Y64673723D01*
X53098101Y64682858D01*
X53042858Y64738101D01*
X53033723Y64750674D01*
X52998256Y64820282D01*
X52993452Y64835069D01*
X52980615Y64916118D01*
X52980000Y64923931D01*
X52980000Y66416069D01*
X52980615Y66423882D01*
X52993452Y66504931D01*
X52998256Y66519718D01*
X53033723Y66589326D01*
X53042858Y66601899D01*
X53098101Y66657142D01*
X53110674Y66666277D01*
X53180282Y66701744D01*
X53195069Y66706548D01*
X53276118Y66719385D01*
X53283931Y66720000D01*
X53283931Y68820000D01*
X53276118Y68820615D01*
X53195069Y68833452D01*
X53180282Y68838256D01*
X53110674Y68873723D01*
X53098101Y68882858D01*
X53042858Y68938101D01*
X53033723Y68950674D01*
X52998256Y69020282D01*
X52993452Y69035069D01*
X52980615Y69116118D01*
X52980000Y69123931D01*
X52980000Y69520001D01*
X52960500Y69579328D01*
X52880001Y69620000D01*
X51719999Y69620000D01*
X51660672Y69600500D01*
X51620000Y69520001D01*
X51620000Y69473931D01*
X51619385Y69466118D01*
X51606548Y69385069D01*
X51601744Y69370282D01*
X51566277Y69300674D01*
X51557142Y69288101D01*
X51501899Y69232858D01*
X51489326Y69223723D01*
X51419718Y69188256D01*
X51404931Y69183452D01*
X51323882Y69170615D01*
X51316069Y69170000D01*
X49223931Y69170000D01*
X49216118Y69170615D01*
X49135069Y69183452D01*
X49120282Y69188256D01*
X49050674Y69223723D01*
X49038101Y69232858D01*
X48982858Y69288101D01*
X48973723Y69300674D01*
X48938256Y69370282D01*
X48933452Y69385069D01*
X48920615Y69466118D01*
X48920000Y69473931D01*
X48920000Y70866069D01*
X48920615Y70873882D01*
X48933452Y70954931D01*
X48938256Y70969718D01*
X48973723Y71039326D01*
X48982858Y71051899D01*
X49038101Y71107142D01*
X49050674Y71116277D01*
X49120282Y71151744D01*
X49135069Y71156548D01*
X49216118Y71169385D01*
X49223931Y71170000D01*
X51316069Y71170000D01*
X51323882Y71169385D01*
X51404931Y71156548D01*
X51419718Y71151744D01*
X51489326Y71116277D01*
X51501899Y71107142D01*
X51557142Y71051899D01*
X51566277Y71039326D01*
X51601744Y70969718D01*
X51606548Y70954931D01*
X51619385Y70873882D01*
X51620000Y70866069D01*
X51620000Y70819999D01*
X51639500Y70760672D01*
X51719999Y70720000D01*
X52937121Y70720000D01*
X52996448Y70739500D01*
X53026222Y70774602D01*
X53033725Y70789329D01*
X53042858Y70801899D01*
X53098101Y70857142D01*
X53110674Y70866277D01*
X53180282Y70901744D01*
X53195069Y70906548D01*
X53276118Y70919385D01*
X53283931Y70920000D01*
X56476069Y70920000D01*
X56483882Y70919385D01*
X56564931Y70906548D01*
X56579718Y70901744D01*
X56649326Y70866277D01*
X56661899Y70857142D01*
X56717142Y70801899D01*
X56726277Y70789326D01*
X56761744Y70719718D01*
X56766548Y70704931D01*
X56779385Y70623882D01*
X56780000Y70616069D01*
X56780000Y69123931D01*
X56779385Y69116118D01*
X56766548Y69035069D01*
X56761744Y69020282D01*
X56726277Y68950674D01*
X56717142Y68938101D01*
X56661899Y68882858D01*
X56649326Y68873723D01*
X56579718Y68838256D01*
X56564931Y68833452D01*
X56483882Y68820615D01*
X56476069Y68820000D01*
X53283931Y68820000D01*
X53283931Y66720000D01*
X56476069Y66720000D01*
X56483882Y66719385D01*
X56564931Y66706548D01*
X56579718Y66701744D01*
X56649326Y66666277D01*
X56661899Y66657142D01*
X56717142Y66601899D01*
X56726277Y66589326D01*
X56761744Y66519718D01*
X56766548Y66504931D01*
X56779385Y66423882D01*
X56780000Y66416069D01*
X56780000Y64923931D01*
X56779385Y64916118D01*
X56766548Y64835069D01*
X56761744Y64820282D01*
X56726277Y64750674D01*
X56717142Y64738101D01*
X56661899Y64682858D01*
X56649326Y64673723D01*
X56579718Y64638256D01*
X56564931Y64633452D01*
X56483882Y64620615D01*
X56476069Y64620000D01*
X55603550Y64620000D01*
X55544223Y64600500D01*
X55508034Y64549605D01*
X55509096Y64487164D01*
X55546685Y64437744D01*
X57895067Y62814279D01*
X57900188Y62810219D01*
X57931531Y62781841D01*
X57937773Y62776635D01*
X57968710Y62752897D01*
X57977898Y62743710D01*
X57982056Y62738291D01*
X57994275Y62725036D01*
X57999341Y62720450D01*
X58007750Y62710549D01*
X58028900Y62677785D01*
X58033580Y62671144D01*
X58057324Y62640200D01*
X58063822Y62628945D01*
X58066437Y62622632D01*
X58074809Y62606666D01*
X58078510Y62600932D01*
X58084075Y62589184D01*
X58096025Y62552060D01*
X58098827Y62544434D01*
X58113752Y62508401D01*
X58117114Y62495855D01*
X58118007Y62489074D01*
X58121960Y62471491D01*
X58124053Y62464988D01*
X58126386Y62452206D01*
X58127370Y62432396D01*
X58127370Y70100496D01*
X58118205Y70101345D01*
X57936110Y70135385D01*
X57927242Y70137908D01*
X57754498Y70204830D01*
X57746268Y70208928D01*
X57588751Y70306458D01*
X57581407Y70312004D01*
X57444507Y70436806D01*
X57438295Y70443619D01*
X57326655Y70591455D01*
X57321811Y70599277D01*
X57239235Y70765113D01*
X57235910Y70773695D01*
X57185211Y70951884D01*
X57183519Y70960933D01*
X57166427Y71145392D01*
X57166427Y71154608D01*
X57183519Y71339067D01*
X57185211Y71348116D01*
X57235908Y71526300D01*
X57239238Y71534894D01*
X57321809Y71700719D01*
X57326656Y71708549D01*
X57438295Y71856381D01*
X57444507Y71863194D01*
X57581407Y71987996D01*
X57588751Y71993542D01*
X57746268Y72091072D01*
X57754498Y72095170D01*
X57927242Y72162092D01*
X57936110Y72164615D01*
X58118205Y72198655D01*
X58127370Y72199504D01*
X58312630Y72199504D01*
X58321795Y72198655D01*
X58503890Y72164615D01*
X58512758Y72162092D01*
X58685502Y72095170D01*
X58693732Y72091072D01*
X58851249Y71993542D01*
X58858593Y71987996D01*
X58995493Y71863194D01*
X59001705Y71856381D01*
X59113345Y71708545D01*
X59118189Y71700723D01*
X59200765Y71534887D01*
X59204090Y71526305D01*
X59254789Y71348116D01*
X59256481Y71339067D01*
X59273573Y71154608D01*
X59273573Y71145392D01*
X59256481Y70960933D01*
X59254789Y70951884D01*
X59204092Y70773700D01*
X59200762Y70765106D01*
X59118191Y70599281D01*
X59113344Y70591451D01*
X59001705Y70443619D01*
X58995493Y70436806D01*
X58858593Y70312004D01*
X58851249Y70306458D01*
X58693732Y70208928D01*
X58685502Y70204830D01*
X58512758Y70137908D01*
X58503890Y70135385D01*
X58321795Y70101345D01*
X58312630Y70100496D01*
X58127370Y70100496D01*
X58127370Y62432396D01*
X58128320Y62413272D01*
X58129052Y62405181D01*
X58134574Y62363239D01*
X58135000Y62356730D01*
X58135000Y56412213D01*
X58154500Y56352886D01*
X58181392Y56327797D01*
X59436776Y55530583D01*
X59490383Y55515000D01*
X61581963Y55515000D01*
X61641290Y55534500D01*
X61678555Y55589118D01*
X61698839Y55664820D01*
X61701813Y55672992D01*
X61789461Y55860951D01*
X61793804Y55868473D01*
X61912754Y56038353D01*
X61918343Y56045013D01*
X62064987Y56191657D01*
X62071647Y56197246D01*
X62241527Y56316196D01*
X62249049Y56320539D01*
X62437008Y56408187D01*
X62445177Y56411160D01*
X62472226Y56418408D01*
X62524484Y56452599D01*
X62546268Y56511126D01*
X62529081Y56571164D01*
X62472226Y56611592D01*
X62445177Y56618840D01*
X62437008Y56621813D01*
X62249049Y56709461D01*
X62241527Y56713804D01*
X62071647Y56832754D01*
X62064987Y56838343D01*
X61918343Y56984987D01*
X61912754Y56991647D01*
X61793804Y57161527D01*
X61789461Y57169049D01*
X61701813Y57357008D01*
X61698839Y57365180D01*
X61678555Y57440882D01*
X61644365Y57493141D01*
X61581963Y57515000D01*
X58978931Y57515000D01*
X58971118Y57515615D01*
X58890069Y57528452D01*
X58875282Y57533256D01*
X58805674Y57568723D01*
X58793101Y57577858D01*
X58737858Y57633101D01*
X58728723Y57645674D01*
X58693256Y57715282D01*
X58688452Y57730069D01*
X58675615Y57811118D01*
X58675000Y57818931D01*
X58675000Y59611069D01*
X58675615Y59618882D01*
X58688452Y59699931D01*
X58693256Y59714718D01*
X58728723Y59784326D01*
X58737858Y59796899D01*
X58793101Y59852142D01*
X58805674Y59861277D01*
X58875282Y59896744D01*
X58890069Y59901548D01*
X58971118Y59914385D01*
X58978931Y59915000D01*
X59675001Y59915000D01*
X59734328Y59934500D01*
X59775000Y60014999D01*
X59775000Y64766730D01*
X59775427Y64773241D01*
X59779708Y64805765D01*
X59780542Y64816790D01*
X59781139Y64846260D01*
X59783096Y64859110D01*
X59787651Y64874830D01*
X59790746Y64889608D01*
X59792884Y64905847D01*
X59796250Y64918407D01*
X59807537Y64945657D01*
X59811198Y64956093D01*
X59819408Y64984425D01*
X59824622Y64996326D01*
X59833096Y65010341D01*
X59839909Y65023812D01*
X59846177Y65038943D01*
X59852676Y65050200D01*
X59870636Y65073606D01*
X59876873Y65082738D01*
X59893830Y65110782D01*
X59897574Y65116147D01*
X61705917Y67376576D01*
X61727752Y67435084D01*
X61718461Y67481306D01*
X61701812Y67517011D01*
X61698841Y67525171D01*
X61645165Y67725494D01*
X61643654Y67734066D01*
X61625581Y67940645D01*
X61625581Y67949355D01*
X61643654Y68155934D01*
X61645165Y68164506D01*
X61698840Y68364823D01*
X61701813Y68372992D01*
X61789461Y68560951D01*
X61793804Y68568473D01*
X61912754Y68738353D01*
X61918343Y68745013D01*
X62064987Y68891657D01*
X62071647Y68897246D01*
X62241527Y69016196D01*
X62249049Y69020539D01*
X62437008Y69108187D01*
X62445177Y69111160D01*
X62472226Y69118408D01*
X62524484Y69152599D01*
X62546268Y69211126D01*
X62529081Y69271164D01*
X62472226Y69311592D01*
X62445177Y69318840D01*
X62437008Y69321813D01*
X62249049Y69409461D01*
X62241527Y69413804D01*
X62071647Y69532754D01*
X62064987Y69538343D01*
X61918343Y69684987D01*
X61912754Y69691647D01*
X61793804Y69861527D01*
X61789461Y69869049D01*
X61701813Y70057008D01*
X61698840Y70065177D01*
X61645165Y70265494D01*
X61643654Y70274066D01*
X61625581Y70480645D01*
X61625581Y70489355D01*
X61643654Y70695934D01*
X61645165Y70704506D01*
X61698840Y70904823D01*
X61701813Y70912992D01*
X61789461Y71100951D01*
X61793804Y71108473D01*
X61912754Y71278353D01*
X61918343Y71285013D01*
X62064987Y71431657D01*
X62071647Y71437246D01*
X62241527Y71556196D01*
X62249049Y71560539D01*
X62437008Y71648187D01*
X62445177Y71651160D01*
X62645494Y71704835D01*
X62654066Y71706346D01*
X62860645Y71724419D01*
X62869355Y71724419D01*
X63075934Y71706346D01*
X63084506Y71704835D01*
X63284823Y71651160D01*
X63292992Y71648187D01*
X63480951Y71560539D01*
X63488473Y71556196D01*
X63658353Y71437246D01*
X63665013Y71431657D01*
X63811657Y71285013D01*
X63817246Y71278353D01*
X63936196Y71108473D01*
X63940539Y71100951D01*
X64028187Y70912992D01*
X64031160Y70904823D01*
X64084835Y70704506D01*
X64086346Y70695934D01*
X64104419Y70489355D01*
X64104419Y70480645D01*
X64086346Y70274066D01*
X64084835Y70265494D01*
X64031160Y70065177D01*
X64028187Y70057008D01*
X63940539Y69869049D01*
X63936196Y69861527D01*
X63817246Y69691647D01*
X63811657Y69684987D01*
X63665013Y69538343D01*
X63658353Y69532754D01*
X63488473Y69413804D01*
X63480951Y69409461D01*
X63292992Y69321813D01*
X63284823Y69318840D01*
X63257774Y69311592D01*
X63205516Y69277401D01*
X63183732Y69218874D01*
X63200919Y69158836D01*
X63257774Y69118408D01*
X63284823Y69111160D01*
X63292992Y69108187D01*
X63480951Y69020539D01*
X63488473Y69016196D01*
X63658353Y68897246D01*
X63665013Y68891657D01*
X63811657Y68745013D01*
X63817246Y68738353D01*
X63936196Y68568473D01*
X63940539Y68560951D01*
X64028187Y68372992D01*
X64031160Y68364823D01*
X64084835Y68164506D01*
X64086346Y68155934D01*
X64104419Y67949355D01*
X64104419Y67940645D01*
X64086346Y67734066D01*
X64084835Y67725494D01*
X64031160Y67525177D01*
X64028187Y67517008D01*
X63940539Y67329049D01*
X63936196Y67321527D01*
X63817246Y67151647D01*
X63811657Y67144987D01*
X63665013Y66998343D01*
X63658353Y66992754D01*
X63488473Y66873804D01*
X63480951Y66869461D01*
X63292992Y66781813D01*
X63284823Y66778840D01*
X63257774Y66771592D01*
X63205516Y66737401D01*
X63183732Y66678874D01*
X63200919Y66618836D01*
X63257774Y66578408D01*
X63284823Y66571160D01*
X63292992Y66568187D01*
X63480951Y66480539D01*
X63488473Y66476196D01*
X63658353Y66357246D01*
X63665013Y66351657D01*
X63811657Y66205013D01*
X63817246Y66198353D01*
X63936196Y66028473D01*
X63940539Y66020951D01*
X64028187Y65832992D01*
X64031160Y65824823D01*
X64084835Y65624506D01*
X64086346Y65615934D01*
X64104419Y65409355D01*
X64104419Y65400645D01*
X64086346Y65194066D01*
X64084835Y65185494D01*
X64031160Y64985177D01*
X64028187Y64977008D01*
X63940539Y64789049D01*
X63936196Y64781527D01*
X63817246Y64611647D01*
X63811657Y64604987D01*
X63665013Y64458343D01*
X63658353Y64452754D01*
X63488473Y64333804D01*
X63480951Y64329461D01*
X63292992Y64241813D01*
X63284823Y64238840D01*
X63257774Y64231592D01*
X63205516Y64197401D01*
X63183732Y64138874D01*
X63200919Y64078836D01*
X63257774Y64038408D01*
X63284823Y64031160D01*
X63292992Y64028187D01*
X63480951Y63940539D01*
X63488473Y63936196D01*
X63658353Y63817246D01*
X63665013Y63811657D01*
X63811657Y63665013D01*
X63817246Y63658353D01*
X63936196Y63488473D01*
X63940539Y63480951D01*
X64028187Y63292992D01*
X64031160Y63284823D01*
X64084835Y63084506D01*
X64086346Y63075934D01*
X64104419Y62869355D01*
X64104419Y62860645D01*
X64086346Y62654066D01*
X64084835Y62645494D01*
X64031160Y62445177D01*
X64028187Y62437008D01*
X63940539Y62249049D01*
X63936196Y62241527D01*
X63817246Y62071647D01*
X63811657Y62064987D01*
X63665013Y61918343D01*
X63658353Y61912754D01*
X63488473Y61793804D01*
X63480951Y61789461D01*
X63292992Y61701813D01*
X63284823Y61698840D01*
X63257774Y61691592D01*
X63205516Y61657401D01*
X63183732Y61598874D01*
X63200919Y61538836D01*
X63257774Y61498408D01*
X63284823Y61491160D01*
X63292992Y61488187D01*
X63480951Y61400539D01*
X63488473Y61396196D01*
X63658353Y61277246D01*
X63665013Y61271657D01*
X63811657Y61125013D01*
X63817246Y61118353D01*
X63936196Y60948473D01*
X63940539Y60940951D01*
X64028187Y60752992D01*
X64031160Y60744823D01*
X64084835Y60544506D01*
X64086346Y60535934D01*
X64104419Y60329355D01*
X64104419Y60320645D01*
X64086346Y60114066D01*
X64084835Y60105494D01*
X64031160Y59905177D01*
X64028187Y59897008D01*
X63940539Y59709049D01*
X63936196Y59701527D01*
X63817246Y59531647D01*
X63811657Y59524987D01*
X63665013Y59378343D01*
X63658353Y59372754D01*
X63488473Y59253804D01*
X63480951Y59249461D01*
X63292992Y59161813D01*
X63284823Y59158840D01*
X63257774Y59151592D01*
X63205516Y59117401D01*
X63183732Y59058874D01*
X63200919Y58998836D01*
X63257774Y58958408D01*
X63284823Y58951160D01*
X63292992Y58948187D01*
X63480951Y58860539D01*
X63488473Y58856196D01*
X63658353Y58737246D01*
X63665013Y58731657D01*
X63811657Y58585013D01*
X63817246Y58578353D01*
X63936196Y58408473D01*
X63940539Y58400951D01*
X64028187Y58212992D01*
X64031160Y58204823D01*
X64084835Y58004506D01*
X64086346Y57995934D01*
X64104419Y57789355D01*
X64104419Y57780645D01*
X64086346Y57574066D01*
X64084835Y57565494D01*
X64031160Y57365177D01*
X64028187Y57357008D01*
X63940539Y57169049D01*
X63936196Y57161527D01*
X63817246Y56991647D01*
X63811657Y56984987D01*
X63665013Y56838343D01*
X63658353Y56832754D01*
X63488473Y56713804D01*
X63480951Y56709461D01*
X63292992Y56621813D01*
X63284823Y56618840D01*
X63257774Y56611592D01*
X63205516Y56577401D01*
X63183732Y56518874D01*
X63200919Y56458836D01*
X63257774Y56418408D01*
X63284823Y56411160D01*
X63292992Y56408187D01*
X63480951Y56320539D01*
X63488473Y56316196D01*
X63658353Y56197246D01*
X63665013Y56191657D01*
X63811657Y56045013D01*
X63817246Y56038353D01*
X63936196Y55868473D01*
X63940539Y55860951D01*
X64028187Y55672992D01*
X64031160Y55664823D01*
X64084835Y55464506D01*
X64086346Y55455934D01*
X64104419Y55249355D01*
X64104419Y55240645D01*
X64086346Y55034066D01*
X64084835Y55025494D01*
X64031160Y54825177D01*
X64028187Y54817008D01*
X63940539Y54629049D01*
X63936196Y54621527D01*
X63817246Y54451647D01*
X63811657Y54444987D01*
X63665013Y54298343D01*
X63658353Y54292754D01*
X63488473Y54173804D01*
X63480951Y54169461D01*
X63292992Y54081813D01*
X63284823Y54078840D01*
X63257774Y54071592D01*
X63205516Y54037401D01*
X63183732Y53978874D01*
X63200919Y53918836D01*
X63257774Y53878408D01*
X63284823Y53871160D01*
X63292992Y53868187D01*
X63480951Y53780539D01*
X63488473Y53776196D01*
X63658353Y53657246D01*
X63665013Y53651657D01*
X63811657Y53505013D01*
X63817246Y53498353D01*
X63936196Y53328473D01*
X63940539Y53320951D01*
X64028187Y53132992D01*
X64031160Y53124823D01*
X64084835Y52924506D01*
X64086346Y52915934D01*
X64104419Y52709355D01*
X64104419Y52700645D01*
X64086346Y52494066D01*
X64084835Y52485494D01*
X64031160Y52285177D01*
X64028187Y52277008D01*
X63940539Y52089049D01*
X63936196Y52081527D01*
X63817246Y51911647D01*
X63811657Y51904987D01*
X63665013Y51758343D01*
X63658353Y51752754D01*
X63488473Y51633804D01*
X63480951Y51629461D01*
X63292992Y51541813D01*
X63284823Y51538840D01*
X63257774Y51531592D01*
X63205516Y51497401D01*
X63183732Y51438874D01*
X63200919Y51378836D01*
X63257774Y51338408D01*
X63284823Y51331160D01*
X63292992Y51328187D01*
X63480951Y51240539D01*
X63488473Y51236196D01*
X63658353Y51117246D01*
X63665013Y51111657D01*
X63811657Y50965013D01*
X63817246Y50958353D01*
X63936196Y50788473D01*
X63940539Y50780951D01*
X64028187Y50592992D01*
X64031160Y50584823D01*
X64084835Y50384506D01*
X64086346Y50375934D01*
X64104419Y50169355D01*
X64104419Y50160645D01*
X64086346Y49954066D01*
X64084835Y49945494D01*
X64031160Y49745177D01*
X64028187Y49737008D01*
X63940539Y49549049D01*
X63936196Y49541527D01*
X63817246Y49371647D01*
X63811657Y49364987D01*
X63665013Y49218343D01*
X63658353Y49212754D01*
X63488473Y49093804D01*
X63480951Y49089461D01*
X63292992Y49001813D01*
X63284823Y48998840D01*
X63257774Y48991592D01*
X63205516Y48957401D01*
X63183732Y48898874D01*
X63200919Y48838836D01*
X63257774Y48798408D01*
X63284823Y48791160D01*
X63292992Y48788187D01*
X63480951Y48700539D01*
X63488473Y48696196D01*
X63658353Y48577246D01*
X63665013Y48571657D01*
X63811657Y48425013D01*
X63817246Y48418353D01*
X63936196Y48248473D01*
X63940543Y48240946D01*
X63947867Y48225239D01*
X63990613Y48179712D01*
X64025443Y48168359D01*
X64110850Y48157115D01*
X64123406Y48153751D01*
X64243945Y48103822D01*
X64255200Y48097324D01*
X64358709Y48017899D01*
X64367899Y48008709D01*
X64447324Y47905200D01*
X64453822Y47893945D01*
X64503751Y47773406D01*
X64507115Y47760850D01*
X64524144Y47631502D01*
X64524144Y47618498D01*
X64507115Y47489150D01*
X64503751Y47476594D01*
X64453822Y47356055D01*
X64447324Y47344800D01*
X64367899Y47241291D01*
X64358709Y47232101D01*
X64255200Y47152676D01*
X64243945Y47146178D01*
X64123406Y47096249D01*
X64110850Y47092885D01*
X64025443Y47081641D01*
X63969169Y47054564D01*
X63947867Y47024761D01*
X63940543Y47009054D01*
X63936196Y47001527D01*
X63817246Y46831647D01*
X63811657Y46824987D01*
X63665013Y46678343D01*
X63658353Y46672754D01*
X63488473Y46553804D01*
X63480951Y46549461D01*
X63292992Y46461813D01*
X63284823Y46458840D01*
X63257774Y46451592D01*
X63205516Y46417401D01*
X63183732Y46358874D01*
X63200919Y46298836D01*
X63257774Y46258408D01*
X63284823Y46251160D01*
X63292992Y46248187D01*
X63480951Y46160539D01*
X63488473Y46156196D01*
X63658353Y46037246D01*
X63665013Y46031657D01*
X63811657Y45885013D01*
X63817246Y45878353D01*
X63936196Y45708473D01*
X63940543Y45700945D01*
X63944371Y45692736D01*
X63987118Y45647209D01*
X64035000Y45635000D01*
X64911730Y45635000D01*
X64918239Y45634574D01*
X65050859Y45617115D01*
X65063401Y45613754D01*
X65183946Y45563822D01*
X65195200Y45557324D01*
X65301313Y45475901D01*
X65306222Y45471596D01*
X66586596Y44191222D01*
X66590901Y44186313D01*
X66672324Y44080200D01*
X66678822Y44068946D01*
X66728754Y43948401D01*
X66732115Y43935859D01*
X66749574Y43803239D01*
X66750000Y43796730D01*
X66750000Y32783270D01*
X66749573Y32776758D01*
X66745953Y32749254D01*
X66745099Y32736669D01*
X66744985Y32712240D01*
X66743229Y32699362D01*
X66737588Y32678692D01*
X66734914Y32665414D01*
X66732114Y32644146D01*
X66728750Y32631593D01*
X66719393Y32609002D01*
X66715310Y32597065D01*
X66708879Y32573503D01*
X66703848Y32561513D01*
X66693050Y32543008D01*
X66687035Y32530880D01*
X66678823Y32511056D01*
X66672326Y32499802D01*
X66657437Y32480398D01*
X66650404Y32469925D01*
X66638090Y32448823D01*
X66630131Y32438550D01*
X66614911Y32423470D01*
X66605958Y32413309D01*
X66592900Y32396291D01*
X66583706Y32387098D01*
X66564319Y32372222D01*
X66554810Y32363922D01*
X66535122Y32344415D01*
X66530193Y32340133D01*
X64449323Y30758672D01*
X64413888Y30707249D01*
X64415871Y30644831D01*
X64463359Y30590512D01*
X64563886Y30537751D01*
X64573770Y30530928D01*
X64682006Y30435040D01*
X64689966Y30426055D01*
X64772112Y30307045D01*
X64777690Y30296417D01*
X64828969Y30161207D01*
X64831841Y30149554D01*
X64849271Y30006004D01*
X64849271Y29993996D01*
X64831841Y29850446D01*
X64828969Y29838793D01*
X64777690Y29703583D01*
X64772112Y29692955D01*
X64689966Y29573945D01*
X64682006Y29564960D01*
X64573770Y29469072D01*
X64563887Y29462249D01*
X64435851Y29395051D01*
X64424615Y29390790D01*
X64284226Y29356188D01*
X64272297Y29354739D01*
X64144087Y29354739D01*
X64084760Y29335239D01*
X64048571Y29284344D01*
X64044817Y29242686D01*
X64049271Y29206004D01*
X64049271Y29193996D01*
X64033250Y29062053D01*
X64045457Y29000808D01*
X64091618Y28958747D01*
X64132520Y28950000D01*
X64234804Y28950000D01*
X64281276Y28961454D01*
X64364149Y29004949D01*
X64375385Y29009210D01*
X64515774Y29043812D01*
X64527703Y29045261D01*
X64672297Y29045261D01*
X64684226Y29043812D01*
X64824615Y29009210D01*
X64835851Y29004949D01*
X64963887Y28937751D01*
X64973770Y28930928D01*
X65082006Y28835040D01*
X65089966Y28826055D01*
X65172112Y28707045D01*
X65177690Y28696417D01*
X65228969Y28561207D01*
X65231841Y28549554D01*
X65249271Y28406004D01*
X65249271Y28393996D01*
X65239602Y28314366D01*
X65251809Y28253121D01*
X65297970Y28211060D01*
X65369212Y28208960D01*
X65369507Y28207761D01*
X65373819Y28208824D01*
X65374326Y28208809D01*
X65375379Y28209208D01*
X65515774Y28243812D01*
X65527703Y28245261D01*
X65672297Y28245261D01*
X65684226Y28243812D01*
X65824615Y28209210D01*
X65835851Y28204949D01*
X65963887Y28137751D01*
X65973770Y28130928D01*
X66082006Y28035040D01*
X66089966Y28026055D01*
X66172112Y27907045D01*
X66177690Y27896417D01*
X66228969Y27761207D01*
X66231841Y27749554D01*
X66249271Y27606004D01*
X66249271Y27593996D01*
X66231841Y27450446D01*
X66228969Y27438793D01*
X66177690Y27303583D01*
X66172112Y27292955D01*
X66089966Y27173945D01*
X66082006Y27164960D01*
X65973770Y27069072D01*
X65963887Y27062249D01*
X65835851Y26995051D01*
X65824615Y26990790D01*
X65684226Y26956188D01*
X65672297Y26954739D01*
X65527703Y26954739D01*
X65515774Y26956188D01*
X65375385Y26990790D01*
X65364149Y26995051D01*
X65281276Y27038546D01*
X65234804Y27050000D01*
X56069238Y27050000D01*
X55998528Y27020711D01*
X55784289Y26806472D01*
X55755000Y26735762D01*
X55755000Y26622878D01*
X55774500Y26563551D01*
X55825395Y26527362D01*
X55900398Y26533778D01*
X55955285Y26561745D01*
X55970069Y26566548D01*
X56051118Y26579385D01*
X56058931Y26580000D01*
X56851069Y26580000D01*
X56858882Y26579385D01*
X56939931Y26566548D01*
X56954718Y26561744D01*
X57031336Y26522705D01*
X57032465Y26524920D01*
X57080678Y26509435D01*
X57127572Y26524848D01*
X57128664Y26522705D01*
X57205282Y26561744D01*
X57220069Y26566548D01*
X57301118Y26579385D01*
X57308931Y26580000D01*
X58101069Y26580000D01*
X58108882Y26579385D01*
X58189931Y26566548D01*
X58204718Y26561744D01*
X58281336Y26522705D01*
X58282465Y26524920D01*
X58330678Y26509435D01*
X58377572Y26524848D01*
X58378664Y26522705D01*
X58455282Y26561744D01*
X58470069Y26566548D01*
X58551118Y26579385D01*
X58558931Y26580000D01*
X59351069Y26580000D01*
X59358882Y26579385D01*
X59439931Y26566548D01*
X59454718Y26561744D01*
X59524326Y26526277D01*
X59536899Y26517142D01*
X59544752Y26509289D01*
X59615462Y26480000D01*
X61788987Y26480000D01*
X61793752Y26478434D01*
X61805000Y26456172D01*
X61805000Y22313931D01*
X61804385Y22306118D01*
X61791548Y22225069D01*
X61786744Y22210282D01*
X61751277Y22140674D01*
X61742142Y22128101D01*
X61686899Y22072858D01*
X61674326Y22063723D01*
X61604718Y22028256D01*
X61589931Y22023452D01*
X61508882Y22010615D01*
X61501069Y22010000D01*
X61104999Y22010000D01*
X61045672Y21990500D01*
X61005000Y21910001D01*
X61005000Y21026013D01*
X61003434Y21021248D01*
X60981172Y21010000D01*
X58821013Y21010000D01*
X58816248Y21011566D01*
X58805000Y21033828D01*
X58805000Y21842875D01*
X58771312Y21917726D01*
X58717992Y21964963D01*
X58710034Y21973945D01*
X58627888Y22092955D01*
X58622310Y22103583D01*
X58571031Y22238793D01*
X58568159Y22250446D01*
X58550729Y22393996D01*
X58550729Y22406004D01*
X58568159Y22549554D01*
X58571031Y22561207D01*
X58622310Y22696417D01*
X58627888Y22707045D01*
X58710034Y22826055D01*
X58717992Y22835037D01*
X58771312Y22882274D01*
X58805000Y22957125D01*
X58805000Y22985764D01*
X58785500Y23045091D01*
X58734605Y23081280D01*
X58672164Y23080218D01*
X58634291Y23056474D01*
X56189828Y20612011D01*
X56187871Y20611362D01*
X56183490Y20606933D01*
X56080200Y20527676D01*
X56068945Y20521178D01*
X55999435Y20492386D01*
X55952086Y20451667D01*
X55938128Y20390797D01*
X55963005Y20333516D01*
X56037703Y20300000D01*
X66834315Y20300000D01*
X66905025Y20329289D01*
X67670711Y21094975D01*
X67700000Y21165685D01*
X67700000Y71834315D01*
X67670711Y71905025D01*
X64905025Y74670711D01*
X64834315Y74700000D01*
X35165685Y74700000D01*
X35094975Y74670711D01*
X33329289Y72905025D01*
X33300000Y72834315D01*
X33300000Y40140313D01*
G37*
G36*
X41550000Y29861500D02*
X41577861Y29792247D01*
X44728103Y26510746D01*
X44800241Y26480000D01*
X45794538Y26480000D01*
X45865248Y26509289D01*
X45873101Y26517142D01*
X45885674Y26526277D01*
X45955282Y26561744D01*
X45970069Y26566548D01*
X46051118Y26579385D01*
X46058931Y26580000D01*
X46288982Y26580000D01*
X46293747Y26578434D01*
X46304995Y26556172D01*
X46304995Y26280000D01*
X46055000Y26280000D01*
X46055000Y25080000D01*
X46855000Y25080000D01*
X46855000Y26280000D01*
X46605005Y26280000D01*
X46605005Y26563987D01*
X46606571Y26568752D01*
X46628833Y26580000D01*
X46851069Y26580000D01*
X46858882Y26579385D01*
X46939931Y26566548D01*
X46954718Y26561744D01*
X47031336Y26522705D01*
X47032465Y26524920D01*
X47080678Y26509435D01*
X47127572Y26524848D01*
X47128664Y26522705D01*
X47205282Y26561744D01*
X47220069Y26566548D01*
X47301118Y26579385D01*
X47308931Y26580000D01*
X47500001Y26580000D01*
X47559328Y26599500D01*
X47600000Y26679999D01*
X47600000Y27247303D01*
X47566313Y27322153D01*
X47517994Y27364960D01*
X47510034Y27373945D01*
X47427888Y27492955D01*
X47422310Y27503583D01*
X47371031Y27638793D01*
X47368159Y27650446D01*
X47350729Y27793996D01*
X47350729Y27806004D01*
X47368159Y27949554D01*
X47371031Y27961207D01*
X47422310Y28096417D01*
X47427888Y28107045D01*
X47510034Y28226055D01*
X47517994Y28235040D01*
X47626230Y28330928D01*
X47636113Y28337751D01*
X47764149Y28404949D01*
X47775385Y28409210D01*
X47915774Y28443812D01*
X47927703Y28445261D01*
X48072297Y28445261D01*
X48084226Y28443812D01*
X48224615Y28409210D01*
X48235851Y28404949D01*
X48363887Y28337751D01*
X48373770Y28330928D01*
X48482006Y28235040D01*
X48489966Y28226055D01*
X48572112Y28107045D01*
X48577690Y28096417D01*
X48628969Y27961207D01*
X48631841Y27949554D01*
X48649271Y27806004D01*
X48649271Y27793996D01*
X48631841Y27650446D01*
X48628969Y27638793D01*
X48577690Y27503583D01*
X48572112Y27492955D01*
X48489966Y27373945D01*
X48482006Y27364960D01*
X48433687Y27322153D01*
X48400000Y27247303D01*
X48400000Y27196245D01*
X48419500Y27136918D01*
X48470395Y27100729D01*
X48532836Y27101791D01*
X48574486Y27129525D01*
X50160645Y28900323D01*
X50160645Y33685581D01*
X49954066Y33703654D01*
X49945494Y33705165D01*
X49745177Y33758840D01*
X49737008Y33761813D01*
X49549049Y33849461D01*
X49541527Y33853804D01*
X49416083Y33941641D01*
X49407953Y33952507D01*
X49407945Y33953597D01*
X49411402Y33959263D01*
X49616978Y34164839D01*
X49642875Y34143585D01*
X49805354Y34056738D01*
X49981654Y34003258D01*
X50165000Y33985200D01*
X50348346Y34003258D01*
X50524646Y34056738D01*
X50687125Y34143585D01*
X50713022Y34164839D01*
X50915712Y33962149D01*
X50921831Y33950037D01*
X50921650Y33948962D01*
X50917260Y33943982D01*
X50788473Y33853804D01*
X50780951Y33849461D01*
X50592992Y33761813D01*
X50584823Y33758840D01*
X50384506Y33705165D01*
X50375934Y33703654D01*
X50169355Y33685581D01*
X50160645Y33685581D01*
X50160645Y28900323D01*
X53998138Y33184528D01*
X54002796Y33189089D01*
X54003969Y33190096D01*
X54012466Y33199074D01*
X54026291Y33212899D01*
X54063980Y33241819D01*
X54068244Y33245281D01*
X54104283Y33276222D01*
X54120640Y33286906D01*
X54124153Y33289065D01*
X54141051Y33298821D01*
X54184938Y33316999D01*
X54189955Y33319240D01*
X54232783Y33339804D01*
X54251357Y33345892D01*
X54255308Y33347068D01*
X54274141Y33352115D01*
X54321257Y33358317D01*
X54326684Y33359184D01*
X54373354Y33367959D01*
X54392875Y33369032D01*
X54392875Y33369033D01*
X54396949Y33369145D01*
X54396949Y33369144D01*
X54416496Y33369145D01*
X54463604Y33362943D01*
X54469068Y33362376D01*
X54516423Y33358772D01*
X54535559Y33354757D01*
X54535559Y33354758D01*
X54539514Y33353814D01*
X54541025Y33353409D01*
X54541441Y33353354D01*
X54547584Y33351888D01*
X54552356Y33351260D01*
X54552441Y33351906D01*
X54566914Y33350000D01*
X63171992Y33350000D01*
X63234461Y33371913D01*
X63812470Y33834320D01*
X63850000Y33912406D01*
X63850000Y33921911D01*
X63830500Y33981238D01*
X63779605Y34017427D01*
X63717164Y34016365D01*
X63679291Y33992621D01*
X63665013Y33978343D01*
X63658353Y33972754D01*
X63488473Y33853804D01*
X63480951Y33849461D01*
X63292992Y33761813D01*
X63284823Y33758840D01*
X63084506Y33705165D01*
X63075934Y33703654D01*
X62869355Y33685581D01*
X62860645Y33685581D01*
X62654066Y33703654D01*
X62645494Y33705165D01*
X62445177Y33758840D01*
X62437008Y33761813D01*
X62249049Y33849461D01*
X62241527Y33853804D01*
X62071647Y33972754D01*
X62064987Y33978343D01*
X61918343Y34124987D01*
X61912754Y34131647D01*
X61793804Y34301527D01*
X61789461Y34309049D01*
X61701813Y34497008D01*
X61698840Y34505177D01*
X61691592Y34532226D01*
X61657401Y34584484D01*
X61598874Y34606268D01*
X61538836Y34589081D01*
X61498408Y34532226D01*
X61491160Y34505177D01*
X61488187Y34497008D01*
X61400539Y34309049D01*
X61396196Y34301527D01*
X61277246Y34131647D01*
X61271657Y34124987D01*
X61125013Y33978343D01*
X61118353Y33972754D01*
X60948473Y33853804D01*
X60940951Y33849461D01*
X60752992Y33761813D01*
X60744823Y33758840D01*
X60544506Y33705165D01*
X60535934Y33703654D01*
X60329355Y33685581D01*
X60320645Y33685581D01*
X60114066Y33703654D01*
X60105494Y33705165D01*
X59905177Y33758840D01*
X59897008Y33761813D01*
X59709049Y33849461D01*
X59701527Y33853804D01*
X59531647Y33972754D01*
X59524987Y33978343D01*
X59378343Y34124987D01*
X59372754Y34131647D01*
X59253804Y34301527D01*
X59249461Y34309049D01*
X59161813Y34497008D01*
X59158840Y34505177D01*
X59151592Y34532226D01*
X59117401Y34584484D01*
X59058874Y34606268D01*
X58998836Y34589081D01*
X58958408Y34532226D01*
X58951160Y34505177D01*
X58948187Y34497008D01*
X58860539Y34309049D01*
X58856196Y34301527D01*
X58737246Y34131647D01*
X58731657Y34124987D01*
X58585013Y33978343D01*
X58578353Y33972754D01*
X58408473Y33853804D01*
X58400951Y33849461D01*
X58212992Y33761813D01*
X58204823Y33758840D01*
X58004506Y33705165D01*
X57995934Y33703654D01*
X57789355Y33685581D01*
X57780645Y33685581D01*
X57574066Y33703654D01*
X57565494Y33705165D01*
X57365177Y33758840D01*
X57357008Y33761813D01*
X57169049Y33849461D01*
X57161527Y33853804D01*
X56991647Y33972754D01*
X56984987Y33978343D01*
X56838343Y34124987D01*
X56832754Y34131647D01*
X56713804Y34301527D01*
X56709461Y34309049D01*
X56621813Y34497008D01*
X56618840Y34505177D01*
X56611592Y34532226D01*
X56577401Y34584484D01*
X56518874Y34606268D01*
X56458836Y34589081D01*
X56418408Y34532226D01*
X56411160Y34505177D01*
X56408187Y34497008D01*
X56320539Y34309049D01*
X56316196Y34301527D01*
X56197246Y34131647D01*
X56191657Y34124987D01*
X56045013Y33978343D01*
X56038353Y33972754D01*
X55868473Y33853804D01*
X55860951Y33849461D01*
X55672992Y33761813D01*
X55664823Y33758840D01*
X55464506Y33705165D01*
X55455934Y33703654D01*
X55249355Y33685581D01*
X55240645Y33685581D01*
X55034066Y33703654D01*
X55025494Y33705165D01*
X54825177Y33758840D01*
X54817008Y33761813D01*
X54629049Y33849461D01*
X54621527Y33853804D01*
X54451647Y33972754D01*
X54444987Y33978343D01*
X54298343Y34124987D01*
X54292754Y34131647D01*
X54173804Y34301527D01*
X54169461Y34309049D01*
X54081813Y34497008D01*
X54078840Y34505177D01*
X54071592Y34532226D01*
X54037401Y34584484D01*
X53978874Y34606268D01*
X53918836Y34589081D01*
X53878408Y34532226D01*
X53871160Y34505177D01*
X53868187Y34497008D01*
X53780539Y34309049D01*
X53776196Y34301527D01*
X53657246Y34131647D01*
X53651657Y34124987D01*
X53505013Y33978343D01*
X53498353Y33972754D01*
X53328473Y33853804D01*
X53320951Y33849461D01*
X53132992Y33761813D01*
X53124823Y33758840D01*
X52924506Y33705165D01*
X52915934Y33703654D01*
X52709355Y33685581D01*
X52700645Y33685581D01*
X52494066Y33703654D01*
X52485494Y33705165D01*
X52285177Y33758840D01*
X52277008Y33761813D01*
X52089049Y33849461D01*
X52081527Y33853804D01*
X51911647Y33972754D01*
X51904987Y33978343D01*
X51758343Y34124987D01*
X51752754Y34131647D01*
X51633804Y34301527D01*
X51629461Y34309049D01*
X51541813Y34497008D01*
X51538840Y34505177D01*
X51531592Y34532226D01*
X51497401Y34584484D01*
X51438874Y34606268D01*
X51378836Y34589081D01*
X51338408Y34532226D01*
X51331160Y34505177D01*
X51328187Y34497008D01*
X51240539Y34309049D01*
X51236196Y34301527D01*
X51148359Y34176083D01*
X51137493Y34167953D01*
X51136403Y34167945D01*
X51130737Y34171402D01*
X50925161Y34376978D01*
X50946415Y34402875D01*
X51033262Y34565354D01*
X51086742Y34741654D01*
X51104800Y34925000D01*
X51086742Y35108346D01*
X51033262Y35284646D01*
X50946415Y35447125D01*
X50829539Y35589539D01*
X50687125Y35706415D01*
X50524646Y35793262D01*
X50348346Y35846742D01*
X50165000Y35864800D01*
X49981654Y35846742D01*
X49805354Y35793262D01*
X49642875Y35706415D01*
X49616978Y35685161D01*
X49414288Y35887851D01*
X49408169Y35899963D01*
X49408350Y35901038D01*
X49412740Y35906018D01*
X49541527Y35996196D01*
X49549049Y36000539D01*
X49737008Y36088187D01*
X49745177Y36091160D01*
X49945494Y36144835D01*
X49954066Y36146346D01*
X50160645Y36164419D01*
X50169355Y36164419D01*
X50375934Y36146346D01*
X50384510Y36144834D01*
X50465031Y36123259D01*
X50527383Y36126740D01*
X50575512Y36166534D01*
X50590646Y36227122D01*
X50561622Y36290561D01*
X48306472Y38545711D01*
X48235762Y38575000D01*
X47488819Y38575000D01*
X47429492Y38555500D01*
X47392832Y38489551D01*
X47390000Y38490000D01*
X47376548Y38405069D01*
X47371744Y38390282D01*
X47336277Y38320674D01*
X47327142Y38308101D01*
X47271899Y38252858D01*
X47259326Y38243723D01*
X47189718Y38208256D01*
X47174931Y38203452D01*
X47093882Y38190615D01*
X47086069Y38190000D01*
X45623931Y38190000D01*
X45616118Y38190615D01*
X45535069Y38203452D01*
X45520285Y38208255D01*
X45495398Y38220936D01*
X45433684Y38230495D01*
X45378333Y38201577D01*
X45350000Y38131836D01*
X45350000Y38019238D01*
X45379289Y37948528D01*
X47189180Y36138637D01*
X47244919Y36110475D01*
X47285772Y36112755D01*
X47405493Y36144835D01*
X47414069Y36146346D01*
X47620645Y36164419D01*
X47629355Y36164419D01*
X47835934Y36146346D01*
X47844506Y36144835D01*
X48044823Y36091160D01*
X48052992Y36088187D01*
X48240951Y36000539D01*
X48248473Y35996196D01*
X48418353Y35877246D01*
X48425013Y35871657D01*
X48571657Y35725013D01*
X48577246Y35718353D01*
X48696196Y35548473D01*
X48700539Y35540951D01*
X48788187Y35352992D01*
X48791160Y35344823D01*
X48798408Y35317774D01*
X48832599Y35265516D01*
X48891126Y35243732D01*
X48951164Y35260919D01*
X48991592Y35317774D01*
X48998840Y35344823D01*
X49001813Y35352992D01*
X49089461Y35540951D01*
X49093804Y35548473D01*
X49181641Y35673917D01*
X49192507Y35682047D01*
X49193597Y35682055D01*
X49199263Y35678598D01*
X49404839Y35473022D01*
X49383585Y35447125D01*
X49296738Y35284646D01*
X49243258Y35108346D01*
X49225200Y34925000D01*
X49243258Y34741654D01*
X49296738Y34565354D01*
X49383585Y34402875D01*
X49404839Y34376978D01*
X49202149Y34174288D01*
X49190037Y34168169D01*
X49188962Y34168350D01*
X49183982Y34172740D01*
X49093804Y34301527D01*
X49089461Y34309049D01*
X49001813Y34497008D01*
X48998840Y34505177D01*
X48991592Y34532226D01*
X48957401Y34584484D01*
X48898874Y34606268D01*
X48838836Y34589081D01*
X48798408Y34532226D01*
X48791160Y34505177D01*
X48788187Y34497008D01*
X48700539Y34309049D01*
X48696196Y34301527D01*
X48577246Y34131647D01*
X48571657Y34124987D01*
X48425013Y33978343D01*
X48418353Y33972754D01*
X48248473Y33853804D01*
X48240951Y33849461D01*
X48052992Y33761813D01*
X48044823Y33758840D01*
X47844506Y33705165D01*
X47835934Y33703654D01*
X47629355Y33685581D01*
X47620645Y33685581D01*
X47414066Y33703654D01*
X47405494Y33705165D01*
X47205177Y33758840D01*
X47197008Y33761813D01*
X47009049Y33849461D01*
X47001527Y33853804D01*
X46831647Y33972754D01*
X46824987Y33978343D01*
X46678343Y34124987D01*
X46672754Y34131647D01*
X46553804Y34301527D01*
X46549461Y34309049D01*
X46461813Y34497008D01*
X46458840Y34505177D01*
X46451592Y34532226D01*
X46417401Y34584484D01*
X46358874Y34606268D01*
X46298836Y34589081D01*
X46258408Y34532226D01*
X46251160Y34505177D01*
X46248187Y34497008D01*
X46160539Y34309049D01*
X46156196Y34301527D01*
X46037246Y34131647D01*
X46031657Y34124987D01*
X45885013Y33978343D01*
X45878353Y33972754D01*
X45708473Y33853804D01*
X45700951Y33849461D01*
X45512992Y33761813D01*
X45504823Y33758840D01*
X45304506Y33705165D01*
X45295934Y33703654D01*
X45089355Y33685581D01*
X45080645Y33685581D01*
X44874066Y33703654D01*
X44865494Y33705165D01*
X44665177Y33758840D01*
X44657008Y33761813D01*
X44469049Y33849461D01*
X44461527Y33853804D01*
X44291647Y33972754D01*
X44284987Y33978343D01*
X44138343Y34124987D01*
X44132754Y34131647D01*
X44013804Y34301527D01*
X44009461Y34309049D01*
X43921813Y34497008D01*
X43918840Y34505177D01*
X43911592Y34532226D01*
X43877401Y34584484D01*
X43818874Y34606268D01*
X43758836Y34589081D01*
X43718408Y34532226D01*
X43711160Y34505177D01*
X43708187Y34497008D01*
X43620539Y34309049D01*
X43616196Y34301527D01*
X43497246Y34131647D01*
X43491657Y34124987D01*
X43345013Y33978343D01*
X43338353Y33972754D01*
X43168473Y33853804D01*
X43160951Y33849461D01*
X42972992Y33761813D01*
X42964823Y33758840D01*
X42764506Y33705165D01*
X42755934Y33703654D01*
X42549355Y33685581D01*
X42540645Y33685581D01*
X42334066Y33703654D01*
X42325494Y33705165D01*
X42125177Y33758840D01*
X42117008Y33761813D01*
X41929049Y33849461D01*
X41921527Y33853804D01*
X41751647Y33972754D01*
X41744987Y33978343D01*
X41720709Y34002621D01*
X41664970Y34030783D01*
X41603392Y34020385D01*
X41559991Y33975481D01*
X41550000Y33931911D01*
X41550000Y29861500D01*
G37*
G36*
X46605000Y23281593D02*
X46624500Y23222266D01*
X46658527Y23193048D01*
X46763886Y23137751D01*
X46773770Y23130928D01*
X46882006Y23035040D01*
X46889966Y23026055D01*
X46972112Y22907045D01*
X46977690Y22896417D01*
X47028969Y22761207D01*
X47031841Y22749554D01*
X47049271Y22606004D01*
X47049271Y22593996D01*
X47033250Y22462053D01*
X47045457Y22400808D01*
X47091618Y22358747D01*
X47132520Y22350000D01*
X55130761Y22350000D01*
X55201471Y22379289D01*
X57220711Y24398529D01*
X57250000Y24469239D01*
X57250000Y24714192D01*
X57230500Y24773519D01*
X57195399Y24803292D01*
X57128664Y24837295D01*
X57127535Y24835080D01*
X57079322Y24850565D01*
X57032428Y24835152D01*
X57031336Y24837295D01*
X56959453Y24800669D01*
X56925516Y24772444D01*
X56904025Y24744436D01*
X56899223Y24737605D01*
X56878545Y24705412D01*
X56870152Y24695486D01*
X56864557Y24690397D01*
X56852508Y24677297D01*
X56847901Y24671293D01*
X56838706Y24662099D01*
X56808356Y24638811D01*
X56801946Y24633454D01*
X56771203Y24605493D01*
X56766093Y24601423D01*
X56116465Y24150155D01*
X56110878Y24146793D01*
X56101236Y24141820D01*
X56086196Y24132278D01*
X56080196Y24127673D01*
X56068941Y24121175D01*
X56033586Y24106530D01*
X56026014Y24103017D01*
X55992006Y24085476D01*
X55979775Y24081076D01*
X55972387Y24079467D01*
X55955392Y24074144D01*
X55948400Y24071247D01*
X55935855Y24067886D01*
X55897912Y24062891D01*
X55889682Y24061455D01*
X55852295Y24053312D01*
X55839349Y24052228D01*
X55831787Y24052587D01*
X55813993Y24051843D01*
X55803249Y24050428D01*
X55796720Y24050000D01*
X54262502Y24050000D01*
X54203175Y24030500D01*
X54166986Y23979605D01*
X54173956Y23903531D01*
X54177691Y23896415D01*
X54228969Y23761207D01*
X54231841Y23749554D01*
X54249271Y23606004D01*
X54249271Y23593996D01*
X54231841Y23450446D01*
X54228969Y23438793D01*
X54177690Y23303583D01*
X54172112Y23292955D01*
X54089966Y23173945D01*
X54082006Y23164960D01*
X53973770Y23069072D01*
X53963887Y23062249D01*
X53835851Y22995051D01*
X53824615Y22990790D01*
X53684226Y22956188D01*
X53672297Y22954739D01*
X53527703Y22954739D01*
X53515774Y22956188D01*
X53375385Y22990790D01*
X53364149Y22995051D01*
X53281276Y23038546D01*
X53234804Y23050000D01*
X49765196Y23050000D01*
X49718724Y23038546D01*
X49635851Y22995051D01*
X49624615Y22990790D01*
X49484226Y22956188D01*
X49472297Y22954739D01*
X49327703Y22954739D01*
X49315774Y22956188D01*
X49175385Y22990790D01*
X49164149Y22995051D01*
X49036113Y23062249D01*
X49026230Y23069072D01*
X48917994Y23164960D01*
X48910034Y23173945D01*
X48827888Y23292955D01*
X48822310Y23303583D01*
X48771031Y23438793D01*
X48768159Y23450446D01*
X48750729Y23593996D01*
X48750729Y23606004D01*
X48768159Y23749554D01*
X48771031Y23761207D01*
X48822309Y23896415D01*
X48826044Y23903531D01*
X48836347Y23965125D01*
X48808099Y24020820D01*
X48737498Y24050000D01*
X46704999Y24050000D01*
X46645672Y24030500D01*
X46605000Y23950001D01*
X46605000Y23281593D01*
G37*
G04 --- BOARD END --- *
G04 #@! TF.MD5,3835a0d95b34f7dc012d1dc889d3da95*
M02*
