G04 --- HEADER BEGIN --- *
G04 #@! TF.GenerationSoftware,LibrePCB,LibrePCB,1.1.0*
G04 #@! TF.CreationDate,2024-04-23T21:01:02*
G04 #@! TF.ProjectId,motherboard (Version 2),e7e7bca0-b6b9-4684-b626-93943a2f5169,version_2*
G04 #@! TF.Part,Single*
G04 #@! TF.SameCoordinates*
G04 #@! TF.FileFunction,Legend,Bot*
G04 #@! TF.FilePolarity,Positive*
%FSLAX66Y66*%
%MOMM*%
G01*
G75*
G04 --- HEADER END --- *
G04 --- APERTURE LIST BEGIN --- *
%ADD10C,0.2032*%
%ADD11C,0.1524*%
%ADD12C,0.127*%
%ADD13C,0.15*%
%ADD14C,0.1778*%
%ADD15C,2.0796*%
%AMROUNDEDRECT16*20,1,1.47,-0.735,0.0,0.735,0.0,0.0*20,1,1.27,-0.835,0.0,0.835,0.0,0.0*1,1,0.2,-0.735,0.635*1,1,0.2,0.735,0.635*1,1,0.2,0.735,-0.635*1,1,0.2,-0.735,-0.635*%
%ADD16ROUNDEDRECT16*%
%AMROUNDEDRECT17*20,1,2.0,-1.35,0.0,1.35,0.0,0.0*20,1,1.8,-1.45,0.0,1.45,0.0,0.0*1,1,0.2,-1.35,0.9*1,1,0.2,1.35,0.9*1,1,0.2,1.35,-0.9*1,1,0.2,-1.35,-0.9*%
%ADD17ROUNDEDRECT17*%
%ADD18C,0.01*%
%ADD19C,1.708*%
%ADD20C,2.825*%
%ADD21C,3.2*%
G04 --- APERTURE LIST END --- *
G04 --- BOARD BEGIN --- *
D10*
G04 #@! TO.C,D7*
X58055000Y49290000D02*
X57605000Y49290000D01*
X57605000Y44690000D01*
X58055000Y44690000D01*
X60055000Y44690000D02*
X60505000Y44690000D01*
X60505000Y49290000D01*
X60055000Y49290000D01*
X58055000Y45990000D02*
X60055000Y45990000D01*
D11*
G04 #@! TO.C,R3*
X52045000Y49262000D02*
X52045000Y47244000D01*
X49555000Y49287000D02*
X49555000Y47233000D01*
D10*
G04 #@! TO.C,D4*
X45355000Y43575000D02*
X44905000Y43575000D01*
X44905000Y38975000D01*
X45355000Y38975000D01*
X47355000Y38975000D02*
X47805000Y38975000D01*
X47805000Y43575000D01*
X47355000Y43575000D01*
X45355000Y40275000D02*
X47355000Y40275000D01*
D12*
G04 #@! TO.C,J1*
X58805000Y29570000D02*
X59505000Y29170000D01*
X58805000Y28770000D01*
X58805000Y29570000D01*
X65060000Y31420000D02*
X65060000Y21920000D01*
X60860000Y23450000D02*
X60860000Y21920000D01*
X62110000Y21920000D01*
X62110000Y31420000D02*
X60860000Y31420000D01*
X60860000Y29890000D01*
G04 #@! TO.C,J2*
X46605000Y23770000D02*
X45905000Y24170000D01*
X46605000Y24570000D01*
X46605000Y23770000D01*
X40350000Y21920000D02*
X40350000Y31420000D01*
X44550000Y29890000D02*
X44550000Y31420000D01*
X43300000Y31420000D01*
X43300000Y21920000D02*
X44550000Y21920000D01*
X44550000Y23450000D01*
D10*
G04 #@! TO.C,D3*
X49800000Y43575000D02*
X49350000Y43575000D01*
X49350000Y38975000D01*
X49800000Y38975000D01*
X51800000Y38975000D02*
X52250000Y38975000D01*
X52250000Y43575000D01*
X51800000Y43575000D01*
X49800000Y40275000D02*
X51800000Y40275000D01*
D11*
G04 #@! TO.C,J4*
X47220000Y73820000D02*
X58220000Y73820000D01*
X58220000Y61150000D01*
X47220000Y61150000D01*
X47220000Y73820000D01*
D10*
X47779000Y58956819D02*
X46133362Y58956819D01*
X59236000Y58829819D02*
X57590362Y58829819D01*
X58413181Y58007000D02*
X58413181Y59652638D01*
G04 #@! TO.C,D8*
X53610000Y49290000D02*
X53160000Y49290000D01*
X53160000Y44690000D01*
X53610000Y44690000D01*
X55610000Y44690000D02*
X56060000Y44690000D01*
X56060000Y49290000D01*
X55610000Y49290000D01*
X53610000Y45990000D02*
X55610000Y45990000D01*
G04 #@! TO.C,S1*
X46890000Y52435000D02*
X46890000Y56785000D01*
X58520000Y56785000D01*
X58520000Y52435000D01*
X46890000Y52435000D01*
D13*
G04 #@! TO.C,D7*
X59309000Y48006000D02*
X58509000Y48006000D01*
X58509000Y47815778D01*
X58547222Y47701111D01*
X58623667Y47624667D01*
X58699222Y47587333D01*
X58852111Y47549111D01*
X58965889Y47549111D01*
X59118778Y47587333D01*
X59194333Y47624667D01*
X59270778Y47701111D01*
X59309000Y47815778D01*
X59309000Y48006000D01*
X58509000Y47239111D02*
X58509000Y46705778D01*
X59309000Y47048889D01*
G04 #@! TO.C,R3*
X51212500Y48343111D02*
X50831167Y48609778D01*
X51212500Y48800000D02*
X50412500Y48800000D01*
X50412500Y48495111D01*
X50450722Y48418667D01*
X50488944Y48381333D01*
X50564500Y48343111D01*
X50679167Y48343111D01*
X50755611Y48381333D01*
X50793833Y48418667D01*
X50831167Y48495111D01*
X50831167Y48800000D01*
X50412500Y48033111D02*
X50412500Y47538000D01*
X50717389Y47804667D01*
X50717389Y47690000D01*
X50755611Y47614444D01*
X50793833Y47576222D01*
X50869389Y47538000D01*
X51060500Y47538000D01*
X51136056Y47576222D01*
X51174278Y47614444D01*
X51212500Y47690000D01*
X51212500Y47918444D01*
X51174278Y47994889D01*
X51136056Y48033111D01*
G04 #@! TO.C,D4*
X46609000Y42291000D02*
X45809000Y42291000D01*
X45809000Y42100778D01*
X45847222Y41986111D01*
X45923667Y41909667D01*
X45999222Y41872333D01*
X46152111Y41834111D01*
X46265889Y41834111D01*
X46418778Y41872333D01*
X46494333Y41909667D01*
X46570778Y41986111D01*
X46609000Y42100778D01*
X46609000Y42291000D01*
X46075667Y41142778D02*
X46609000Y41142778D01*
X45770778Y41333889D02*
X46342333Y41524111D01*
X46342333Y41029000D01*
G04 #@! TO.C,J1*
X58840000Y22632413D02*
X59611243Y22632413D01*
X59764772Y22683989D01*
X59867924Y22787141D01*
X59919500Y22940670D01*
X59919500Y23043822D01*
X59919500Y21649999D02*
X59919500Y22266513D01*
X59919500Y21958256D02*
X58840000Y21958256D01*
X58994728Y22061408D01*
X59096681Y22163361D01*
X59148257Y22266513D01*
G04 #@! TO.C,J2*
X46490500Y22278591D02*
X47261743Y22278591D01*
X47415272Y22330167D01*
X47518424Y22433319D01*
X47570000Y22586848D01*
X47570000Y22690000D01*
X46593652Y21861115D02*
X46542076Y21809539D01*
X46490500Y21707586D01*
X46490500Y21449705D01*
X46542076Y21347753D01*
X46593652Y21296177D01*
X46695605Y21244600D01*
X46798757Y21244600D01*
X46953486Y21296177D01*
X47570000Y21912691D01*
X47570000Y21244600D01*
G04 #@! TO.C,D3*
X51054000Y42291000D02*
X50254000Y42291000D01*
X50254000Y42100778D01*
X50292222Y41986111D01*
X50368667Y41909667D01*
X50444222Y41872333D01*
X50597111Y41834111D01*
X50710889Y41834111D01*
X50863778Y41872333D01*
X50939333Y41909667D01*
X51015778Y41986111D01*
X51054000Y42100778D01*
X51054000Y42291000D01*
X50254000Y41524111D02*
X50254000Y41029000D01*
X50558889Y41295667D01*
X50558889Y41181000D01*
X50597111Y41105444D01*
X50635333Y41067222D01*
X50710889Y41029000D01*
X50902000Y41029000D01*
X50977556Y41067222D01*
X51015778Y41105444D01*
X51054000Y41181000D01*
X51054000Y41409444D01*
X51015778Y41485889D01*
X50977556Y41524111D01*
G04 #@! TO.C,D8*
X54864000Y48006000D02*
X54064000Y48006000D01*
X54064000Y47815778D01*
X54102222Y47701111D01*
X54178667Y47624667D01*
X54254222Y47587333D01*
X54407111Y47549111D01*
X54520889Y47549111D01*
X54673778Y47587333D01*
X54749333Y47624667D01*
X54825778Y47701111D01*
X54864000Y47815778D01*
X54864000Y48006000D01*
X54407111Y47087111D02*
X54368889Y47162667D01*
X54330667Y47200889D01*
X54254222Y47239111D01*
X54216000Y47239111D01*
X54140444Y47200889D01*
X54102222Y47162667D01*
X54064000Y47087111D01*
X54064000Y46934222D01*
X54102222Y46857778D01*
X54140444Y46820444D01*
X54216000Y46782222D01*
X54254222Y46782222D01*
X54330667Y46820444D01*
X54368889Y46857778D01*
X54407111Y46934222D01*
X54407111Y47087111D01*
X54445333Y47162667D01*
X54482667Y47200889D01*
X54559111Y47239111D01*
X54712000Y47239111D01*
X54787556Y47200889D01*
X54825778Y47162667D01*
X54864000Y47087111D01*
X54864000Y46934222D01*
X54825778Y46857778D01*
X54787556Y46820444D01*
X54712000Y46782222D01*
X54559111Y46782222D01*
X54482667Y46820444D01*
X54445333Y46857778D01*
X54407111Y46934222D01*
D14*
G04 #@! TO.C,S1*
X46012793Y54420000D02*
X46085000Y54203380D01*
X46085000Y53844027D01*
X46012793Y53699614D01*
X45940587Y53629086D01*
X45797853Y53556880D01*
X45653440Y53556880D01*
X45509027Y53629086D01*
X45436820Y53699614D01*
X45364614Y53844027D01*
X45294086Y54132853D01*
X45221880Y54275587D01*
X45149673Y54347793D01*
X45005260Y54420000D01*
X44860847Y54420000D01*
X44718113Y54347793D01*
X44645907Y54275587D01*
X44573700Y54132853D01*
X44573700Y53771820D01*
X44645907Y53556880D01*
X46085000Y52213700D02*
X46085000Y53076820D01*
X46085000Y52645260D02*
X44573700Y52645260D01*
X44790320Y52789673D01*
X44933054Y52932407D01*
X45005260Y53076820D01*
%LPC*%
D15*
G04 #@! TO.C,J6*
X42545000Y62865000D03*
X42545000Y65405000D03*
X42545000Y70485000D03*
X42545000Y60325000D03*
X42545000Y40005000D03*
X42545000Y42545000D03*
X42545000Y47625000D03*
X42545000Y52705000D03*
X42545000Y37465000D03*
X42545000Y57785000D03*
X42545000Y67945000D03*
X42545000Y45085000D03*
X42545000Y55245000D03*
X42545000Y50165000D03*
D16*
G04 #@! TO.C,D7*
X59055000Y44840000D03*
X59055000Y49140000D03*
D17*
G04 #@! TO.C,R3*
X50800000Y46060000D03*
X50800000Y50460000D03*
D15*
G04 #@! TO.C,J7*
X62865000Y62865000D03*
X62865000Y65405000D03*
X62865000Y70485000D03*
X62865000Y60325000D03*
X62865000Y40005000D03*
X62865000Y42545000D03*
X62865000Y47625000D03*
X62865000Y52705000D03*
X62865000Y37465000D03*
X62865000Y57785000D03*
X62865000Y67945000D03*
X62865000Y45085000D03*
X62865000Y55245000D03*
X62865000Y50165000D03*
D16*
G04 #@! TO.C,D4*
X46355000Y39125000D03*
X46355000Y43425000D03*
D18*
G04 #@! TO.C,J1*
G36*
X60533800Y24943800D02*
X60533800Y25896200D01*
X61886200Y25896200D01*
X61886200Y24943800D01*
X60533800Y24943800D01*
G37*
G36*
X62353800Y21543800D02*
X62353800Y22996200D01*
X64656200Y22996200D01*
X64656200Y21543800D01*
X62353800Y21543800D01*
G37*
G36*
X60533800Y23693800D02*
X60533800Y24646200D01*
X61886200Y24646200D01*
X61886200Y23693800D01*
X60533800Y23693800D01*
G37*
G36*
X60533800Y26193800D02*
X60533800Y27146200D01*
X61886200Y27146200D01*
X61886200Y26193800D01*
X60533800Y26193800D01*
G37*
G36*
X62353800Y30343800D02*
X62353800Y31796200D01*
X64656200Y31796200D01*
X64656200Y30343800D01*
X62353800Y30343800D01*
G37*
G36*
X60533800Y27443800D02*
X60533800Y28396200D01*
X61886200Y28396200D01*
X61886200Y27443800D01*
X60533800Y27443800D01*
G37*
G36*
X60533800Y28693800D02*
X60533800Y29646200D01*
X61886200Y29646200D01*
X61886200Y28693800D01*
X60533800Y28693800D01*
G37*
G04 #@! TO.C,J2*
G36*
X44876200Y28396200D02*
X44876200Y27443800D01*
X43523800Y27443800D01*
X43523800Y28396200D01*
X44876200Y28396200D01*
G37*
G36*
X43056200Y31796200D02*
X43056200Y30343800D01*
X40753800Y30343800D01*
X40753800Y31796200D01*
X43056200Y31796200D01*
G37*
G36*
X44876200Y29646200D02*
X44876200Y28693800D01*
X43523800Y28693800D01*
X43523800Y29646200D01*
X44876200Y29646200D01*
G37*
G36*
X44876200Y27146200D02*
X44876200Y26193800D01*
X43523800Y26193800D01*
X43523800Y27146200D01*
X44876200Y27146200D01*
G37*
G36*
X43056200Y22996200D02*
X43056200Y21543800D01*
X40753800Y21543800D01*
X40753800Y22996200D01*
X43056200Y22996200D01*
G37*
G36*
X44876200Y25896200D02*
X44876200Y24943800D01*
X43523800Y24943800D01*
X43523800Y25896200D01*
X44876200Y25896200D01*
G37*
G36*
X44876200Y24646200D02*
X44876200Y23693800D01*
X43523800Y23693800D01*
X43523800Y24646200D01*
X44876200Y24646200D01*
G37*
D16*
G04 #@! TO.C,D3*
X50800000Y39125000D03*
X50800000Y43425000D03*
D15*
G04 #@! TO.C,J8*
X52705000Y34925000D03*
X45085000Y34925000D03*
X47625000Y34925000D03*
X55245000Y34925000D03*
X42545000Y34925000D03*
X50165000Y34925000D03*
X57785000Y34925000D03*
X60325000Y34925000D03*
X62865000Y34925000D03*
D19*
G04 #@! TO.C,J4*
X58220000Y71150000D03*
X47220000Y71150000D03*
D20*
X50220000Y61150000D03*
X55220000Y61150000D03*
D16*
G04 #@! TO.C,D8*
X54610000Y44840000D03*
X54610000Y49140000D03*
D15*
G04 #@! TO.C,S1*
X52705000Y54610000D03*
X55245000Y54610000D03*
X50165000Y54610000D03*
D21*
G04 #@! TD*
X35800000Y41000000D03*
X36000000Y72000000D03*
G04 --- BOARD END --- *
G04 #@! TF.MD5,51e7c2e35c95ea8998701748f7df0640*
M02*
