G04 --- HEADER BEGIN --- *
G04 #@! TF.GenerationSoftware,LibrePCB,LibrePCB,1.1.0*
G04 #@! TF.CreationDate,2024-04-23T21:01:02*
G04 #@! TF.ProjectId,motherboard (Version 2),e7e7bca0-b6b9-4684-b626-93943a2f5169,version_2*
G04 #@! TF.Part,Single*
G04 #@! TF.SameCoordinates*
G04 #@! TF.FileFunction,Legend,Top*
G04 #@! TF.FilePolarity,Positive*
%FSLAX66Y66*%
%MOMM*%
G01*
G75*
G04 --- HEADER END --- *
G04 --- APERTURE LIST BEGIN --- *
%ADD10C,0.2032*%
%ADD11C,0.127*%
%ADD12C,0.1524*%
%ADD13C,0.2*%
%ADD14C,0.15*%
%ADD15C,2.0796*%
%AMROUNDEDRECT16*20,1,1.47,-0.735,0.0,0.735,0.0,0.0*20,1,1.27,-0.835,0.0,0.835,0.0,0.0*1,1,0.2,-0.735,0.635*1,1,0.2,0.735,0.635*1,1,0.2,0.735,-0.635*1,1,0.2,-0.735,-0.635*%
%ADD16ROUNDEDRECT16*%
%AMROUNDEDRECT17*20,1,1.7,-1.6,0.0,1.6,0.0,0.0*20,1,1.5,-1.7,0.0,1.7,0.0,0.0*1,1,0.2,-1.6,0.75*1,1,0.2,1.6,0.75*1,1,0.2,1.6,-0.75*1,1,0.2,-1.6,-0.75*%
%ADD17ROUNDEDRECT17*%
%ADD18C,0.01*%
%ADD19C,1.708*%
%ADD20C,2.825*%
%AMROUNDEDRECT21*20,1,2.0,-1.35,0.0,1.35,0.0,0.0*20,1,1.8,-1.45,0.0,1.45,0.0,0.0*1,1,0.2,-1.35,0.9*1,1,0.2,1.35,0.9*1,1,0.2,1.35,-0.9*1,1,0.2,-1.35,-0.9*%
%ADD21ROUNDEDRECT21*%
%AMROUNDEDRECT22*20,1,1.6,-1.05,0.0,1.05,0.0,0.0*20,1,1.4,-1.15,0.0,1.15,0.0,0.0*1,1,0.2,-1.05,0.7*1,1,0.2,1.05,0.7*1,1,0.2,1.05,-0.7*1,1,0.2,-1.05,-0.7*%
%ADD22ROUNDEDRECT22*%
%ADD23C,3.2*%
G04 --- APERTURE LIST END --- *
G04 --- BOARD BEGIN --- *
D10*
G04 #@! TO.C,J6*
X41910000Y71755000D02*
X43180000Y71755000D01*
X43815000Y71120000D01*
X43815000Y69850000D01*
X43180000Y69215000D01*
X43815000Y68580000D01*
X43815000Y67310000D01*
X43180000Y66675000D01*
X43815000Y66040000D01*
X43815000Y64770000D01*
X43180000Y64135000D01*
X43815000Y63500000D01*
X43815000Y62230000D01*
X43180000Y61595000D01*
X43815000Y60960000D01*
X43815000Y59690000D01*
X43180000Y59055000D01*
X43815000Y58420000D01*
X43815000Y57150000D01*
X43180000Y56515000D01*
X43815000Y55880000D01*
X43815000Y54610000D01*
X43180000Y53975000D01*
X43815000Y53340000D01*
X43815000Y52070000D01*
X43180000Y51435000D01*
X43815000Y50800000D01*
X43815000Y49530000D01*
X43180000Y48895000D01*
X43815000Y48260000D01*
X43815000Y46990000D01*
X43180000Y46355000D01*
X43815000Y45720000D01*
X43815000Y44450000D01*
X43180000Y43815000D01*
X43815000Y43180000D01*
X43815000Y41910000D01*
X43180000Y41275000D01*
X43815000Y40640000D01*
X43815000Y39370000D01*
X43180000Y38735000D01*
X43815000Y38100000D01*
X43815000Y36830000D01*
X43180000Y36195000D01*
X41910000Y36195000D01*
X41275000Y36830000D01*
X41275000Y38100000D01*
X41910000Y38735000D01*
X41275000Y39370000D01*
X41275000Y40640000D01*
X41910000Y41275000D01*
X41275000Y41910000D01*
X41275000Y43180000D01*
X41910000Y43815000D01*
X41275000Y44450000D01*
X41275000Y45720000D01*
X41910000Y46355000D01*
X41275000Y46990000D01*
X41275000Y48260000D01*
X41910000Y48895000D01*
X41275000Y49530000D01*
X41275000Y50800000D01*
X41910000Y51435000D01*
X41275000Y52070000D01*
X41275000Y53340000D01*
X41910000Y53975000D01*
X41275000Y54610000D01*
X41275000Y55880000D01*
X41910000Y56515000D01*
X41275000Y57150000D01*
X41275000Y58420000D01*
X41910000Y59055000D01*
X41275000Y59690000D01*
X41275000Y60960000D01*
X41910000Y61595000D01*
X41275000Y62230000D01*
X41275000Y63500000D01*
X41910000Y64135000D01*
X41275000Y64770000D01*
X41275000Y66040000D01*
X41910000Y66675000D01*
X41275000Y67310000D01*
X41275000Y68580000D01*
X41910000Y69215000D01*
X41275000Y69850000D01*
X41275000Y71120000D01*
X41910000Y71755000D01*
G04 #@! TO.C,D2*
X49800000Y38975000D02*
X49350000Y38975000D01*
X49350000Y43575000D01*
X49800000Y43575000D01*
X51800000Y43575000D02*
X52250000Y43575000D01*
X52250000Y38975000D01*
X51800000Y38975000D01*
X49800000Y42275000D02*
X51800000Y42275000D01*
D11*
G04 #@! TO.C,F1*
X52966500Y70045000D02*
X52966500Y65495000D01*
X56793500Y65495000D02*
X56793500Y70045000D01*
D10*
G04 #@! TO.C,J7*
X62230000Y71755000D02*
X63500000Y71755000D01*
X64135000Y71120000D01*
X64135000Y69850000D01*
X63500000Y69215000D01*
X64135000Y68580000D01*
X64135000Y67310000D01*
X63500000Y66675000D01*
X64135000Y66040000D01*
X64135000Y64770000D01*
X63500000Y64135000D01*
X64135000Y63500000D01*
X64135000Y62230000D01*
X63500000Y61595000D01*
X64135000Y60960000D01*
X64135000Y59690000D01*
X63500000Y59055000D01*
X64135000Y58420000D01*
X64135000Y57150000D01*
X63500000Y56515000D01*
X64135000Y55880000D01*
X64135000Y54610000D01*
X63500000Y53975000D01*
X64135000Y53340000D01*
X64135000Y52070000D01*
X63500000Y51435000D01*
X64135000Y50800000D01*
X64135000Y49530000D01*
X63500000Y48895000D01*
X64135000Y48260000D01*
X64135000Y46990000D01*
X63500000Y46355000D01*
X64135000Y45720000D01*
X64135000Y44450000D01*
X63500000Y43815000D01*
X64135000Y43180000D01*
X64135000Y41910000D01*
X63500000Y41275000D01*
X64135000Y40640000D01*
X64135000Y39370000D01*
X63500000Y38735000D01*
X64135000Y38100000D01*
X64135000Y36830000D01*
X63500000Y36195000D01*
X62230000Y36195000D01*
X61595000Y36830000D01*
X61595000Y38100000D01*
X62230000Y38735000D01*
X61595000Y39370000D01*
X61595000Y40640000D01*
X62230000Y41275000D01*
X61595000Y41910000D01*
X61595000Y43180000D01*
X62230000Y43815000D01*
X61595000Y44450000D01*
X61595000Y45720000D01*
X62230000Y46355000D01*
X61595000Y46990000D01*
X61595000Y48260000D01*
X62230000Y48895000D01*
X61595000Y49530000D01*
X61595000Y50800000D01*
X62230000Y51435000D01*
X61595000Y52070000D01*
X61595000Y53340000D01*
X62230000Y53975000D01*
X61595000Y54610000D01*
X61595000Y55880000D01*
X62230000Y56515000D01*
X61595000Y57150000D01*
X61595000Y58420000D01*
X62230000Y59055000D01*
X61595000Y59690000D01*
X61595000Y60960000D01*
X62230000Y61595000D01*
X61595000Y62230000D01*
X61595000Y63500000D01*
X62230000Y64135000D01*
X61595000Y64770000D01*
X61595000Y66040000D01*
X62230000Y66675000D01*
X61595000Y67310000D01*
X61595000Y68580000D01*
X62230000Y69215000D01*
X61595000Y69850000D01*
X61595000Y71120000D01*
X62230000Y71755000D01*
D11*
G04 #@! TO.C,J3*
X44205000Y24780000D02*
X44205000Y26030000D01*
X45735000Y26030000D01*
X45928000Y28212000D02*
X46328000Y27512000D01*
X46728000Y28212000D01*
X45928000Y28212000D01*
X59675000Y26030000D02*
X61205000Y26030000D01*
X61205000Y24780000D01*
X44205000Y21830000D02*
X61205000Y21830000D01*
D10*
G04 #@! TO.C,J8*
X64135000Y35560000D02*
X64135000Y34290000D01*
X63500000Y33655000D01*
X62230000Y33655000D01*
X61595000Y34290000D01*
X60960000Y33655000D01*
X59690000Y33655000D01*
X59055000Y34290000D01*
X58420000Y33655000D01*
X57150000Y33655000D01*
X56515000Y34290000D01*
X55880000Y33655000D01*
X54610000Y33655000D01*
X53975000Y34290000D01*
X53340000Y33655000D01*
X52070000Y33655000D01*
X51435000Y34290000D01*
X50800000Y33655000D01*
X49530000Y33655000D01*
X48895000Y34290000D01*
X48260000Y33655000D01*
X46990000Y33655000D01*
X46355000Y34290000D01*
X45720000Y33655000D01*
X44450000Y33655000D01*
X43815000Y34290000D01*
X43180000Y33655000D01*
X41910000Y33655000D01*
X41275000Y34290000D01*
X41275000Y35560000D01*
X41910000Y36195000D01*
X43180000Y36195000D01*
X43815000Y35560000D01*
X44450000Y36195000D01*
X45720000Y36195000D01*
X46355000Y35560000D01*
X46990000Y36195000D01*
X48260000Y36195000D01*
X48895000Y35560000D01*
X49530000Y36195000D01*
X50800000Y36195000D01*
X51435000Y35560000D01*
X52070000Y36195000D01*
X53340000Y36195000D01*
X53975000Y35560000D01*
X54610000Y36195000D01*
X55880000Y36195000D01*
X56515000Y35560000D01*
X57150000Y36195000D01*
X58420000Y36195000D01*
X59055000Y35560000D01*
X59690000Y36195000D01*
X60960000Y36195000D01*
X61595000Y35560000D01*
X62230000Y36195000D01*
X63500000Y36195000D01*
X64135000Y35560000D01*
G04 #@! TO.C,D9*
X53610000Y44690000D02*
X53160000Y44690000D01*
X53160000Y49290000D01*
X53610000Y49290000D01*
X55610000Y49290000D02*
X56060000Y49290000D01*
X56060000Y44690000D01*
X55610000Y44690000D01*
X53610000Y47990000D02*
X55610000Y47990000D01*
D11*
G04 #@! TO.C,J5*
X40985000Y57510000D02*
X40285000Y57110000D01*
X40985000Y56710000D01*
X40985000Y57510000D01*
X34730000Y59360000D02*
X34730000Y49860000D01*
X38930000Y51390000D02*
X38930000Y49860000D01*
X37680000Y49860000D01*
X37680000Y59360000D02*
X38930000Y59360000D01*
X38930000Y57830000D01*
D12*
G04 #@! TO.C,R2*
X61570000Y55513000D02*
X61570000Y57531000D01*
X59080000Y55488000D02*
X59080000Y57542000D01*
D10*
G04 #@! TO.C,D5*
X45355000Y38975000D02*
X44905000Y38975000D01*
X44905000Y43575000D01*
X45355000Y43575000D01*
X47355000Y43575000D02*
X47805000Y43575000D01*
X47805000Y38975000D01*
X47355000Y38975000D01*
X45355000Y42275000D02*
X47355000Y42275000D01*
G04 #@! TO.C,D6*
X58055000Y44690000D02*
X57605000Y44690000D01*
X57605000Y49290000D01*
X58055000Y49290000D01*
X60055000Y49290000D02*
X60505000Y49290000D01*
X60505000Y44690000D01*
X60055000Y44690000D01*
X58055000Y47990000D02*
X60055000Y47990000D01*
D11*
G04 #@! TO.C,D1*
X49020000Y66790000D02*
X49020000Y69150000D01*
X51520000Y69150000D02*
X51520000Y66790000D01*
D13*
X51370000Y71470000D02*
G02*
X51170000Y71470000I-100000J0D01*
G01*
G02*
X51370000Y71470000I100000J0D01*
G01*
D12*
G04 #@! TO.C,R1*
X37820000Y64867000D02*
X37820000Y62849000D01*
X40310000Y64892000D02*
X40310000Y62838000D01*
D14*
G04 #@! TO.C,J6*
X39716700Y70295209D02*
X40487943Y70295209D01*
X40641472Y70243633D01*
X40744624Y70140481D01*
X40796200Y69986952D01*
X40796200Y69883800D01*
X39716700Y71175671D02*
X39716700Y70969366D01*
X39768276Y70866214D01*
X39819852Y70815837D01*
X39973381Y70712685D01*
X40179686Y70661109D01*
X40591095Y70661109D01*
X40693048Y70712685D01*
X40744624Y70764261D01*
X40796200Y70866214D01*
X40796200Y71072518D01*
X40744624Y71175671D01*
X40693048Y71226047D01*
X40591095Y71277623D01*
X40333214Y71277623D01*
X40231262Y71226047D01*
X40179686Y71175671D01*
X40128109Y71072518D01*
X40128109Y70866214D01*
X40179686Y70764261D01*
X40231262Y70712685D01*
X40333214Y70661109D01*
G04 #@! TO.C,D2*
X51054000Y40259000D02*
X50254000Y40259000D01*
X50254000Y40449222D01*
X50292222Y40563889D01*
X50368667Y40640333D01*
X50444222Y40677667D01*
X50597111Y40715889D01*
X50710889Y40715889D01*
X50863778Y40677667D01*
X50939333Y40640333D01*
X51015778Y40563889D01*
X51054000Y40449222D01*
X51054000Y40259000D01*
X50330444Y41064111D02*
X50292222Y41102333D01*
X50254000Y41177889D01*
X50254000Y41369000D01*
X50292222Y41444556D01*
X50330444Y41482778D01*
X50406000Y41521000D01*
X50482444Y41521000D01*
X50597111Y41482778D01*
X51054000Y41025889D01*
X51054000Y41521000D01*
G04 #@! TO.C,F1*
X54644562Y67387857D02*
X54644562Y67028024D01*
X55209500Y67028024D02*
X54130000Y67028024D01*
X54130000Y67542586D01*
X55209500Y68525000D02*
X55209500Y67908486D01*
X55209500Y68216743D02*
X54130000Y68216743D01*
X54284728Y68113591D01*
X54386681Y68011638D01*
X54438257Y67908486D01*
G04 #@! TO.C,J7*
X59956700Y69660209D02*
X60727943Y69660209D01*
X60881472Y69608633D01*
X60984624Y69505481D01*
X61036200Y69351952D01*
X61036200Y69248800D01*
X59956700Y70026109D02*
X59956700Y70745776D01*
X61036200Y70282790D01*
G04 #@! TO.C,J3*
X41306009Y25670000D02*
X41306009Y24898757D01*
X41254433Y24745228D01*
X41151281Y24642076D01*
X40997752Y24590500D01*
X40894600Y24590500D01*
X41671909Y25670000D02*
X42340000Y25670000D01*
X41980166Y25258591D01*
X42134895Y25258591D01*
X42236847Y25207014D01*
X42288423Y25155438D01*
X42340000Y25053486D01*
X42340000Y24795605D01*
X42288423Y24693652D01*
X42236847Y24642076D01*
X42134895Y24590500D01*
X41826637Y24590500D01*
X41723485Y24642076D01*
X41671909Y24693652D01*
G04 #@! TO.C,J8*
X45325209Y37833300D02*
X45325209Y37062057D01*
X45273633Y36908528D01*
X45170481Y36805376D01*
X45016952Y36753800D01*
X44913800Y36753800D01*
X45896214Y37370314D02*
X45794261Y37421891D01*
X45742685Y37473467D01*
X45691109Y37576619D01*
X45691109Y37628195D01*
X45742685Y37730148D01*
X45794261Y37781724D01*
X45896214Y37833300D01*
X46102518Y37833300D01*
X46205671Y37781724D01*
X46256047Y37730148D01*
X46307623Y37628195D01*
X46307623Y37576619D01*
X46256047Y37473467D01*
X46205671Y37421891D01*
X46102518Y37370314D01*
X45896214Y37370314D01*
X45794261Y37318738D01*
X45742685Y37268362D01*
X45691109Y37165209D01*
X45691109Y36958905D01*
X45742685Y36856952D01*
X45794261Y36805376D01*
X45896214Y36753800D01*
X46102518Y36753800D01*
X46205671Y36805376D01*
X46256047Y36856952D01*
X46307623Y36958905D01*
X46307623Y37165209D01*
X46256047Y37268362D01*
X46205671Y37318738D01*
X46102518Y37370314D01*
G04 #@! TO.C,D9*
X54864000Y45974000D02*
X54064000Y45974000D01*
X54064000Y46164222D01*
X54102222Y46278889D01*
X54178667Y46355333D01*
X54254222Y46392667D01*
X54407111Y46430889D01*
X54520889Y46430889D01*
X54673778Y46392667D01*
X54749333Y46355333D01*
X54825778Y46278889D01*
X54864000Y46164222D01*
X54864000Y45974000D01*
X54864000Y46817333D02*
X54864000Y46969333D01*
X54825778Y47045778D01*
X54787556Y47084000D01*
X54673778Y47159556D01*
X54520889Y47197778D01*
X54216000Y47197778D01*
X54140444Y47159556D01*
X54102222Y47122222D01*
X54064000Y47045778D01*
X54064000Y46892889D01*
X54102222Y46817333D01*
X54140444Y46779111D01*
X54216000Y46740889D01*
X54407111Y46740889D01*
X54482667Y46779111D01*
X54520889Y46817333D01*
X54559111Y46892889D01*
X54559111Y47045778D01*
X54520889Y47122222D01*
X54482667Y47159556D01*
X54407111Y47197778D01*
G04 #@! TO.C,J5*
X34220500Y47301409D02*
X34991743Y47301409D01*
X35145272Y47249833D01*
X35248424Y47146681D01*
X35300000Y46993152D01*
X35300000Y46890000D01*
X34220500Y48232247D02*
X34220500Y47718885D01*
X34735062Y47667309D01*
X34683486Y47718885D01*
X34631909Y47822037D01*
X34631909Y48078718D01*
X34683486Y48181871D01*
X34735062Y48232247D01*
X34837014Y48283823D01*
X35094895Y48283823D01*
X35196848Y48232247D01*
X35248424Y48181871D01*
X35300000Y48078718D01*
X35300000Y47822037D01*
X35248424Y47718885D01*
X35196848Y47667309D01*
G04 #@! TO.C,R2*
X60737500Y56431889D02*
X60356167Y56165222D01*
X60737500Y55975000D02*
X59937500Y55975000D01*
X59937500Y56279889D01*
X59975722Y56356333D01*
X60013944Y56393667D01*
X60089500Y56431889D01*
X60204167Y56431889D01*
X60280611Y56393667D01*
X60318833Y56356333D01*
X60356167Y56279889D01*
X60356167Y55975000D01*
X60013944Y56780111D02*
X59975722Y56818333D01*
X59937500Y56893889D01*
X59937500Y57085000D01*
X59975722Y57160556D01*
X60013944Y57198778D01*
X60089500Y57237000D01*
X60165944Y57237000D01*
X60280611Y57198778D01*
X60737500Y56741889D01*
X60737500Y57237000D01*
G04 #@! TO.C,D5*
X46609000Y40259000D02*
X45809000Y40259000D01*
X45809000Y40449222D01*
X45847222Y40563889D01*
X45923667Y40640333D01*
X45999222Y40677667D01*
X46152111Y40715889D01*
X46265889Y40715889D01*
X46418778Y40677667D01*
X46494333Y40640333D01*
X46570778Y40563889D01*
X46609000Y40449222D01*
X46609000Y40259000D01*
X45809000Y41444556D02*
X45809000Y41064111D01*
X46190333Y41025889D01*
X46152111Y41064111D01*
X46113889Y41140556D01*
X46113889Y41330778D01*
X46152111Y41407222D01*
X46190333Y41444556D01*
X46265889Y41482778D01*
X46457000Y41482778D01*
X46532556Y41444556D01*
X46570778Y41407222D01*
X46609000Y41330778D01*
X46609000Y41140556D01*
X46570778Y41064111D01*
X46532556Y41025889D01*
G04 #@! TO.C,D6*
X59309000Y45974000D02*
X58509000Y45974000D01*
X58509000Y46164222D01*
X58547222Y46278889D01*
X58623667Y46355333D01*
X58699222Y46392667D01*
X58852111Y46430889D01*
X58965889Y46430889D01*
X59118778Y46392667D01*
X59194333Y46355333D01*
X59270778Y46278889D01*
X59309000Y46164222D01*
X59309000Y45974000D01*
X58509000Y47122222D02*
X58509000Y46969333D01*
X58547222Y46892889D01*
X58585444Y46855556D01*
X58699222Y46779111D01*
X58852111Y46740889D01*
X59157000Y46740889D01*
X59232556Y46779111D01*
X59270778Y46817333D01*
X59309000Y46892889D01*
X59309000Y47045778D01*
X59270778Y47122222D01*
X59232556Y47159556D01*
X59157000Y47197778D01*
X58965889Y47197778D01*
X58890333Y47159556D01*
X58852111Y47122222D01*
X58813889Y47045778D01*
X58813889Y46892889D01*
X58852111Y46817333D01*
X58890333Y46779111D01*
X58965889Y46740889D01*
G04 #@! TO.C,D1*
X50809500Y67101072D02*
X49730000Y67101072D01*
X49730000Y67357753D01*
X49781576Y67512481D01*
X49884728Y67615634D01*
X49986681Y67666010D01*
X50192986Y67717586D01*
X50346514Y67717586D01*
X50552819Y67666010D01*
X50654772Y67615634D01*
X50757924Y67512481D01*
X50809500Y67357753D01*
X50809500Y67101072D01*
X50809500Y68700000D02*
X50809500Y68083486D01*
X50809500Y68391743D02*
X49730000Y68391743D01*
X49884728Y68288591D01*
X49986681Y68186638D01*
X50038257Y68083486D01*
G04 #@! TO.C,R1*
X39007500Y63638111D02*
X38626167Y63371444D01*
X39007500Y63181222D02*
X38207500Y63181222D01*
X38207500Y63486111D01*
X38245722Y63562555D01*
X38283944Y63599889D01*
X38359500Y63638111D01*
X38474167Y63638111D01*
X38550611Y63599889D01*
X38588833Y63562555D01*
X38626167Y63486111D01*
X38626167Y63181222D01*
X39007500Y64405000D02*
X39007500Y63948111D01*
X39007500Y64176555D02*
X38207500Y64176555D01*
X38322167Y64100111D01*
X38397722Y64024555D01*
X38435944Y63948111D01*
D13*
G04 #@! TD*
X45714444Y51659998D02*
X45618889Y51707776D01*
X45523333Y51803332D01*
X45381111Y51945554D01*
X45285556Y51993332D01*
X45190000Y51993332D01*
X45237778Y51755554D02*
X45143333Y51803332D01*
X45047778Y51898887D01*
X45000000Y52088887D01*
X45000000Y52422221D01*
X45047778Y52612221D01*
X45143333Y52707776D01*
X45237778Y52755554D01*
X45428889Y52755554D01*
X45523333Y52707776D01*
X45618889Y52612221D01*
X45666667Y52422221D01*
X45666667Y52088887D01*
X45618889Y51898887D01*
X45523333Y51803332D01*
X45428889Y51755554D01*
X45237778Y51755554D01*
X46114444Y52755554D02*
X46114444Y51945554D01*
X46162222Y51851110D01*
X46210000Y51803332D01*
X46304444Y51755554D01*
X46495555Y51755554D01*
X46591111Y51803332D01*
X46637777Y51851110D01*
X46685555Y51945554D01*
X46685555Y52755554D01*
X47085555Y52755554D02*
X47656666Y52755554D01*
X47371111Y51755554D02*
X47371111Y52755554D01*
X45000000Y50777777D02*
X45571111Y50777777D01*
X45285556Y49777777D02*
X45285556Y50777777D01*
X45971111Y50301110D02*
X46304444Y50301110D01*
X46447778Y49777777D02*
X45971111Y49777777D01*
X45971111Y50777777D01*
X46447778Y50777777D01*
X46943334Y50063333D02*
X47418889Y50063333D01*
X46847778Y49777777D02*
X47181111Y50777777D01*
X47514445Y49777777D01*
X47914445Y49777777D02*
X47914445Y50777777D01*
X48247778Y50063333D01*
X48581112Y50777777D01*
X48581112Y49777777D01*
X50400000Y49873333D02*
X50352222Y49825555D01*
X50210000Y49777777D01*
X50114444Y49777777D01*
X49971111Y49825555D01*
X49876667Y49921110D01*
X49828889Y50015555D01*
X49781111Y50206666D01*
X49781111Y50348888D01*
X49828889Y50539999D01*
X49876667Y50634444D01*
X49971111Y50729999D01*
X50114444Y50777777D01*
X50210000Y50777777D01*
X50352222Y50729999D01*
X50400000Y50682221D01*
X50990000Y50348888D02*
X50895556Y50396666D01*
X50847778Y50444444D01*
X50800000Y50539999D01*
X50800000Y50587777D01*
X50847778Y50682221D01*
X50895556Y50729999D01*
X50990000Y50777777D01*
X51181111Y50777777D01*
X51276667Y50729999D01*
X51323333Y50682221D01*
X51371111Y50587777D01*
X51371111Y50539999D01*
X51323333Y50444444D01*
X51276667Y50396666D01*
X51181111Y50348888D01*
X50990000Y50348888D01*
X50895556Y50301110D01*
X50847778Y50254444D01*
X50800000Y50158888D01*
X50800000Y49967777D01*
X50847778Y49873333D01*
X50895556Y49825555D01*
X50990000Y49777777D01*
X51181111Y49777777D01*
X51276667Y49825555D01*
X51323333Y49873333D01*
X51371111Y49967777D01*
X51371111Y50158888D01*
X51323333Y50254444D01*
X51276667Y50301110D01*
X51181111Y50348888D01*
X45000000Y47800000D02*
X45000000Y48800000D01*
X45333333Y48085556D01*
X45666667Y48800000D01*
X45666667Y47800000D01*
X46400000Y48323333D02*
X46543334Y48276667D01*
X46590000Y48228889D01*
X46637778Y48133333D01*
X46637778Y47990000D01*
X46590000Y47895556D01*
X46543334Y47847778D01*
X46447778Y47800000D01*
X46066667Y47800000D01*
X46066667Y48800000D01*
X46400000Y48800000D01*
X46495556Y48752222D01*
X46543334Y48704444D01*
X46590000Y48610000D01*
X46590000Y48514444D01*
X46543334Y48418889D01*
X46495556Y48371111D01*
X46400000Y48323333D01*
X46066667Y48323333D01*
X47837777Y48800000D02*
X48171110Y47800000D01*
X48504444Y48800000D01*
X48952222Y48704444D02*
X49000000Y48752222D01*
X49094444Y48800000D01*
X49333333Y48800000D01*
X49427777Y48752222D01*
X49475555Y48704444D01*
X49523333Y48610000D01*
X49523333Y48514444D01*
X49475555Y48371111D01*
X48904444Y47800000D01*
X49523333Y47800000D01*
%LPC*%
D15*
G04 #@! TO.C,J6*
X42545000Y62865000D03*
X42545000Y65405000D03*
X42545000Y70485000D03*
X42545000Y60325000D03*
X42545000Y40005000D03*
X42545000Y42545000D03*
X42545000Y47625000D03*
X42545000Y52705000D03*
X42545000Y37465000D03*
X42545000Y57785000D03*
X42545000Y67945000D03*
X42545000Y45085000D03*
X42545000Y55245000D03*
X42545000Y50165000D03*
D16*
G04 #@! TO.C,D2*
X50800000Y43425000D03*
X50800000Y39125000D03*
D17*
G04 #@! TO.C,F1*
X54880000Y69870000D03*
X54880000Y65670000D03*
D15*
G04 #@! TO.C,J7*
X62865000Y62865000D03*
X62865000Y65405000D03*
X62865000Y70485000D03*
X62865000Y60325000D03*
X62865000Y40005000D03*
X62865000Y42545000D03*
X62865000Y47625000D03*
X62865000Y52705000D03*
X62865000Y37465000D03*
X62865000Y57785000D03*
X62865000Y67945000D03*
X62865000Y45085000D03*
X62865000Y55245000D03*
X62865000Y50165000D03*
D18*
G04 #@! TO.C,J3*
G36*
X50681200Y26356200D02*
X49728800Y26356200D01*
X49728800Y25003800D01*
X50681200Y25003800D01*
X50681200Y26356200D01*
G37*
G36*
X51931200Y26356200D02*
X50978800Y26356200D01*
X50978800Y25003800D01*
X51931200Y25003800D01*
X51931200Y26356200D01*
G37*
G36*
X46931200Y26356200D02*
X45978800Y26356200D01*
X45978800Y25003800D01*
X46931200Y25003800D01*
X46931200Y26356200D01*
G37*
G36*
X55681200Y26356200D02*
X54728800Y26356200D01*
X54728800Y25003800D01*
X55681200Y25003800D01*
X55681200Y26356200D01*
G37*
G36*
X58181200Y26356200D02*
X57228800Y26356200D01*
X57228800Y25003800D01*
X58181200Y25003800D01*
X58181200Y26356200D01*
G37*
G36*
X54431200Y26356200D02*
X53478800Y26356200D01*
X53478800Y25003800D01*
X54431200Y25003800D01*
X54431200Y26356200D01*
G37*
G36*
X61581200Y24536200D02*
X60128800Y24536200D01*
X60128800Y22233800D01*
X61581200Y22233800D01*
X61581200Y24536200D01*
G37*
G36*
X56931200Y26356200D02*
X55978800Y26356200D01*
X55978800Y25003800D01*
X56931200Y25003800D01*
X56931200Y26356200D01*
G37*
G36*
X48181200Y26356200D02*
X47228800Y26356200D01*
X47228800Y25003800D01*
X48181200Y25003800D01*
X48181200Y26356200D01*
G37*
G36*
X49431200Y26356200D02*
X48478800Y26356200D01*
X48478800Y25003800D01*
X49431200Y25003800D01*
X49431200Y26356200D01*
G37*
G36*
X53181200Y26356200D02*
X52228800Y26356200D01*
X52228800Y25003800D01*
X53181200Y25003800D01*
X53181200Y26356200D01*
G37*
G36*
X45281200Y24536200D02*
X43828800Y24536200D01*
X43828800Y22233800D01*
X45281200Y22233800D01*
X45281200Y24536200D01*
G37*
G36*
X59431200Y26356200D02*
X58478800Y26356200D01*
X58478800Y25003800D01*
X59431200Y25003800D01*
X59431200Y26356200D01*
G37*
D15*
G04 #@! TO.C,J8*
X52705000Y34925000D03*
X45085000Y34925000D03*
X47625000Y34925000D03*
X55245000Y34925000D03*
X42545000Y34925000D03*
X50165000Y34925000D03*
X57785000Y34925000D03*
X60325000Y34925000D03*
X62865000Y34925000D03*
D16*
G04 #@! TO.C,D9*
X54610000Y49140000D03*
X54610000Y44840000D03*
D18*
G04 #@! TO.C,J5*
G36*
X39256200Y52883800D02*
X39256200Y53836200D01*
X37903800Y53836200D01*
X37903800Y52883800D01*
X39256200Y52883800D01*
G37*
G36*
X37436200Y49483800D02*
X37436200Y50936200D01*
X35133800Y50936200D01*
X35133800Y49483800D01*
X37436200Y49483800D01*
G37*
G36*
X39256200Y51633800D02*
X39256200Y52586200D01*
X37903800Y52586200D01*
X37903800Y51633800D01*
X39256200Y51633800D01*
G37*
G36*
X39256200Y54133800D02*
X39256200Y55086200D01*
X37903800Y55086200D01*
X37903800Y54133800D01*
X39256200Y54133800D01*
G37*
G36*
X37436200Y58283800D02*
X37436200Y59736200D01*
X35133800Y59736200D01*
X35133800Y58283800D01*
X37436200Y58283800D01*
G37*
G36*
X39256200Y55383800D02*
X39256200Y56336200D01*
X37903800Y56336200D01*
X37903800Y55383800D01*
X39256200Y55383800D01*
G37*
G36*
X39256200Y56633800D02*
X39256200Y57586200D01*
X37903800Y57586200D01*
X37903800Y56633800D01*
X39256200Y56633800D01*
G37*
D19*
G04 #@! TO.C,J4*
X58220000Y71150000D03*
X47220000Y71150000D03*
D20*
X50220000Y61150000D03*
X55220000Y61150000D03*
D15*
G04 #@! TO.C,S1*
X52705000Y54610000D03*
X55245000Y54610000D03*
X50165000Y54610000D03*
D21*
G04 #@! TO.C,R2*
X60325000Y58715000D03*
X60325000Y54315000D03*
D16*
G04 #@! TO.C,D5*
X46355000Y43425000D03*
X46355000Y39125000D03*
G04 #@! TO.C,D6*
X59055000Y49140000D03*
X59055000Y44840000D03*
D22*
G04 #@! TO.C,D1*
X50270000Y70170000D03*
X50270000Y65770000D03*
D21*
G04 #@! TO.C,R1*
X39065000Y61665000D03*
X39065000Y66065000D03*
D23*
G04 #@! TD*
X35800000Y41000000D03*
X36000000Y72000000D03*
G04 --- BOARD END --- *
G04 #@! TF.MD5,5809825b067bec78a6d56979d1b0446e*
M02*
