G04 --- HEADER BEGIN --- *
G04 #@! TF.GenerationSoftware,LibrePCB,LibrePCB,1.1.0*
G04 #@! TF.CreationDate,2024-04-23T21:01:02*
G04 #@! TF.ProjectId,motherboard (Version 2),e7e7bca0-b6b9-4684-b626-93943a2f5169,version_2*
G04 #@! TF.Part,Single*
G04 #@! TF.SameCoordinates*
G04 #@! TF.FileFunction,Soldermask,Top*
G04 #@! TF.FilePolarity,Negative*
%FSLAX66Y66*%
%MOMM*%
G01*
G75*
G04 --- HEADER END --- *
G04 --- APERTURE LIST BEGIN --- *
%ADD10C,2.0796*%
%AMROUNDEDRECT11*20,1,1.47,-0.735,0.0,0.735,0.0,0.0*20,1,1.27,-0.835,0.0,0.835,0.0,0.0*1,1,0.2,-0.735,0.635*1,1,0.2,0.735,0.635*1,1,0.2,0.735,-0.635*1,1,0.2,-0.735,-0.635*%
%ADD11ROUNDEDRECT11*%
%AMROUNDEDRECT12*20,1,1.7,-1.6,0.0,1.6,0.0,0.0*20,1,1.5,-1.7,0.0,1.7,0.0,0.0*1,1,0.2,-1.6,0.75*1,1,0.2,1.6,0.75*1,1,0.2,1.6,-0.75*1,1,0.2,-1.6,-0.75*%
%ADD12ROUNDEDRECT12*%
%ADD13C,0.01*%
%ADD14C,1.708*%
%ADD15C,2.825*%
%AMROUNDEDRECT16*20,1,2.0,-1.35,0.0,1.35,0.0,0.0*20,1,1.8,-1.45,0.0,1.45,0.0,0.0*1,1,0.2,-1.35,0.9*1,1,0.2,1.35,0.9*1,1,0.2,1.35,-0.9*1,1,0.2,-1.35,-0.9*%
%ADD16ROUNDEDRECT16*%
%AMROUNDEDRECT17*20,1,1.6,-1.05,0.0,1.05,0.0,0.0*20,1,1.4,-1.15,0.0,1.15,0.0,0.0*1,1,0.2,-1.05,0.7*1,1,0.2,1.05,0.7*1,1,0.2,1.05,-0.7*1,1,0.2,-1.05,-0.7*%
%ADD17ROUNDEDRECT17*%
%ADD18C,3.2*%
G04 --- APERTURE LIST END --- *
G04 --- BOARD BEGIN --- *
D10*
G04 #@! TO.C,J6*
X42545000Y62865000D03*
X42545000Y65405000D03*
X42545000Y70485000D03*
X42545000Y60325000D03*
X42545000Y40005000D03*
X42545000Y42545000D03*
X42545000Y47625000D03*
X42545000Y52705000D03*
X42545000Y37465000D03*
X42545000Y57785000D03*
X42545000Y67945000D03*
X42545000Y45085000D03*
X42545000Y55245000D03*
X42545000Y50165000D03*
D11*
G04 #@! TO.C,D2*
X50800000Y43425000D03*
X50800000Y39125000D03*
D12*
G04 #@! TO.C,F1*
X54880000Y69870000D03*
X54880000Y65670000D03*
D10*
G04 #@! TO.C,J7*
X62865000Y62865000D03*
X62865000Y65405000D03*
X62865000Y70485000D03*
X62865000Y60325000D03*
X62865000Y40005000D03*
X62865000Y42545000D03*
X62865000Y47625000D03*
X62865000Y52705000D03*
X62865000Y37465000D03*
X62865000Y57785000D03*
X62865000Y67945000D03*
X62865000Y45085000D03*
X62865000Y55245000D03*
X62865000Y50165000D03*
D13*
G04 #@! TO.C,J3*
G36*
X50681200Y26356200D02*
X49728800Y26356200D01*
X49728800Y25003800D01*
X50681200Y25003800D01*
X50681200Y26356200D01*
G37*
G36*
X51931200Y26356200D02*
X50978800Y26356200D01*
X50978800Y25003800D01*
X51931200Y25003800D01*
X51931200Y26356200D01*
G37*
G36*
X46931200Y26356200D02*
X45978800Y26356200D01*
X45978800Y25003800D01*
X46931200Y25003800D01*
X46931200Y26356200D01*
G37*
G36*
X55681200Y26356200D02*
X54728800Y26356200D01*
X54728800Y25003800D01*
X55681200Y25003800D01*
X55681200Y26356200D01*
G37*
G36*
X58181200Y26356200D02*
X57228800Y26356200D01*
X57228800Y25003800D01*
X58181200Y25003800D01*
X58181200Y26356200D01*
G37*
G36*
X54431200Y26356200D02*
X53478800Y26356200D01*
X53478800Y25003800D01*
X54431200Y25003800D01*
X54431200Y26356200D01*
G37*
G36*
X61581200Y24536200D02*
X60128800Y24536200D01*
X60128800Y22233800D01*
X61581200Y22233800D01*
X61581200Y24536200D01*
G37*
G36*
X56931200Y26356200D02*
X55978800Y26356200D01*
X55978800Y25003800D01*
X56931200Y25003800D01*
X56931200Y26356200D01*
G37*
G36*
X48181200Y26356200D02*
X47228800Y26356200D01*
X47228800Y25003800D01*
X48181200Y25003800D01*
X48181200Y26356200D01*
G37*
G36*
X49431200Y26356200D02*
X48478800Y26356200D01*
X48478800Y25003800D01*
X49431200Y25003800D01*
X49431200Y26356200D01*
G37*
G36*
X53181200Y26356200D02*
X52228800Y26356200D01*
X52228800Y25003800D01*
X53181200Y25003800D01*
X53181200Y26356200D01*
G37*
G36*
X45281200Y24536200D02*
X43828800Y24536200D01*
X43828800Y22233800D01*
X45281200Y22233800D01*
X45281200Y24536200D01*
G37*
G36*
X59431200Y26356200D02*
X58478800Y26356200D01*
X58478800Y25003800D01*
X59431200Y25003800D01*
X59431200Y26356200D01*
G37*
D10*
G04 #@! TO.C,J8*
X52705000Y34925000D03*
X45085000Y34925000D03*
X47625000Y34925000D03*
X55245000Y34925000D03*
X42545000Y34925000D03*
X50165000Y34925000D03*
X57785000Y34925000D03*
X60325000Y34925000D03*
X62865000Y34925000D03*
D11*
G04 #@! TO.C,D9*
X54610000Y49140000D03*
X54610000Y44840000D03*
D13*
G04 #@! TO.C,J5*
G36*
X39256200Y52883800D02*
X39256200Y53836200D01*
X37903800Y53836200D01*
X37903800Y52883800D01*
X39256200Y52883800D01*
G37*
G36*
X37436200Y49483800D02*
X37436200Y50936200D01*
X35133800Y50936200D01*
X35133800Y49483800D01*
X37436200Y49483800D01*
G37*
G36*
X39256200Y51633800D02*
X39256200Y52586200D01*
X37903800Y52586200D01*
X37903800Y51633800D01*
X39256200Y51633800D01*
G37*
G36*
X39256200Y54133800D02*
X39256200Y55086200D01*
X37903800Y55086200D01*
X37903800Y54133800D01*
X39256200Y54133800D01*
G37*
G36*
X37436200Y58283800D02*
X37436200Y59736200D01*
X35133800Y59736200D01*
X35133800Y58283800D01*
X37436200Y58283800D01*
G37*
G36*
X39256200Y55383800D02*
X39256200Y56336200D01*
X37903800Y56336200D01*
X37903800Y55383800D01*
X39256200Y55383800D01*
G37*
G36*
X39256200Y56633800D02*
X39256200Y57586200D01*
X37903800Y57586200D01*
X37903800Y56633800D01*
X39256200Y56633800D01*
G37*
D14*
G04 #@! TO.C,J4*
X58220000Y71150000D03*
X47220000Y71150000D03*
D15*
X50220000Y61150000D03*
X55220000Y61150000D03*
D10*
G04 #@! TO.C,S1*
X52705000Y54610000D03*
X55245000Y54610000D03*
X50165000Y54610000D03*
D16*
G04 #@! TO.C,R2*
X60325000Y58715000D03*
X60325000Y54315000D03*
D11*
G04 #@! TO.C,D5*
X46355000Y43425000D03*
X46355000Y39125000D03*
G04 #@! TO.C,D6*
X59055000Y49140000D03*
X59055000Y44840000D03*
D17*
G04 #@! TO.C,D1*
X50270000Y70170000D03*
X50270000Y65770000D03*
D16*
G04 #@! TO.C,R1*
X39065000Y61665000D03*
X39065000Y66065000D03*
D18*
G04 #@! TD*
X35800000Y41000000D03*
X36000000Y72000000D03*
G04 --- BOARD END --- *
G04 #@! TF.MD5,1df360a53a22042c8e512eee24c59754*
M02*
