M48
; #@! TF.GenerationSoftware,LibrePCB,LibrePCB,1.1.0
; #@! TF.CreationDate,2024-04-23T21:01:02
; #@! TF.ProjectId,motherboard (Version 2),e7e7bca0-b6b9-4684-b626-93943a2f5169,version_2
; #@! TF.Part,Single
; #@! TF.SameCoordinates
; #@! TF.FileFunction,Plated,1,2,PTH
FMAT,2
METRIC,TZ
; #@! TA.AperFunction,ViaDrill
T1C0.3
; #@! TA.AperFunction,ComponentDrill
T2C1.0
; #@! TA.AperFunction,ComponentDrill
T3C1.016
; #@! TA.AperFunction,ComponentDrill
T4C1.75
%
G90
G05
M71
T1
X63.4Y29.2
X48.0Y27.8
X36.8Y49.0
X38.6Y36.8
X64.2Y30.0
X55.99Y30.01
X46.4Y22.6
X64.6Y28.4
X45.8Y27.8
X47.66Y23.34
X54.75Y22.93
X59.2Y22.4
X65.6Y27.6
X38.4Y47.8
X49.4Y23.6
X53.6Y23.6
T2
X47.22Y71.15
X58.22Y71.15
T3
X50.165Y54.61
X55.245Y54.61
X52.705Y54.61
X62.865Y34.925
X60.325Y34.925
X57.785Y34.925
X50.165Y34.925
X42.545Y34.925
X55.245Y34.925
X47.625Y34.925
X45.085Y34.925
X52.705Y34.925
X62.865Y50.165
X62.865Y55.245
X62.865Y45.085
X62.865Y67.945
X62.865Y57.785
X62.865Y37.465
X62.865Y52.705
X62.865Y47.625
X62.865Y42.545
X62.865Y40.005
X62.865Y60.325
X62.865Y70.485
X62.865Y65.405
X62.865Y62.865
X42.545Y50.165
X42.545Y55.245
X42.545Y45.085
X42.545Y67.945
X42.545Y57.785
X42.545Y37.465
X42.545Y52.705
X42.545Y47.625
X42.545Y42.545
X42.545Y40.005
X42.545Y60.325
X42.545Y70.485
X42.545Y65.405
X42.545Y62.865
T4
X55.22Y61.15
X50.22Y61.15
T0
M30
