G04 --- HEADER BEGIN --- *
G04 #@! TF.GenerationSoftware,LibrePCB,LibrePCB,1.1.0*
G04 #@! TF.CreationDate,2024-04-23T21:30:37*
G04 #@! TF.ProjectId,interfaceboard,7d1f5418-6340-4453-96b2-d8471fb3e645,version_1*
G04 #@! TF.Part,Single*
G04 #@! TF.SameCoordinates*
G04 #@! TF.FileFunction,Legend,Top*
G04 #@! TF.FilePolarity,Positive*
%FSLAX66Y66*%
%MOMM*%
G01*
G75*
G04 --- HEADER END --- *
G04 --- APERTURE LIST BEGIN --- *
%ADD10C,0.127*%
%ADD11C,0.2*%
%ADD12C,0.2032*%
%ADD13C,0.15*%
%ADD14C,0.1905*%
%AMROUNDEDRECT15*20,1,1.4032,-1.1,0.0,1.1,0.0,0.0*20,1,1.2,-1.2016,0.0,1.2016,0.0,0.0*1,1,0.2032,-1.1,0.6*1,1,0.2032,1.1,0.6*1,1,0.2032,1.1,-0.6*1,1,0.2032,-1.1,-0.6*%
%ADD15ROUNDEDRECT15*%
%AMROUNDEDRECT16*20,1,1.5032,-0.75,0.0,0.75,0.0,0.0*20,1,1.3,-0.8516,0.0,0.8516,0.0,0.0*1,1,0.2032,-0.75,0.65*1,1,0.2032,0.75,0.65*1,1,0.2032,0.75,-0.65*1,1,0.2032,-0.75,-0.65*%
%ADD16ROUNDEDRECT16*%
%AMROUNDEDRECT17*20,1,1.0032,-1.2,0.0,1.2,0.0,0.0*20,1,0.8,-1.3016,0.0,1.3016,0.0,0.0*1,1,0.2032,-1.2,0.4*1,1,0.2032,1.2,0.4*1,1,0.2032,1.2,-0.4*1,1,0.2032,-1.2,-0.4*%
%ADD17ROUNDEDRECT17*%
%AMROUNDEDRECT18*20,1,1.1032,-0.65,0.0,0.65,0.0,0.0*20,1,0.9,-0.7516,0.0,0.7516,0.0,0.0*1,1,0.2032,-0.65,0.45*1,1,0.2032,0.65,0.45*1,1,0.2032,0.65,-0.45*1,1,0.2032,-0.65,-0.45*%
%ADD18ROUNDEDRECT18*%
%AMROUNDEDRECT19*20,1,1.6032,-0.8,0.0,0.8,0.0,0.0*20,1,1.4,-0.9016,0.0,0.9016,0.0,0.0*1,1,0.2032,-0.8,0.7*1,1,0.2032,0.8,0.7*1,1,0.2032,0.8,-0.7*1,1,0.2032,-0.8,-0.7*%
%ADD19ROUNDEDRECT19*%
%AMROUNDEDRECT20*20,1,2.2032,-1.0,0.0,1.0,0.0,0.0*20,1,2.0,-1.1016,0.0,1.1016,0.0,0.0*1,1,0.2032,-1.0,1.0*1,1,0.2032,1.0,1.0*1,1,0.2032,1.0,-1.0*1,1,0.2032,-1.0,-1.0*%
%ADD20ROUNDEDRECT20*%
%ADD21C,0.5532*%
%ADD22C,3.2032*%
G04 --- APERTURE LIST END --- *
G04 --- BOARD BEGIN --- *
D10*
G04 #@! TO.C,D1*
X25880000Y50450000D02*
X25880000Y50320000D01*
X22380000Y50320000D01*
X22380000Y50450000D01*
X22380000Y53690000D02*
X22380000Y53820000D01*
X25880000Y53820000D01*
X25880000Y53690000D01*
D11*
X21080000Y52920000D02*
G02*
X20880000Y52920000I-100000J0D01*
G01*
G02*
X21080000Y52920000I100000J0D01*
G01*
D10*
G04 #@! TO.C,D3*
X46200000Y50450000D02*
X46200000Y50320000D01*
X42700000Y50320000D01*
X42700000Y50450000D01*
X42700000Y53690000D02*
X42700000Y53820000D01*
X46200000Y53820000D01*
X46200000Y53690000D01*
D11*
X41400000Y52920000D02*
G02*
X41200000Y52920000I-100000J0D01*
G01*
G02*
X41400000Y52920000I100000J0D01*
G01*
D10*
G04 #@! TO.C,D2*
X36040000Y50450000D02*
X36040000Y50320000D01*
X32540000Y50320000D01*
X32540000Y50450000D01*
X32540000Y53690000D02*
X32540000Y53820000D01*
X36040000Y53820000D01*
X36040000Y53690000D01*
D11*
X31240000Y52920000D02*
G02*
X31040000Y52920000I-100000J0D01*
G01*
G02*
X31240000Y52920000I100000J0D01*
G01*
D12*
G04 #@! TO.C,C1*
X17850000Y53070000D02*
X17850000Y54570000D01*
X20250000Y54570000D01*
X20250000Y53070000D01*
X17850000Y51070000D02*
X17850000Y49970000D01*
X18250000Y49570000D01*
X19850000Y49570000D01*
X20250000Y49970000D01*
X20250000Y51070000D01*
D10*
X20066000Y51689000D02*
X18034000Y51689000D01*
G04 #@! TO.C,D4*
X56360000Y50450000D02*
X56360000Y50320000D01*
X52860000Y50320000D01*
X52860000Y50450000D01*
X52860000Y53690000D02*
X52860000Y53820000D01*
X56360000Y53820000D01*
X56360000Y53690000D01*
D11*
X51560000Y52920000D02*
G02*
X51360000Y52920000I-100000J0D01*
G01*
G02*
X51560000Y52920000I100000J0D01*
G01*
D12*
G04 #@! TO.C,SW1*
X30020000Y44880000D02*
X30020000Y46180000D01*
X36020000Y46180000D01*
X36020000Y44880000D01*
X36020000Y41480000D02*
X36020000Y40180000D01*
X30020000Y40180000D01*
X30020000Y41480000D01*
G04 #@! TO.C,C4*
X48330000Y53070000D02*
X48330000Y54570000D01*
X50730000Y54570000D01*
X50730000Y53070000D01*
X48330000Y51070000D02*
X48330000Y49970000D01*
X48730000Y49570000D01*
X50330000Y49570000D01*
X50730000Y49970000D01*
X50730000Y51070000D01*
D10*
X50546000Y51689000D02*
X48514000Y51689000D01*
D12*
G04 #@! TO.C,C3*
X38170000Y53070000D02*
X38170000Y54570000D01*
X40570000Y54570000D01*
X40570000Y53070000D01*
X38170000Y51070000D02*
X38170000Y49970000D01*
X38570000Y49570000D01*
X40170000Y49570000D01*
X40570000Y49970000D01*
X40570000Y51070000D01*
D10*
X40386000Y51689000D02*
X38354000Y51689000D01*
D12*
G04 #@! TO.C,C2*
X28010000Y53070000D02*
X28010000Y54570000D01*
X30410000Y54570000D01*
X30410000Y53070000D01*
X28010000Y51070000D02*
X28010000Y49970000D01*
X28410000Y49570000D01*
X30010000Y49570000D01*
X30410000Y49970000D01*
X30410000Y51070000D01*
D10*
X30226000Y51689000D02*
X28194000Y51689000D01*
D12*
G04 #@! TO.C,SW2*
X42720000Y44880000D02*
X42720000Y46180000D01*
X48720000Y46180000D01*
X48720000Y44880000D01*
X48720000Y41480000D02*
X48720000Y40180000D01*
X42720000Y40180000D01*
X42720000Y41480000D01*
D13*
G04 #@! TD*
X38862565Y42238322D02*
X38780043Y42279583D01*
X38697522Y42362105D01*
X38574699Y42484928D01*
X38492177Y42526189D01*
X38409655Y42526189D01*
X38450916Y42320844D02*
X38369354Y42362105D01*
X38286832Y42444627D01*
X38245571Y42608711D01*
X38245571Y42896577D01*
X38286832Y43060661D01*
X38369354Y43143183D01*
X38450916Y43184444D01*
X38615959Y43184444D01*
X38697522Y43143183D01*
X38780043Y43060661D01*
X38821304Y42896577D01*
X38821304Y42608711D01*
X38780043Y42444627D01*
X38697522Y42362105D01*
X38615959Y42320844D01*
X38450916Y42320844D01*
X39185285Y43184444D02*
X39185285Y42484928D01*
X39226546Y42403366D01*
X39267807Y42362105D01*
X39349369Y42320844D01*
X39514413Y42320844D01*
X39596934Y42362105D01*
X39637236Y42403366D01*
X39678497Y42484928D01*
X39678497Y43184444D01*
X40001217Y43184444D02*
X40494429Y43184444D01*
X40247823Y42320844D02*
X40247823Y43184444D01*
X36687115Y41499156D02*
X37180327Y41499156D01*
X36933721Y40635556D02*
X36933721Y41499156D01*
X37503047Y41087507D02*
X37790914Y41087507D01*
X37914696Y40635556D02*
X37503047Y40635556D01*
X37503047Y41499156D01*
X37914696Y41499156D01*
X38319938Y40882162D02*
X38730628Y40882162D01*
X38237416Y40635556D02*
X38525283Y41499156D01*
X38813149Y40635556D01*
X39135869Y40635556D02*
X39135869Y41499156D01*
X39423736Y40882162D01*
X39711602Y41499156D01*
X39711602Y40635556D01*
X41236953Y40718078D02*
X41195693Y40676817D01*
X41072869Y40635556D01*
X40990348Y40635556D01*
X40866565Y40676817D01*
X40785003Y40759339D01*
X40743742Y40840901D01*
X40702481Y41005944D01*
X40702481Y41128768D01*
X40743742Y41293811D01*
X40785003Y41375373D01*
X40866565Y41457895D01*
X40990348Y41499156D01*
X41072869Y41499156D01*
X41195693Y41457895D01*
X41236953Y41416634D01*
X41723757Y41128768D02*
X41642195Y41170028D01*
X41600934Y41211289D01*
X41559673Y41293811D01*
X41559673Y41335072D01*
X41600934Y41416634D01*
X41642195Y41457895D01*
X41723757Y41499156D01*
X41888801Y41499156D01*
X41971322Y41457895D01*
X42011624Y41416634D01*
X42052885Y41335072D01*
X42052885Y41293811D01*
X42011624Y41211289D01*
X41971322Y41170028D01*
X41888801Y41128768D01*
X41723757Y41128768D01*
X41642195Y41087507D01*
X41600934Y41047205D01*
X41559673Y40964684D01*
X41559673Y40799640D01*
X41600934Y40718078D01*
X41642195Y40676817D01*
X41723757Y40635556D01*
X41888801Y40635556D01*
X41971322Y40676817D01*
X42011624Y40718078D01*
X42052885Y40799640D01*
X42052885Y40964684D01*
X42011624Y41047205D01*
X41971322Y41087507D01*
X41888801Y41128768D01*
D14*
G04 #@! TO.C,D1*
X21730000Y55070000D02*
X21730000Y56149500D01*
X21986681Y56149500D01*
X22141409Y56097924D01*
X22244562Y55994772D01*
X22294938Y55892819D01*
X22346514Y55686514D01*
X22346514Y55532986D01*
X22294938Y55326681D01*
X22244562Y55224728D01*
X22141409Y55121576D01*
X21986681Y55070000D01*
X21730000Y55070000D01*
X23369428Y55070000D02*
X22752914Y55070000D01*
X23061171Y55070000D02*
X23061171Y56149500D01*
X22958019Y55994772D01*
X22856066Y55892819D01*
X22752914Y55841243D01*
G04 #@! TO.C,D3*
X42050000Y55070000D02*
X42050000Y56149500D01*
X42306681Y56149500D01*
X42461409Y56097924D01*
X42564562Y55994772D01*
X42614938Y55892819D01*
X42666514Y55686514D01*
X42666514Y55532986D01*
X42614938Y55326681D01*
X42564562Y55224728D01*
X42461409Y55121576D01*
X42306681Y55070000D01*
X42050000Y55070000D01*
X43072914Y56149500D02*
X43741005Y56149500D01*
X43381171Y55738091D01*
X43535900Y55738091D01*
X43637852Y55686514D01*
X43689428Y55634938D01*
X43741005Y55532986D01*
X43741005Y55275105D01*
X43689428Y55173152D01*
X43637852Y55121576D01*
X43535900Y55070000D01*
X43227642Y55070000D01*
X43124490Y55121576D01*
X43072914Y55173152D01*
G04 #@! TO.C,D2*
X31890000Y55070000D02*
X31890000Y56149500D01*
X32146681Y56149500D01*
X32301409Y56097924D01*
X32404562Y55994772D01*
X32454938Y55892819D01*
X32506514Y55686514D01*
X32506514Y55532986D01*
X32454938Y55326681D01*
X32404562Y55224728D01*
X32301409Y55121576D01*
X32146681Y55070000D01*
X31890000Y55070000D01*
X32964490Y56046348D02*
X33016066Y56097924D01*
X33118019Y56149500D01*
X33375900Y56149500D01*
X33477852Y56097924D01*
X33529428Y56046348D01*
X33581005Y55944395D01*
X33581005Y55841243D01*
X33529428Y55686514D01*
X32912914Y55070000D01*
X33581005Y55070000D01*
D13*
G04 #@! TO.C,C1*
X21154556Y53843111D02*
X21192778Y53804889D01*
X21231000Y53691111D01*
X21231000Y53614667D01*
X21192778Y53500000D01*
X21116333Y53424444D01*
X21040778Y53386222D01*
X20887889Y53348000D01*
X20774111Y53348000D01*
X20621222Y53386222D01*
X20545667Y53424444D01*
X20469222Y53500000D01*
X20431000Y53614667D01*
X20431000Y53691111D01*
X20469222Y53804889D01*
X20507444Y53843111D01*
X21231000Y54610000D02*
X21231000Y54153111D01*
X21231000Y54381555D02*
X20431000Y54381555D01*
X20545667Y54305111D01*
X20621222Y54229555D01*
X20659444Y54153111D01*
D14*
G04 #@! TO.C,D4*
X52210000Y55070000D02*
X52210000Y56149500D01*
X52466681Y56149500D01*
X52621409Y56097924D01*
X52724562Y55994772D01*
X52774938Y55892819D01*
X52826514Y55686514D01*
X52826514Y55532986D01*
X52774938Y55326681D01*
X52724562Y55224728D01*
X52621409Y55121576D01*
X52466681Y55070000D01*
X52210000Y55070000D01*
X53747476Y55789667D02*
X53747476Y55070000D01*
X53489595Y56201076D02*
X53232914Y55429833D01*
X53901005Y55429833D01*
D13*
G04 #@! TO.C,SW1*
X31242000Y43345222D02*
X31356667Y43307000D01*
X31546889Y43307000D01*
X31623333Y43345222D01*
X31660667Y43383444D01*
X31698889Y43459000D01*
X31698889Y43535444D01*
X31660667Y43611889D01*
X31623333Y43650111D01*
X31546889Y43688333D01*
X31394000Y43725667D01*
X31318444Y43763889D01*
X31280222Y43802111D01*
X31242000Y43878556D01*
X31242000Y43955000D01*
X31280222Y44030556D01*
X31318444Y44068778D01*
X31394000Y44107000D01*
X31585111Y44107000D01*
X31698889Y44068778D01*
X32008889Y44107000D02*
X32199111Y43307000D01*
X32352000Y43878556D01*
X32504000Y43307000D01*
X32694222Y44107000D01*
X33461111Y43307000D02*
X33004222Y43307000D01*
X33232666Y43307000D02*
X33232666Y44107000D01*
X33156222Y43992333D01*
X33080666Y43916778D01*
X33004222Y43878556D01*
G04 #@! TO.C,C4*
X51634556Y53804889D02*
X51672778Y53766667D01*
X51711000Y53652889D01*
X51711000Y53576445D01*
X51672778Y53461778D01*
X51596333Y53386222D01*
X51520778Y53348000D01*
X51367889Y53309778D01*
X51254111Y53309778D01*
X51101222Y53348000D01*
X51025667Y53386222D01*
X50949222Y53461778D01*
X50911000Y53576445D01*
X50911000Y53652889D01*
X50949222Y53766667D01*
X50987444Y53804889D01*
X51177667Y54496222D02*
X51711000Y54496222D01*
X50872778Y54305111D02*
X51444333Y54114889D01*
X51444333Y54610000D01*
G04 #@! TO.C,C3*
X41474556Y53804889D02*
X41512778Y53766667D01*
X41551000Y53652889D01*
X41551000Y53576445D01*
X41512778Y53461778D01*
X41436333Y53386222D01*
X41360778Y53348000D01*
X41207889Y53309778D01*
X41094111Y53309778D01*
X40941222Y53348000D01*
X40865667Y53386222D01*
X40789222Y53461778D01*
X40751000Y53576445D01*
X40751000Y53652889D01*
X40789222Y53766667D01*
X40827444Y53804889D01*
X40751000Y54114889D02*
X40751000Y54610000D01*
X41055889Y54343333D01*
X41055889Y54458000D01*
X41094111Y54533556D01*
X41132333Y54571778D01*
X41207889Y54610000D01*
X41399000Y54610000D01*
X41474556Y54571778D01*
X41512778Y54533556D01*
X41551000Y54458000D01*
X41551000Y54229556D01*
X41512778Y54153111D01*
X41474556Y54114889D01*
G04 #@! TO.C,C2*
X31314556Y53804889D02*
X31352778Y53766667D01*
X31391000Y53652889D01*
X31391000Y53576445D01*
X31352778Y53461778D01*
X31276333Y53386222D01*
X31200778Y53348000D01*
X31047889Y53309778D01*
X30934111Y53309778D01*
X30781222Y53348000D01*
X30705667Y53386222D01*
X30629222Y53461778D01*
X30591000Y53576445D01*
X30591000Y53652889D01*
X30629222Y53766667D01*
X30667444Y53804889D01*
X30667444Y54153111D02*
X30629222Y54191333D01*
X30591000Y54266889D01*
X30591000Y54458000D01*
X30629222Y54533556D01*
X30667444Y54571778D01*
X30743000Y54610000D01*
X30819444Y54610000D01*
X30934111Y54571778D01*
X31391000Y54114889D01*
X31391000Y54610000D01*
G04 #@! TO.C,SW2*
X43942000Y43345222D02*
X44056667Y43307000D01*
X44246889Y43307000D01*
X44323333Y43345222D01*
X44360667Y43383444D01*
X44398889Y43459000D01*
X44398889Y43535444D01*
X44360667Y43611889D01*
X44323333Y43650111D01*
X44246889Y43688333D01*
X44094000Y43725667D01*
X44018444Y43763889D01*
X43980222Y43802111D01*
X43942000Y43878556D01*
X43942000Y43955000D01*
X43980222Y44030556D01*
X44018444Y44068778D01*
X44094000Y44107000D01*
X44285111Y44107000D01*
X44398889Y44068778D01*
X44708889Y44107000D02*
X44899111Y43307000D01*
X45052000Y43878556D01*
X45204000Y43307000D01*
X45394222Y44107000D01*
X45742444Y44030556D02*
X45780666Y44068778D01*
X45856222Y44107000D01*
X46047333Y44107000D01*
X46122889Y44068778D01*
X46161111Y44030556D01*
X46199333Y43955000D01*
X46199333Y43878556D01*
X46161111Y43763889D01*
X45704222Y43307000D01*
X46199333Y43307000D01*
%LPC*%
D15*
G04 #@! TO.C,D1*
X23080000Y51370000D03*
D16*
X25530000Y51420000D03*
D17*
X25080000Y52970000D03*
D18*
X22630000Y52920000D03*
D15*
G04 #@! TO.C,D3*
X43400000Y51370000D03*
D16*
X45850000Y51420000D03*
D17*
X45400000Y52970000D03*
D18*
X42950000Y52920000D03*
D15*
G04 #@! TO.C,D2*
X33240000Y51370000D03*
D16*
X35690000Y51420000D03*
D17*
X35240000Y52970000D03*
D18*
X32790000Y52920000D03*
D19*
G04 #@! TO.C,C1*
X19050000Y50670000D03*
X19050000Y53470000D03*
D15*
G04 #@! TO.C,D4*
X53560000Y51370000D03*
D16*
X56010000Y51420000D03*
D17*
X55560000Y52970000D03*
D18*
X53110000Y52920000D03*
D20*
G04 #@! TO.C,SW1*
X36020000Y43180000D03*
X30020000Y43180000D03*
D19*
G04 #@! TO.C,C4*
X49530000Y50670000D03*
X49530000Y53470000D03*
G04 #@! TO.C,C3*
X39370000Y50670000D03*
X39370000Y53470000D03*
G04 #@! TO.C,C2*
X29210000Y50670000D03*
X29210000Y53470000D03*
D20*
G04 #@! TO.C,SW2*
X48720000Y43180000D03*
X42720000Y43180000D03*
D21*
G04 #@! TD*
X57150000Y54610000D03*
X26670000Y54610000D03*
X40640000Y46990000D03*
X46990000Y54610000D03*
X21000000Y53000000D03*
X41910000Y46990000D03*
X38100000Y46990000D03*
X30000000Y45000000D03*
X41000000Y43000000D03*
X36830000Y54610000D03*
D22*
X52070000Y45720000D03*
X26670000Y45720000D03*
G04 --- BOARD END --- *
G04 #@! TF.MD5,e1225cd328ae987d280bd5c0e8e7e97b*
M02*
