G04 --- HEADER BEGIN --- *
G04 #@! TF.GenerationSoftware,LibrePCB,LibrePCB,1.1.0*
G04 #@! TF.CreationDate,2024-04-23T21:30:37*
G04 #@! TF.ProjectId,interfaceboard,7d1f5418-6340-4453-96b2-d8471fb3e645,version_1*
G04 #@! TF.Part,Single*
G04 #@! TF.SameCoordinates*
G04 #@! TF.FileFunction,Copper,L2,Bot*
G04 #@! TF.FilePolarity,Positive*
%FSLAX66Y66*%
%MOMM*%
G01*
G75*
G04 --- HEADER END --- *
G04 --- APERTURE LIST BEGIN --- *
G04 #@! TA.AperFunction,SMDPad,CuDef*
%ADD10R,0.8X1.2*%
%ADD11R,1.3X2.15*%
G04 #@! TA.AperFunction,ViaPad*
%ADD12C,0.7564*%
G04 #@! TA.AperFunction,Conductor*
%ADD13C,0.1524*%
%ADD14C,0.01*%
G04 #@! TD*
G04 --- APERTURE LIST END --- *
G04 --- BOARD BEGIN --- *
D10*
G04 #@! TO.N,GND*
G04 #@! TO.C,J1*
G04 #@! TO.P,J1,5,5*
X36870000Y44930000D03*
G04 #@! TO.N,BTN*
G04 #@! TO.P,J1,2,2*
X40620000Y44930000D03*
G04 #@! TO.N,VCC*
G04 #@! TO.P,J1,1,1*
X41870000Y44930000D03*
G04 #@! TO.N,RST*
G04 #@! TO.P,J1,4,4*
X38120000Y44930000D03*
G04 #@! TO.N,LED*
G04 #@! TO.P,J1,3,3*
X39370000Y44930000D03*
D11*
G04 #@! TO.N,GND*
G04 #@! TO.P,J1,S2,SHIELD2*
X43770000Y42635000D03*
G04 #@! TO.P,J1,S1,SHIELD1*
X34970000Y42635000D03*
D12*
G04 #@! TD.C*
G04 #@! TD.P*
X57150000Y54610000D03*
X26670000Y54610000D03*
G04 #@! TO.N,BTN*
X40640000Y46990000D03*
D13*
X40620000Y46970000D02*
X40640000Y46990000D01*
X40620000Y44930000D02*
X40620000Y46970000D01*
D12*
G04 #@! TO.N,GND*
X46990000Y54610000D03*
G04 #@! TO.N,LED*
X21000000Y53000000D03*
D13*
X21000000Y53000000D02*
X34000000Y53000000D01*
X39370000Y47630000D02*
X39370000Y44930000D01*
X34000000Y53000000D02*
X39370000Y47630000D01*
D12*
G04 #@! TO.N,VCC*
X41910000Y46990000D03*
D13*
X41870000Y44930000D02*
X41870000Y46950000D01*
X41870000Y46950000D02*
X41910000Y46990000D01*
D12*
G04 #@! TO.N,RST*
X38100000Y46990000D03*
D13*
X38100000Y44950000D02*
X38100000Y46990000D01*
X38120000Y44930000D02*
X38100000Y44950000D01*
D12*
G04 #@! TO.N,GND*
X30000000Y45000000D03*
X41000000Y43000000D03*
X36830000Y54610000D03*
D14*
G04 #@! TA.AperFunction,Conductor*
G36*
X16662400Y51606047D02*
X16662473Y51602723D01*
X16680846Y51181910D01*
X16681425Y51175288D01*
X16735754Y50762616D01*
X16736908Y50756069D01*
X16826998Y50349701D01*
X16828719Y50343280D01*
X16953881Y49946319D01*
X16956154Y49940073D01*
X17115445Y49555510D01*
X17118255Y49549485D01*
X17310438Y49180303D01*
X17313761Y49174546D01*
X17537411Y48823485D01*
X17541224Y48818040D01*
X17794608Y48487823D01*
X17798881Y48482731D01*
X18083454Y48172175D01*
X18085753Y48169773D01*
X25309773Y40945753D01*
X25312175Y40943454D01*
X25622731Y40658882D01*
X25627823Y40654609D01*
X25958035Y40401229D01*
X25963480Y40397416D01*
X26314552Y40173758D01*
X26320309Y40170435D01*
X26549367Y40051195D01*
X26549367Y44072220D01*
X26543697Y44072645D01*
X26305127Y44108604D01*
X26299581Y44109869D01*
X26069038Y44180983D01*
X26063740Y44183062D01*
X25846366Y44287744D01*
X25841446Y44290585D01*
X25642094Y44426501D01*
X25637663Y44430034D01*
X25460791Y44594148D01*
X25456929Y44598310D01*
X25306507Y44786933D01*
X25303291Y44791651D01*
X25182665Y45000580D01*
X25180198Y45005703D01*
X25092052Y45230297D01*
X25090379Y45235720D01*
X25036688Y45470953D01*
X25035843Y45476560D01*
X25017813Y45717158D01*
X25017813Y45722842D01*
X25035843Y45963440D01*
X25036688Y45969047D01*
X25090377Y46204276D01*
X25092052Y46209705D01*
X25180200Y46434301D01*
X25182664Y46439418D01*
X25303291Y46648349D01*
X25306507Y46653067D01*
X25456929Y46841690D01*
X25460791Y46845852D01*
X25637663Y47009966D01*
X25642094Y47013499D01*
X25841446Y47149415D01*
X25846366Y47152256D01*
X26063739Y47256938D01*
X26069037Y47259017D01*
X26299581Y47330131D01*
X26305127Y47331396D01*
X26543697Y47367355D01*
X26549367Y47367780D01*
X26790633Y47367780D01*
X26796303Y47367355D01*
X27034873Y47331396D01*
X27040419Y47330131D01*
X27270962Y47259017D01*
X27276260Y47256938D01*
X27493634Y47152256D01*
X27498554Y47149415D01*
X27697906Y47013499D01*
X27702337Y47009966D01*
X27879209Y46845852D01*
X27883071Y46841690D01*
X28033493Y46653067D01*
X28036709Y46648349D01*
X28157335Y46439420D01*
X28159802Y46434297D01*
X28247948Y46209703D01*
X28249621Y46204280D01*
X28303312Y45969047D01*
X28304157Y45963440D01*
X28322187Y45722842D01*
X28322187Y45717158D01*
X28304157Y45476560D01*
X28303312Y45470953D01*
X28249623Y45235724D01*
X28247948Y45230295D01*
X28159800Y45005699D01*
X28157336Y45000582D01*
X28036709Y44791651D01*
X28033493Y44786933D01*
X27883071Y44598310D01*
X27879209Y44594148D01*
X27702337Y44430034D01*
X27697906Y44426501D01*
X27498554Y44290585D01*
X27493634Y44287744D01*
X27276261Y44183062D01*
X27270963Y44180983D01*
X27040419Y44109869D01*
X27034873Y44108604D01*
X26796303Y44072645D01*
X26790633Y44072220D01*
X26549367Y44072220D01*
X26549367Y40051195D01*
X26689485Y39978255D01*
X26695510Y39975445D01*
X27080073Y39816154D01*
X27086319Y39813881D01*
X27483280Y39688719D01*
X27489701Y39686998D01*
X27896069Y39596908D01*
X27902616Y39595754D01*
X28315288Y39541426D01*
X28321910Y39540847D01*
X28742724Y39522473D01*
X28746048Y39522400D01*
X34834035Y39522400D01*
X34834035Y40260000D01*
X34825907Y40263099D01*
X34820000Y40276286D01*
X34820000Y41183801D01*
X34800656Y41234533D01*
X34743801Y41260000D01*
X34322992Y41260000D01*
X34317046Y41260468D01*
X34233218Y41273745D01*
X34221952Y41277405D01*
X34149005Y41314574D01*
X34139425Y41321534D01*
X34081534Y41379425D01*
X34074574Y41389005D01*
X34037405Y41461952D01*
X34033745Y41473218D01*
X34020468Y41557046D01*
X34020000Y41562992D01*
X34020000Y42470960D01*
X34023099Y42479088D01*
X34036286Y42484995D01*
X34320000Y42484995D01*
X34320000Y41560000D01*
X35620000Y41560000D01*
X35620000Y43710000D01*
X34320000Y43710000D01*
X34320000Y42785005D01*
X34034035Y42785005D01*
X34025907Y42788104D01*
X34020000Y42801291D01*
X34020000Y45715965D01*
X34023099Y45724093D01*
X34036286Y45730000D01*
X36219396Y45730000D01*
X36273277Y45752318D01*
X36289425Y45768466D01*
X36299005Y45775426D01*
X36371952Y45812595D01*
X36383218Y45816255D01*
X36467046Y45829532D01*
X36472992Y45830000D01*
X36705960Y45830000D01*
X36714088Y45826901D01*
X36719995Y45813714D01*
X36719995Y45530000D01*
X36470000Y45530000D01*
X36470000Y44330000D01*
X37270000Y44330000D01*
X37270000Y45530000D01*
X37020005Y45530000D01*
X37020005Y45815965D01*
X37023104Y45824093D01*
X37036291Y45830000D01*
X37267008Y45830000D01*
X37272954Y45829532D01*
X37356782Y45816255D01*
X37368048Y45812595D01*
X37440995Y45775426D01*
X37450575Y45768466D01*
X37508466Y45710575D01*
X37515430Y45700990D01*
X37525122Y45681969D01*
X37565390Y45645548D01*
X37635349Y45653206D01*
X37655440Y45666630D01*
X37669038Y45672263D01*
X37716332Y45681670D01*
X37723741Y45682400D01*
X37795201Y45682400D01*
X37845933Y45701744D01*
X37871400Y45758599D01*
X37871400Y46466057D01*
X37834416Y46530117D01*
X37834700Y46530487D01*
X37833806Y46531173D01*
X37833302Y46532046D01*
X37830742Y46533524D01*
X37728772Y46611768D01*
X37721768Y46618772D01*
X37643524Y46720742D01*
X37638578Y46729309D01*
X37589391Y46848058D01*
X37586828Y46857622D01*
X37570052Y46985048D01*
X37570052Y46994952D01*
X37586828Y47122378D01*
X37589391Y47131942D01*
X37638578Y47250691D01*
X37643524Y47259258D01*
X37721768Y47361228D01*
X37728772Y47368232D01*
X37830742Y47446476D01*
X37839309Y47451422D01*
X37958058Y47500609D01*
X37967622Y47503172D01*
X38095048Y47519948D01*
X38104952Y47519948D01*
X38232378Y47503172D01*
X38241942Y47500609D01*
X38360691Y47451422D01*
X38369258Y47446476D01*
X38471228Y47368232D01*
X38478232Y47361228D01*
X38556476Y47259258D01*
X38561422Y47250691D01*
X38610609Y47131942D01*
X38613172Y47122378D01*
X38629948Y46994952D01*
X38629948Y46985048D01*
X38613172Y46857622D01*
X38610609Y46848058D01*
X38561422Y46729309D01*
X38556476Y46720742D01*
X38478232Y46618772D01*
X38471228Y46611768D01*
X38369258Y46533524D01*
X38366698Y46532046D01*
X38366194Y46531173D01*
X38365300Y46530487D01*
X38365584Y46530117D01*
X38328600Y46466057D01*
X38328600Y45758599D01*
X38347944Y45707867D01*
X38404799Y45682400D01*
X38516259Y45682400D01*
X38523668Y45681670D01*
X38570962Y45672263D01*
X38584560Y45666630D01*
X38621522Y45641933D01*
X38631933Y45631522D01*
X38656630Y45594560D01*
X38662263Y45580962D01*
X38670265Y45540733D01*
X38699135Y45494749D01*
X38751291Y45479660D01*
X38800253Y45503126D01*
X38819735Y45540733D01*
X38827737Y45580962D01*
X38833370Y45594560D01*
X38858067Y45631522D01*
X38868478Y45641933D01*
X38905440Y45666630D01*
X38919038Y45672263D01*
X38966332Y45681670D01*
X38973741Y45682400D01*
X39065201Y45682400D01*
X39115933Y45701744D01*
X39141400Y45758599D01*
X39141400Y47503748D01*
X39119082Y47557629D01*
X33927629Y52749082D01*
X33873748Y52771400D01*
X21523943Y52771400D01*
X21459883Y52734416D01*
X21459513Y52734700D01*
X21458827Y52733806D01*
X21457954Y52733302D01*
X21456476Y52730742D01*
X21378232Y52628772D01*
X21371228Y52621768D01*
X21269258Y52543524D01*
X21260691Y52538578D01*
X21141942Y52489391D01*
X21132378Y52486828D01*
X21004952Y52470052D01*
X20995048Y52470052D01*
X20867622Y52486828D01*
X20858058Y52489391D01*
X20739309Y52538578D01*
X20730742Y52543524D01*
X20628772Y52621768D01*
X20621768Y52628772D01*
X20543524Y52730742D01*
X20538578Y52739309D01*
X20489391Y52858058D01*
X20486828Y52867622D01*
X20470052Y52995048D01*
X20470052Y53004952D01*
X20486828Y53132378D01*
X20489391Y53141942D01*
X20538578Y53260691D01*
X20543524Y53269258D01*
X20621768Y53371228D01*
X20628772Y53378232D01*
X20730742Y53456476D01*
X20739309Y53461422D01*
X20858058Y53510609D01*
X20867622Y53513172D01*
X20995048Y53529948D01*
X21004952Y53529948D01*
X21132378Y53513172D01*
X21141942Y53510609D01*
X21260691Y53461422D01*
X21269258Y53456476D01*
X21371228Y53378232D01*
X21378232Y53371228D01*
X21456476Y53269258D01*
X21457954Y53266698D01*
X21458827Y53266194D01*
X21459513Y53265300D01*
X21459883Y53265584D01*
X21523943Y53228600D01*
X33996751Y53228600D01*
X34000037Y53227129D01*
X34007381Y53227133D01*
X34080124Y53212663D01*
X34093722Y53207030D01*
X34129902Y53182855D01*
X34155391Y53165823D01*
X34160582Y53160628D01*
X34164352Y53158937D01*
X39529344Y47793945D01*
X39530629Y47790578D01*
X39535828Y47785384D01*
X39577028Y47723723D01*
X39582663Y47710120D01*
X39597870Y47633669D01*
X39598600Y47626259D01*
X39598600Y45758599D01*
X39617944Y45707867D01*
X39674799Y45682400D01*
X39766259Y45682400D01*
X39773668Y45681670D01*
X39820962Y45672263D01*
X39834560Y45666630D01*
X39871522Y45641933D01*
X39881933Y45631522D01*
X39906630Y45594560D01*
X39912263Y45580962D01*
X39920265Y45540733D01*
X39949135Y45494749D01*
X40001291Y45479660D01*
X40050253Y45503126D01*
X40069735Y45540733D01*
X40077737Y45580962D01*
X40083370Y45594560D01*
X40108067Y45631522D01*
X40118478Y45641933D01*
X40155440Y45666630D01*
X40169038Y45672263D01*
X40216332Y45681670D01*
X40223741Y45682400D01*
X40315201Y45682400D01*
X40365933Y45701744D01*
X40391400Y45758599D01*
X40391400Y46480095D01*
X40361588Y46540548D01*
X40268772Y46611768D01*
X40261768Y46618772D01*
X40183524Y46720742D01*
X40178578Y46729309D01*
X40129391Y46848058D01*
X40126828Y46857622D01*
X40110052Y46985048D01*
X40110052Y46994952D01*
X40126828Y47122378D01*
X40129391Y47131942D01*
X40178578Y47250691D01*
X40183524Y47259258D01*
X40261768Y47361228D01*
X40268772Y47368232D01*
X40370742Y47446476D01*
X40379309Y47451422D01*
X40498058Y47500609D01*
X40507622Y47503172D01*
X40635048Y47519948D01*
X40644952Y47519948D01*
X40772378Y47503172D01*
X40781942Y47500609D01*
X40900691Y47451422D01*
X40909258Y47446476D01*
X41011228Y47368232D01*
X41018232Y47361228D01*
X41096476Y47259258D01*
X41101422Y47250691D01*
X41150609Y47131942D01*
X41153172Y47122378D01*
X41169948Y46994952D01*
X41169948Y46985048D01*
X41153172Y46857622D01*
X41150609Y46848058D01*
X41101422Y46729309D01*
X41096476Y46720742D01*
X41018232Y46618772D01*
X41011228Y46611768D01*
X40909258Y46533524D01*
X40900689Y46528577D01*
X40895637Y46526484D01*
X40856170Y46489197D01*
X40848600Y46456086D01*
X40848600Y45758599D01*
X40867944Y45707867D01*
X40924799Y45682400D01*
X41016259Y45682400D01*
X41023668Y45681670D01*
X41070962Y45672263D01*
X41084560Y45666630D01*
X41121522Y45641933D01*
X41131933Y45631522D01*
X41156630Y45594560D01*
X41162263Y45580962D01*
X41170265Y45540733D01*
X41199135Y45494749D01*
X41251291Y45479660D01*
X41300253Y45503126D01*
X41319735Y45540733D01*
X41327737Y45580962D01*
X41333370Y45594560D01*
X41358067Y45631522D01*
X41368478Y45641933D01*
X41405440Y45666630D01*
X41419038Y45672263D01*
X41466332Y45681670D01*
X41473741Y45682400D01*
X41565201Y45682400D01*
X41615933Y45701744D01*
X41641400Y45758599D01*
X41641400Y46495442D01*
X41611588Y46555895D01*
X41538772Y46611768D01*
X41531768Y46618772D01*
X41453524Y46720742D01*
X41448578Y46729309D01*
X41399391Y46848058D01*
X41396828Y46857622D01*
X41380052Y46985048D01*
X41380052Y46994952D01*
X41396828Y47122378D01*
X41399391Y47131942D01*
X41448578Y47250691D01*
X41453524Y47259258D01*
X41531768Y47361228D01*
X41538772Y47368232D01*
X41640742Y47446476D01*
X41649309Y47451422D01*
X41768058Y47500609D01*
X41777622Y47503172D01*
X41905048Y47519948D01*
X41914952Y47519948D01*
X42042378Y47503172D01*
X42051942Y47500609D01*
X42170691Y47451422D01*
X42179258Y47446476D01*
X42281228Y47368232D01*
X42288232Y47361228D01*
X42366476Y47259258D01*
X42371422Y47250691D01*
X42420609Y47131942D01*
X42423172Y47122378D01*
X42439948Y46994952D01*
X42439948Y46985048D01*
X42423172Y46857622D01*
X42420609Y46848058D01*
X42371422Y46729309D01*
X42366476Y46720742D01*
X42288232Y46618772D01*
X42281228Y46611768D01*
X42179258Y46533524D01*
X42170691Y46528578D01*
X42145639Y46518201D01*
X42106171Y46480915D01*
X42098600Y46447802D01*
X42098600Y45758599D01*
X42117944Y45707867D01*
X42174799Y45682400D01*
X42204706Y45682400D01*
X42255438Y45701744D01*
X42269825Y45722627D01*
X42286286Y45730000D01*
X44705965Y45730000D01*
X44714093Y45726901D01*
X44720000Y45713714D01*
X44720000Y42799040D01*
X44716901Y42790912D01*
X44703714Y42785005D01*
X44420000Y42785005D01*
X44420000Y43710000D01*
X43120000Y43710000D01*
X43120000Y41560000D01*
X44420000Y41560000D01*
X44420000Y42484995D01*
X44705965Y42484995D01*
X44714093Y42481896D01*
X44720000Y42468709D01*
X44720000Y41562992D01*
X44719532Y41557046D01*
X44706255Y41473218D01*
X44702595Y41461952D01*
X44665426Y41389005D01*
X44658466Y41379425D01*
X44600575Y41321534D01*
X44590995Y41314574D01*
X44518048Y41277405D01*
X44506782Y41273745D01*
X44422954Y41260468D01*
X44417008Y41260000D01*
X43996199Y41260000D01*
X43945467Y41240656D01*
X43920000Y41183801D01*
X43920000Y40274035D01*
X43916901Y40265907D01*
X43903714Y40260000D01*
X41734035Y40260000D01*
X41725907Y40263099D01*
X41720000Y40276286D01*
X41720000Y44101401D01*
X41700656Y44152133D01*
X41643801Y44177600D01*
X41473741Y44177600D01*
X41466332Y44178330D01*
X41419038Y44187737D01*
X41405440Y44193370D01*
X41368478Y44218067D01*
X41358067Y44228478D01*
X41333370Y44265440D01*
X41327737Y44279038D01*
X41319735Y44319267D01*
X41290865Y44365251D01*
X41238709Y44380340D01*
X41189747Y44356874D01*
X41170265Y44319267D01*
X41162263Y44279038D01*
X41156630Y44265440D01*
X41131933Y44228478D01*
X41121522Y44218067D01*
X41084560Y44193370D01*
X41070962Y44187737D01*
X41023668Y44178330D01*
X41016259Y44177600D01*
X40223741Y44177600D01*
X40216332Y44178330D01*
X40169038Y44187737D01*
X40155440Y44193370D01*
X40118478Y44218067D01*
X40108067Y44228478D01*
X40083370Y44265440D01*
X40077737Y44279038D01*
X40069735Y44319267D01*
X40040865Y44365251D01*
X39988709Y44380340D01*
X39939747Y44356874D01*
X39920265Y44319267D01*
X39912263Y44279038D01*
X39906630Y44265440D01*
X39881933Y44228478D01*
X39871522Y44218067D01*
X39834560Y44193370D01*
X39820962Y44187737D01*
X39773668Y44178330D01*
X39766259Y44177600D01*
X38973741Y44177600D01*
X38966332Y44178330D01*
X38919038Y44187737D01*
X38905440Y44193370D01*
X38868478Y44218067D01*
X38858067Y44228478D01*
X38833370Y44265440D01*
X38827737Y44279038D01*
X38819735Y44319267D01*
X38790865Y44365251D01*
X38738709Y44380340D01*
X38689747Y44356874D01*
X38670265Y44319267D01*
X38662263Y44279038D01*
X38656630Y44265440D01*
X38631933Y44228478D01*
X38621522Y44218067D01*
X38584560Y44193370D01*
X38570962Y44187737D01*
X38523668Y44178330D01*
X38516259Y44177600D01*
X37723741Y44177600D01*
X37716332Y44178330D01*
X37669038Y44187737D01*
X37655440Y44193370D01*
X37635349Y44206794D01*
X37582419Y44218896D01*
X37525122Y44178031D01*
X37515430Y44159010D01*
X37508466Y44149425D01*
X37450575Y44091534D01*
X37440995Y44084574D01*
X37368048Y44047405D01*
X37356782Y44043745D01*
X37272954Y44030468D01*
X37267008Y44030000D01*
X37096199Y44030000D01*
X37045467Y44010656D01*
X37020000Y43953801D01*
X37020000Y40274035D01*
X37016901Y40265907D01*
X37003714Y40260000D01*
X34834035Y40260000D01*
X34834035Y39522400D01*
X48723953Y39522400D01*
X48727277Y39522473D01*
X49148090Y39540846D01*
X49154712Y39541425D01*
X49567384Y39595754D01*
X49573931Y39596908D01*
X49980299Y39686998D01*
X49986720Y39688719D01*
X50383681Y39813881D01*
X50389927Y39816154D01*
X50774490Y39975445D01*
X50780515Y39978255D01*
X51149697Y40170438D01*
X51155454Y40173761D01*
X51506515Y40397411D01*
X51511960Y40401224D01*
X51842177Y40654608D01*
X51847269Y40658881D01*
X51949367Y40752436D01*
X51949367Y44072220D01*
X51943697Y44072645D01*
X51705127Y44108604D01*
X51699581Y44109869D01*
X51469038Y44180983D01*
X51463740Y44183062D01*
X51246366Y44287744D01*
X51241446Y44290585D01*
X51042094Y44426501D01*
X51037663Y44430034D01*
X50860791Y44594148D01*
X50856929Y44598310D01*
X50706507Y44786933D01*
X50703291Y44791651D01*
X50582665Y45000580D01*
X50580198Y45005703D01*
X50492052Y45230297D01*
X50490379Y45235720D01*
X50436688Y45470953D01*
X50435843Y45476560D01*
X50417813Y45717158D01*
X50417813Y45722842D01*
X50435843Y45963440D01*
X50436688Y45969047D01*
X50490377Y46204276D01*
X50492052Y46209705D01*
X50580200Y46434301D01*
X50582664Y46439418D01*
X50703291Y46648349D01*
X50706507Y46653067D01*
X50856929Y46841690D01*
X50860791Y46845852D01*
X51037663Y47009966D01*
X51042094Y47013499D01*
X51241446Y47149415D01*
X51246366Y47152256D01*
X51463739Y47256938D01*
X51469037Y47259017D01*
X51699581Y47330131D01*
X51705127Y47331396D01*
X51943697Y47367355D01*
X51949367Y47367780D01*
X52190633Y47367780D01*
X52196303Y47367355D01*
X52434873Y47331396D01*
X52440419Y47330131D01*
X52670962Y47259017D01*
X52676260Y47256938D01*
X52893634Y47152256D01*
X52898554Y47149415D01*
X53097906Y47013499D01*
X53102337Y47009966D01*
X53279209Y46845852D01*
X53283071Y46841690D01*
X53433493Y46653067D01*
X53436709Y46648349D01*
X53557335Y46439420D01*
X53559802Y46434297D01*
X53647948Y46209703D01*
X53649621Y46204280D01*
X53703312Y45969047D01*
X53704157Y45963440D01*
X53722187Y45722842D01*
X53722187Y45717158D01*
X53704157Y45476560D01*
X53703312Y45470953D01*
X53649623Y45235724D01*
X53647948Y45230295D01*
X53559800Y45005699D01*
X53557336Y45000582D01*
X53436709Y44791651D01*
X53433493Y44786933D01*
X53283071Y44598310D01*
X53279209Y44594148D01*
X53102337Y44430034D01*
X53097906Y44426501D01*
X52898554Y44290585D01*
X52893634Y44287744D01*
X52676261Y44183062D01*
X52670963Y44180983D01*
X52440419Y44109869D01*
X52434873Y44108604D01*
X52196303Y44072645D01*
X52190633Y44072220D01*
X51949367Y44072220D01*
X51949367Y40752436D01*
X52157825Y40943454D01*
X52160227Y40945753D01*
X57784247Y46569773D01*
X57786546Y46572175D01*
X58071118Y46882731D01*
X58075391Y46887823D01*
X58328771Y47218035D01*
X58332584Y47223480D01*
X58556242Y47574552D01*
X58559565Y47580309D01*
X58751745Y47949485D01*
X58754555Y47955510D01*
X58913846Y48340073D01*
X58916119Y48346319D01*
X59041281Y48743280D01*
X59043002Y48749701D01*
X59133092Y49156069D01*
X59134246Y49162616D01*
X59188574Y49575288D01*
X59189153Y49581910D01*
X59207527Y50002724D01*
X59207600Y50006048D01*
X59207600Y54633091D01*
X59207461Y54637692D01*
X59190485Y54918335D01*
X59189376Y54927469D01*
X59139943Y55197220D01*
X59137741Y55206155D01*
X59056154Y55467975D01*
X59052891Y55476578D01*
X58940342Y55726651D01*
X58936066Y55734799D01*
X58794195Y55969483D01*
X58788968Y55977055D01*
X58619838Y56192934D01*
X58613736Y56199822D01*
X58419822Y56393736D01*
X58412934Y56399838D01*
X58197055Y56568968D01*
X58189483Y56574195D01*
X57954799Y56716066D01*
X57946651Y56720342D01*
X57696578Y56832891D01*
X57687975Y56836154D01*
X57426155Y56917741D01*
X57417220Y56919943D01*
X57147469Y56969376D01*
X57138335Y56970485D01*
X56857692Y56987461D01*
X56853091Y56987600D01*
X19016909Y56987600D01*
X19012308Y56987461D01*
X18731665Y56970485D01*
X18722531Y56969376D01*
X18452780Y56919943D01*
X18443845Y56917741D01*
X18182025Y56836154D01*
X18173422Y56832891D01*
X17923349Y56720342D01*
X17915201Y56716066D01*
X17680517Y56574195D01*
X17672945Y56568968D01*
X17457066Y56399838D01*
X17450178Y56393736D01*
X17256264Y56199822D01*
X17250162Y56192934D01*
X17081032Y55977055D01*
X17075805Y55969483D01*
X16933934Y55734799D01*
X16929658Y55726651D01*
X16817109Y55476578D01*
X16813846Y55467975D01*
X16732259Y55206155D01*
X16730057Y55197220D01*
X16680624Y54927469D01*
X16679515Y54918335D01*
X16662539Y54637692D01*
X16662400Y54633091D01*
X16662400Y51606047D01*
G37*
G04 --- BOARD END --- *
G04 #@! TF.MD5,95c2124e3c62908a0332db3a288ffc35*
M02*
