G04 --- HEADER BEGIN --- *
G04 #@! TF.GenerationSoftware,LibrePCB,LibrePCB,1.1.0*
G04 #@! TF.CreationDate,2024-04-23T21:30:37*
G04 #@! TF.ProjectId,interfaceboard,7d1f5418-6340-4453-96b2-d8471fb3e645,version_1*
G04 #@! TF.Part,Single*
G04 #@! TF.SameCoordinates*
G04 #@! TF.FileFunction,Soldermask,Bot*
G04 #@! TF.FilePolarity,Negative*
%FSLAX66Y66*%
%MOMM*%
G01*
G75*
G04 --- HEADER END --- *
G04 --- APERTURE LIST BEGIN --- *
%ADD10C,0.01*%
%ADD11C,0.5532*%
%ADD12C,3.2032*%
G04 --- APERTURE LIST END --- *
G04 --- BOARD BEGIN --- *
D10*
G04 #@! TO.C,J1*
G36*
X43043800Y43786200D02*
X44496200Y43786200D01*
X44496200Y41483800D01*
X43043800Y41483800D01*
X43043800Y43786200D01*
G37*
G36*
X37643800Y45606200D02*
X38596200Y45606200D01*
X38596200Y44253800D01*
X37643800Y44253800D01*
X37643800Y45606200D01*
G37*
G36*
X36393800Y45606200D02*
X37346200Y45606200D01*
X37346200Y44253800D01*
X36393800Y44253800D01*
X36393800Y45606200D01*
G37*
G36*
X41393800Y45606200D02*
X42346200Y45606200D01*
X42346200Y44253800D01*
X41393800Y44253800D01*
X41393800Y45606200D01*
G37*
G36*
X38893800Y45606200D02*
X39846200Y45606200D01*
X39846200Y44253800D01*
X38893800Y44253800D01*
X38893800Y45606200D01*
G37*
G36*
X40143800Y45606200D02*
X41096200Y45606200D01*
X41096200Y44253800D01*
X40143800Y44253800D01*
X40143800Y45606200D01*
G37*
G36*
X34243800Y43786200D02*
X35696200Y43786200D01*
X35696200Y41483800D01*
X34243800Y41483800D01*
X34243800Y43786200D01*
G37*
D11*
G04 #@! TD*
X57150000Y54610000D03*
X26670000Y54610000D03*
X40640000Y46990000D03*
X46990000Y54610000D03*
X21000000Y53000000D03*
X41910000Y46990000D03*
X38100000Y46990000D03*
X30000000Y45000000D03*
X41000000Y43000000D03*
X36830000Y54610000D03*
D12*
X52070000Y45720000D03*
X26670000Y45720000D03*
G04 --- BOARD END --- *
G04 #@! TF.MD5,889093d028f49cf18038ee8eeacc23c5*
M02*
