G04 --- HEADER BEGIN --- *
G04 #@! TF.GenerationSoftware,LibrePCB,LibrePCB,1.1.0*
G04 #@! TF.CreationDate,2024-04-23T21:30:37*
G04 #@! TF.ProjectId,interfaceboard,7d1f5418-6340-4453-96b2-d8471fb3e645,version_1*
G04 #@! TF.Part,Single*
G04 #@! TF.SameCoordinates*
G04 #@! TF.FileFunction,Legend,Bot*
G04 #@! TF.FilePolarity,Positive*
%FSLAX66Y66*%
%MOMM*%
G01*
G75*
G04 --- HEADER END --- *
G04 --- APERTURE LIST BEGIN --- *
%ADD10C,0.127*%
%ADD11C,0.15*%
%ADD12C,0.1905*%
%ADD13C,0.01*%
%ADD14C,0.5532*%
%ADD15C,3.2032*%
G04 --- APERTURE LIST END --- *
G04 --- BOARD BEGIN --- *
D10*
G04 #@! TO.C,J1*
X36150000Y45280000D02*
X34620000Y45280000D01*
X34620000Y44030000D01*
X44120000Y41080000D02*
X34620000Y41080000D01*
X44120000Y44030000D02*
X44120000Y45280000D01*
X42590000Y45280000D01*
X42270000Y47335000D02*
X41870000Y46635000D01*
X41470000Y47335000D01*
X42270000Y47335000D01*
D11*
G04 #@! TD*
X40673899Y50048314D02*
X40818312Y50120520D01*
X40962725Y50264934D01*
X41177666Y50479874D01*
X41322079Y50552081D01*
X41466492Y50552081D01*
X41394285Y50192727D02*
X41537019Y50264934D01*
X41681432Y50409347D01*
X41753639Y50696494D01*
X41753639Y51200260D01*
X41681432Y51487407D01*
X41537019Y51631820D01*
X41394285Y51704027D01*
X41105459Y51704027D01*
X40962725Y51631820D01*
X40818312Y51487407D01*
X40746106Y51200260D01*
X40746106Y50696494D01*
X40818312Y50409347D01*
X40962725Y50264934D01*
X41105459Y50192727D01*
X41394285Y50192727D01*
X40221639Y51704027D02*
X40221639Y50479874D01*
X40149432Y50337140D01*
X40077226Y50264934D01*
X39934492Y50192727D01*
X39645666Y50192727D01*
X39501253Y50264934D01*
X39430725Y50337140D01*
X39358519Y50479874D01*
X39358519Y51704027D01*
X38906259Y51704027D02*
X38043139Y51704027D01*
X38474699Y50192727D02*
X38474699Y51704027D01*
X43727549Y48867273D02*
X42864429Y48867273D01*
X43295989Y47355973D02*
X43295989Y48867273D01*
X42412169Y48146887D02*
X41908402Y48146887D01*
X41691783Y47355973D02*
X42412169Y47355973D01*
X42412169Y48867273D01*
X41691783Y48867273D01*
X41095110Y47787533D02*
X40376403Y47787533D01*
X41239523Y47355973D02*
X40735756Y48867273D01*
X40231990Y47355973D01*
X39779730Y47355973D02*
X39779730Y48867273D01*
X39275963Y47787533D01*
X38772197Y48867273D01*
X38772197Y47355973D01*
X36327831Y47500386D02*
X36400038Y47428180D01*
X36614978Y47355973D01*
X36759391Y47355973D01*
X36976011Y47428180D01*
X37118745Y47572593D01*
X37190951Y47715327D01*
X37263158Y48004153D01*
X37263158Y48219093D01*
X37190951Y48507919D01*
X37118745Y48650653D01*
X36976011Y48795066D01*
X36759391Y48867273D01*
X36614978Y48867273D01*
X36400038Y48795066D01*
X36327831Y48722860D01*
X35588424Y48219093D02*
X35731158Y48291300D01*
X35803364Y48363506D01*
X35875571Y48507919D01*
X35875571Y48580126D01*
X35803364Y48722860D01*
X35731158Y48795066D01*
X35588424Y48867273D01*
X35299598Y48867273D01*
X35155185Y48795066D01*
X35084657Y48722860D01*
X35012451Y48580126D01*
X35012451Y48507919D01*
X35084657Y48363506D01*
X35155185Y48291300D01*
X35299598Y48219093D01*
X35588424Y48219093D01*
X35731158Y48146887D01*
X35803364Y48076359D01*
X35875571Y47931946D01*
X35875571Y47643120D01*
X35803364Y47500386D01*
X35731158Y47428180D01*
X35588424Y47355973D01*
X35299598Y47355973D01*
X35155185Y47428180D01*
X35084657Y47500386D01*
X35012451Y47643120D01*
X35012451Y47931946D01*
X35084657Y48076359D01*
X35155185Y48146887D01*
X35299598Y48219093D01*
D12*
G04 #@! TO.C,J1*
X29292913Y41840000D02*
X29292913Y41068757D01*
X29344489Y40915228D01*
X29447641Y40812076D01*
X29601170Y40760500D01*
X29704322Y40760500D01*
X28269999Y40760500D02*
X28886513Y40760500D01*
X28578256Y40760500D02*
X28578256Y41840000D01*
X28681408Y41685272D01*
X28783361Y41583319D01*
X28886513Y41531743D01*
%LPC*%
D13*
G36*
X43043800Y43786200D02*
X44496200Y43786200D01*
X44496200Y41483800D01*
X43043800Y41483800D01*
X43043800Y43786200D01*
G37*
G36*
X37643800Y45606200D02*
X38596200Y45606200D01*
X38596200Y44253800D01*
X37643800Y44253800D01*
X37643800Y45606200D01*
G37*
G36*
X36393800Y45606200D02*
X37346200Y45606200D01*
X37346200Y44253800D01*
X36393800Y44253800D01*
X36393800Y45606200D01*
G37*
G36*
X41393800Y45606200D02*
X42346200Y45606200D01*
X42346200Y44253800D01*
X41393800Y44253800D01*
X41393800Y45606200D01*
G37*
G36*
X38893800Y45606200D02*
X39846200Y45606200D01*
X39846200Y44253800D01*
X38893800Y44253800D01*
X38893800Y45606200D01*
G37*
G36*
X40143800Y45606200D02*
X41096200Y45606200D01*
X41096200Y44253800D01*
X40143800Y44253800D01*
X40143800Y45606200D01*
G37*
G36*
X34243800Y43786200D02*
X35696200Y43786200D01*
X35696200Y41483800D01*
X34243800Y41483800D01*
X34243800Y43786200D01*
G37*
D14*
G04 #@! TD*
X57150000Y54610000D03*
X26670000Y54610000D03*
X40640000Y46990000D03*
X46990000Y54610000D03*
X21000000Y53000000D03*
X41910000Y46990000D03*
X38100000Y46990000D03*
X30000000Y45000000D03*
X41000000Y43000000D03*
X36830000Y54610000D03*
D15*
X52070000Y45720000D03*
X26670000Y45720000D03*
G04 --- BOARD END --- *
G04 #@! TF.MD5,20c168f294ec5326650da9c791745c6e*
M02*
