G04 EAGLE Gerber RS-274X export*
G75*
%MOMM*%
%FSLAX34Y34*%
%LPD*%
%IN*%
%IPPOS*%
%AMOC8*
5,1,8,0,0,1.08239X$1,22.5*%
G01*
%ADD10C,0.254000*%


D10*
X165100Y516011D02*
X165290Y511653D01*
X165860Y507328D01*
X166804Y503070D01*
X168115Y498910D01*
X169785Y494880D01*
X171799Y491011D01*
X174142Y487332D01*
X176798Y483871D01*
X179745Y480655D01*
X252055Y408345D01*
X255271Y405398D01*
X258732Y402742D01*
X262411Y400399D01*
X266280Y398385D01*
X270310Y396715D01*
X274470Y395404D01*
X278728Y394460D01*
X283053Y393890D01*
X287411Y393700D01*
X487289Y393700D01*
X491647Y393890D01*
X495972Y394460D01*
X500230Y395404D01*
X504390Y396715D01*
X508420Y398385D01*
X512289Y400399D01*
X515968Y402742D01*
X519429Y405398D01*
X522645Y408345D01*
X578955Y464655D01*
X581902Y467871D01*
X584558Y471332D01*
X586901Y475011D01*
X588915Y478880D01*
X590585Y482910D01*
X591896Y487070D01*
X592840Y491328D01*
X593410Y495653D01*
X593600Y500011D01*
X593600Y546400D01*
X593505Y548579D01*
X593220Y550741D01*
X592748Y552870D01*
X592092Y554951D01*
X591258Y556965D01*
X590251Y558900D01*
X589079Y560739D01*
X587751Y562470D01*
X586278Y564078D01*
X584670Y565551D01*
X582939Y566879D01*
X581100Y568051D01*
X579165Y569058D01*
X577151Y569892D01*
X575070Y570548D01*
X572941Y571020D01*
X570779Y571305D01*
X568600Y571400D01*
X190100Y571400D01*
X187921Y571305D01*
X185759Y571020D01*
X183630Y570548D01*
X181550Y569892D01*
X179535Y569058D01*
X177600Y568051D01*
X175761Y566879D01*
X174030Y565551D01*
X172422Y564078D01*
X170949Y562470D01*
X169621Y560739D01*
X168449Y558900D01*
X167442Y556965D01*
X166608Y554951D01*
X165952Y552870D01*
X165480Y550741D01*
X165195Y548579D01*
X165100Y546400D01*
X165100Y516011D01*
X281700Y456664D02*
X281624Y455596D01*
X281471Y454535D01*
X281243Y453488D01*
X280941Y452460D01*
X280567Y451456D01*
X280122Y450481D01*
X279608Y449541D01*
X279029Y448640D01*
X278387Y447782D01*
X277685Y446972D01*
X276928Y446215D01*
X276118Y445513D01*
X275260Y444871D01*
X274359Y444292D01*
X273419Y443778D01*
X272444Y443333D01*
X271440Y442959D01*
X270412Y442657D01*
X269365Y442429D01*
X268304Y442276D01*
X267236Y442200D01*
X266164Y442200D01*
X265096Y442276D01*
X264035Y442429D01*
X262988Y442657D01*
X261960Y442959D01*
X260956Y443333D01*
X259981Y443778D01*
X259041Y444292D01*
X258140Y444871D01*
X257282Y445513D01*
X256472Y446215D01*
X255715Y446972D01*
X255013Y447782D01*
X254371Y448640D01*
X253792Y449541D01*
X253278Y450481D01*
X252833Y451456D01*
X252459Y452460D01*
X252157Y453488D01*
X251929Y454535D01*
X251776Y455596D01*
X251700Y456664D01*
X251700Y457736D01*
X251776Y458804D01*
X251929Y459865D01*
X252157Y460912D01*
X252459Y461940D01*
X252833Y462944D01*
X253278Y463919D01*
X253792Y464859D01*
X254371Y465760D01*
X255013Y466618D01*
X255715Y467428D01*
X256472Y468185D01*
X257282Y468887D01*
X258140Y469529D01*
X259041Y470108D01*
X259981Y470622D01*
X260956Y471067D01*
X261960Y471441D01*
X262988Y471743D01*
X264035Y471971D01*
X265096Y472124D01*
X266164Y472200D01*
X267236Y472200D01*
X268304Y472124D01*
X269365Y471971D01*
X270412Y471743D01*
X271440Y471441D01*
X272444Y471067D01*
X273419Y470622D01*
X274359Y470108D01*
X275260Y469529D01*
X276118Y468887D01*
X276928Y468185D01*
X277685Y467428D01*
X278387Y466618D01*
X279029Y465760D01*
X279608Y464859D01*
X280122Y463919D01*
X280567Y462944D01*
X280941Y461940D01*
X281243Y460912D01*
X281471Y459865D01*
X281624Y458804D01*
X281700Y457736D01*
X281700Y456664D01*
X535700Y456664D02*
X535624Y455596D01*
X535471Y454535D01*
X535243Y453488D01*
X534941Y452460D01*
X534567Y451456D01*
X534122Y450481D01*
X533608Y449541D01*
X533029Y448640D01*
X532387Y447782D01*
X531685Y446972D01*
X530928Y446215D01*
X530118Y445513D01*
X529260Y444871D01*
X528359Y444292D01*
X527419Y443778D01*
X526444Y443333D01*
X525440Y442959D01*
X524412Y442657D01*
X523365Y442429D01*
X522304Y442276D01*
X521236Y442200D01*
X520164Y442200D01*
X519096Y442276D01*
X518035Y442429D01*
X516988Y442657D01*
X515960Y442959D01*
X514956Y443333D01*
X513981Y443778D01*
X513041Y444292D01*
X512140Y444871D01*
X511282Y445513D01*
X510472Y446215D01*
X509715Y446972D01*
X509013Y447782D01*
X508371Y448640D01*
X507792Y449541D01*
X507278Y450481D01*
X506833Y451456D01*
X506459Y452460D01*
X506157Y453488D01*
X505929Y454535D01*
X505776Y455596D01*
X505700Y456664D01*
X505700Y457736D01*
X505776Y458804D01*
X505929Y459865D01*
X506157Y460912D01*
X506459Y461940D01*
X506833Y462944D01*
X507278Y463919D01*
X507792Y464859D01*
X508371Y465760D01*
X509013Y466618D01*
X509715Y467428D01*
X510472Y468185D01*
X511282Y468887D01*
X512140Y469529D01*
X513041Y470108D01*
X513981Y470622D01*
X514956Y471067D01*
X515960Y471441D01*
X516988Y471743D01*
X518035Y471971D01*
X519096Y472124D01*
X520164Y472200D01*
X521236Y472200D01*
X522304Y472124D01*
X523365Y471971D01*
X524412Y471743D01*
X525440Y471441D01*
X526444Y471067D01*
X527419Y470622D01*
X528359Y470108D01*
X529260Y469529D01*
X530118Y468887D01*
X530928Y468185D01*
X531685Y467428D01*
X532387Y466618D01*
X533029Y465760D01*
X533608Y464859D01*
X534122Y463919D01*
X534567Y462944D01*
X534941Y461940D01*
X535243Y460912D01*
X535471Y459865D01*
X535624Y458804D01*
X535700Y457736D01*
X535700Y456664D01*
M02*
