G04 EAGLE Gerber RS-274X export*
G75*
%MOMM*%
%FSLAX34Y34*%
%LPD*%
%INSilkscreen Bottom*%
%IPPOS*%
%AMOC8*
5,1,8,0,0,1.08239X$1,22.5*%
G01*
%ADD10C,0.152400*%
%ADD11C,0.127000*%
%ADD12C,0.101600*%


D10*
X418709Y505023D02*
X418709Y512247D01*
X418707Y512380D01*
X418701Y512512D01*
X418691Y512644D01*
X418678Y512776D01*
X418660Y512908D01*
X418639Y513038D01*
X418614Y513169D01*
X418585Y513298D01*
X418552Y513426D01*
X418516Y513554D01*
X418476Y513680D01*
X418432Y513805D01*
X418384Y513929D01*
X418333Y514051D01*
X418278Y514172D01*
X418220Y514291D01*
X418158Y514409D01*
X418093Y514524D01*
X418024Y514638D01*
X417953Y514749D01*
X417877Y514858D01*
X417799Y514965D01*
X417718Y515070D01*
X417633Y515172D01*
X417546Y515272D01*
X417456Y515369D01*
X417363Y515464D01*
X417267Y515555D01*
X417169Y515644D01*
X417068Y515730D01*
X416964Y515813D01*
X416858Y515893D01*
X416750Y515969D01*
X416640Y516043D01*
X416527Y516113D01*
X416413Y516180D01*
X416296Y516243D01*
X416178Y516303D01*
X416058Y516360D01*
X415936Y516413D01*
X415813Y516462D01*
X415689Y516508D01*
X415563Y516550D01*
X415436Y516588D01*
X415308Y516623D01*
X415179Y516654D01*
X415050Y516681D01*
X414919Y516704D01*
X414788Y516724D01*
X414656Y516739D01*
X414524Y516751D01*
X414392Y516759D01*
X414259Y516763D01*
X414127Y516763D01*
X413994Y516759D01*
X413862Y516751D01*
X413730Y516739D01*
X413598Y516724D01*
X413467Y516704D01*
X413336Y516681D01*
X413207Y516654D01*
X413078Y516623D01*
X412950Y516588D01*
X412823Y516550D01*
X412697Y516508D01*
X412573Y516462D01*
X412450Y516413D01*
X412328Y516360D01*
X412208Y516303D01*
X412090Y516243D01*
X411973Y516180D01*
X411859Y516113D01*
X411746Y516043D01*
X411636Y515969D01*
X411528Y515893D01*
X411422Y515813D01*
X411318Y515730D01*
X411217Y515644D01*
X411119Y515555D01*
X411023Y515464D01*
X410930Y515369D01*
X410840Y515272D01*
X410753Y515172D01*
X410668Y515070D01*
X410587Y514965D01*
X410509Y514858D01*
X410433Y514749D01*
X410362Y514638D01*
X410293Y514524D01*
X410228Y514409D01*
X410166Y514291D01*
X410108Y514172D01*
X410053Y514051D01*
X410002Y513929D01*
X409954Y513805D01*
X409910Y513680D01*
X409870Y513554D01*
X409834Y513426D01*
X409801Y513298D01*
X409772Y513169D01*
X409747Y513038D01*
X409726Y512908D01*
X409708Y512776D01*
X409695Y512644D01*
X409685Y512512D01*
X409679Y512380D01*
X409677Y512247D01*
X409677Y505023D01*
X409679Y504890D01*
X409685Y504758D01*
X409695Y504626D01*
X409708Y504494D01*
X409726Y504362D01*
X409747Y504232D01*
X409772Y504101D01*
X409801Y503972D01*
X409834Y503844D01*
X409870Y503716D01*
X409910Y503590D01*
X409954Y503465D01*
X410002Y503341D01*
X410053Y503219D01*
X410108Y503098D01*
X410166Y502979D01*
X410228Y502861D01*
X410293Y502746D01*
X410362Y502632D01*
X410433Y502521D01*
X410509Y502412D01*
X410587Y502305D01*
X410668Y502200D01*
X410753Y502098D01*
X410840Y501998D01*
X410930Y501901D01*
X411023Y501806D01*
X411119Y501715D01*
X411217Y501626D01*
X411318Y501540D01*
X411422Y501457D01*
X411528Y501377D01*
X411636Y501301D01*
X411746Y501227D01*
X411859Y501157D01*
X411973Y501090D01*
X412090Y501027D01*
X412208Y500967D01*
X412328Y500910D01*
X412450Y500857D01*
X412573Y500808D01*
X412697Y500762D01*
X412823Y500720D01*
X412950Y500682D01*
X413078Y500647D01*
X413207Y500616D01*
X413336Y500589D01*
X413467Y500566D01*
X413598Y500546D01*
X413730Y500531D01*
X413862Y500519D01*
X413994Y500511D01*
X414127Y500507D01*
X414259Y500507D01*
X414392Y500511D01*
X414524Y500519D01*
X414656Y500531D01*
X414788Y500546D01*
X414919Y500566D01*
X415050Y500589D01*
X415179Y500616D01*
X415308Y500647D01*
X415436Y500682D01*
X415563Y500720D01*
X415689Y500762D01*
X415813Y500808D01*
X415936Y500857D01*
X416058Y500910D01*
X416178Y500967D01*
X416296Y501027D01*
X416413Y501090D01*
X416527Y501157D01*
X416640Y501227D01*
X416750Y501301D01*
X416858Y501377D01*
X416964Y501457D01*
X417068Y501540D01*
X417169Y501626D01*
X417267Y501715D01*
X417363Y501806D01*
X417456Y501901D01*
X417546Y501998D01*
X417633Y502098D01*
X417718Y502200D01*
X417799Y502305D01*
X417877Y502412D01*
X417953Y502521D01*
X418024Y502632D01*
X418093Y502746D01*
X418158Y502861D01*
X418220Y502979D01*
X418278Y503098D01*
X418333Y503219D01*
X418384Y503341D01*
X418432Y503465D01*
X418476Y503590D01*
X418516Y503716D01*
X418552Y503844D01*
X418585Y503972D01*
X418614Y504101D01*
X418639Y504232D01*
X418660Y504362D01*
X418678Y504494D01*
X418691Y504626D01*
X418701Y504758D01*
X418707Y504890D01*
X418709Y505023D01*
X411484Y504119D02*
X407871Y500507D01*
X402872Y505023D02*
X402872Y516763D01*
X402872Y505023D02*
X402870Y504890D01*
X402864Y504758D01*
X402854Y504626D01*
X402841Y504494D01*
X402823Y504362D01*
X402802Y504232D01*
X402777Y504101D01*
X402748Y503972D01*
X402715Y503844D01*
X402679Y503716D01*
X402639Y503590D01*
X402595Y503465D01*
X402547Y503341D01*
X402496Y503219D01*
X402441Y503098D01*
X402383Y502979D01*
X402321Y502861D01*
X402256Y502746D01*
X402187Y502632D01*
X402116Y502521D01*
X402040Y502412D01*
X401962Y502305D01*
X401881Y502200D01*
X401796Y502098D01*
X401709Y501998D01*
X401619Y501901D01*
X401526Y501806D01*
X401430Y501715D01*
X401332Y501626D01*
X401231Y501540D01*
X401127Y501457D01*
X401021Y501377D01*
X400913Y501301D01*
X400803Y501227D01*
X400690Y501157D01*
X400576Y501090D01*
X400459Y501027D01*
X400341Y500967D01*
X400221Y500910D01*
X400099Y500857D01*
X399976Y500808D01*
X399852Y500762D01*
X399726Y500720D01*
X399599Y500682D01*
X399471Y500647D01*
X399342Y500616D01*
X399213Y500589D01*
X399082Y500566D01*
X398951Y500546D01*
X398819Y500531D01*
X398687Y500519D01*
X398555Y500511D01*
X398422Y500507D01*
X398290Y500507D01*
X398157Y500511D01*
X398025Y500519D01*
X397893Y500531D01*
X397761Y500546D01*
X397630Y500566D01*
X397499Y500589D01*
X397370Y500616D01*
X397241Y500647D01*
X397113Y500682D01*
X396986Y500720D01*
X396860Y500762D01*
X396736Y500808D01*
X396613Y500857D01*
X396491Y500910D01*
X396371Y500967D01*
X396253Y501027D01*
X396136Y501090D01*
X396022Y501157D01*
X395909Y501227D01*
X395799Y501301D01*
X395691Y501377D01*
X395585Y501457D01*
X395481Y501540D01*
X395380Y501626D01*
X395282Y501715D01*
X395186Y501806D01*
X395093Y501901D01*
X395003Y501998D01*
X394916Y502098D01*
X394831Y502200D01*
X394750Y502305D01*
X394672Y502412D01*
X394596Y502521D01*
X394525Y502632D01*
X394456Y502746D01*
X394391Y502861D01*
X394329Y502979D01*
X394271Y503098D01*
X394216Y503219D01*
X394165Y503341D01*
X394117Y503465D01*
X394073Y503590D01*
X394033Y503716D01*
X393997Y503844D01*
X393964Y503972D01*
X393935Y504101D01*
X393910Y504232D01*
X393889Y504362D01*
X393871Y504494D01*
X393858Y504626D01*
X393848Y504758D01*
X393842Y504890D01*
X393840Y505023D01*
X393840Y516763D01*
X383246Y516763D02*
X383246Y500507D01*
X387761Y516763D02*
X378730Y516763D01*
X435644Y490093D02*
X435644Y473837D01*
X440159Y490093D02*
X431128Y490093D01*
X425019Y473837D02*
X417794Y473837D01*
X425019Y473837D02*
X425019Y490093D01*
X417794Y490093D01*
X419601Y482868D02*
X425019Y482868D01*
X412926Y473837D02*
X407508Y490093D01*
X402089Y473837D01*
X403444Y477901D02*
X411572Y477901D01*
X395732Y473837D02*
X395732Y490093D01*
X390313Y481062D01*
X384895Y490093D01*
X384895Y473837D01*
X365725Y473837D02*
X362112Y473837D01*
X365725Y473837D02*
X365843Y473839D01*
X365961Y473845D01*
X366079Y473854D01*
X366196Y473868D01*
X366313Y473885D01*
X366430Y473906D01*
X366545Y473931D01*
X366660Y473960D01*
X366774Y473993D01*
X366886Y474029D01*
X366997Y474069D01*
X367107Y474112D01*
X367216Y474159D01*
X367323Y474209D01*
X367428Y474264D01*
X367531Y474321D01*
X367632Y474382D01*
X367732Y474446D01*
X367829Y474513D01*
X367924Y474583D01*
X368016Y474657D01*
X368107Y474733D01*
X368194Y474813D01*
X368279Y474895D01*
X368361Y474980D01*
X368441Y475067D01*
X368517Y475158D01*
X368591Y475250D01*
X368661Y475345D01*
X368728Y475442D01*
X368792Y475542D01*
X368853Y475643D01*
X368910Y475746D01*
X368965Y475851D01*
X369015Y475958D01*
X369062Y476067D01*
X369105Y476177D01*
X369145Y476288D01*
X369181Y476400D01*
X369214Y476514D01*
X369243Y476629D01*
X369268Y476744D01*
X369289Y476861D01*
X369306Y476978D01*
X369320Y477095D01*
X369329Y477213D01*
X369335Y477331D01*
X369337Y477449D01*
X369337Y486481D01*
X369335Y486599D01*
X369329Y486717D01*
X369320Y486835D01*
X369306Y486952D01*
X369289Y487069D01*
X369268Y487186D01*
X369243Y487301D01*
X369214Y487416D01*
X369181Y487530D01*
X369145Y487642D01*
X369105Y487753D01*
X369062Y487863D01*
X369015Y487972D01*
X368965Y488079D01*
X368910Y488184D01*
X368853Y488287D01*
X368792Y488388D01*
X368728Y488488D01*
X368661Y488585D01*
X368591Y488680D01*
X368517Y488772D01*
X368441Y488863D01*
X368361Y488950D01*
X368279Y489035D01*
X368194Y489117D01*
X368107Y489197D01*
X368016Y489273D01*
X367924Y489347D01*
X367829Y489417D01*
X367732Y489484D01*
X367632Y489548D01*
X367531Y489609D01*
X367428Y489666D01*
X367323Y489721D01*
X367216Y489771D01*
X367107Y489818D01*
X366997Y489861D01*
X366886Y489901D01*
X366774Y489937D01*
X366660Y489970D01*
X366545Y489999D01*
X366430Y490024D01*
X366313Y490045D01*
X366196Y490062D01*
X366079Y490076D01*
X365961Y490085D01*
X365843Y490091D01*
X365725Y490093D01*
X362112Y490093D01*
X356272Y478353D02*
X356270Y478486D01*
X356264Y478618D01*
X356254Y478750D01*
X356241Y478882D01*
X356223Y479014D01*
X356202Y479144D01*
X356177Y479275D01*
X356148Y479404D01*
X356115Y479532D01*
X356079Y479660D01*
X356039Y479786D01*
X355995Y479911D01*
X355947Y480035D01*
X355896Y480157D01*
X355841Y480278D01*
X355783Y480397D01*
X355721Y480515D01*
X355656Y480630D01*
X355587Y480744D01*
X355516Y480855D01*
X355440Y480964D01*
X355362Y481071D01*
X355281Y481176D01*
X355196Y481278D01*
X355109Y481378D01*
X355019Y481475D01*
X354926Y481570D01*
X354830Y481661D01*
X354732Y481750D01*
X354631Y481836D01*
X354527Y481919D01*
X354421Y481999D01*
X354313Y482075D01*
X354203Y482149D01*
X354090Y482219D01*
X353976Y482286D01*
X353859Y482349D01*
X353741Y482409D01*
X353621Y482466D01*
X353499Y482519D01*
X353376Y482568D01*
X353252Y482614D01*
X353126Y482656D01*
X352999Y482694D01*
X352871Y482729D01*
X352742Y482760D01*
X352613Y482787D01*
X352482Y482810D01*
X352351Y482830D01*
X352219Y482845D01*
X352087Y482857D01*
X351955Y482865D01*
X351822Y482869D01*
X351690Y482869D01*
X351557Y482865D01*
X351425Y482857D01*
X351293Y482845D01*
X351161Y482830D01*
X351030Y482810D01*
X350899Y482787D01*
X350770Y482760D01*
X350641Y482729D01*
X350513Y482694D01*
X350386Y482656D01*
X350260Y482614D01*
X350136Y482568D01*
X350013Y482519D01*
X349891Y482466D01*
X349771Y482409D01*
X349653Y482349D01*
X349536Y482286D01*
X349422Y482219D01*
X349309Y482149D01*
X349199Y482075D01*
X349091Y481999D01*
X348985Y481919D01*
X348881Y481836D01*
X348780Y481750D01*
X348682Y481661D01*
X348586Y481570D01*
X348493Y481475D01*
X348403Y481378D01*
X348316Y481278D01*
X348231Y481176D01*
X348150Y481071D01*
X348072Y480964D01*
X347996Y480855D01*
X347925Y480744D01*
X347856Y480630D01*
X347791Y480515D01*
X347729Y480397D01*
X347671Y480278D01*
X347616Y480157D01*
X347565Y480035D01*
X347517Y479911D01*
X347473Y479786D01*
X347433Y479660D01*
X347397Y479532D01*
X347364Y479404D01*
X347335Y479275D01*
X347310Y479144D01*
X347289Y479014D01*
X347271Y478882D01*
X347258Y478750D01*
X347248Y478618D01*
X347242Y478486D01*
X347240Y478353D01*
X347242Y478220D01*
X347248Y478088D01*
X347258Y477956D01*
X347271Y477824D01*
X347289Y477692D01*
X347310Y477562D01*
X347335Y477431D01*
X347364Y477302D01*
X347397Y477174D01*
X347433Y477046D01*
X347473Y476920D01*
X347517Y476795D01*
X347565Y476671D01*
X347616Y476549D01*
X347671Y476428D01*
X347729Y476309D01*
X347791Y476191D01*
X347856Y476076D01*
X347925Y475962D01*
X347996Y475851D01*
X348072Y475742D01*
X348150Y475635D01*
X348231Y475530D01*
X348316Y475428D01*
X348403Y475328D01*
X348493Y475231D01*
X348586Y475136D01*
X348682Y475045D01*
X348780Y474956D01*
X348881Y474870D01*
X348985Y474787D01*
X349091Y474707D01*
X349199Y474631D01*
X349309Y474557D01*
X349422Y474487D01*
X349536Y474420D01*
X349653Y474357D01*
X349771Y474297D01*
X349891Y474240D01*
X350013Y474187D01*
X350136Y474138D01*
X350260Y474092D01*
X350386Y474050D01*
X350513Y474012D01*
X350641Y473977D01*
X350770Y473946D01*
X350899Y473919D01*
X351030Y473896D01*
X351161Y473876D01*
X351293Y473861D01*
X351425Y473849D01*
X351557Y473841D01*
X351690Y473837D01*
X351822Y473837D01*
X351955Y473841D01*
X352087Y473849D01*
X352219Y473861D01*
X352351Y473876D01*
X352482Y473896D01*
X352613Y473919D01*
X352742Y473946D01*
X352871Y473977D01*
X352999Y474012D01*
X353126Y474050D01*
X353252Y474092D01*
X353376Y474138D01*
X353499Y474187D01*
X353621Y474240D01*
X353741Y474297D01*
X353859Y474357D01*
X353976Y474420D01*
X354090Y474487D01*
X354203Y474557D01*
X354313Y474631D01*
X354421Y474707D01*
X354527Y474787D01*
X354631Y474870D01*
X354732Y474956D01*
X354830Y475045D01*
X354926Y475136D01*
X355019Y475231D01*
X355109Y475328D01*
X355196Y475428D01*
X355281Y475530D01*
X355362Y475635D01*
X355440Y475742D01*
X355516Y475851D01*
X355587Y475962D01*
X355656Y476076D01*
X355721Y476191D01*
X355783Y476309D01*
X355841Y476428D01*
X355896Y476549D01*
X355947Y476671D01*
X355995Y476795D01*
X356039Y476920D01*
X356079Y477046D01*
X356115Y477174D01*
X356148Y477302D01*
X356177Y477431D01*
X356202Y477562D01*
X356223Y477692D01*
X356241Y477824D01*
X356254Y477956D01*
X356264Y478088D01*
X356270Y478220D01*
X356272Y478353D01*
X355368Y486481D02*
X355366Y486600D01*
X355360Y486720D01*
X355350Y486839D01*
X355336Y486957D01*
X355319Y487076D01*
X355297Y487193D01*
X355272Y487310D01*
X355242Y487425D01*
X355209Y487540D01*
X355172Y487654D01*
X355132Y487766D01*
X355087Y487877D01*
X355039Y487986D01*
X354988Y488094D01*
X354933Y488200D01*
X354874Y488304D01*
X354812Y488406D01*
X354747Y488506D01*
X354678Y488604D01*
X354606Y488700D01*
X354531Y488793D01*
X354454Y488883D01*
X354373Y488971D01*
X354289Y489056D01*
X354202Y489138D01*
X354113Y489218D01*
X354021Y489294D01*
X353927Y489368D01*
X353830Y489438D01*
X353732Y489505D01*
X353631Y489569D01*
X353527Y489629D01*
X353422Y489686D01*
X353315Y489739D01*
X353207Y489789D01*
X353097Y489835D01*
X352985Y489877D01*
X352872Y489916D01*
X352758Y489951D01*
X352643Y489982D01*
X352526Y490010D01*
X352409Y490033D01*
X352292Y490053D01*
X352173Y490069D01*
X352054Y490081D01*
X351935Y490089D01*
X351816Y490093D01*
X351696Y490093D01*
X351577Y490089D01*
X351458Y490081D01*
X351339Y490069D01*
X351220Y490053D01*
X351103Y490033D01*
X350986Y490010D01*
X350869Y489982D01*
X350754Y489951D01*
X350640Y489916D01*
X350527Y489877D01*
X350415Y489835D01*
X350305Y489789D01*
X350197Y489739D01*
X350090Y489686D01*
X349985Y489629D01*
X349881Y489569D01*
X349780Y489505D01*
X349682Y489438D01*
X349585Y489368D01*
X349491Y489294D01*
X349399Y489218D01*
X349310Y489138D01*
X349223Y489056D01*
X349139Y488971D01*
X349058Y488883D01*
X348981Y488793D01*
X348906Y488700D01*
X348834Y488604D01*
X348765Y488506D01*
X348700Y488406D01*
X348638Y488304D01*
X348579Y488200D01*
X348524Y488094D01*
X348473Y487986D01*
X348425Y487877D01*
X348380Y487766D01*
X348340Y487654D01*
X348303Y487540D01*
X348270Y487425D01*
X348240Y487310D01*
X348215Y487193D01*
X348193Y487076D01*
X348176Y486957D01*
X348162Y486839D01*
X348152Y486720D01*
X348146Y486600D01*
X348144Y486481D01*
X348146Y486362D01*
X348152Y486242D01*
X348162Y486123D01*
X348176Y486005D01*
X348193Y485886D01*
X348215Y485769D01*
X348240Y485652D01*
X348270Y485537D01*
X348303Y485422D01*
X348340Y485308D01*
X348380Y485196D01*
X348425Y485085D01*
X348473Y484976D01*
X348524Y484868D01*
X348579Y484762D01*
X348638Y484658D01*
X348700Y484556D01*
X348765Y484456D01*
X348834Y484358D01*
X348906Y484262D01*
X348981Y484169D01*
X349058Y484079D01*
X349139Y483991D01*
X349223Y483906D01*
X349310Y483824D01*
X349399Y483744D01*
X349491Y483668D01*
X349585Y483594D01*
X349682Y483524D01*
X349780Y483457D01*
X349881Y483393D01*
X349985Y483333D01*
X350090Y483276D01*
X350197Y483223D01*
X350305Y483173D01*
X350415Y483127D01*
X350527Y483085D01*
X350640Y483046D01*
X350754Y483011D01*
X350869Y482980D01*
X350986Y482952D01*
X351103Y482929D01*
X351220Y482909D01*
X351339Y482893D01*
X351458Y482881D01*
X351577Y482873D01*
X351696Y482869D01*
X351816Y482869D01*
X351935Y482873D01*
X352054Y482881D01*
X352173Y482893D01*
X352292Y482909D01*
X352409Y482929D01*
X352526Y482952D01*
X352643Y482980D01*
X352758Y483011D01*
X352872Y483046D01*
X352985Y483085D01*
X353097Y483127D01*
X353207Y483173D01*
X353315Y483223D01*
X353422Y483276D01*
X353527Y483333D01*
X353631Y483393D01*
X353732Y483457D01*
X353830Y483524D01*
X353927Y483594D01*
X354021Y483668D01*
X354113Y483744D01*
X354202Y483824D01*
X354289Y483906D01*
X354373Y483991D01*
X354454Y484079D01*
X354531Y484169D01*
X354606Y484262D01*
X354678Y484358D01*
X354747Y484456D01*
X354812Y484556D01*
X354874Y484658D01*
X354933Y484762D01*
X354988Y484868D01*
X355039Y484976D01*
X355087Y485085D01*
X355132Y485196D01*
X355172Y485308D01*
X355209Y485422D01*
X355242Y485537D01*
X355272Y485652D01*
X355297Y485769D01*
X355319Y485886D01*
X355336Y486005D01*
X355350Y486123D01*
X355360Y486242D01*
X355366Y486362D01*
X355368Y486481D01*
D11*
X414700Y473350D02*
X422700Y473350D01*
X418700Y466350D01*
X414700Y473350D01*
X361500Y452800D02*
X346200Y452800D01*
X425900Y452800D02*
X441200Y452800D01*
X441200Y410800D02*
X346200Y410800D01*
X441200Y440300D02*
X441200Y452800D01*
X346200Y452800D02*
X346200Y440300D01*
D12*
X345773Y392492D02*
X345773Y383404D01*
X345775Y383305D01*
X345781Y383205D01*
X345790Y383106D01*
X345803Y383008D01*
X345820Y382910D01*
X345841Y382812D01*
X345866Y382716D01*
X345894Y382621D01*
X345926Y382527D01*
X345961Y382434D01*
X346000Y382342D01*
X346043Y382252D01*
X346088Y382164D01*
X346138Y382077D01*
X346190Y381993D01*
X346246Y381910D01*
X346304Y381830D01*
X346366Y381752D01*
X346431Y381677D01*
X346499Y381604D01*
X346569Y381534D01*
X346642Y381466D01*
X346717Y381401D01*
X346795Y381339D01*
X346875Y381281D01*
X346958Y381225D01*
X347042Y381173D01*
X347129Y381123D01*
X347217Y381078D01*
X347307Y381035D01*
X347399Y380996D01*
X347492Y380961D01*
X347586Y380929D01*
X347681Y380901D01*
X347777Y380876D01*
X347875Y380855D01*
X347973Y380838D01*
X348071Y380825D01*
X348170Y380816D01*
X348270Y380810D01*
X348369Y380808D01*
X349667Y380808D01*
X340499Y389896D02*
X337254Y392492D01*
X337254Y380808D01*
X340499Y380808D02*
X334008Y380808D01*
M02*
