G04 EAGLE Gerber RS-274X export*
G75*
%MOMM*%
%FSLAX34Y34*%
%LPD*%
%INGM1*%
%IPPOS*%
%AMOC8*
5,1,8,0,0,1.08239X$1,22.5*%
G01*
%ADD10C,0.000000*%


D10*
X593600Y500011D02*
X593600Y546400D01*
X593593Y547004D01*
X593571Y547608D01*
X593534Y548211D01*
X593483Y548813D01*
X593418Y549413D01*
X593338Y550012D01*
X593243Y550609D01*
X593134Y551203D01*
X593011Y551795D01*
X592874Y552383D01*
X592722Y552968D01*
X592556Y553549D01*
X592376Y554125D01*
X592183Y554698D01*
X591975Y555265D01*
X591754Y555827D01*
X591520Y556384D01*
X591272Y556935D01*
X591011Y557480D01*
X590736Y558018D01*
X590449Y558550D01*
X590149Y559074D01*
X589837Y559591D01*
X589512Y560100D01*
X589175Y560602D01*
X588825Y561095D01*
X588464Y561579D01*
X588092Y562055D01*
X587708Y562521D01*
X587313Y562978D01*
X586907Y563425D01*
X586490Y563863D01*
X586063Y564290D01*
X585625Y564707D01*
X585178Y565113D01*
X584721Y565508D01*
X584255Y565892D01*
X583779Y566264D01*
X583295Y566625D01*
X582802Y566975D01*
X582300Y567312D01*
X581791Y567637D01*
X581274Y567949D01*
X580750Y568249D01*
X580218Y568536D01*
X579680Y568811D01*
X579135Y569072D01*
X578584Y569320D01*
X578027Y569554D01*
X577465Y569775D01*
X576898Y569983D01*
X576325Y570176D01*
X575749Y570356D01*
X575168Y570522D01*
X574583Y570674D01*
X573995Y570811D01*
X573403Y570934D01*
X572809Y571043D01*
X572212Y571138D01*
X571613Y571218D01*
X571013Y571283D01*
X570411Y571334D01*
X569808Y571371D01*
X569204Y571393D01*
X568600Y571400D01*
X190100Y571400D01*
X189496Y571393D01*
X188892Y571371D01*
X188289Y571334D01*
X187687Y571283D01*
X187087Y571218D01*
X186488Y571138D01*
X185891Y571043D01*
X185297Y570934D01*
X184705Y570811D01*
X184117Y570674D01*
X183532Y570522D01*
X182951Y570356D01*
X182375Y570176D01*
X181802Y569983D01*
X181235Y569775D01*
X180673Y569554D01*
X180116Y569320D01*
X179565Y569072D01*
X179020Y568811D01*
X178482Y568536D01*
X177950Y568249D01*
X177426Y567949D01*
X176909Y567637D01*
X176400Y567312D01*
X175898Y566975D01*
X175405Y566625D01*
X174921Y566264D01*
X174445Y565892D01*
X173979Y565508D01*
X173522Y565113D01*
X173075Y564707D01*
X172637Y564290D01*
X172210Y563863D01*
X171793Y563425D01*
X171387Y562978D01*
X170992Y562521D01*
X170608Y562055D01*
X170236Y561579D01*
X169875Y561095D01*
X169525Y560602D01*
X169188Y560100D01*
X168863Y559591D01*
X168551Y559074D01*
X168251Y558550D01*
X167964Y558018D01*
X167689Y557480D01*
X167428Y556935D01*
X167180Y556384D01*
X166946Y555827D01*
X166725Y555265D01*
X166517Y554698D01*
X166324Y554125D01*
X166144Y553549D01*
X165978Y552968D01*
X165826Y552383D01*
X165689Y551795D01*
X165566Y551203D01*
X165457Y550609D01*
X165362Y550012D01*
X165282Y549413D01*
X165217Y548813D01*
X165166Y548211D01*
X165129Y547608D01*
X165107Y547004D01*
X165100Y546400D01*
X165100Y516011D01*
X165115Y514784D01*
X165160Y513558D01*
X165235Y512333D01*
X165341Y511110D01*
X165476Y509890D01*
X165641Y508674D01*
X165836Y507463D01*
X166061Y506256D01*
X166315Y505056D01*
X166598Y503862D01*
X166911Y502675D01*
X167253Y501497D01*
X167624Y500327D01*
X168023Y499167D01*
X168450Y498016D01*
X168906Y496877D01*
X169390Y495749D01*
X169901Y494633D01*
X170439Y493530D01*
X171004Y492441D01*
X171596Y491366D01*
X172214Y490306D01*
X172857Y489261D01*
X173527Y488232D01*
X174221Y487221D01*
X174940Y486226D01*
X175683Y485249D01*
X176449Y484291D01*
X177240Y483352D01*
X178052Y482433D01*
X178888Y481534D01*
X179745Y480656D01*
X179745Y480655D02*
X252055Y408345D01*
X252056Y408345D02*
X252907Y407513D01*
X253778Y406702D01*
X254668Y405913D01*
X255576Y405144D01*
X256503Y404397D01*
X257447Y403673D01*
X258408Y402971D01*
X259386Y402293D01*
X260379Y401637D01*
X261388Y401006D01*
X262411Y400399D01*
X263449Y399816D01*
X264500Y399258D01*
X265564Y398726D01*
X266640Y398218D01*
X267728Y397737D01*
X268828Y397282D01*
X269938Y396853D01*
X271058Y396450D01*
X272187Y396074D01*
X273324Y395725D01*
X274470Y395404D01*
X275623Y395109D01*
X276783Y394843D01*
X277948Y394604D01*
X279120Y394392D01*
X280295Y394209D01*
X281475Y394054D01*
X282658Y393926D01*
X283844Y393827D01*
X285032Y393757D01*
X286221Y393714D01*
X287411Y393700D01*
X487289Y393700D01*
X488479Y393714D01*
X489668Y393757D01*
X490856Y393827D01*
X492042Y393926D01*
X493225Y394054D01*
X494405Y394209D01*
X495580Y394392D01*
X496752Y394604D01*
X497917Y394843D01*
X499077Y395109D01*
X500230Y395404D01*
X501376Y395725D01*
X502513Y396074D01*
X503642Y396450D01*
X504762Y396853D01*
X505872Y397282D01*
X506972Y397737D01*
X508060Y398218D01*
X509136Y398726D01*
X510200Y399258D01*
X511251Y399816D01*
X512289Y400399D01*
X513312Y401006D01*
X514321Y401637D01*
X515314Y402293D01*
X516292Y402971D01*
X517253Y403673D01*
X518197Y404397D01*
X519124Y405144D01*
X520032Y405913D01*
X520922Y406702D01*
X521793Y407513D01*
X522644Y408345D01*
X522645Y408345D02*
X578955Y464655D01*
X578955Y464656D02*
X579787Y465507D01*
X580598Y466378D01*
X581387Y467268D01*
X582156Y468176D01*
X582903Y469103D01*
X583627Y470047D01*
X584329Y471008D01*
X585007Y471986D01*
X585663Y472979D01*
X586294Y473988D01*
X586901Y475011D01*
X587484Y476049D01*
X588042Y477100D01*
X588574Y478164D01*
X589082Y479240D01*
X589563Y480328D01*
X590018Y481428D01*
X590447Y482538D01*
X590850Y483658D01*
X591226Y484787D01*
X591575Y485924D01*
X591896Y487070D01*
X592191Y488223D01*
X592457Y489383D01*
X592696Y490548D01*
X592908Y491720D01*
X593091Y492895D01*
X593246Y494075D01*
X593374Y495258D01*
X593473Y496444D01*
X593543Y497632D01*
X593586Y498821D01*
X593600Y500011D01*
X251700Y457200D02*
X251705Y457568D01*
X251718Y457936D01*
X251741Y458303D01*
X251772Y458670D01*
X251813Y459036D01*
X251862Y459401D01*
X251921Y459764D01*
X251988Y460126D01*
X252064Y460487D01*
X252150Y460845D01*
X252243Y461201D01*
X252346Y461554D01*
X252457Y461905D01*
X252577Y462253D01*
X252705Y462598D01*
X252842Y462940D01*
X252987Y463279D01*
X253140Y463613D01*
X253302Y463944D01*
X253471Y464271D01*
X253649Y464593D01*
X253834Y464912D01*
X254027Y465225D01*
X254228Y465534D01*
X254436Y465837D01*
X254652Y466135D01*
X254875Y466428D01*
X255105Y466716D01*
X255342Y466998D01*
X255586Y467273D01*
X255836Y467543D01*
X256093Y467807D01*
X256357Y468064D01*
X256627Y468314D01*
X256902Y468558D01*
X257184Y468795D01*
X257472Y469025D01*
X257765Y469248D01*
X258063Y469464D01*
X258366Y469672D01*
X258675Y469873D01*
X258988Y470066D01*
X259307Y470251D01*
X259629Y470429D01*
X259956Y470598D01*
X260287Y470760D01*
X260621Y470913D01*
X260960Y471058D01*
X261302Y471195D01*
X261647Y471323D01*
X261995Y471443D01*
X262346Y471554D01*
X262699Y471657D01*
X263055Y471750D01*
X263413Y471836D01*
X263774Y471912D01*
X264136Y471979D01*
X264499Y472038D01*
X264864Y472087D01*
X265230Y472128D01*
X265597Y472159D01*
X265964Y472182D01*
X266332Y472195D01*
X266700Y472200D01*
X267068Y472195D01*
X267436Y472182D01*
X267803Y472159D01*
X268170Y472128D01*
X268536Y472087D01*
X268901Y472038D01*
X269264Y471979D01*
X269626Y471912D01*
X269987Y471836D01*
X270345Y471750D01*
X270701Y471657D01*
X271054Y471554D01*
X271405Y471443D01*
X271753Y471323D01*
X272098Y471195D01*
X272440Y471058D01*
X272779Y470913D01*
X273113Y470760D01*
X273444Y470598D01*
X273771Y470429D01*
X274093Y470251D01*
X274412Y470066D01*
X274725Y469873D01*
X275034Y469672D01*
X275337Y469464D01*
X275635Y469248D01*
X275928Y469025D01*
X276216Y468795D01*
X276498Y468558D01*
X276773Y468314D01*
X277043Y468064D01*
X277307Y467807D01*
X277564Y467543D01*
X277814Y467273D01*
X278058Y466998D01*
X278295Y466716D01*
X278525Y466428D01*
X278748Y466135D01*
X278964Y465837D01*
X279172Y465534D01*
X279373Y465225D01*
X279566Y464912D01*
X279751Y464593D01*
X279929Y464271D01*
X280098Y463944D01*
X280260Y463613D01*
X280413Y463279D01*
X280558Y462940D01*
X280695Y462598D01*
X280823Y462253D01*
X280943Y461905D01*
X281054Y461554D01*
X281157Y461201D01*
X281250Y460845D01*
X281336Y460487D01*
X281412Y460126D01*
X281479Y459764D01*
X281538Y459401D01*
X281587Y459036D01*
X281628Y458670D01*
X281659Y458303D01*
X281682Y457936D01*
X281695Y457568D01*
X281700Y457200D01*
X281695Y456832D01*
X281682Y456464D01*
X281659Y456097D01*
X281628Y455730D01*
X281587Y455364D01*
X281538Y454999D01*
X281479Y454636D01*
X281412Y454274D01*
X281336Y453913D01*
X281250Y453555D01*
X281157Y453199D01*
X281054Y452846D01*
X280943Y452495D01*
X280823Y452147D01*
X280695Y451802D01*
X280558Y451460D01*
X280413Y451121D01*
X280260Y450787D01*
X280098Y450456D01*
X279929Y450129D01*
X279751Y449807D01*
X279566Y449488D01*
X279373Y449175D01*
X279172Y448866D01*
X278964Y448563D01*
X278748Y448265D01*
X278525Y447972D01*
X278295Y447684D01*
X278058Y447402D01*
X277814Y447127D01*
X277564Y446857D01*
X277307Y446593D01*
X277043Y446336D01*
X276773Y446086D01*
X276498Y445842D01*
X276216Y445605D01*
X275928Y445375D01*
X275635Y445152D01*
X275337Y444936D01*
X275034Y444728D01*
X274725Y444527D01*
X274412Y444334D01*
X274093Y444149D01*
X273771Y443971D01*
X273444Y443802D01*
X273113Y443640D01*
X272779Y443487D01*
X272440Y443342D01*
X272098Y443205D01*
X271753Y443077D01*
X271405Y442957D01*
X271054Y442846D01*
X270701Y442743D01*
X270345Y442650D01*
X269987Y442564D01*
X269626Y442488D01*
X269264Y442421D01*
X268901Y442362D01*
X268536Y442313D01*
X268170Y442272D01*
X267803Y442241D01*
X267436Y442218D01*
X267068Y442205D01*
X266700Y442200D01*
X266332Y442205D01*
X265964Y442218D01*
X265597Y442241D01*
X265230Y442272D01*
X264864Y442313D01*
X264499Y442362D01*
X264136Y442421D01*
X263774Y442488D01*
X263413Y442564D01*
X263055Y442650D01*
X262699Y442743D01*
X262346Y442846D01*
X261995Y442957D01*
X261647Y443077D01*
X261302Y443205D01*
X260960Y443342D01*
X260621Y443487D01*
X260287Y443640D01*
X259956Y443802D01*
X259629Y443971D01*
X259307Y444149D01*
X258988Y444334D01*
X258675Y444527D01*
X258366Y444728D01*
X258063Y444936D01*
X257765Y445152D01*
X257472Y445375D01*
X257184Y445605D01*
X256902Y445842D01*
X256627Y446086D01*
X256357Y446336D01*
X256093Y446593D01*
X255836Y446857D01*
X255586Y447127D01*
X255342Y447402D01*
X255105Y447684D01*
X254875Y447972D01*
X254652Y448265D01*
X254436Y448563D01*
X254228Y448866D01*
X254027Y449175D01*
X253834Y449488D01*
X253649Y449807D01*
X253471Y450129D01*
X253302Y450456D01*
X253140Y450787D01*
X252987Y451121D01*
X252842Y451460D01*
X252705Y451802D01*
X252577Y452147D01*
X252457Y452495D01*
X252346Y452846D01*
X252243Y453199D01*
X252150Y453555D01*
X252064Y453913D01*
X251988Y454274D01*
X251921Y454636D01*
X251862Y454999D01*
X251813Y455364D01*
X251772Y455730D01*
X251741Y456097D01*
X251718Y456464D01*
X251705Y456832D01*
X251700Y457200D01*
X505700Y457200D02*
X505705Y457568D01*
X505718Y457936D01*
X505741Y458303D01*
X505772Y458670D01*
X505813Y459036D01*
X505862Y459401D01*
X505921Y459764D01*
X505988Y460126D01*
X506064Y460487D01*
X506150Y460845D01*
X506243Y461201D01*
X506346Y461554D01*
X506457Y461905D01*
X506577Y462253D01*
X506705Y462598D01*
X506842Y462940D01*
X506987Y463279D01*
X507140Y463613D01*
X507302Y463944D01*
X507471Y464271D01*
X507649Y464593D01*
X507834Y464912D01*
X508027Y465225D01*
X508228Y465534D01*
X508436Y465837D01*
X508652Y466135D01*
X508875Y466428D01*
X509105Y466716D01*
X509342Y466998D01*
X509586Y467273D01*
X509836Y467543D01*
X510093Y467807D01*
X510357Y468064D01*
X510627Y468314D01*
X510902Y468558D01*
X511184Y468795D01*
X511472Y469025D01*
X511765Y469248D01*
X512063Y469464D01*
X512366Y469672D01*
X512675Y469873D01*
X512988Y470066D01*
X513307Y470251D01*
X513629Y470429D01*
X513956Y470598D01*
X514287Y470760D01*
X514621Y470913D01*
X514960Y471058D01*
X515302Y471195D01*
X515647Y471323D01*
X515995Y471443D01*
X516346Y471554D01*
X516699Y471657D01*
X517055Y471750D01*
X517413Y471836D01*
X517774Y471912D01*
X518136Y471979D01*
X518499Y472038D01*
X518864Y472087D01*
X519230Y472128D01*
X519597Y472159D01*
X519964Y472182D01*
X520332Y472195D01*
X520700Y472200D01*
X521068Y472195D01*
X521436Y472182D01*
X521803Y472159D01*
X522170Y472128D01*
X522536Y472087D01*
X522901Y472038D01*
X523264Y471979D01*
X523626Y471912D01*
X523987Y471836D01*
X524345Y471750D01*
X524701Y471657D01*
X525054Y471554D01*
X525405Y471443D01*
X525753Y471323D01*
X526098Y471195D01*
X526440Y471058D01*
X526779Y470913D01*
X527113Y470760D01*
X527444Y470598D01*
X527771Y470429D01*
X528093Y470251D01*
X528412Y470066D01*
X528725Y469873D01*
X529034Y469672D01*
X529337Y469464D01*
X529635Y469248D01*
X529928Y469025D01*
X530216Y468795D01*
X530498Y468558D01*
X530773Y468314D01*
X531043Y468064D01*
X531307Y467807D01*
X531564Y467543D01*
X531814Y467273D01*
X532058Y466998D01*
X532295Y466716D01*
X532525Y466428D01*
X532748Y466135D01*
X532964Y465837D01*
X533172Y465534D01*
X533373Y465225D01*
X533566Y464912D01*
X533751Y464593D01*
X533929Y464271D01*
X534098Y463944D01*
X534260Y463613D01*
X534413Y463279D01*
X534558Y462940D01*
X534695Y462598D01*
X534823Y462253D01*
X534943Y461905D01*
X535054Y461554D01*
X535157Y461201D01*
X535250Y460845D01*
X535336Y460487D01*
X535412Y460126D01*
X535479Y459764D01*
X535538Y459401D01*
X535587Y459036D01*
X535628Y458670D01*
X535659Y458303D01*
X535682Y457936D01*
X535695Y457568D01*
X535700Y457200D01*
X535695Y456832D01*
X535682Y456464D01*
X535659Y456097D01*
X535628Y455730D01*
X535587Y455364D01*
X535538Y454999D01*
X535479Y454636D01*
X535412Y454274D01*
X535336Y453913D01*
X535250Y453555D01*
X535157Y453199D01*
X535054Y452846D01*
X534943Y452495D01*
X534823Y452147D01*
X534695Y451802D01*
X534558Y451460D01*
X534413Y451121D01*
X534260Y450787D01*
X534098Y450456D01*
X533929Y450129D01*
X533751Y449807D01*
X533566Y449488D01*
X533373Y449175D01*
X533172Y448866D01*
X532964Y448563D01*
X532748Y448265D01*
X532525Y447972D01*
X532295Y447684D01*
X532058Y447402D01*
X531814Y447127D01*
X531564Y446857D01*
X531307Y446593D01*
X531043Y446336D01*
X530773Y446086D01*
X530498Y445842D01*
X530216Y445605D01*
X529928Y445375D01*
X529635Y445152D01*
X529337Y444936D01*
X529034Y444728D01*
X528725Y444527D01*
X528412Y444334D01*
X528093Y444149D01*
X527771Y443971D01*
X527444Y443802D01*
X527113Y443640D01*
X526779Y443487D01*
X526440Y443342D01*
X526098Y443205D01*
X525753Y443077D01*
X525405Y442957D01*
X525054Y442846D01*
X524701Y442743D01*
X524345Y442650D01*
X523987Y442564D01*
X523626Y442488D01*
X523264Y442421D01*
X522901Y442362D01*
X522536Y442313D01*
X522170Y442272D01*
X521803Y442241D01*
X521436Y442218D01*
X521068Y442205D01*
X520700Y442200D01*
X520332Y442205D01*
X519964Y442218D01*
X519597Y442241D01*
X519230Y442272D01*
X518864Y442313D01*
X518499Y442362D01*
X518136Y442421D01*
X517774Y442488D01*
X517413Y442564D01*
X517055Y442650D01*
X516699Y442743D01*
X516346Y442846D01*
X515995Y442957D01*
X515647Y443077D01*
X515302Y443205D01*
X514960Y443342D01*
X514621Y443487D01*
X514287Y443640D01*
X513956Y443802D01*
X513629Y443971D01*
X513307Y444149D01*
X512988Y444334D01*
X512675Y444527D01*
X512366Y444728D01*
X512063Y444936D01*
X511765Y445152D01*
X511472Y445375D01*
X511184Y445605D01*
X510902Y445842D01*
X510627Y446086D01*
X510357Y446336D01*
X510093Y446593D01*
X509836Y446857D01*
X509586Y447127D01*
X509342Y447402D01*
X509105Y447684D01*
X508875Y447972D01*
X508652Y448265D01*
X508436Y448563D01*
X508228Y448866D01*
X508027Y449175D01*
X507834Y449488D01*
X507649Y449807D01*
X507471Y450129D01*
X507302Y450456D01*
X507140Y450787D01*
X506987Y451121D01*
X506842Y451460D01*
X506705Y451802D01*
X506577Y452147D01*
X506457Y452495D01*
X506346Y452846D01*
X506243Y453199D01*
X506150Y453555D01*
X506064Y453913D01*
X505988Y454274D01*
X505921Y454636D01*
X505862Y454999D01*
X505813Y455364D01*
X505772Y455730D01*
X505741Y456097D01*
X505718Y456464D01*
X505705Y456832D01*
X505700Y457200D01*
M02*
