G04 EAGLE Gerber RS-274X export*
G75*
%MOMM*%
%FSLAX34Y34*%
%LPD*%
%INSilkscreen Top*%
%IPPOS*%
%AMOC8*
5,1,8,0,0,1.08239X$1,22.5*%
G01*
%ADD10C,0.076200*%
%ADD11C,0.203200*%
%ADD12C,0.127000*%
%ADD13C,0.025400*%
%ADD14C,0.200000*%
%ADD15C,0.101600*%
%ADD16C,0.152400*%


D10*
X382052Y424632D02*
X382052Y428808D01*
X382051Y428808D02*
X382053Y428909D01*
X382059Y429010D01*
X382069Y429111D01*
X382082Y429211D01*
X382100Y429311D01*
X382121Y429410D01*
X382147Y429508D01*
X382176Y429605D01*
X382208Y429701D01*
X382245Y429795D01*
X382285Y429888D01*
X382329Y429980D01*
X382376Y430069D01*
X382427Y430157D01*
X382481Y430243D01*
X382538Y430326D01*
X382598Y430408D01*
X382662Y430486D01*
X382728Y430563D01*
X382798Y430636D01*
X382870Y430707D01*
X382945Y430775D01*
X383023Y430840D01*
X383103Y430902D01*
X383185Y430961D01*
X383270Y431017D01*
X383357Y431069D01*
X383445Y431118D01*
X383536Y431164D01*
X383628Y431205D01*
X383722Y431244D01*
X383817Y431278D01*
X383913Y431309D01*
X384011Y431336D01*
X384109Y431360D01*
X384209Y431379D01*
X384309Y431395D01*
X384409Y431407D01*
X384510Y431415D01*
X384611Y431419D01*
X384713Y431419D01*
X384814Y431415D01*
X384915Y431407D01*
X385015Y431395D01*
X385115Y431379D01*
X385215Y431360D01*
X385313Y431336D01*
X385411Y431309D01*
X385507Y431278D01*
X385602Y431244D01*
X385696Y431205D01*
X385788Y431164D01*
X385879Y431118D01*
X385968Y431069D01*
X386054Y431017D01*
X386139Y430961D01*
X386221Y430902D01*
X386301Y430840D01*
X386379Y430775D01*
X386454Y430707D01*
X386526Y430636D01*
X386596Y430563D01*
X386662Y430486D01*
X386726Y430408D01*
X386786Y430326D01*
X386843Y430243D01*
X386897Y430157D01*
X386948Y430069D01*
X386995Y429980D01*
X387039Y429888D01*
X387079Y429795D01*
X387116Y429701D01*
X387148Y429605D01*
X387177Y429508D01*
X387203Y429410D01*
X387224Y429311D01*
X387242Y429211D01*
X387255Y429111D01*
X387265Y429010D01*
X387271Y428909D01*
X387273Y428808D01*
X387273Y424632D01*
X387271Y424531D01*
X387265Y424430D01*
X387255Y424329D01*
X387242Y424229D01*
X387224Y424129D01*
X387203Y424030D01*
X387177Y423932D01*
X387148Y423835D01*
X387116Y423739D01*
X387079Y423645D01*
X387039Y423552D01*
X386995Y423460D01*
X386948Y423371D01*
X386897Y423283D01*
X386843Y423197D01*
X386786Y423114D01*
X386726Y423032D01*
X386662Y422954D01*
X386596Y422877D01*
X386526Y422804D01*
X386454Y422733D01*
X386379Y422665D01*
X386301Y422600D01*
X386221Y422538D01*
X386139Y422479D01*
X386054Y422423D01*
X385967Y422371D01*
X385879Y422322D01*
X385788Y422276D01*
X385696Y422235D01*
X385602Y422196D01*
X385507Y422162D01*
X385411Y422131D01*
X385313Y422104D01*
X385215Y422080D01*
X385115Y422061D01*
X385015Y422045D01*
X384915Y422033D01*
X384814Y422025D01*
X384713Y422021D01*
X384611Y422021D01*
X384510Y422025D01*
X384409Y422033D01*
X384309Y422045D01*
X384209Y422061D01*
X384109Y422080D01*
X384011Y422104D01*
X383913Y422131D01*
X383817Y422162D01*
X383722Y422196D01*
X383628Y422235D01*
X383536Y422276D01*
X383445Y422322D01*
X383357Y422371D01*
X383270Y422423D01*
X383185Y422479D01*
X383103Y422538D01*
X383023Y422600D01*
X382945Y422665D01*
X382870Y422733D01*
X382798Y422804D01*
X382728Y422877D01*
X382662Y422954D01*
X382598Y423032D01*
X382538Y423114D01*
X382481Y423197D01*
X382427Y423283D01*
X382376Y423371D01*
X382329Y423460D01*
X382285Y423552D01*
X382245Y423645D01*
X382208Y423739D01*
X382176Y423835D01*
X382147Y423932D01*
X382121Y424030D01*
X382100Y424129D01*
X382082Y424229D01*
X382069Y424329D01*
X382059Y424430D01*
X382053Y424531D01*
X382051Y424632D01*
X386228Y424109D02*
X388317Y422021D01*
X391288Y424632D02*
X391288Y431419D01*
X391288Y424632D02*
X391290Y424531D01*
X391296Y424430D01*
X391306Y424329D01*
X391319Y424229D01*
X391337Y424129D01*
X391358Y424030D01*
X391384Y423932D01*
X391413Y423835D01*
X391445Y423739D01*
X391482Y423645D01*
X391522Y423552D01*
X391566Y423460D01*
X391613Y423371D01*
X391664Y423283D01*
X391718Y423197D01*
X391775Y423114D01*
X391835Y423032D01*
X391899Y422954D01*
X391965Y422877D01*
X392035Y422804D01*
X392107Y422733D01*
X392182Y422665D01*
X392260Y422600D01*
X392340Y422538D01*
X392422Y422479D01*
X392507Y422423D01*
X392594Y422371D01*
X392682Y422322D01*
X392773Y422276D01*
X392865Y422235D01*
X392959Y422196D01*
X393054Y422162D01*
X393150Y422131D01*
X393248Y422104D01*
X393346Y422080D01*
X393446Y422061D01*
X393546Y422045D01*
X393646Y422033D01*
X393747Y422025D01*
X393848Y422021D01*
X393950Y422021D01*
X394051Y422025D01*
X394152Y422033D01*
X394252Y422045D01*
X394352Y422061D01*
X394452Y422080D01*
X394550Y422104D01*
X394648Y422131D01*
X394744Y422162D01*
X394839Y422196D01*
X394933Y422235D01*
X395025Y422276D01*
X395116Y422322D01*
X395204Y422371D01*
X395291Y422423D01*
X395376Y422479D01*
X395458Y422538D01*
X395538Y422600D01*
X395616Y422665D01*
X395691Y422733D01*
X395763Y422804D01*
X395833Y422877D01*
X395899Y422954D01*
X395963Y423032D01*
X396023Y423114D01*
X396080Y423197D01*
X396134Y423283D01*
X396185Y423371D01*
X396232Y423460D01*
X396276Y423552D01*
X396316Y423645D01*
X396353Y423739D01*
X396385Y423835D01*
X396414Y423932D01*
X396440Y424030D01*
X396461Y424129D01*
X396479Y424229D01*
X396492Y424329D01*
X396502Y424430D01*
X396508Y424531D01*
X396510Y424632D01*
X396509Y424632D02*
X396509Y431419D01*
X402738Y431419D02*
X402738Y422021D01*
X400127Y431419D02*
X405348Y431419D01*
X369164Y416179D02*
X369164Y406781D01*
X366553Y416179D02*
X371774Y416179D01*
X375410Y406781D02*
X379587Y406781D01*
X375410Y406781D02*
X375410Y416179D01*
X379587Y416179D01*
X378543Y412002D02*
X375410Y412002D01*
X382490Y406781D02*
X385623Y416179D01*
X388756Y406781D01*
X387972Y409131D02*
X383273Y409131D01*
X392549Y406781D02*
X392549Y416179D01*
X395681Y410958D01*
X398814Y416179D01*
X398814Y406781D01*
X410068Y406781D02*
X412157Y406781D01*
X410068Y406781D02*
X409979Y406783D01*
X409891Y406789D01*
X409803Y406798D01*
X409715Y406811D01*
X409628Y406828D01*
X409542Y406848D01*
X409457Y406873D01*
X409372Y406900D01*
X409289Y406932D01*
X409208Y406966D01*
X409128Y407005D01*
X409050Y407046D01*
X408973Y407091D01*
X408899Y407139D01*
X408826Y407190D01*
X408756Y407244D01*
X408689Y407302D01*
X408623Y407362D01*
X408561Y407424D01*
X408501Y407490D01*
X408443Y407557D01*
X408389Y407627D01*
X408338Y407700D01*
X408290Y407774D01*
X408245Y407851D01*
X408204Y407929D01*
X408165Y408009D01*
X408131Y408090D01*
X408099Y408173D01*
X408072Y408258D01*
X408047Y408343D01*
X408027Y408429D01*
X408010Y408516D01*
X407997Y408604D01*
X407988Y408692D01*
X407982Y408780D01*
X407980Y408869D01*
X407980Y414091D01*
X407981Y414091D02*
X407983Y414182D01*
X407989Y414273D01*
X407999Y414364D01*
X408013Y414454D01*
X408030Y414543D01*
X408052Y414631D01*
X408078Y414719D01*
X408107Y414805D01*
X408140Y414890D01*
X408177Y414973D01*
X408217Y415055D01*
X408261Y415135D01*
X408308Y415213D01*
X408359Y415289D01*
X408412Y415362D01*
X408469Y415433D01*
X408530Y415502D01*
X408593Y415567D01*
X408658Y415630D01*
X408727Y415690D01*
X408798Y415748D01*
X408871Y415801D01*
X408947Y415852D01*
X409025Y415899D01*
X409105Y415943D01*
X409187Y415983D01*
X409270Y416020D01*
X409355Y416053D01*
X409441Y416082D01*
X409529Y416108D01*
X409617Y416130D01*
X409706Y416147D01*
X409796Y416161D01*
X409887Y416171D01*
X409978Y416177D01*
X410069Y416179D01*
X410068Y416179D02*
X412157Y416179D01*
X415625Y409392D02*
X415627Y409493D01*
X415633Y409594D01*
X415643Y409695D01*
X415656Y409795D01*
X415674Y409895D01*
X415695Y409994D01*
X415721Y410092D01*
X415750Y410189D01*
X415782Y410285D01*
X415819Y410379D01*
X415859Y410472D01*
X415903Y410564D01*
X415950Y410653D01*
X416001Y410741D01*
X416055Y410827D01*
X416112Y410910D01*
X416172Y410992D01*
X416236Y411070D01*
X416302Y411147D01*
X416372Y411220D01*
X416444Y411291D01*
X416519Y411359D01*
X416597Y411424D01*
X416677Y411486D01*
X416759Y411545D01*
X416844Y411601D01*
X416931Y411653D01*
X417019Y411702D01*
X417110Y411748D01*
X417202Y411789D01*
X417296Y411828D01*
X417391Y411862D01*
X417487Y411893D01*
X417585Y411920D01*
X417683Y411944D01*
X417783Y411963D01*
X417883Y411979D01*
X417983Y411991D01*
X418084Y411999D01*
X418185Y412003D01*
X418287Y412003D01*
X418388Y411999D01*
X418489Y411991D01*
X418589Y411979D01*
X418689Y411963D01*
X418789Y411944D01*
X418887Y411920D01*
X418985Y411893D01*
X419081Y411862D01*
X419176Y411828D01*
X419270Y411789D01*
X419362Y411748D01*
X419453Y411702D01*
X419542Y411653D01*
X419628Y411601D01*
X419713Y411545D01*
X419795Y411486D01*
X419875Y411424D01*
X419953Y411359D01*
X420028Y411291D01*
X420100Y411220D01*
X420170Y411147D01*
X420236Y411070D01*
X420300Y410992D01*
X420360Y410910D01*
X420417Y410827D01*
X420471Y410741D01*
X420522Y410653D01*
X420569Y410564D01*
X420613Y410472D01*
X420653Y410379D01*
X420690Y410285D01*
X420722Y410189D01*
X420751Y410092D01*
X420777Y409994D01*
X420798Y409895D01*
X420816Y409795D01*
X420829Y409695D01*
X420839Y409594D01*
X420845Y409493D01*
X420847Y409392D01*
X420845Y409291D01*
X420839Y409190D01*
X420829Y409089D01*
X420816Y408989D01*
X420798Y408889D01*
X420777Y408790D01*
X420751Y408692D01*
X420722Y408595D01*
X420690Y408499D01*
X420653Y408405D01*
X420613Y408312D01*
X420569Y408220D01*
X420522Y408131D01*
X420471Y408043D01*
X420417Y407957D01*
X420360Y407874D01*
X420300Y407792D01*
X420236Y407714D01*
X420170Y407637D01*
X420100Y407564D01*
X420028Y407493D01*
X419953Y407425D01*
X419875Y407360D01*
X419795Y407298D01*
X419713Y407239D01*
X419628Y407183D01*
X419541Y407131D01*
X419453Y407082D01*
X419362Y407036D01*
X419270Y406995D01*
X419176Y406956D01*
X419081Y406922D01*
X418985Y406891D01*
X418887Y406864D01*
X418789Y406840D01*
X418689Y406821D01*
X418589Y406805D01*
X418489Y406793D01*
X418388Y406785D01*
X418287Y406781D01*
X418185Y406781D01*
X418084Y406785D01*
X417983Y406793D01*
X417883Y406805D01*
X417783Y406821D01*
X417683Y406840D01*
X417585Y406864D01*
X417487Y406891D01*
X417391Y406922D01*
X417296Y406956D01*
X417202Y406995D01*
X417110Y407036D01*
X417019Y407082D01*
X416931Y407131D01*
X416844Y407183D01*
X416759Y407239D01*
X416677Y407298D01*
X416597Y407360D01*
X416519Y407425D01*
X416444Y407493D01*
X416372Y407564D01*
X416302Y407637D01*
X416236Y407714D01*
X416172Y407792D01*
X416112Y407874D01*
X416055Y407957D01*
X416001Y408043D01*
X415950Y408131D01*
X415903Y408220D01*
X415859Y408312D01*
X415819Y408405D01*
X415782Y408499D01*
X415750Y408595D01*
X415721Y408692D01*
X415695Y408790D01*
X415674Y408889D01*
X415656Y408989D01*
X415643Y409089D01*
X415633Y409190D01*
X415627Y409291D01*
X415625Y409392D01*
X416148Y414091D02*
X416150Y414181D01*
X416156Y414270D01*
X416165Y414360D01*
X416179Y414449D01*
X416196Y414537D01*
X416217Y414624D01*
X416242Y414711D01*
X416271Y414796D01*
X416303Y414880D01*
X416338Y414962D01*
X416378Y415043D01*
X416420Y415122D01*
X416466Y415199D01*
X416516Y415274D01*
X416568Y415347D01*
X416624Y415418D01*
X416682Y415486D01*
X416744Y415551D01*
X416808Y415614D01*
X416875Y415674D01*
X416944Y415731D01*
X417016Y415785D01*
X417090Y415836D01*
X417166Y415884D01*
X417244Y415928D01*
X417324Y415969D01*
X417406Y416007D01*
X417489Y416041D01*
X417574Y416071D01*
X417660Y416098D01*
X417746Y416121D01*
X417834Y416140D01*
X417923Y416155D01*
X418012Y416167D01*
X418101Y416175D01*
X418191Y416179D01*
X418281Y416179D01*
X418371Y416175D01*
X418460Y416167D01*
X418549Y416155D01*
X418638Y416140D01*
X418726Y416121D01*
X418812Y416098D01*
X418898Y416071D01*
X418983Y416041D01*
X419066Y416007D01*
X419148Y415969D01*
X419228Y415928D01*
X419306Y415884D01*
X419382Y415836D01*
X419456Y415785D01*
X419528Y415731D01*
X419597Y415674D01*
X419664Y415614D01*
X419728Y415551D01*
X419790Y415486D01*
X419848Y415418D01*
X419904Y415347D01*
X419956Y415274D01*
X420006Y415199D01*
X420052Y415122D01*
X420094Y415043D01*
X420134Y414962D01*
X420169Y414880D01*
X420201Y414796D01*
X420230Y414711D01*
X420255Y414624D01*
X420276Y414537D01*
X420293Y414449D01*
X420307Y414360D01*
X420316Y414270D01*
X420322Y414181D01*
X420324Y414091D01*
X420322Y414001D01*
X420316Y413912D01*
X420307Y413822D01*
X420293Y413733D01*
X420276Y413645D01*
X420255Y413558D01*
X420230Y413471D01*
X420201Y413386D01*
X420169Y413302D01*
X420134Y413220D01*
X420094Y413139D01*
X420052Y413060D01*
X420006Y412983D01*
X419956Y412908D01*
X419904Y412835D01*
X419848Y412764D01*
X419790Y412696D01*
X419728Y412631D01*
X419664Y412568D01*
X419597Y412508D01*
X419528Y412451D01*
X419456Y412397D01*
X419382Y412346D01*
X419306Y412298D01*
X419228Y412254D01*
X419148Y412213D01*
X419066Y412175D01*
X418983Y412141D01*
X418898Y412111D01*
X418812Y412084D01*
X418726Y412061D01*
X418638Y412042D01*
X418549Y412027D01*
X418460Y412015D01*
X418371Y412007D01*
X418281Y412003D01*
X418191Y412003D01*
X418101Y412007D01*
X418012Y412015D01*
X417923Y412027D01*
X417834Y412042D01*
X417746Y412061D01*
X417660Y412084D01*
X417574Y412111D01*
X417489Y412141D01*
X417406Y412175D01*
X417324Y412213D01*
X417244Y412254D01*
X417166Y412298D01*
X417090Y412346D01*
X417016Y412397D01*
X416944Y412451D01*
X416875Y412508D01*
X416808Y412568D01*
X416744Y412631D01*
X416682Y412696D01*
X416624Y412764D01*
X416568Y412835D01*
X416516Y412908D01*
X416466Y412983D01*
X416420Y413060D01*
X416378Y413139D01*
X416338Y413220D01*
X416303Y413302D01*
X416271Y413386D01*
X416242Y413471D01*
X416217Y413558D01*
X416196Y413645D01*
X416179Y413733D01*
X416165Y413822D01*
X416156Y413912D01*
X416150Y414001D01*
X416148Y414091D01*
D11*
X280100Y530700D02*
X280100Y545700D01*
X304100Y545700D01*
X304100Y530700D01*
X280100Y510700D02*
X280100Y499700D01*
X284100Y495700D01*
X300100Y495700D01*
X304100Y499700D01*
X304100Y510700D01*
D12*
X302260Y516890D02*
X281940Y516890D01*
D13*
X309847Y541646D02*
X309847Y542492D01*
X309847Y541646D02*
X309845Y541588D01*
X309839Y541531D01*
X309829Y541474D01*
X309816Y541417D01*
X309798Y541362D01*
X309777Y541309D01*
X309752Y541256D01*
X309724Y541206D01*
X309692Y541158D01*
X309657Y541111D01*
X309619Y541068D01*
X309578Y541027D01*
X309535Y540989D01*
X309488Y540954D01*
X309440Y540922D01*
X309390Y540894D01*
X309337Y540869D01*
X309284Y540848D01*
X309229Y540830D01*
X309172Y540817D01*
X309115Y540807D01*
X309058Y540801D01*
X309000Y540799D01*
X306884Y540799D01*
X306826Y540801D01*
X306769Y540807D01*
X306712Y540817D01*
X306655Y540830D01*
X306600Y540848D01*
X306547Y540869D01*
X306494Y540894D01*
X306444Y540922D01*
X306396Y540954D01*
X306349Y540989D01*
X306306Y541027D01*
X306265Y541068D01*
X306227Y541111D01*
X306192Y541158D01*
X306160Y541206D01*
X306132Y541256D01*
X306107Y541309D01*
X306086Y541362D01*
X306068Y541417D01*
X306055Y541474D01*
X306045Y541531D01*
X306039Y541588D01*
X306037Y541646D01*
X306037Y542492D01*
X306037Y545021D02*
X306039Y545081D01*
X306045Y545140D01*
X306054Y545200D01*
X306067Y545258D01*
X306084Y545315D01*
X306104Y545372D01*
X306128Y545427D01*
X306155Y545480D01*
X306185Y545532D01*
X306219Y545581D01*
X306256Y545628D01*
X306295Y545673D01*
X306338Y545716D01*
X306383Y545755D01*
X306430Y545792D01*
X306479Y545826D01*
X306531Y545856D01*
X306584Y545883D01*
X306639Y545907D01*
X306696Y545927D01*
X306753Y545944D01*
X306811Y545957D01*
X306871Y545966D01*
X306930Y545972D01*
X306990Y545974D01*
X306037Y545021D02*
X306039Y544954D01*
X306044Y544887D01*
X306053Y544821D01*
X306066Y544755D01*
X306082Y544691D01*
X306102Y544627D01*
X306126Y544564D01*
X306152Y544502D01*
X306182Y544443D01*
X306215Y544385D01*
X306252Y544328D01*
X306291Y544274D01*
X306333Y544222D01*
X306378Y544173D01*
X306426Y544126D01*
X306476Y544082D01*
X306529Y544040D01*
X306584Y544002D01*
X306640Y543966D01*
X306699Y543934D01*
X306759Y543905D01*
X306821Y543879D01*
X306884Y543857D01*
X307731Y545655D02*
X307689Y545697D01*
X307644Y545736D01*
X307598Y545773D01*
X307549Y545807D01*
X307499Y545837D01*
X307447Y545865D01*
X307393Y545890D01*
X307338Y545912D01*
X307282Y545931D01*
X307225Y545946D01*
X307167Y545958D01*
X307108Y545966D01*
X307049Y545971D01*
X306990Y545973D01*
X307730Y545656D02*
X309847Y543856D01*
X309847Y545973D01*
D11*
X381700Y545700D02*
X381700Y530700D01*
X381700Y545700D02*
X405700Y545700D01*
X405700Y530700D01*
X381700Y510700D02*
X381700Y499700D01*
X385700Y495700D01*
X401700Y495700D01*
X405700Y499700D01*
X405700Y510700D01*
D12*
X403860Y516890D02*
X383540Y516890D01*
D13*
X411447Y541646D02*
X411447Y542492D01*
X411447Y541646D02*
X411445Y541588D01*
X411439Y541531D01*
X411429Y541474D01*
X411416Y541417D01*
X411398Y541362D01*
X411377Y541309D01*
X411352Y541256D01*
X411324Y541206D01*
X411292Y541158D01*
X411257Y541111D01*
X411219Y541068D01*
X411178Y541027D01*
X411135Y540989D01*
X411088Y540954D01*
X411040Y540922D01*
X410990Y540894D01*
X410937Y540869D01*
X410884Y540848D01*
X410829Y540830D01*
X410772Y540817D01*
X410715Y540807D01*
X410658Y540801D01*
X410600Y540799D01*
X408484Y540799D01*
X408426Y540801D01*
X408369Y540807D01*
X408312Y540817D01*
X408255Y540830D01*
X408200Y540848D01*
X408147Y540869D01*
X408094Y540894D01*
X408044Y540922D01*
X407996Y540954D01*
X407949Y540989D01*
X407906Y541027D01*
X407865Y541068D01*
X407827Y541111D01*
X407792Y541158D01*
X407760Y541206D01*
X407732Y541256D01*
X407707Y541309D01*
X407686Y541362D01*
X407668Y541417D01*
X407655Y541474D01*
X407645Y541531D01*
X407639Y541588D01*
X407637Y541646D01*
X407637Y542492D01*
X411447Y543856D02*
X411447Y544915D01*
X411445Y544979D01*
X411439Y545043D01*
X411430Y545106D01*
X411416Y545168D01*
X411399Y545230D01*
X411378Y545290D01*
X411354Y545349D01*
X411326Y545407D01*
X411294Y545462D01*
X411260Y545516D01*
X411222Y545567D01*
X411181Y545617D01*
X411137Y545663D01*
X411091Y545707D01*
X411041Y545748D01*
X410990Y545786D01*
X410936Y545820D01*
X410881Y545852D01*
X410823Y545880D01*
X410764Y545904D01*
X410704Y545925D01*
X410642Y545942D01*
X410580Y545956D01*
X410517Y545965D01*
X410453Y545971D01*
X410389Y545973D01*
X410325Y545971D01*
X410261Y545965D01*
X410198Y545956D01*
X410136Y545942D01*
X410074Y545925D01*
X410014Y545904D01*
X409955Y545880D01*
X409897Y545852D01*
X409842Y545820D01*
X409788Y545786D01*
X409737Y545748D01*
X409687Y545707D01*
X409641Y545663D01*
X409597Y545617D01*
X409556Y545567D01*
X409518Y545516D01*
X409484Y545462D01*
X409452Y545407D01*
X409424Y545349D01*
X409400Y545290D01*
X409379Y545230D01*
X409362Y545168D01*
X409348Y545106D01*
X409339Y545043D01*
X409333Y544979D01*
X409331Y544915D01*
X407637Y545126D02*
X407637Y543856D01*
X407637Y545126D02*
X407639Y545183D01*
X407645Y545239D01*
X407654Y545295D01*
X407667Y545350D01*
X407684Y545404D01*
X407704Y545457D01*
X407728Y545508D01*
X407755Y545558D01*
X407786Y545605D01*
X407819Y545651D01*
X407856Y545694D01*
X407895Y545735D01*
X407937Y545773D01*
X407982Y545808D01*
X408028Y545840D01*
X408077Y545869D01*
X408127Y545894D01*
X408180Y545916D01*
X408233Y545935D01*
X408288Y545950D01*
X408343Y545961D01*
X408399Y545969D01*
X408456Y545973D01*
X408512Y545973D01*
X408569Y545969D01*
X408625Y545961D01*
X408680Y545950D01*
X408735Y545935D01*
X408788Y545916D01*
X408841Y545894D01*
X408891Y545869D01*
X408940Y545840D01*
X408986Y545808D01*
X409031Y545773D01*
X409073Y545735D01*
X409112Y545694D01*
X409149Y545651D01*
X409182Y545605D01*
X409213Y545558D01*
X409240Y545508D01*
X409264Y545457D01*
X409284Y545404D01*
X409301Y545350D01*
X409314Y545295D01*
X409323Y545239D01*
X409329Y545183D01*
X409331Y545126D01*
X409330Y545126D02*
X409330Y544280D01*
D11*
X178500Y545700D02*
X178500Y530700D01*
X178500Y545700D02*
X202500Y545700D01*
X202500Y530700D01*
X178500Y510700D02*
X178500Y499700D01*
X182500Y495700D01*
X198500Y495700D01*
X202500Y499700D01*
X202500Y510700D01*
D12*
X200660Y516890D02*
X180340Y516890D01*
D13*
X208247Y541646D02*
X208247Y542492D01*
X208247Y541646D02*
X208245Y541588D01*
X208239Y541531D01*
X208229Y541474D01*
X208216Y541417D01*
X208198Y541362D01*
X208177Y541309D01*
X208152Y541256D01*
X208124Y541206D01*
X208092Y541158D01*
X208057Y541111D01*
X208019Y541068D01*
X207978Y541027D01*
X207935Y540989D01*
X207888Y540954D01*
X207840Y540922D01*
X207790Y540894D01*
X207737Y540869D01*
X207684Y540848D01*
X207629Y540830D01*
X207572Y540817D01*
X207515Y540807D01*
X207458Y540801D01*
X207400Y540799D01*
X205284Y540799D01*
X205226Y540801D01*
X205169Y540807D01*
X205112Y540817D01*
X205055Y540830D01*
X205000Y540848D01*
X204947Y540869D01*
X204894Y540894D01*
X204844Y540922D01*
X204796Y540954D01*
X204749Y540989D01*
X204706Y541027D01*
X204665Y541068D01*
X204627Y541111D01*
X204592Y541158D01*
X204560Y541206D01*
X204532Y541256D01*
X204507Y541309D01*
X204486Y541362D01*
X204468Y541417D01*
X204455Y541474D01*
X204445Y541531D01*
X204439Y541588D01*
X204437Y541646D01*
X204437Y542492D01*
X205284Y543856D02*
X204437Y544915D01*
X208247Y544915D01*
X208247Y545973D02*
X208247Y543856D01*
D11*
X483300Y545700D02*
X483300Y530700D01*
X483300Y545700D02*
X507300Y545700D01*
X507300Y530700D01*
X483300Y510700D02*
X483300Y499700D01*
X487300Y495700D01*
X503300Y495700D01*
X507300Y499700D01*
X507300Y510700D01*
D12*
X505460Y516890D02*
X485140Y516890D01*
D13*
X513047Y541646D02*
X513047Y542492D01*
X513047Y541646D02*
X513045Y541588D01*
X513039Y541531D01*
X513029Y541474D01*
X513016Y541417D01*
X512998Y541362D01*
X512977Y541309D01*
X512952Y541256D01*
X512924Y541206D01*
X512892Y541158D01*
X512857Y541111D01*
X512819Y541068D01*
X512778Y541027D01*
X512735Y540989D01*
X512688Y540954D01*
X512640Y540922D01*
X512590Y540894D01*
X512537Y540869D01*
X512484Y540848D01*
X512429Y540830D01*
X512372Y540817D01*
X512315Y540807D01*
X512258Y540801D01*
X512200Y540799D01*
X510084Y540799D01*
X510026Y540801D01*
X509969Y540807D01*
X509912Y540817D01*
X509855Y540830D01*
X509800Y540848D01*
X509747Y540869D01*
X509694Y540894D01*
X509644Y540922D01*
X509596Y540954D01*
X509549Y540989D01*
X509506Y541027D01*
X509465Y541068D01*
X509427Y541111D01*
X509392Y541158D01*
X509360Y541206D01*
X509332Y541256D01*
X509307Y541309D01*
X509286Y541362D01*
X509268Y541417D01*
X509255Y541474D01*
X509245Y541531D01*
X509239Y541588D01*
X509237Y541646D01*
X509237Y542492D01*
X509237Y544703D02*
X512200Y543856D01*
X512200Y545973D01*
X511354Y545338D02*
X513047Y545338D01*
D12*
X258800Y538200D02*
X258800Y536900D01*
X258800Y504500D02*
X258800Y503200D01*
X223800Y536900D02*
X223800Y538200D01*
X223800Y504500D02*
X223800Y503200D01*
X223800Y538200D02*
X258800Y538200D01*
X258800Y503200D02*
X223800Y503200D01*
D14*
X208800Y529200D02*
X208802Y529263D01*
X208808Y529325D01*
X208818Y529387D01*
X208831Y529449D01*
X208849Y529509D01*
X208870Y529568D01*
X208895Y529626D01*
X208924Y529682D01*
X208956Y529736D01*
X208991Y529788D01*
X209029Y529837D01*
X209071Y529885D01*
X209115Y529929D01*
X209163Y529971D01*
X209212Y530009D01*
X209264Y530044D01*
X209318Y530076D01*
X209374Y530105D01*
X209432Y530130D01*
X209491Y530151D01*
X209551Y530169D01*
X209613Y530182D01*
X209675Y530192D01*
X209737Y530198D01*
X209800Y530200D01*
X209863Y530198D01*
X209925Y530192D01*
X209987Y530182D01*
X210049Y530169D01*
X210109Y530151D01*
X210168Y530130D01*
X210226Y530105D01*
X210282Y530076D01*
X210336Y530044D01*
X210388Y530009D01*
X210437Y529971D01*
X210485Y529929D01*
X210529Y529885D01*
X210571Y529837D01*
X210609Y529788D01*
X210644Y529736D01*
X210676Y529682D01*
X210705Y529626D01*
X210730Y529568D01*
X210751Y529509D01*
X210769Y529449D01*
X210782Y529387D01*
X210792Y529325D01*
X210798Y529263D01*
X210800Y529200D01*
X210798Y529137D01*
X210792Y529075D01*
X210782Y529013D01*
X210769Y528951D01*
X210751Y528891D01*
X210730Y528832D01*
X210705Y528774D01*
X210676Y528718D01*
X210644Y528664D01*
X210609Y528612D01*
X210571Y528563D01*
X210529Y528515D01*
X210485Y528471D01*
X210437Y528429D01*
X210388Y528391D01*
X210336Y528356D01*
X210282Y528324D01*
X210226Y528295D01*
X210168Y528270D01*
X210109Y528249D01*
X210049Y528231D01*
X209987Y528218D01*
X209925Y528208D01*
X209863Y528202D01*
X209800Y528200D01*
X209737Y528202D01*
X209675Y528208D01*
X209613Y528218D01*
X209551Y528231D01*
X209491Y528249D01*
X209432Y528270D01*
X209374Y528295D01*
X209318Y528324D01*
X209264Y528356D01*
X209212Y528391D01*
X209163Y528429D01*
X209115Y528471D01*
X209071Y528515D01*
X209029Y528563D01*
X208991Y528612D01*
X208956Y528664D01*
X208924Y528718D01*
X208895Y528774D01*
X208870Y528832D01*
X208849Y528891D01*
X208831Y528951D01*
X208818Y529013D01*
X208808Y529075D01*
X208802Y529137D01*
X208800Y529200D01*
D15*
X217808Y551208D02*
X217808Y562892D01*
X221054Y562892D01*
X221167Y562890D01*
X221280Y562884D01*
X221393Y562874D01*
X221506Y562860D01*
X221618Y562843D01*
X221729Y562821D01*
X221839Y562796D01*
X221949Y562766D01*
X222057Y562733D01*
X222164Y562696D01*
X222270Y562656D01*
X222374Y562611D01*
X222477Y562563D01*
X222578Y562512D01*
X222677Y562457D01*
X222774Y562399D01*
X222869Y562337D01*
X222962Y562272D01*
X223052Y562204D01*
X223140Y562133D01*
X223226Y562058D01*
X223309Y561981D01*
X223389Y561901D01*
X223466Y561818D01*
X223541Y561732D01*
X223612Y561644D01*
X223680Y561554D01*
X223745Y561461D01*
X223807Y561366D01*
X223865Y561269D01*
X223920Y561170D01*
X223971Y561069D01*
X224019Y560966D01*
X224064Y560862D01*
X224104Y560756D01*
X224141Y560649D01*
X224174Y560541D01*
X224204Y560431D01*
X224229Y560321D01*
X224251Y560210D01*
X224268Y560098D01*
X224282Y559985D01*
X224292Y559872D01*
X224298Y559759D01*
X224300Y559646D01*
X224299Y559646D02*
X224299Y554454D01*
X224300Y554454D02*
X224298Y554341D01*
X224292Y554228D01*
X224282Y554115D01*
X224268Y554002D01*
X224251Y553890D01*
X224229Y553779D01*
X224204Y553669D01*
X224174Y553559D01*
X224141Y553451D01*
X224104Y553344D01*
X224064Y553238D01*
X224019Y553134D01*
X223971Y553031D01*
X223920Y552930D01*
X223865Y552831D01*
X223807Y552734D01*
X223745Y552639D01*
X223680Y552546D01*
X223612Y552456D01*
X223541Y552368D01*
X223466Y552282D01*
X223389Y552199D01*
X223309Y552119D01*
X223226Y552042D01*
X223140Y551967D01*
X223052Y551896D01*
X222962Y551828D01*
X222869Y551763D01*
X222774Y551701D01*
X222677Y551643D01*
X222578Y551588D01*
X222477Y551537D01*
X222374Y551489D01*
X222270Y551444D01*
X222164Y551404D01*
X222057Y551367D01*
X221949Y551334D01*
X221839Y551304D01*
X221729Y551279D01*
X221618Y551257D01*
X221506Y551240D01*
X221393Y551226D01*
X221280Y551216D01*
X221167Y551210D01*
X221054Y551208D01*
X217808Y551208D01*
X229619Y560296D02*
X232865Y562892D01*
X232865Y551208D01*
X236110Y551208D02*
X229619Y551208D01*
D12*
X360400Y538200D02*
X360400Y536900D01*
X360400Y504500D02*
X360400Y503200D01*
X325400Y536900D02*
X325400Y538200D01*
X325400Y504500D02*
X325400Y503200D01*
X325400Y538200D02*
X360400Y538200D01*
X360400Y503200D02*
X325400Y503200D01*
D14*
X310400Y529200D02*
X310402Y529263D01*
X310408Y529325D01*
X310418Y529387D01*
X310431Y529449D01*
X310449Y529509D01*
X310470Y529568D01*
X310495Y529626D01*
X310524Y529682D01*
X310556Y529736D01*
X310591Y529788D01*
X310629Y529837D01*
X310671Y529885D01*
X310715Y529929D01*
X310763Y529971D01*
X310812Y530009D01*
X310864Y530044D01*
X310918Y530076D01*
X310974Y530105D01*
X311032Y530130D01*
X311091Y530151D01*
X311151Y530169D01*
X311213Y530182D01*
X311275Y530192D01*
X311337Y530198D01*
X311400Y530200D01*
X311463Y530198D01*
X311525Y530192D01*
X311587Y530182D01*
X311649Y530169D01*
X311709Y530151D01*
X311768Y530130D01*
X311826Y530105D01*
X311882Y530076D01*
X311936Y530044D01*
X311988Y530009D01*
X312037Y529971D01*
X312085Y529929D01*
X312129Y529885D01*
X312171Y529837D01*
X312209Y529788D01*
X312244Y529736D01*
X312276Y529682D01*
X312305Y529626D01*
X312330Y529568D01*
X312351Y529509D01*
X312369Y529449D01*
X312382Y529387D01*
X312392Y529325D01*
X312398Y529263D01*
X312400Y529200D01*
X312398Y529137D01*
X312392Y529075D01*
X312382Y529013D01*
X312369Y528951D01*
X312351Y528891D01*
X312330Y528832D01*
X312305Y528774D01*
X312276Y528718D01*
X312244Y528664D01*
X312209Y528612D01*
X312171Y528563D01*
X312129Y528515D01*
X312085Y528471D01*
X312037Y528429D01*
X311988Y528391D01*
X311936Y528356D01*
X311882Y528324D01*
X311826Y528295D01*
X311768Y528270D01*
X311709Y528249D01*
X311649Y528231D01*
X311587Y528218D01*
X311525Y528208D01*
X311463Y528202D01*
X311400Y528200D01*
X311337Y528202D01*
X311275Y528208D01*
X311213Y528218D01*
X311151Y528231D01*
X311091Y528249D01*
X311032Y528270D01*
X310974Y528295D01*
X310918Y528324D01*
X310864Y528356D01*
X310812Y528391D01*
X310763Y528429D01*
X310715Y528471D01*
X310671Y528515D01*
X310629Y528563D01*
X310591Y528612D01*
X310556Y528664D01*
X310524Y528718D01*
X310495Y528774D01*
X310470Y528832D01*
X310449Y528891D01*
X310431Y528951D01*
X310418Y529013D01*
X310408Y529075D01*
X310402Y529137D01*
X310400Y529200D01*
D15*
X319408Y551208D02*
X319408Y562892D01*
X322654Y562892D01*
X322767Y562890D01*
X322880Y562884D01*
X322993Y562874D01*
X323106Y562860D01*
X323218Y562843D01*
X323329Y562821D01*
X323439Y562796D01*
X323549Y562766D01*
X323657Y562733D01*
X323764Y562696D01*
X323870Y562656D01*
X323974Y562611D01*
X324077Y562563D01*
X324178Y562512D01*
X324277Y562457D01*
X324374Y562399D01*
X324469Y562337D01*
X324562Y562272D01*
X324652Y562204D01*
X324740Y562133D01*
X324826Y562058D01*
X324909Y561981D01*
X324989Y561901D01*
X325066Y561818D01*
X325141Y561732D01*
X325212Y561644D01*
X325280Y561554D01*
X325345Y561461D01*
X325407Y561366D01*
X325465Y561269D01*
X325520Y561170D01*
X325571Y561069D01*
X325619Y560966D01*
X325664Y560862D01*
X325704Y560756D01*
X325741Y560649D01*
X325774Y560541D01*
X325804Y560431D01*
X325829Y560321D01*
X325851Y560210D01*
X325868Y560098D01*
X325882Y559985D01*
X325892Y559872D01*
X325898Y559759D01*
X325900Y559646D01*
X325899Y559646D02*
X325899Y554454D01*
X325900Y554454D02*
X325898Y554341D01*
X325892Y554228D01*
X325882Y554115D01*
X325868Y554002D01*
X325851Y553890D01*
X325829Y553779D01*
X325804Y553669D01*
X325774Y553559D01*
X325741Y553451D01*
X325704Y553344D01*
X325664Y553238D01*
X325619Y553134D01*
X325571Y553031D01*
X325520Y552930D01*
X325465Y552831D01*
X325407Y552734D01*
X325345Y552639D01*
X325280Y552546D01*
X325212Y552456D01*
X325141Y552368D01*
X325066Y552282D01*
X324989Y552199D01*
X324909Y552119D01*
X324826Y552042D01*
X324740Y551967D01*
X324652Y551896D01*
X324562Y551828D01*
X324469Y551763D01*
X324374Y551701D01*
X324277Y551643D01*
X324178Y551588D01*
X324077Y551537D01*
X323974Y551489D01*
X323870Y551444D01*
X323764Y551404D01*
X323657Y551367D01*
X323549Y551334D01*
X323439Y551304D01*
X323329Y551279D01*
X323218Y551257D01*
X323106Y551240D01*
X322993Y551226D01*
X322880Y551216D01*
X322767Y551210D01*
X322654Y551208D01*
X319408Y551208D01*
X334789Y562892D02*
X334896Y562890D01*
X335002Y562884D01*
X335108Y562874D01*
X335214Y562861D01*
X335320Y562843D01*
X335424Y562822D01*
X335528Y562797D01*
X335631Y562768D01*
X335732Y562736D01*
X335832Y562699D01*
X335931Y562659D01*
X336029Y562616D01*
X336125Y562569D01*
X336219Y562518D01*
X336311Y562464D01*
X336401Y562407D01*
X336489Y562347D01*
X336574Y562283D01*
X336657Y562216D01*
X336738Y562146D01*
X336816Y562074D01*
X336892Y561998D01*
X336964Y561920D01*
X337034Y561839D01*
X337101Y561756D01*
X337165Y561671D01*
X337225Y561583D01*
X337282Y561493D01*
X337336Y561401D01*
X337387Y561307D01*
X337434Y561211D01*
X337477Y561113D01*
X337517Y561014D01*
X337554Y560914D01*
X337586Y560813D01*
X337615Y560710D01*
X337640Y560606D01*
X337661Y560502D01*
X337679Y560396D01*
X337692Y560290D01*
X337702Y560184D01*
X337708Y560078D01*
X337710Y559971D01*
X334789Y562892D02*
X334668Y562890D01*
X334547Y562884D01*
X334427Y562874D01*
X334306Y562861D01*
X334187Y562843D01*
X334067Y562822D01*
X333949Y562797D01*
X333832Y562768D01*
X333715Y562735D01*
X333600Y562699D01*
X333486Y562658D01*
X333373Y562615D01*
X333261Y562567D01*
X333152Y562516D01*
X333044Y562461D01*
X332937Y562403D01*
X332833Y562342D01*
X332731Y562277D01*
X332631Y562209D01*
X332533Y562138D01*
X332437Y562064D01*
X332344Y561987D01*
X332254Y561906D01*
X332166Y561823D01*
X332081Y561737D01*
X331998Y561648D01*
X331919Y561557D01*
X331842Y561463D01*
X331769Y561367D01*
X331699Y561269D01*
X331632Y561168D01*
X331568Y561065D01*
X331508Y560960D01*
X331451Y560853D01*
X331397Y560745D01*
X331347Y560635D01*
X331301Y560523D01*
X331258Y560410D01*
X331219Y560295D01*
X336737Y557699D02*
X336816Y557776D01*
X336892Y557857D01*
X336965Y557940D01*
X337035Y558025D01*
X337102Y558113D01*
X337166Y558203D01*
X337226Y558295D01*
X337283Y558390D01*
X337337Y558486D01*
X337388Y558584D01*
X337435Y558684D01*
X337479Y558786D01*
X337519Y558889D01*
X337555Y558993D01*
X337587Y559099D01*
X337616Y559205D01*
X337641Y559313D01*
X337663Y559421D01*
X337680Y559531D01*
X337694Y559640D01*
X337703Y559750D01*
X337709Y559861D01*
X337711Y559971D01*
X336736Y557699D02*
X331219Y551208D01*
X337710Y551208D01*
D12*
X462000Y538200D02*
X462000Y536900D01*
X462000Y504500D02*
X462000Y503200D01*
X427000Y536900D02*
X427000Y538200D01*
X427000Y504500D02*
X427000Y503200D01*
X427000Y538200D02*
X462000Y538200D01*
X462000Y503200D02*
X427000Y503200D01*
D14*
X412000Y529200D02*
X412002Y529263D01*
X412008Y529325D01*
X412018Y529387D01*
X412031Y529449D01*
X412049Y529509D01*
X412070Y529568D01*
X412095Y529626D01*
X412124Y529682D01*
X412156Y529736D01*
X412191Y529788D01*
X412229Y529837D01*
X412271Y529885D01*
X412315Y529929D01*
X412363Y529971D01*
X412412Y530009D01*
X412464Y530044D01*
X412518Y530076D01*
X412574Y530105D01*
X412632Y530130D01*
X412691Y530151D01*
X412751Y530169D01*
X412813Y530182D01*
X412875Y530192D01*
X412937Y530198D01*
X413000Y530200D01*
X413063Y530198D01*
X413125Y530192D01*
X413187Y530182D01*
X413249Y530169D01*
X413309Y530151D01*
X413368Y530130D01*
X413426Y530105D01*
X413482Y530076D01*
X413536Y530044D01*
X413588Y530009D01*
X413637Y529971D01*
X413685Y529929D01*
X413729Y529885D01*
X413771Y529837D01*
X413809Y529788D01*
X413844Y529736D01*
X413876Y529682D01*
X413905Y529626D01*
X413930Y529568D01*
X413951Y529509D01*
X413969Y529449D01*
X413982Y529387D01*
X413992Y529325D01*
X413998Y529263D01*
X414000Y529200D01*
X413998Y529137D01*
X413992Y529075D01*
X413982Y529013D01*
X413969Y528951D01*
X413951Y528891D01*
X413930Y528832D01*
X413905Y528774D01*
X413876Y528718D01*
X413844Y528664D01*
X413809Y528612D01*
X413771Y528563D01*
X413729Y528515D01*
X413685Y528471D01*
X413637Y528429D01*
X413588Y528391D01*
X413536Y528356D01*
X413482Y528324D01*
X413426Y528295D01*
X413368Y528270D01*
X413309Y528249D01*
X413249Y528231D01*
X413187Y528218D01*
X413125Y528208D01*
X413063Y528202D01*
X413000Y528200D01*
X412937Y528202D01*
X412875Y528208D01*
X412813Y528218D01*
X412751Y528231D01*
X412691Y528249D01*
X412632Y528270D01*
X412574Y528295D01*
X412518Y528324D01*
X412464Y528356D01*
X412412Y528391D01*
X412363Y528429D01*
X412315Y528471D01*
X412271Y528515D01*
X412229Y528563D01*
X412191Y528612D01*
X412156Y528664D01*
X412124Y528718D01*
X412095Y528774D01*
X412070Y528832D01*
X412049Y528891D01*
X412031Y528951D01*
X412018Y529013D01*
X412008Y529075D01*
X412002Y529137D01*
X412000Y529200D01*
D15*
X421008Y551208D02*
X421008Y562892D01*
X424254Y562892D01*
X424367Y562890D01*
X424480Y562884D01*
X424593Y562874D01*
X424706Y562860D01*
X424818Y562843D01*
X424929Y562821D01*
X425039Y562796D01*
X425149Y562766D01*
X425257Y562733D01*
X425364Y562696D01*
X425470Y562656D01*
X425574Y562611D01*
X425677Y562563D01*
X425778Y562512D01*
X425877Y562457D01*
X425974Y562399D01*
X426069Y562337D01*
X426162Y562272D01*
X426252Y562204D01*
X426340Y562133D01*
X426426Y562058D01*
X426509Y561981D01*
X426589Y561901D01*
X426666Y561818D01*
X426741Y561732D01*
X426812Y561644D01*
X426880Y561554D01*
X426945Y561461D01*
X427007Y561366D01*
X427065Y561269D01*
X427120Y561170D01*
X427171Y561069D01*
X427219Y560966D01*
X427264Y560862D01*
X427304Y560756D01*
X427341Y560649D01*
X427374Y560541D01*
X427404Y560431D01*
X427429Y560321D01*
X427451Y560210D01*
X427468Y560098D01*
X427482Y559985D01*
X427492Y559872D01*
X427498Y559759D01*
X427500Y559646D01*
X427499Y559646D02*
X427499Y554454D01*
X427500Y554454D02*
X427498Y554341D01*
X427492Y554228D01*
X427482Y554115D01*
X427468Y554002D01*
X427451Y553890D01*
X427429Y553779D01*
X427404Y553669D01*
X427374Y553559D01*
X427341Y553451D01*
X427304Y553344D01*
X427264Y553238D01*
X427219Y553134D01*
X427171Y553031D01*
X427120Y552930D01*
X427065Y552831D01*
X427007Y552734D01*
X426945Y552639D01*
X426880Y552546D01*
X426812Y552456D01*
X426741Y552368D01*
X426666Y552282D01*
X426589Y552199D01*
X426509Y552119D01*
X426426Y552042D01*
X426340Y551967D01*
X426252Y551896D01*
X426162Y551828D01*
X426069Y551763D01*
X425974Y551701D01*
X425877Y551643D01*
X425778Y551588D01*
X425677Y551537D01*
X425574Y551489D01*
X425470Y551444D01*
X425364Y551404D01*
X425257Y551367D01*
X425149Y551334D01*
X425039Y551304D01*
X424929Y551279D01*
X424818Y551257D01*
X424706Y551240D01*
X424593Y551226D01*
X424480Y551216D01*
X424367Y551210D01*
X424254Y551208D01*
X421008Y551208D01*
X432819Y551208D02*
X436065Y551208D01*
X436178Y551210D01*
X436291Y551216D01*
X436404Y551226D01*
X436517Y551240D01*
X436629Y551257D01*
X436740Y551279D01*
X436850Y551304D01*
X436960Y551334D01*
X437068Y551367D01*
X437175Y551404D01*
X437281Y551444D01*
X437385Y551489D01*
X437488Y551537D01*
X437589Y551588D01*
X437688Y551643D01*
X437785Y551701D01*
X437880Y551763D01*
X437973Y551828D01*
X438063Y551896D01*
X438151Y551967D01*
X438237Y552042D01*
X438320Y552119D01*
X438400Y552199D01*
X438477Y552282D01*
X438552Y552368D01*
X438623Y552456D01*
X438691Y552546D01*
X438756Y552639D01*
X438818Y552734D01*
X438876Y552831D01*
X438931Y552930D01*
X438982Y553031D01*
X439030Y553134D01*
X439075Y553238D01*
X439115Y553344D01*
X439152Y553451D01*
X439185Y553559D01*
X439215Y553669D01*
X439240Y553779D01*
X439262Y553890D01*
X439279Y554002D01*
X439293Y554115D01*
X439303Y554228D01*
X439309Y554341D01*
X439311Y554454D01*
X439309Y554567D01*
X439303Y554680D01*
X439293Y554793D01*
X439279Y554906D01*
X439262Y555018D01*
X439240Y555129D01*
X439215Y555239D01*
X439185Y555349D01*
X439152Y555457D01*
X439115Y555564D01*
X439075Y555670D01*
X439030Y555774D01*
X438982Y555877D01*
X438931Y555978D01*
X438876Y556077D01*
X438818Y556174D01*
X438756Y556269D01*
X438691Y556362D01*
X438623Y556452D01*
X438552Y556540D01*
X438477Y556626D01*
X438400Y556709D01*
X438320Y556789D01*
X438237Y556866D01*
X438151Y556941D01*
X438063Y557012D01*
X437973Y557080D01*
X437880Y557145D01*
X437785Y557207D01*
X437688Y557265D01*
X437589Y557320D01*
X437488Y557371D01*
X437385Y557419D01*
X437281Y557464D01*
X437175Y557504D01*
X437068Y557541D01*
X436960Y557574D01*
X436850Y557604D01*
X436740Y557629D01*
X436629Y557651D01*
X436517Y557668D01*
X436404Y557682D01*
X436291Y557692D01*
X436178Y557698D01*
X436065Y557700D01*
X436714Y562892D02*
X432819Y562892D01*
X436714Y562892D02*
X436815Y562890D01*
X436915Y562884D01*
X437015Y562874D01*
X437115Y562861D01*
X437214Y562843D01*
X437313Y562822D01*
X437410Y562797D01*
X437507Y562768D01*
X437602Y562735D01*
X437696Y562699D01*
X437788Y562659D01*
X437879Y562616D01*
X437968Y562569D01*
X438055Y562519D01*
X438141Y562465D01*
X438224Y562408D01*
X438304Y562348D01*
X438383Y562285D01*
X438459Y562218D01*
X438532Y562149D01*
X438602Y562077D01*
X438670Y562003D01*
X438735Y561926D01*
X438796Y561846D01*
X438855Y561764D01*
X438910Y561680D01*
X438962Y561594D01*
X439011Y561506D01*
X439056Y561416D01*
X439098Y561324D01*
X439136Y561231D01*
X439170Y561136D01*
X439201Y561041D01*
X439228Y560944D01*
X439251Y560846D01*
X439271Y560747D01*
X439286Y560647D01*
X439298Y560547D01*
X439306Y560447D01*
X439310Y560346D01*
X439310Y560246D01*
X439306Y560145D01*
X439298Y560045D01*
X439286Y559945D01*
X439271Y559845D01*
X439251Y559746D01*
X439228Y559648D01*
X439201Y559551D01*
X439170Y559456D01*
X439136Y559361D01*
X439098Y559268D01*
X439056Y559176D01*
X439011Y559086D01*
X438962Y558998D01*
X438910Y558912D01*
X438855Y558828D01*
X438796Y558746D01*
X438735Y558666D01*
X438670Y558589D01*
X438602Y558515D01*
X438532Y558443D01*
X438459Y558374D01*
X438383Y558307D01*
X438304Y558244D01*
X438224Y558184D01*
X438141Y558127D01*
X438055Y558073D01*
X437968Y558023D01*
X437879Y557976D01*
X437788Y557933D01*
X437696Y557893D01*
X437602Y557857D01*
X437507Y557824D01*
X437410Y557795D01*
X437313Y557770D01*
X437214Y557749D01*
X437115Y557731D01*
X437015Y557718D01*
X436915Y557708D01*
X436815Y557702D01*
X436714Y557700D01*
X436714Y557699D02*
X434117Y557699D01*
D12*
X563600Y538200D02*
X563600Y536900D01*
X563600Y504500D02*
X563600Y503200D01*
X528600Y536900D02*
X528600Y538200D01*
X528600Y504500D02*
X528600Y503200D01*
X528600Y538200D02*
X563600Y538200D01*
X563600Y503200D02*
X528600Y503200D01*
D14*
X513600Y529200D02*
X513602Y529263D01*
X513608Y529325D01*
X513618Y529387D01*
X513631Y529449D01*
X513649Y529509D01*
X513670Y529568D01*
X513695Y529626D01*
X513724Y529682D01*
X513756Y529736D01*
X513791Y529788D01*
X513829Y529837D01*
X513871Y529885D01*
X513915Y529929D01*
X513963Y529971D01*
X514012Y530009D01*
X514064Y530044D01*
X514118Y530076D01*
X514174Y530105D01*
X514232Y530130D01*
X514291Y530151D01*
X514351Y530169D01*
X514413Y530182D01*
X514475Y530192D01*
X514537Y530198D01*
X514600Y530200D01*
X514663Y530198D01*
X514725Y530192D01*
X514787Y530182D01*
X514849Y530169D01*
X514909Y530151D01*
X514968Y530130D01*
X515026Y530105D01*
X515082Y530076D01*
X515136Y530044D01*
X515188Y530009D01*
X515237Y529971D01*
X515285Y529929D01*
X515329Y529885D01*
X515371Y529837D01*
X515409Y529788D01*
X515444Y529736D01*
X515476Y529682D01*
X515505Y529626D01*
X515530Y529568D01*
X515551Y529509D01*
X515569Y529449D01*
X515582Y529387D01*
X515592Y529325D01*
X515598Y529263D01*
X515600Y529200D01*
X515598Y529137D01*
X515592Y529075D01*
X515582Y529013D01*
X515569Y528951D01*
X515551Y528891D01*
X515530Y528832D01*
X515505Y528774D01*
X515476Y528718D01*
X515444Y528664D01*
X515409Y528612D01*
X515371Y528563D01*
X515329Y528515D01*
X515285Y528471D01*
X515237Y528429D01*
X515188Y528391D01*
X515136Y528356D01*
X515082Y528324D01*
X515026Y528295D01*
X514968Y528270D01*
X514909Y528249D01*
X514849Y528231D01*
X514787Y528218D01*
X514725Y528208D01*
X514663Y528202D01*
X514600Y528200D01*
X514537Y528202D01*
X514475Y528208D01*
X514413Y528218D01*
X514351Y528231D01*
X514291Y528249D01*
X514232Y528270D01*
X514174Y528295D01*
X514118Y528324D01*
X514064Y528356D01*
X514012Y528391D01*
X513963Y528429D01*
X513915Y528471D01*
X513871Y528515D01*
X513829Y528563D01*
X513791Y528612D01*
X513756Y528664D01*
X513724Y528718D01*
X513695Y528774D01*
X513670Y528832D01*
X513649Y528891D01*
X513631Y528951D01*
X513618Y529013D01*
X513608Y529075D01*
X513602Y529137D01*
X513600Y529200D01*
D15*
X522608Y551208D02*
X522608Y562892D01*
X525854Y562892D01*
X525967Y562890D01*
X526080Y562884D01*
X526193Y562874D01*
X526306Y562860D01*
X526418Y562843D01*
X526529Y562821D01*
X526639Y562796D01*
X526749Y562766D01*
X526857Y562733D01*
X526964Y562696D01*
X527070Y562656D01*
X527174Y562611D01*
X527277Y562563D01*
X527378Y562512D01*
X527477Y562457D01*
X527574Y562399D01*
X527669Y562337D01*
X527762Y562272D01*
X527852Y562204D01*
X527940Y562133D01*
X528026Y562058D01*
X528109Y561981D01*
X528189Y561901D01*
X528266Y561818D01*
X528341Y561732D01*
X528412Y561644D01*
X528480Y561554D01*
X528545Y561461D01*
X528607Y561366D01*
X528665Y561269D01*
X528720Y561170D01*
X528771Y561069D01*
X528819Y560966D01*
X528864Y560862D01*
X528904Y560756D01*
X528941Y560649D01*
X528974Y560541D01*
X529004Y560431D01*
X529029Y560321D01*
X529051Y560210D01*
X529068Y560098D01*
X529082Y559985D01*
X529092Y559872D01*
X529098Y559759D01*
X529100Y559646D01*
X529099Y559646D02*
X529099Y554454D01*
X529100Y554454D02*
X529098Y554341D01*
X529092Y554228D01*
X529082Y554115D01*
X529068Y554002D01*
X529051Y553890D01*
X529029Y553779D01*
X529004Y553669D01*
X528974Y553559D01*
X528941Y553451D01*
X528904Y553344D01*
X528864Y553238D01*
X528819Y553134D01*
X528771Y553031D01*
X528720Y552930D01*
X528665Y552831D01*
X528607Y552734D01*
X528545Y552639D01*
X528480Y552546D01*
X528412Y552456D01*
X528341Y552368D01*
X528266Y552282D01*
X528189Y552199D01*
X528109Y552119D01*
X528026Y552042D01*
X527940Y551967D01*
X527852Y551896D01*
X527762Y551828D01*
X527669Y551763D01*
X527574Y551701D01*
X527477Y551643D01*
X527378Y551588D01*
X527277Y551537D01*
X527174Y551489D01*
X527070Y551444D01*
X526964Y551404D01*
X526857Y551367D01*
X526749Y551334D01*
X526639Y551304D01*
X526529Y551279D01*
X526418Y551257D01*
X526306Y551240D01*
X526193Y551226D01*
X526080Y551216D01*
X525967Y551210D01*
X525854Y551208D01*
X522608Y551208D01*
X534419Y553804D02*
X537015Y562892D01*
X534419Y553804D02*
X540910Y553804D01*
X538963Y556401D02*
X538963Y551208D01*
D11*
X300200Y461800D02*
X300200Y448800D01*
X300200Y461800D02*
X360200Y461800D01*
X360200Y448800D01*
X360200Y414800D02*
X360200Y401800D01*
X300200Y401800D01*
X300200Y414800D01*
D16*
X315383Y433832D02*
X315457Y433834D01*
X315531Y433840D01*
X315605Y433849D01*
X315678Y433862D01*
X315751Y433879D01*
X315822Y433899D01*
X315893Y433923D01*
X315962Y433951D01*
X316029Y433982D01*
X316095Y434016D01*
X316160Y434054D01*
X316222Y434095D01*
X316282Y434139D01*
X316339Y434186D01*
X316394Y434236D01*
X316447Y434289D01*
X316497Y434344D01*
X316544Y434401D01*
X316588Y434461D01*
X316629Y434523D01*
X316667Y434588D01*
X316701Y434653D01*
X316732Y434721D01*
X316760Y434790D01*
X316784Y434861D01*
X316804Y434932D01*
X316821Y435004D01*
X316834Y435078D01*
X316843Y435151D01*
X316849Y435226D01*
X316851Y435300D01*
X315383Y433832D02*
X315272Y433834D01*
X315161Y433840D01*
X315050Y433850D01*
X314939Y433864D01*
X314830Y433882D01*
X314721Y433904D01*
X314612Y433929D01*
X314505Y433959D01*
X314399Y433992D01*
X314294Y434030D01*
X314191Y434070D01*
X314089Y434115D01*
X313989Y434163D01*
X313890Y434215D01*
X313794Y434270D01*
X313699Y434329D01*
X313607Y434391D01*
X313517Y434457D01*
X313429Y434525D01*
X313344Y434597D01*
X313262Y434672D01*
X313182Y434749D01*
X313365Y438968D02*
X313367Y439042D01*
X313373Y439117D01*
X313382Y439190D01*
X313395Y439264D01*
X313412Y439336D01*
X313432Y439407D01*
X313456Y439478D01*
X313484Y439547D01*
X313515Y439614D01*
X313549Y439680D01*
X313587Y439745D01*
X313628Y439807D01*
X313672Y439867D01*
X313719Y439924D01*
X313769Y439979D01*
X313822Y440032D01*
X313877Y440082D01*
X313934Y440129D01*
X313994Y440173D01*
X314056Y440214D01*
X314121Y440252D01*
X314187Y440286D01*
X314254Y440317D01*
X314323Y440345D01*
X314394Y440369D01*
X314465Y440389D01*
X314537Y440406D01*
X314611Y440419D01*
X314684Y440428D01*
X314759Y440434D01*
X314833Y440436D01*
X314937Y440434D01*
X315041Y440428D01*
X315145Y440418D01*
X315248Y440405D01*
X315351Y440387D01*
X315453Y440365D01*
X315554Y440340D01*
X315654Y440311D01*
X315753Y440278D01*
X315850Y440241D01*
X315946Y440201D01*
X316041Y440157D01*
X316133Y440109D01*
X316224Y440059D01*
X316313Y440004D01*
X316400Y439947D01*
X316484Y439886D01*
X314099Y437683D02*
X314036Y437722D01*
X313976Y437764D01*
X313918Y437809D01*
X313861Y437857D01*
X313808Y437908D01*
X313757Y437961D01*
X313708Y438016D01*
X313663Y438074D01*
X313620Y438134D01*
X313580Y438196D01*
X313544Y438260D01*
X313510Y438326D01*
X313480Y438394D01*
X313453Y438462D01*
X313430Y438532D01*
X313410Y438603D01*
X313394Y438675D01*
X313381Y438748D01*
X313372Y438821D01*
X313367Y438894D01*
X313365Y438968D01*
X316117Y436585D02*
X316180Y436546D01*
X316240Y436504D01*
X316299Y436459D01*
X316355Y436411D01*
X316408Y436360D01*
X316459Y436307D01*
X316508Y436252D01*
X316553Y436194D01*
X316596Y436134D01*
X316636Y436072D01*
X316672Y436008D01*
X316706Y435942D01*
X316736Y435874D01*
X316763Y435806D01*
X316786Y435736D01*
X316806Y435665D01*
X316822Y435593D01*
X316835Y435520D01*
X316844Y435447D01*
X316849Y435374D01*
X316851Y435300D01*
X316117Y436584D02*
X314099Y437684D01*
X320128Y440436D02*
X321596Y433832D01*
X323063Y438235D01*
X324531Y433832D01*
X325998Y440436D01*
X329519Y438968D02*
X331354Y440436D01*
X331354Y433832D01*
X333188Y433832D02*
X329519Y433832D01*
D11*
X427200Y448800D02*
X427200Y461800D01*
X487200Y461800D01*
X487200Y448800D01*
X487200Y414800D02*
X487200Y401800D01*
X427200Y401800D01*
X427200Y414800D01*
D16*
X442383Y433832D02*
X442457Y433834D01*
X442531Y433840D01*
X442605Y433849D01*
X442678Y433862D01*
X442751Y433879D01*
X442822Y433899D01*
X442893Y433923D01*
X442962Y433951D01*
X443029Y433982D01*
X443095Y434016D01*
X443160Y434054D01*
X443222Y434095D01*
X443282Y434139D01*
X443339Y434186D01*
X443394Y434236D01*
X443447Y434289D01*
X443497Y434344D01*
X443544Y434401D01*
X443588Y434461D01*
X443629Y434523D01*
X443667Y434588D01*
X443701Y434653D01*
X443732Y434721D01*
X443760Y434790D01*
X443784Y434861D01*
X443804Y434932D01*
X443821Y435004D01*
X443834Y435078D01*
X443843Y435151D01*
X443849Y435226D01*
X443851Y435300D01*
X442383Y433832D02*
X442272Y433834D01*
X442161Y433840D01*
X442050Y433850D01*
X441939Y433864D01*
X441830Y433882D01*
X441721Y433904D01*
X441612Y433929D01*
X441505Y433959D01*
X441399Y433992D01*
X441294Y434030D01*
X441191Y434070D01*
X441089Y434115D01*
X440989Y434163D01*
X440890Y434215D01*
X440794Y434270D01*
X440699Y434329D01*
X440607Y434391D01*
X440517Y434457D01*
X440429Y434525D01*
X440344Y434597D01*
X440262Y434672D01*
X440182Y434749D01*
X440365Y438968D02*
X440367Y439042D01*
X440373Y439117D01*
X440382Y439190D01*
X440395Y439264D01*
X440412Y439336D01*
X440432Y439407D01*
X440456Y439478D01*
X440484Y439547D01*
X440515Y439614D01*
X440549Y439680D01*
X440587Y439745D01*
X440628Y439807D01*
X440672Y439867D01*
X440719Y439924D01*
X440769Y439979D01*
X440822Y440032D01*
X440877Y440082D01*
X440934Y440129D01*
X440994Y440173D01*
X441056Y440214D01*
X441121Y440252D01*
X441187Y440286D01*
X441254Y440317D01*
X441323Y440345D01*
X441394Y440369D01*
X441465Y440389D01*
X441537Y440406D01*
X441611Y440419D01*
X441684Y440428D01*
X441759Y440434D01*
X441833Y440436D01*
X441937Y440434D01*
X442041Y440428D01*
X442145Y440418D01*
X442248Y440405D01*
X442351Y440387D01*
X442453Y440365D01*
X442554Y440340D01*
X442654Y440311D01*
X442753Y440278D01*
X442850Y440241D01*
X442946Y440201D01*
X443041Y440157D01*
X443133Y440109D01*
X443224Y440059D01*
X443313Y440004D01*
X443400Y439947D01*
X443484Y439886D01*
X441099Y437683D02*
X441036Y437722D01*
X440976Y437764D01*
X440918Y437809D01*
X440861Y437857D01*
X440808Y437908D01*
X440757Y437961D01*
X440708Y438016D01*
X440663Y438074D01*
X440620Y438134D01*
X440580Y438196D01*
X440544Y438260D01*
X440510Y438326D01*
X440480Y438394D01*
X440453Y438462D01*
X440430Y438532D01*
X440410Y438603D01*
X440394Y438675D01*
X440381Y438748D01*
X440372Y438821D01*
X440367Y438894D01*
X440365Y438968D01*
X443117Y436585D02*
X443180Y436546D01*
X443240Y436504D01*
X443299Y436459D01*
X443355Y436411D01*
X443408Y436360D01*
X443459Y436307D01*
X443508Y436252D01*
X443553Y436194D01*
X443596Y436134D01*
X443636Y436072D01*
X443672Y436008D01*
X443706Y435942D01*
X443736Y435874D01*
X443763Y435806D01*
X443786Y435736D01*
X443806Y435665D01*
X443822Y435593D01*
X443835Y435520D01*
X443844Y435447D01*
X443849Y435374D01*
X443851Y435300D01*
X443117Y436584D02*
X441099Y437684D01*
X447128Y440436D02*
X448596Y433832D01*
X450063Y438235D01*
X451531Y433832D01*
X452998Y440436D01*
X458537Y440436D02*
X458616Y440434D01*
X458694Y440429D01*
X458772Y440419D01*
X458849Y440406D01*
X458926Y440389D01*
X459002Y440369D01*
X459077Y440345D01*
X459151Y440318D01*
X459223Y440287D01*
X459294Y440252D01*
X459363Y440215D01*
X459430Y440174D01*
X459495Y440130D01*
X459558Y440083D01*
X459618Y440033D01*
X459676Y439980D01*
X459732Y439924D01*
X459785Y439866D01*
X459835Y439806D01*
X459882Y439743D01*
X459926Y439678D01*
X459967Y439611D01*
X460004Y439542D01*
X460039Y439471D01*
X460070Y439399D01*
X460097Y439325D01*
X460121Y439250D01*
X460141Y439174D01*
X460158Y439097D01*
X460171Y439020D01*
X460181Y438942D01*
X460186Y438864D01*
X460188Y438785D01*
X458537Y440436D02*
X458448Y440434D01*
X458359Y440429D01*
X458271Y440419D01*
X458183Y440406D01*
X458096Y440390D01*
X458009Y440369D01*
X457924Y440345D01*
X457839Y440318D01*
X457756Y440287D01*
X457674Y440252D01*
X457593Y440214D01*
X457514Y440173D01*
X457438Y440129D01*
X457362Y440081D01*
X457289Y440030D01*
X457219Y439977D01*
X457150Y439920D01*
X457084Y439860D01*
X457021Y439798D01*
X456960Y439733D01*
X456902Y439666D01*
X456847Y439596D01*
X456794Y439524D01*
X456745Y439450D01*
X456699Y439374D01*
X456657Y439296D01*
X456617Y439216D01*
X456581Y439135D01*
X456548Y439052D01*
X456519Y438968D01*
X459638Y437501D02*
X459694Y437557D01*
X459748Y437616D01*
X459799Y437677D01*
X459848Y437741D01*
X459893Y437806D01*
X459936Y437874D01*
X459975Y437943D01*
X460012Y438014D01*
X460045Y438087D01*
X460074Y438161D01*
X460101Y438236D01*
X460124Y438312D01*
X460143Y438390D01*
X460159Y438468D01*
X460172Y438546D01*
X460181Y438626D01*
X460186Y438705D01*
X460188Y438785D01*
X459638Y437501D02*
X456519Y433832D01*
X460188Y433832D01*
M02*
