G04 #@! TF.GenerationSoftware,KiCad,Pcbnew,6.0.11+dfsg-1*
G04 #@! TF.CreationDate,2024-04-16T10:26:27+10:00*
G04 #@! TF.ProjectId,IR_Sensor_array,49525f53-656e-4736-9f72-5f6172726179,rev?*
G04 #@! TF.SameCoordinates,Original*
G04 #@! TF.FileFunction,Copper,L1,Top*
G04 #@! TF.FilePolarity,Positive*
%FSLAX46Y46*%
G04 Gerber Fmt 4.6, Leading zero omitted, Abs format (unit mm)*
G04 Created by KiCad (PCBNEW 6.0.11+dfsg-1) date 2024-04-16 10:26:27*
%MOMM*%
%LPD*%
G01*
G04 APERTURE LIST*
G04 #@! TA.AperFunction,SMDPad,CuDef*
%ADD10R,1.205598X2.499995*%
G04 #@! TD*
G04 #@! TA.AperFunction,SMDPad,CuDef*
%ADD11R,0.690000X1.570000*%
G04 #@! TD*
G04 #@! TA.AperFunction,SMDPad,CuDef*
%ADD12R,0.655599X0.499999*%
G04 #@! TD*
G04 #@! TA.AperFunction,SMDPad,CuDef*
%ADD13R,3.800000X2.000000*%
G04 #@! TD*
G04 #@! TA.AperFunction,SMDPad,CuDef*
%ADD14R,0.800000X1.200000*%
G04 #@! TD*
G04 #@! TA.AperFunction,SMDPad,CuDef*
%ADD15R,1.300000X2.150000*%
G04 #@! TD*
G04 #@! TA.AperFunction,ViaPad*
%ADD16C,0.800000*%
G04 #@! TD*
G04 #@! TA.AperFunction,Conductor*
%ADD17C,0.250000*%
G04 #@! TD*
G04 APERTURE END LIST*
D10*
X180252796Y-96560000D03*
X175747204Y-96560000D03*
D11*
X167167992Y-88025000D03*
X167167992Y-91975000D03*
X168967992Y-91975000D03*
X168967992Y-88025000D03*
D12*
X125799806Y-96056000D03*
X126905404Y-96056000D03*
D10*
X157252796Y-97000000D03*
X152747204Y-97000000D03*
D13*
X196500000Y-97400000D03*
D10*
X122252796Y-96243002D03*
X117747204Y-96243002D03*
D11*
X156793996Y-88025000D03*
X156793996Y-91975000D03*
X158593996Y-91975000D03*
X158593996Y-88025000D03*
D14*
X144000000Y-103000000D03*
X145250000Y-103000000D03*
X146500000Y-103000000D03*
X147750000Y-103000000D03*
X149000000Y-103000000D03*
X150250000Y-103000000D03*
X151500000Y-103000000D03*
X152750000Y-103000000D03*
X154000000Y-103000000D03*
X155250000Y-103000000D03*
X156500000Y-103000000D03*
D15*
X142099999Y-105294999D03*
X158400002Y-105294999D03*
D13*
X103800000Y-97800000D03*
D12*
X136447201Y-96056000D03*
X137552799Y-96056000D03*
D13*
X103700000Y-94400000D03*
D10*
X144252796Y-96243002D03*
X139747204Y-96243002D03*
D13*
X103700000Y-90600000D03*
X196400000Y-90200000D03*
D12*
X159447201Y-97064000D03*
X160552799Y-97064000D03*
X146447201Y-96560000D03*
X147552799Y-96560000D03*
D10*
X169252796Y-96560000D03*
X164747204Y-96560000D03*
D11*
X131100000Y-88025000D03*
X131100000Y-91975000D03*
X132900000Y-91975000D03*
X132900000Y-88025000D03*
D12*
X182447201Y-98000000D03*
X183552799Y-98000000D03*
D13*
X196400000Y-93800000D03*
D10*
X134252796Y-96183002D03*
X129747204Y-96183002D03*
D11*
X121100000Y-88025000D03*
X121100000Y-91975000D03*
X122900000Y-91975000D03*
X122900000Y-88025000D03*
X177313996Y-87965000D03*
X177313996Y-91915000D03*
X179113996Y-91915000D03*
X179113996Y-87965000D03*
X142100000Y-88025000D03*
X142100000Y-91975000D03*
X143900000Y-91975000D03*
X143900000Y-88025000D03*
D12*
X171894402Y-96560000D03*
X173000000Y-96560000D03*
D16*
X136400000Y-97200000D03*
X192700000Y-93700000D03*
X182400000Y-96500000D03*
X107200000Y-94300000D03*
X157900000Y-100800000D03*
X159400000Y-95700000D03*
X125800000Y-97300000D03*
X171900000Y-95000000D03*
X146500000Y-97700000D03*
X156000000Y-100800000D03*
X154200000Y-88000000D03*
X144800000Y-100700000D03*
X192600000Y-97600000D03*
D17*
X145250000Y-102600000D02*
X145250000Y-103000000D01*
X103800000Y-97800000D02*
X105450000Y-99450000D01*
X142100000Y-99450000D02*
X145250000Y-102600000D01*
X105450000Y-99450000D02*
X142100000Y-99450000D01*
X192700000Y-93700000D02*
X192800000Y-93800000D01*
X156500000Y-103000000D02*
X156500000Y-102200000D01*
X134379798Y-96056000D02*
X134252796Y-96183002D01*
X144569794Y-96560000D02*
X144252796Y-96243002D01*
X156500000Y-102200000D02*
X157900000Y-100800000D01*
X181692796Y-98000000D02*
X180252796Y-96560000D01*
X159400000Y-97016799D02*
X159447201Y-97064000D01*
X171900000Y-96554402D02*
X171894402Y-96560000D01*
X159447201Y-97064000D02*
X157316796Y-97064000D01*
X192800000Y-93800000D02*
X196400000Y-93800000D01*
X136447201Y-96056000D02*
X136447201Y-97152799D01*
X125799806Y-96056000D02*
X122439798Y-96056000D01*
X107200000Y-94300000D02*
X107100000Y-94400000D01*
X182400000Y-97952799D02*
X182447201Y-98000000D01*
X146447201Y-96560000D02*
X144569794Y-96560000D01*
X107100000Y-94400000D02*
X103700000Y-94400000D01*
X136447201Y-97152799D02*
X136400000Y-97200000D01*
X159400000Y-95700000D02*
X159400000Y-97016799D01*
X182400000Y-96500000D02*
X182400000Y-97952799D01*
X125799806Y-97299806D02*
X125800000Y-97300000D01*
X146447201Y-96560000D02*
X146447201Y-97647201D01*
X146447201Y-97647201D02*
X146500000Y-97700000D01*
X182447201Y-98000000D02*
X181692796Y-98000000D01*
X171894402Y-96560000D02*
X169252796Y-96560000D01*
X136447201Y-96056000D02*
X134379798Y-96056000D01*
X122439798Y-96056000D02*
X122252796Y-96243002D01*
X125799806Y-96056000D02*
X125799806Y-97299806D01*
X157316796Y-97064000D02*
X157252796Y-97000000D01*
X171900000Y-95000000D02*
X171900000Y-96554402D01*
X143900000Y-93100000D02*
X143900000Y-91975000D01*
X150250000Y-101250000D02*
X150250000Y-103000000D01*
X147552799Y-98552799D02*
X150250000Y-101250000D01*
X147552799Y-96560000D02*
X147552799Y-96052799D01*
X145200000Y-93700000D02*
X144500000Y-93700000D01*
X147552799Y-96560000D02*
X147552799Y-98552799D01*
X144500000Y-93700000D02*
X143900000Y-93100000D01*
X147552799Y-96052799D02*
X145200000Y-93700000D01*
X147750000Y-103000000D02*
X147750000Y-102150000D01*
X127000000Y-98000000D02*
X127000000Y-96000000D01*
X126905404Y-96056000D02*
X126905404Y-95105404D01*
X126905404Y-95105404D02*
X125400000Y-93600000D01*
X147750000Y-102150000D02*
X144600000Y-99000000D01*
X125400000Y-93600000D02*
X123300000Y-93600000D01*
X128000000Y-99000000D02*
X127000000Y-98000000D01*
X144600000Y-99000000D02*
X128000000Y-99000000D01*
X123300000Y-93600000D02*
X122900000Y-93200000D01*
X122900000Y-93200000D02*
X122900000Y-91975000D01*
X171100000Y-98500000D02*
X173000000Y-96600000D01*
X168967992Y-92767992D02*
X168967992Y-91975000D01*
X152750000Y-103000000D02*
X152750000Y-100250000D01*
X152750000Y-100250000D02*
X153550000Y-99450000D01*
X160300000Y-98500000D02*
X171100000Y-98500000D01*
X173000000Y-96600000D02*
X173000000Y-96560000D01*
X172100000Y-93500000D02*
X169700000Y-93500000D01*
X173000000Y-94400000D02*
X172100000Y-93500000D01*
X169700000Y-93500000D02*
X168967992Y-92767992D01*
X153550000Y-99450000D02*
X159350000Y-99450000D01*
X159350000Y-99450000D02*
X160300000Y-98500000D01*
X173000000Y-96560000D02*
X173000000Y-94400000D01*
X117747204Y-96243002D02*
X117747204Y-95327796D01*
X117747204Y-95327796D02*
X121100000Y-91975000D01*
X129747204Y-96183002D02*
X129747204Y-93327796D01*
X129747204Y-93327796D02*
X131100000Y-91975000D01*
X139747204Y-94327796D02*
X142100000Y-91975000D01*
X139747204Y-96243002D02*
X139747204Y-94327796D01*
X151500000Y-100500000D02*
X153000000Y-99000000D01*
X160552799Y-97064000D02*
X160552799Y-95152799D01*
X158616799Y-99000000D02*
X160552799Y-97064000D01*
X160552799Y-95152799D02*
X158593996Y-93193996D01*
X158593996Y-93193996D02*
X158593996Y-91975000D01*
X151500000Y-103000000D02*
X151500000Y-100500000D01*
X153000000Y-99000000D02*
X158616799Y-99000000D01*
X149000000Y-103000000D02*
X149000000Y-102150000D01*
X139000000Y-98550000D02*
X137552799Y-97102799D01*
X133200000Y-93600000D02*
X132900000Y-93300000D01*
X145400000Y-98550000D02*
X139000000Y-98550000D01*
X132900000Y-93300000D02*
X132900000Y-91975000D01*
X149000000Y-102150000D02*
X145400000Y-98550000D01*
X137552799Y-97102799D02*
X137552799Y-96056000D01*
X137552799Y-96056000D02*
X135096799Y-93600000D01*
X135096799Y-93600000D02*
X133200000Y-93600000D01*
X161300000Y-99000000D02*
X182600000Y-99000000D01*
X182600000Y-99000000D02*
X183552799Y-98047201D01*
X154000000Y-101400000D02*
X155400000Y-100000000D01*
X181800000Y-93700000D02*
X179600000Y-93700000D01*
X160300000Y-100000000D02*
X161300000Y-99000000D01*
X154000000Y-103000000D02*
X154000000Y-101400000D01*
X179113996Y-93213996D02*
X179113996Y-91915000D01*
X183552799Y-98047201D02*
X183552799Y-98000000D01*
X155400000Y-100000000D02*
X160300000Y-100000000D01*
X183552799Y-98000000D02*
X183552799Y-95452799D01*
X183552799Y-95452799D02*
X181800000Y-93700000D01*
X179600000Y-93700000D02*
X179113996Y-93213996D01*
X152747204Y-96021792D02*
X156793996Y-91975000D01*
X152747204Y-97000000D02*
X152747204Y-96021792D01*
X164747204Y-94395788D02*
X167167992Y-91975000D01*
X164747204Y-96560000D02*
X164747204Y-94395788D01*
X175747204Y-93481792D02*
X177313996Y-91915000D01*
X175747204Y-96560000D02*
X175747204Y-93481792D01*
X154225000Y-88025000D02*
X156793996Y-88025000D01*
X122900000Y-88025000D02*
X131100000Y-88025000D01*
X106275000Y-88025000D02*
X103700000Y-90600000D01*
X168967992Y-88025000D02*
X177253996Y-88025000D01*
X121100000Y-88025000D02*
X106275000Y-88025000D01*
X156793996Y-88025000D02*
X158593996Y-88025000D01*
X154175000Y-88025000D02*
X154200000Y-88000000D01*
X143900000Y-88025000D02*
X154175000Y-88025000D01*
X131100000Y-88025000D02*
X132900000Y-88025000D01*
X155250000Y-103000000D02*
X155250000Y-101550000D01*
X158593996Y-88025000D02*
X167167992Y-88025000D01*
X154200000Y-88000000D02*
X154225000Y-88025000D01*
X167167992Y-88025000D02*
X168967992Y-88025000D01*
X177253996Y-88025000D02*
X177313996Y-87965000D01*
X194165000Y-87965000D02*
X196400000Y-90200000D01*
X155250000Y-101550000D02*
X156000000Y-100800000D01*
X132900000Y-88025000D02*
X142100000Y-88025000D01*
X179113996Y-87965000D02*
X194165000Y-87965000D01*
X142100000Y-88025000D02*
X143900000Y-88025000D01*
X121100000Y-88025000D02*
X122900000Y-88025000D01*
X177313996Y-87965000D02*
X179113996Y-87965000D01*
X146500000Y-102400000D02*
X146500000Y-103000000D01*
X144800000Y-100700000D02*
X146500000Y-102400000D01*
X192800000Y-97400000D02*
X196500000Y-97400000D01*
X192600000Y-97600000D02*
X192800000Y-97400000D01*
M02*
