G04 #@! TF.GenerationSoftware,KiCad,Pcbnew,6.0.11+dfsg-1*
G04 #@! TF.CreationDate,2024-04-16T10:26:28+10:00*
G04 #@! TF.ProjectId,IR_Sensor_array,49525f53-656e-4736-9f72-5f6172726179,rev?*
G04 #@! TF.SameCoordinates,Original*
G04 #@! TF.FileFunction,Paste,Top*
G04 #@! TF.FilePolarity,Positive*
%FSLAX46Y46*%
G04 Gerber Fmt 4.6, Leading zero omitted, Abs format (unit mm)*
G04 Created by KiCad (PCBNEW 6.0.11+dfsg-1) date 2024-04-16 10:26:28*
%MOMM*%
%LPD*%
G01*
G04 APERTURE LIST*
%ADD10R,1.205598X2.499995*%
%ADD11R,0.690000X1.570000*%
%ADD12R,0.655599X0.499999*%
%ADD13R,3.800000X2.000000*%
%ADD14R,0.800000X1.200000*%
%ADD15R,1.300000X2.150000*%
G04 APERTURE END LIST*
D10*
X180252796Y-96560000D03*
X175747204Y-96560000D03*
D11*
X167167992Y-88025000D03*
X167167992Y-91975000D03*
X168967992Y-91975000D03*
X168967992Y-88025000D03*
D12*
X125799806Y-96056000D03*
X126905404Y-96056000D03*
D10*
X157252796Y-97000000D03*
X152747204Y-97000000D03*
D13*
X196500000Y-97400000D03*
D10*
X122252796Y-96243002D03*
X117747204Y-96243002D03*
D11*
X156793996Y-88025000D03*
X156793996Y-91975000D03*
X158593996Y-91975000D03*
X158593996Y-88025000D03*
D14*
X144000000Y-103000000D03*
X145250000Y-103000000D03*
X146500000Y-103000000D03*
X147750000Y-103000000D03*
X149000000Y-103000000D03*
X150250000Y-103000000D03*
X151500000Y-103000000D03*
X152750000Y-103000000D03*
X154000000Y-103000000D03*
X155250000Y-103000000D03*
X156500000Y-103000000D03*
D15*
X142099999Y-105294999D03*
X158400002Y-105294999D03*
D13*
X103800000Y-97800000D03*
D12*
X136447201Y-96056000D03*
X137552799Y-96056000D03*
D13*
X103700000Y-94400000D03*
D10*
X144252796Y-96243002D03*
X139747204Y-96243002D03*
D13*
X103700000Y-90600000D03*
X196400000Y-90200000D03*
D12*
X159447201Y-97064000D03*
X160552799Y-97064000D03*
X146447201Y-96560000D03*
X147552799Y-96560000D03*
D10*
X169252796Y-96560000D03*
X164747204Y-96560000D03*
D11*
X131100000Y-88025000D03*
X131100000Y-91975000D03*
X132900000Y-91975000D03*
X132900000Y-88025000D03*
D12*
X182447201Y-98000000D03*
X183552799Y-98000000D03*
D13*
X196400000Y-93800000D03*
D10*
X134252796Y-96183002D03*
X129747204Y-96183002D03*
D11*
X121100000Y-88025000D03*
X121100000Y-91975000D03*
X122900000Y-91975000D03*
X122900000Y-88025000D03*
X177313996Y-87965000D03*
X177313996Y-91915000D03*
X179113996Y-91915000D03*
X179113996Y-87965000D03*
X142100000Y-88025000D03*
X142100000Y-91975000D03*
X143900000Y-91975000D03*
X143900000Y-88025000D03*
D12*
X171894402Y-96560000D03*
X173000000Y-96560000D03*
M02*
