G04 --- HEADER BEGIN --- *
G04 #@! TF.GenerationSoftware,LibrePCB,LibrePCB,1.1.0*
G04 #@! TF.CreationDate,2024-04-23T21:01:02*
G04 #@! TF.ProjectId,motherboard (Version 1),d5d7f40e-06e5-483f-b774-8957b2c1e08f,version_2*
G04 #@! TF.Part,Single*
G04 #@! TF.SameCoordinates*
G04 #@! TF.FileFunction,Copper,L1,Top*
G04 #@! TF.FilePolarity,Positive*
%FSLAX66Y66*%
%MOMM*%
G01*
G75*
G04 --- HEADER END --- *
G04 --- APERTURE LIST BEGIN --- *
G04 #@! TA.AperFunction,ComponentPad*
%ADD10C,1.8796*%
G04 #@! TA.AperFunction,SMDPad,CuDef*
%ADD11R,1.47X1.27*%
%ADD12R,1.8X2.7*%
%ADD13R,3.2X1.5*%
%ADD14R,2.15X1.3*%
%ADD15R,1.2X0.8*%
%ADD16R,0.8X1.2*%
%ADD17R,1.3X2.15*%
G04 #@! TA.AperFunction,ComponentPad*
%ADD18C,1.508*%
%ADD19C,2.625*%
G04 #@! TA.AperFunction,SMDPad,CuDef*
%ADD20R,2.1X1.4*%
%ADD21R,2.7X1.8*%
G04 #@! TA.AperFunction,ViaPad*
%ADD22C,0.7564*%
%ADD23C,0.9064*%
G04 #@! TA.AperFunction,Conductor*
%ADD24C,0.2*%
%ADD25C,0.1524*%
%ADD26C,0.01*%
G04 #@! TD*
G04 --- APERTURE LIST END --- *
G04 --- BOARD BEGIN --- *
D10*
G04 #@! TO.N,PB1*
G04 #@! TO.C,J6*
G04 #@! TO.P,J6,11,11*
X13700000Y55500000D03*
G04 #@! TO.N,PB0*
G04 #@! TO.P,J6,12,12*
X13700000Y58040000D03*
G04 #@! TO.N,VCC*
G04 #@! TO.P,J6,14,14*
X13700000Y63120000D03*
G04 #@! TO.N,PB2*
G04 #@! TO.P,J6,10,10*
X13700000Y52960000D03*
G04 #@! TO.N,PB6*
G04 #@! TO.P,J6,2,2*
X13700000Y32640000D03*
G04 #@! TO.N,PD0*
G04 #@! TO.P,J6,3,3*
X13700000Y35180000D03*
G04 #@! TO.N,PD3*
G04 #@! TO.P,J6,5,5*
X13700000Y40260000D03*
G04 #@! TO.N,PD1*
G04 #@! TO.P,J6,7,7*
X13700000Y45340000D03*
G04 #@! TO.N,PB5*
G04 #@! TO.P,J6,1,1*
X13700000Y30100000D03*
G04 #@! TO.N,PB3*
G04 #@! TO.P,J6,9,9*
X13700000Y50420000D03*
G04 #@! TO.N,PE6*
G04 #@! TO.P,J6,13,13*
X13700000Y60580000D03*
G04 #@! TO.N,PB7*
G04 #@! TO.P,J6,4,4*
X13700000Y37720000D03*
G04 #@! TO.N,RST*
G04 #@! TO.P,J6,8,8*
X13700000Y47880000D03*
G04 #@! TO.N,PD2*
G04 #@! TO.P,J6,6,6*
X13700000Y42800000D03*
D11*
G04 #@! TO.N,MB2*
G04 #@! TO.C,D7*
G04 #@! TO.P,D7,C,C*
X25640000Y59860000D03*
G04 #@! TO.N,GND*
G04 #@! TO.P,D7,A,A*
X25640000Y64160000D03*
G04 #@! TO.N,BAT*
G04 #@! TO.C,D2*
G04 #@! TO.P,D2,C,C*
X21620000Y50190000D03*
G04 #@! TO.N,MA2*
G04 #@! TO.P,D2,A,A*
X21620000Y54490000D03*
D12*
G04 #@! TO.N,GND*
G04 #@! TO.C,R3*
G04 #@! TO.P,R3,2,2*
X25550000Y32750000D03*
G04 #@! TO.N,PD4*
G04 #@! TO.P,R3,1,1*
X29950000Y32750000D03*
D13*
G04 #@! TO.N,N$5*
G04 #@! TO.C,F1*
G04 #@! TO.P,F1,1,1*
X16040000Y18860000D03*
G04 #@! TO.N,BAT*
G04 #@! TO.P,F1,2,2*
X16040000Y23060000D03*
D10*
G04 #@! TO.N,PD7*
G04 #@! TO.C,J7*
G04 #@! TO.P,J7,11,11*
X34000000Y37800000D03*
G04 #@! TO.N,PD6*
G04 #@! TO.P,J7,12,12*
X34000000Y35260000D03*
G04 #@! TO.N,GND*
G04 #@! TO.P,J7,14,14*
X34000000Y30180000D03*
G04 #@! TO.N,PB4*
G04 #@! TO.P,J7,10,10*
X34000000Y40340000D03*
G04 #@! TO.N,PF0*
G04 #@! TO.P,J7,2,2*
X34000000Y60660000D03*
G04 #@! TO.N,PF1*
G04 #@! TO.P,J7,3,3*
X34000000Y58120000D03*
G04 #@! TO.N,PF5*
G04 #@! TO.P,J7,5,5*
X34000000Y53040000D03*
G04 #@! TO.N,PF7*
G04 #@! TO.P,J7,7,7*
X34000000Y47960000D03*
G04 #@! TO.N,GND*
G04 #@! TO.P,J7,1,1*
X34000000Y63200000D03*
G04 #@! TO.N,PC6*
G04 #@! TO.P,J7,9,9*
X34000000Y42880000D03*
G04 #@! TO.N,PD4*
G04 #@! TO.P,J7,13,13*
X34000000Y32720000D03*
G04 #@! TO.N,PF4*
G04 #@! TO.P,J7,4,4*
X34000000Y55580000D03*
G04 #@! TO.N,PC7*
G04 #@! TO.P,J7,8,8*
X34000000Y45420000D03*
G04 #@! TO.N,PF6*
G04 #@! TO.P,J7,6,6*
X34000000Y50500000D03*
D11*
G04 #@! TO.N,MA1*
G04 #@! TO.C,D4*
G04 #@! TO.P,D4,C,C*
X17940000Y59810000D03*
G04 #@! TO.N,GND*
G04 #@! TO.P,D4,A,A*
X17940000Y64110000D03*
D14*
G04 #@! TO.C,J1*
G04 #@! TO.P,J1,S1,SHIELD1*
X41065000Y74210000D03*
D15*
G04 #@! TO.N,MB2*
G04 #@! TO.P,J1,5,5*
X38770000Y72310000D03*
G04 #@! TO.N,PD1*
G04 #@! TO.P,J1,2,2*
X38770000Y68560000D03*
G04 #@! TO.N,MB1*
G04 #@! TO.P,J1,1,1*
X38770000Y67310000D03*
G04 #@! TO.N,VCC*
G04 #@! TO.P,J1,4,4*
X38770000Y71060000D03*
D14*
G04 #@! TO.N,GND*
G04 #@! TO.P,J1,S2,SHIELD2*
X41065000Y65410000D03*
D15*
G04 #@! TO.P,J1,3,3*
X38770000Y69810000D03*
D16*
G04 #@! TO.N,PB4*
G04 #@! TO.C,J3*
G04 #@! TO.P,J3,9,9*
X18990000Y71380000D03*
D17*
G04 #@! TO.N,GND*
G04 #@! TO.P,J3,S1,SHIELD1*
X14590000Y73675000D03*
D16*
G04 #@! TO.N,PF7*
G04 #@! TO.P,J3,8,8*
X20240000Y71380000D03*
G04 #@! TO.N,PD7*
G04 #@! TO.P,J3,10,10*
X17740000Y71380000D03*
D17*
G04 #@! TO.N,GND*
G04 #@! TO.P,J3,S2,SHIELD2*
X30890000Y73675000D03*
D16*
G04 #@! TO.N,VCC*
G04 #@! TO.P,J3,1,1*
X28990000Y71380000D03*
G04 #@! TO.N,GND*
G04 #@! TO.P,J3,2,2*
X27740000Y71380000D03*
G04 #@! TO.N,PF6*
G04 #@! TO.P,J3,7,7*
X21490000Y71380000D03*
G04 #@! TO.N,PF5*
G04 #@! TO.P,J3,6,6*
X22740000Y71380000D03*
G04 #@! TO.N,PF4*
G04 #@! TO.P,J3,5,5*
X23990000Y71380000D03*
G04 #@! TO.N,PD6*
G04 #@! TO.P,J3,11,11*
X16490000Y71380000D03*
G04 #@! TO.N,PF1*
G04 #@! TO.P,J3,4,4*
X25240000Y71380000D03*
G04 #@! TO.N,PF0*
G04 #@! TO.P,J3,3,3*
X26490000Y71380000D03*
D14*
G04 #@! TO.N,GND*
G04 #@! TO.C,J2*
G04 #@! TO.P,J2,S1,SHIELD1*
X5335000Y65290000D03*
D15*
G04 #@! TO.N,MA2*
G04 #@! TO.P,J2,5,5*
X7630000Y67190000D03*
G04 #@! TO.N,PD2*
G04 #@! TO.P,J2,2,2*
X7630000Y70940000D03*
G04 #@! TO.N,MA1*
G04 #@! TO.P,J2,1,1*
X7630000Y72190000D03*
G04 #@! TO.N,VCC*
G04 #@! TO.P,J2,4,4*
X7630000Y68440000D03*
D14*
G04 #@! TO.N,GND*
G04 #@! TO.P,J2,S2,SHIELD2*
X5335000Y74090000D03*
D15*
G04 #@! TO.P,J2,3,3*
X7630000Y69690000D03*
D11*
G04 #@! TO.N,MA2*
G04 #@! TO.C,D3*
G04 #@! TO.P,D3,C,C*
X21640000Y59860000D03*
G04 #@! TO.N,GND*
G04 #@! TO.P,D3,A,A*
X21640000Y64160000D03*
D10*
G04 #@! TO.N,MA1*
G04 #@! TO.C,J8*
G04 #@! TO.P,J8,5,5*
X23840000Y27600000D03*
G04 #@! TO.N,GND*
G04 #@! TO.P,J8,2,2*
X31460000Y27600000D03*
G04 #@! TO.N,BAT*
G04 #@! TO.P,J8,3,3*
X28920000Y27600000D03*
G04 #@! TO.N,MA2*
G04 #@! TO.P,J8,6,6*
X21300000Y27600000D03*
G04 #@! TO.N,GND*
G04 #@! TO.P,J8,1,1*
X34000000Y27600000D03*
G04 #@! TO.N,VCC*
G04 #@! TO.P,J8,4,4*
X26380000Y27600000D03*
G04 #@! TO.N,MB1*
G04 #@! TO.P,J8,7,7*
X18760000Y27600000D03*
G04 #@! TO.N,MB2*
G04 #@! TO.P,J8,8,8*
X16220000Y27600000D03*
G04 #@! TO.N,GND*
G04 #@! TO.P,J8,9,9*
X13680000Y27600000D03*
D11*
G04 #@! TO.N,BAT*
G04 #@! TO.C,D9*
G04 #@! TO.P,D9,C,C*
X29440000Y50160000D03*
G04 #@! TO.N,MB1*
G04 #@! TO.P,D9,A,A*
X29440000Y54460000D03*
D14*
G04 #@! TO.N,GND*
G04 #@! TO.C,J5*
G04 #@! TO.P,J5,S1,SHIELD1*
X37945000Y18450000D03*
D15*
G04 #@! TO.P,J5,5,5*
X35650000Y16550000D03*
G04 #@! TO.N,N$8*
G04 #@! TO.P,J5,2,2*
X35650000Y12800000D03*
G04 #@! TO.N,VCC*
G04 #@! TO.P,J5,1,1*
X35650000Y11550000D03*
G04 #@! TO.N,RST*
G04 #@! TO.P,J5,4,4*
X35650000Y15300000D03*
D14*
G04 #@! TO.N,GND*
G04 #@! TO.P,J5,S2,SHIELD2*
X37945000Y9650000D03*
D15*
G04 #@! TO.N,PB3*
G04 #@! TO.P,J5,3,3*
X35650000Y14050000D03*
D18*
G04 #@! TO.N,N/C*
G04 #@! TO.C,J4*
G04 #@! TO.P,J4,3*
X29900000Y8060000D03*
G04 #@! TO.P,J4,4*
X18900000Y8060000D03*
D19*
G04 #@! TO.N,GND*
G04 #@! TO.P,J4,-,-*
X21900000Y18060000D03*
G04 #@! TO.N,N$1*
G04 #@! TO.P,J4,+,+*
X26900000Y18060000D03*
D11*
G04 #@! TO.N,MB1*
G04 #@! TO.C,D8*
G04 #@! TO.P,D8,C,C*
X29440000Y59910000D03*
G04 #@! TO.N,GND*
G04 #@! TO.P,D8,A,A*
X29440000Y64210000D03*
D10*
G04 #@! TO.N,N$1*
G04 #@! TO.C,S1*
G04 #@! TO.P,S1,2,P*
X14680000Y11350000D03*
G04 #@! TO.N,N/C*
G04 #@! TO.P,S1,3,S*
X14680000Y13890000D03*
G04 #@! TO.N,N$4*
G04 #@! TO.P,S1,1,O*
X14680000Y8810000D03*
D12*
G04 #@! TO.N,PD4*
G04 #@! TO.C,R2*
G04 #@! TO.P,R2,2,2*
X29950000Y37070000D03*
G04 #@! TO.N,BAT*
G04 #@! TO.P,R2,1,1*
X25550000Y37070000D03*
D11*
G04 #@! TO.C,D5*
G04 #@! TO.P,D5,C,C*
X17940000Y50160000D03*
G04 #@! TO.N,MA1*
G04 #@! TO.P,D5,A,A*
X17940000Y54460000D03*
G04 #@! TO.N,BAT*
G04 #@! TO.C,D6*
G04 #@! TO.P,D6,C,C*
X25640000Y50210000D03*
G04 #@! TO.N,MB2*
G04 #@! TO.P,D6,A,A*
X25640000Y54510000D03*
D20*
G04 #@! TO.N,N$5*
G04 #@! TO.C,D1*
G04 #@! TO.P,D1,K,K*
X9950000Y15800000D03*
G04 #@! TO.N,N$4*
G04 #@! TO.P,D1,A,A*
X9950000Y11400000D03*
D21*
G04 #@! TO.N,N$8*
G04 #@! TO.C,R1*
G04 #@! TO.P,R1,2,2*
X10250000Y55910000D03*
G04 #@! TO.N,PB1*
G04 #@! TO.P,R1,1,1*
X10250000Y60310000D03*
D22*
G04 #@! TD.C*
G04 #@! TD.P*
G04 #@! TO.N,VCC*
X22700000Y73300000D03*
D23*
X9800000Y68200000D03*
D24*
X29658750Y70711250D02*
X28990000Y71380000D01*
X36316050Y70216050D02*
X35600000Y69500000D01*
X8209412Y68200000D02*
X7630000Y68440000D01*
X34151472Y68900000D02*
X31400000Y69000000D01*
X31400000Y69000000D02*
X29658750Y69721250D01*
X38353525Y71060000D02*
X36316050Y70216050D01*
X26734316Y73300000D02*
X28400000Y73300000D01*
X28990000Y71380000D02*
X29000000Y72700000D01*
X9800000Y68200000D02*
X8209412Y68200000D01*
X35600000Y69500000D02*
X34151472Y68900000D01*
X28400000Y73300000D02*
X29000000Y72700000D01*
X9800000Y68200000D02*
X9800000Y67020000D01*
X29658750Y69721250D02*
X29658750Y70711250D01*
X26734316Y73300000D02*
X22700000Y73300000D01*
X38770000Y71060000D02*
X38353525Y71060000D01*
X9800000Y67020000D02*
X13700000Y63120000D01*
D23*
G04 #@! TO.N,MB1*
X29400000Y57400000D03*
D25*
X37610000Y66910000D02*
X38010000Y67310000D01*
D24*
X34766050Y66466050D02*
X30183950Y61883950D01*
X19500000Y37600000D02*
X18760000Y35813481D01*
X29340000Y57255147D02*
X29400000Y57400000D01*
X29400000Y57400000D02*
X28243950Y56243950D01*
X24800000Y51800000D02*
X24500000Y51075734D01*
X24500000Y51075734D02*
X24500000Y43652103D01*
X27500000Y52300000D02*
X26292894Y51800000D01*
D25*
X38010000Y67310000D02*
X38770000Y67310000D01*
D24*
X29440000Y59910000D02*
X29440000Y57440000D01*
X29440000Y57440000D02*
X29400000Y57400000D01*
X29440000Y54460000D02*
X29440000Y57360000D01*
X29340000Y57255147D02*
X29400000Y57400000D01*
X28243950Y56243950D02*
X27500000Y54447897D01*
D25*
X35837841Y66910000D02*
X37610000Y66910000D01*
D24*
X29440000Y60087897D02*
X29440000Y59910000D01*
X34766050Y66466050D02*
X35837841Y66910000D01*
X26292894Y51800000D02*
X24800000Y51800000D01*
X27500000Y54447897D02*
X27500000Y52300000D01*
X18760000Y35813481D02*
X18760000Y27600000D01*
X30183950Y61883950D02*
X29440000Y60087897D01*
X29440000Y57360000D02*
X29400000Y57400000D01*
X24500000Y43652103D02*
X23756050Y41856050D01*
X23756050Y41856050D02*
X19500000Y37600000D01*
D25*
G04 #@! TO.N,GND*
X41065000Y74335000D02*
X41065000Y74210000D01*
X35985163Y16550000D02*
X35650000Y16550000D01*
X36981200Y16318800D02*
X36216363Y16318800D01*
X36216363Y16318800D02*
X35985163Y16550000D01*
X35650000Y16550000D02*
X35800000Y16550000D01*
D24*
X35800000Y16550000D02*
X35951506Y16550000D01*
D25*
X38100000Y15200000D02*
X36981200Y16318800D01*
D24*
G04 #@! TO.N,PB1*
X10250000Y58950000D02*
X10250000Y60310000D01*
X13700000Y55500000D02*
X10250000Y58950000D01*
D22*
G04 #@! TO.N,GND*
X40800000Y14200000D03*
D24*
G04 #@! TO.N,PD1*
X14856050Y46496050D02*
X13700000Y45340000D01*
X14234316Y65365684D02*
X15600000Y64800000D01*
X7807897Y70940000D02*
X9262528Y70337472D01*
X15600000Y64800000D02*
X15600000Y48292103D01*
X15600000Y48292103D02*
X14856050Y46496050D01*
X9262528Y70337472D02*
X14234316Y65365684D01*
D23*
G04 #@! TO.N,PF4*
X24000000Y69400000D03*
D25*
X23990000Y71380000D02*
X23990000Y69524141D01*
X23990000Y69510000D02*
X24000000Y69500000D01*
X23990000Y69410000D02*
X23990000Y69510000D01*
X24000000Y69400000D02*
X23990000Y69410000D01*
X23990000Y69524141D02*
X23990000Y69510000D01*
D24*
X24000000Y69500000D02*
X23990000Y69524141D01*
D23*
G04 #@! TO.N,PB4*
X19000000Y69400000D03*
D24*
X18990000Y69424141D02*
X19000000Y69400000D01*
X18990000Y71380000D02*
X18990000Y69424141D01*
D23*
G04 #@! TO.N,PD7*
X17700000Y69400000D03*
D24*
X17740000Y71380000D02*
X17740000Y69496569D01*
X17740000Y69496569D02*
X17700000Y69400000D01*
D25*
G04 #@! TO.N,GND*
X5335000Y65290000D02*
X4524838Y65290000D01*
X2926363Y65058800D02*
X2878800Y65106363D01*
X4524838Y65290000D02*
X4293638Y65058800D01*
X4293638Y65058800D02*
X2926363Y65058800D01*
X2878800Y67373638D02*
X4573763Y69068600D01*
X7008600Y69068600D02*
X7630000Y69690000D01*
X4573763Y69068600D02*
X7008600Y69068600D01*
X2878800Y65106363D02*
X2878800Y67373638D01*
D22*
X29300000Y66900000D03*
D23*
G04 #@! TO.N,PF6*
X21500000Y69400000D03*
D24*
X21490000Y69424141D02*
X21500000Y69400000D01*
X21490000Y71380000D02*
X21490000Y69424141D01*
D23*
G04 #@! TO.N,MA1*
X17900000Y57000000D03*
D24*
X7630000Y72190000D02*
X8057897Y72190000D01*
X9853950Y71446050D02*
X16300000Y65000000D01*
X16400000Y58300000D02*
X17558578Y57141422D01*
X17940000Y54460000D02*
X17940000Y57096569D01*
X17940000Y57096569D02*
X17900000Y57000000D01*
X16300000Y65000000D02*
X16400000Y64758578D01*
X8057897Y72190000D02*
X9853950Y71446050D01*
X16400000Y64758578D02*
X16400000Y58300000D01*
X17558578Y57141422D02*
X17900000Y57000000D01*
X17940000Y59810000D02*
X17940000Y57096569D01*
D23*
G04 #@! TO.N,PF7*
X20200000Y69400000D03*
D24*
X20240000Y69496569D02*
X20200000Y69400000D01*
X20240000Y71380000D02*
X20240000Y69496569D01*
D22*
G04 #@! TO.N,GND*
X36800000Y75200000D03*
X9800000Y75100000D03*
D23*
G04 #@! TO.N,MA2*
X21600000Y57100000D03*
X10400000Y64600000D03*
D24*
X8158456Y67190000D02*
X9100000Y66800000D01*
X21620000Y54490000D02*
X21620000Y57051716D01*
X21640000Y57196569D02*
X21600000Y57100000D01*
X9763603Y66136397D02*
X10400000Y64600000D01*
D25*
X21640000Y57140000D02*
X21640000Y59860000D01*
D24*
X9100000Y66800000D02*
X9763603Y66136397D01*
D25*
X21600000Y57100000D02*
X21640000Y57140000D01*
D24*
X21620000Y57051716D02*
X21600000Y57100000D01*
X7630000Y67190000D02*
X8158456Y67190000D01*
D23*
G04 #@! TO.N,VCC*
X32700000Y11600000D03*
D24*
X35650000Y11550000D02*
X32820709Y11550000D01*
X32820709Y11550000D02*
X32700000Y11600000D01*
G04 #@! TO.N,N$4*
X14680000Y8810000D02*
X12540000Y8810000D01*
X12540000Y8810000D02*
X9950000Y11400000D01*
G04 #@! TO.N,PD4*
X33927575Y32750000D02*
X34000000Y32720000D01*
X29950000Y32750000D02*
X33927575Y32750000D01*
X29950000Y37070000D02*
X29950000Y32750000D01*
D25*
G04 #@! TO.N,GND*
X30890000Y73664838D02*
X30890000Y73675000D01*
D24*
X37945000Y18450000D02*
X38721506Y18450000D01*
D23*
G04 #@! TO.N,PF1*
X25200000Y69400000D03*
D24*
X25240000Y69496569D02*
X25200000Y69400000D01*
X25240000Y71380000D02*
X25240000Y69496569D01*
D22*
G04 #@! TO.N,GND*
X22400000Y32800000D03*
D25*
X22400000Y32800000D02*
X25500000Y32800000D01*
X25500000Y32800000D02*
X25550000Y32750000D01*
D24*
G04 #@! TO.N,PD2*
X28147897Y62100000D02*
X23865684Y62100000D01*
X23500000Y52732853D02*
X21247897Y51800000D01*
X16200000Y46300000D02*
X15492894Y44592894D01*
X21247897Y51800000D02*
X17800000Y51800000D01*
X16200000Y50275734D02*
X16200000Y46300000D01*
X15492894Y44592894D02*
X13700000Y42800000D01*
X29943950Y62843950D02*
X28147897Y62100000D01*
X23500000Y61217156D02*
X23500000Y52732853D01*
X34816050Y67716050D02*
X29943950Y62843950D01*
X16500000Y51000000D02*
X16200000Y50275734D01*
X17800000Y51800000D02*
X16946447Y51446447D01*
X23865684Y62100000D02*
X23500000Y61217156D01*
X34816050Y67716050D02*
X36853525Y68560000D01*
X16946447Y51446447D02*
X16500000Y51000000D01*
D23*
G04 #@! TO.N,PF5*
X22700000Y69400000D03*
D25*
X22740000Y69440000D02*
X22700000Y69400000D01*
X22740000Y71380000D02*
X22740000Y69440000D01*
D23*
G04 #@! TO.N,BAT*
X27600000Y50200000D03*
X19700000Y50200000D03*
D25*
X25640000Y50210000D02*
X27590000Y50210000D01*
D24*
X28000000Y29572103D02*
X28743950Y27776050D01*
X28000000Y33567897D02*
X28000000Y29572103D01*
X16040000Y23060000D02*
X22903631Y23060000D01*
D25*
X27590000Y50210000D02*
X27600000Y50200000D01*
D24*
X28743950Y27776050D02*
X28920000Y27600000D01*
D25*
X29440000Y50160000D02*
X27640000Y50160000D01*
X27640000Y50160000D02*
X27600000Y50200000D01*
D24*
X22903631Y23060000D02*
X25423950Y24103950D01*
X25423950Y24103950D02*
X28920000Y27600000D01*
D25*
X19690000Y50190000D02*
X19660000Y50160000D01*
D24*
X27256050Y35363950D02*
X28000000Y33567897D01*
D25*
X19690000Y50190000D02*
X19700000Y50200000D01*
X17940000Y50160000D02*
X19660000Y50160000D01*
X21620000Y50190000D02*
X19690000Y50190000D01*
D24*
X25550000Y37070000D02*
X27256050Y35363950D01*
X25640000Y37287278D02*
X25550000Y37070000D01*
X25640000Y50210000D02*
X25640000Y37287278D01*
D25*
G04 #@! TO.N,GND*
X21640000Y64160000D02*
X21690000Y64210000D01*
X21590000Y64110000D02*
X21640000Y64160000D01*
X25590000Y64110000D02*
X25640000Y64160000D01*
D24*
G04 #@! TO.N,N$5*
X16040000Y18860000D02*
X12980000Y15800000D01*
X12980000Y15800000D02*
X9950000Y15800000D01*
D23*
G04 #@! TO.N,MB2*
X36500000Y67700000D03*
X36600000Y72200000D03*
X25600000Y57400000D03*
D24*
X38504453Y72200000D02*
X36600000Y72200000D01*
X28403950Y60603950D02*
X26607897Y59860000D01*
X24100000Y45500000D02*
X23392894Y43792894D01*
X36500000Y67700000D02*
X34792894Y66992894D01*
X23392894Y43792894D02*
X16963950Y37363950D01*
X25600000Y57400000D02*
X24843950Y56643950D01*
X25640000Y59860000D02*
X25640000Y57440000D01*
X16963950Y37363950D02*
X16220000Y35567897D01*
X25640000Y57360000D02*
X25600000Y57400000D01*
X25640000Y57440000D02*
X25600000Y57400000D01*
X16220000Y35567897D02*
X16220000Y27600000D01*
X24100000Y54847897D02*
X24100000Y45500000D01*
X34792894Y66992894D02*
X28403950Y60603950D01*
X25640000Y54510000D02*
X25640000Y57360000D01*
X24843950Y56643950D02*
X24100000Y54847897D01*
X38770000Y72310000D02*
X38504453Y72200000D01*
X26607897Y59860000D02*
X25640000Y59860000D01*
D23*
G04 #@! TO.N,PF0*
X26500000Y69400000D03*
D24*
X26490000Y69424141D02*
X26500000Y69400000D01*
X26490000Y71380000D02*
X26490000Y69424141D01*
D23*
G04 #@! TO.N,PD6*
X16600000Y69400000D03*
D24*
X16600000Y71114438D02*
X16600000Y69400000D01*
X16490000Y71380000D02*
X16600000Y71114438D01*
G04 #@! TO.N,PB3*
X35650000Y14050000D02*
X35102103Y14050000D01*
X33306050Y14793950D02*
X33100000Y15000000D01*
X14100000Y21100000D02*
X13587869Y21312131D01*
X32800000Y15724266D02*
X32800000Y18600000D01*
X13700000Y50420000D02*
X11972547Y50420000D01*
X32234316Y19965684D02*
X31600000Y20600000D01*
X31600000Y20600000D02*
X30392894Y21100000D01*
X30392894Y21100000D02*
X14100000Y21100000D01*
X11200000Y50100000D02*
X11100000Y49858578D01*
X33100000Y15000000D02*
X32800000Y15724266D01*
X11100000Y49858578D02*
X11100000Y23800000D01*
X35102103Y14050000D02*
X33306050Y14793950D01*
X32800000Y18600000D02*
X32234316Y19965684D01*
X11100000Y23800000D02*
X13587869Y21312131D01*
X11972547Y50420000D02*
X11200000Y50100000D01*
G04 #@! TO.N,N$8*
X32300000Y18875734D02*
X32300000Y15200000D01*
X10250000Y24902103D02*
X10993950Y23106050D01*
X32000000Y19600000D02*
X32300000Y18875734D01*
X12800000Y21300000D02*
X14489950Y20600000D01*
X29947897Y20600000D02*
X31743950Y19856050D01*
X10993950Y23106050D02*
X12800000Y21300000D01*
X31743950Y19856050D02*
X32000000Y19600000D01*
X10250000Y55910000D02*
X10250000Y24902103D01*
X32300000Y15200000D02*
X34028250Y13471750D01*
X34028250Y13471750D02*
X35650000Y12800000D01*
X14489950Y20600000D02*
X29947897Y20600000D01*
G04 #@! TO.N,N$1*
X14680000Y11350000D02*
X20190000Y11350000D01*
X20190000Y11350000D02*
X26900000Y18060000D01*
G04 #@! TO.N,RST*
X35650000Y15300000D02*
X35048528Y15300000D01*
X11600000Y44727897D02*
X12343950Y46523950D01*
X11600000Y23900000D02*
X11600000Y44727897D01*
X33600000Y15900000D02*
X33300000Y16624266D01*
X13829291Y21670709D02*
X11600000Y23900000D01*
X33300000Y20800000D02*
X33243950Y20856050D01*
X31447897Y21600000D02*
X14000000Y21600000D01*
X14000000Y21600000D02*
X13829291Y21670709D01*
X33243950Y20856050D02*
X31447897Y21600000D01*
X33300000Y16624266D02*
X33300000Y20800000D01*
X35048528Y15300000D02*
X33600000Y15900000D01*
X12343950Y46523950D02*
X13700000Y47880000D01*
D26*
G04 #@! TA.AperFunction,Conductor*
G04 #@! TO.N,GND*
G36*
X1006483Y66901492D02*
X1006721Y66894848D01*
X1035575Y66532200D01*
X1036391Y66525603D01*
X1096742Y66166858D01*
X1098130Y66160357D01*
X1189515Y65808249D01*
X1191464Y65801893D01*
X1313192Y65459081D01*
X1315687Y65452920D01*
X1466833Y65122011D01*
X1469856Y65116091D01*
X1649259Y64799633D01*
X1652787Y64793998D01*
X1859103Y64494359D01*
X1863108Y64489054D01*
X2094736Y64208557D01*
X2099188Y64203621D01*
X2354390Y63944371D01*
X2359256Y63939841D01*
X2636084Y63703819D01*
X2641325Y63699731D01*
X2937681Y63488727D01*
X2943259Y63485112D01*
X3256857Y63300750D01*
X3262730Y63297634D01*
X3591206Y63141306D01*
X3597327Y63138714D01*
X3938192Y63011604D01*
X3944516Y63009555D01*
X4295134Y62912643D01*
X4301612Y62911153D01*
X4659391Y62845161D01*
X4665975Y62844242D01*
X5025400Y62809945D01*
X5032638Y62809600D01*
X6997551Y62809600D01*
X7002429Y62809287D01*
X7148987Y62790400D01*
X7159675Y62787382D01*
X7335266Y62708511D01*
X7340773Y62705466D01*
X7936113Y62308572D01*
X7939985Y62305617D01*
X8052005Y62208124D01*
X8058449Y62200871D01*
X8140712Y62080188D01*
X8145104Y62071544D01*
X8194218Y61933562D01*
X8196199Y61924881D01*
X8209383Y61802023D01*
X8209600Y61797966D01*
X8209600Y61514101D01*
X8228944Y61463369D01*
X8277154Y61438394D01*
X8329754Y61451857D01*
X8349561Y61475255D01*
X8350769Y61474496D01*
X8421122Y61586461D01*
X8426417Y61593100D01*
X8516900Y61683583D01*
X8523539Y61688878D01*
X8631885Y61756957D01*
X8639538Y61760642D01*
X8760315Y61802904D01*
X8768599Y61804795D01*
X8897881Y61819361D01*
X8902134Y61819600D01*
X11597866Y61819600D01*
X11602119Y61819361D01*
X11731401Y61804795D01*
X11739685Y61802904D01*
X11860462Y61760642D01*
X11868115Y61756957D01*
X11976461Y61688878D01*
X11983100Y61683583D01*
X12073583Y61593100D01*
X12078878Y61586461D01*
X12146957Y61478115D01*
X12150642Y61470462D01*
X12192904Y61349685D01*
X12194796Y61341394D01*
X12194851Y61340908D01*
X12194952Y61340713D01*
X12195748Y61337224D01*
X12196647Y61337429D01*
X12219756Y61292662D01*
X12270460Y61273245D01*
X12335540Y61309630D01*
X12444943Y61488159D01*
X12448455Y61492993D01*
X12602460Y61673309D01*
X12606691Y61677540D01*
X12740774Y61792058D01*
X12766789Y61839715D01*
X12740774Y61907942D01*
X12606691Y62022460D01*
X12602460Y62026691D01*
X12448455Y62207007D01*
X12444943Y62211841D01*
X12321035Y62414039D01*
X12318331Y62419345D01*
X12227580Y62638440D01*
X12225733Y62644123D01*
X12170374Y62874714D01*
X12169441Y62880601D01*
X12150835Y63117014D01*
X12150835Y63122986D01*
X12169441Y63359399D01*
X12170374Y63365286D01*
X12214777Y63550241D01*
X12194564Y63621910D01*
X11529094Y64287380D01*
X11479542Y64309575D01*
X11427793Y64293145D01*
X11401923Y64254353D01*
X11391995Y64219460D01*
X11389461Y64212919D01*
X11305181Y64043662D01*
X11301486Y64037694D01*
X11187540Y63886805D01*
X11182820Y63881626D01*
X11043078Y63754235D01*
X11037492Y63750017D01*
X10876723Y63650472D01*
X10870450Y63647349D01*
X10694128Y63579042D01*
X10687393Y63577126D01*
X10501520Y63542380D01*
X10494544Y63541734D01*
X10305456Y63541734D01*
X10298480Y63542380D01*
X10112607Y63577126D01*
X10105872Y63579042D01*
X9929550Y63647349D01*
X9923277Y63650472D01*
X9762508Y63750017D01*
X9756922Y63754235D01*
X9617180Y63881626D01*
X9612460Y63886805D01*
X9498514Y64037694D01*
X9494819Y64043662D01*
X9410539Y64212919D01*
X9408004Y64219463D01*
X9356259Y64401325D01*
X9354971Y64408215D01*
X9337525Y64596493D01*
X9337525Y64603507D01*
X9354971Y64791785D01*
X9356259Y64798675D01*
X9408004Y64980535D01*
X9410539Y64987078D01*
X9428404Y65022957D01*
X9430592Y65086082D01*
X9167833Y65720437D01*
X9151315Y65745158D01*
X8708761Y66187712D01*
X8684040Y66204230D01*
X8571124Y66251002D01*
X8501420Y66245121D01*
X8498108Y66243040D01*
X8490460Y66239356D01*
X8481033Y66236058D01*
X8439536Y66201045D01*
X8430000Y66164135D01*
X8430000Y64354035D01*
X8426901Y64345907D01*
X8413714Y64340000D01*
X5499040Y64340000D01*
X5490912Y64343099D01*
X5485005Y64356286D01*
X5485005Y64640000D01*
X6410000Y64640000D01*
X6410000Y65940000D01*
X4260000Y65940000D01*
X4260000Y64640000D01*
X5184995Y64640000D01*
X5184995Y64354035D01*
X5181896Y64345907D01*
X5168709Y64340000D01*
X4262992Y64340000D01*
X4257046Y64340468D01*
X4173218Y64353745D01*
X4161952Y64357405D01*
X4089005Y64394574D01*
X4079425Y64401534D01*
X4021534Y64459425D01*
X4014574Y64469005D01*
X3977405Y64541952D01*
X3973745Y64553218D01*
X3960468Y64637046D01*
X3960000Y64642992D01*
X3960000Y65063801D01*
X3940656Y65114533D01*
X3883801Y65140000D01*
X2974035Y65140000D01*
X2965907Y65143099D01*
X2960000Y65156286D01*
X2960000Y67325965D01*
X2963099Y67334093D01*
X2976286Y67340000D01*
X6344201Y67340000D01*
X6394933Y67359344D01*
X6420400Y67416199D01*
X6420400Y67587866D01*
X6420639Y67592119D01*
X6435205Y67721401D01*
X6437096Y67729685D01*
X6458143Y67789833D01*
X6458143Y67840167D01*
X6437096Y67900315D01*
X6435205Y67908599D01*
X6420639Y68037881D01*
X6420400Y68042134D01*
X6420400Y68837866D01*
X6420639Y68842119D01*
X6435205Y68971401D01*
X6437096Y68979685D01*
X6479358Y69100462D01*
X6483043Y69108115D01*
X6551122Y69216461D01*
X6556417Y69223100D01*
X6646900Y69313583D01*
X6653539Y69318878D01*
X6694342Y69344516D01*
X6730000Y69409035D01*
X6730000Y69525960D01*
X6733099Y69534088D01*
X6746286Y69539995D01*
X7030000Y69539995D01*
X7030000Y69290000D01*
X8230000Y69290000D01*
X8230000Y69539995D01*
X8515965Y69539995D01*
X8524093Y69536896D01*
X8530000Y69523709D01*
X8530000Y69409035D01*
X8565658Y69344516D01*
X8606461Y69318878D01*
X8613100Y69313583D01*
X8703583Y69223100D01*
X8708878Y69216461D01*
X8776957Y69108115D01*
X8780642Y69100462D01*
X8822903Y68979686D01*
X8825379Y68968841D01*
X8855528Y68923686D01*
X8899667Y68909600D01*
X8978036Y68909600D01*
X9029371Y68929487D01*
X9156922Y69045765D01*
X9162508Y69049983D01*
X9317864Y69146176D01*
X9350814Y69189330D01*
X9331631Y69264843D01*
X8871290Y69725184D01*
X8846569Y69741702D01*
X8589950Y69847997D01*
X8529640Y69847139D01*
X8513714Y69840005D01*
X8230000Y69840005D01*
X8230000Y70090000D01*
X7030000Y70090000D01*
X7030000Y69840005D01*
X6744035Y69840005D01*
X6735907Y69843104D01*
X6730000Y69856291D01*
X6730000Y69970965D01*
X6694342Y70035484D01*
X6653539Y70061122D01*
X6646900Y70066417D01*
X6556417Y70156900D01*
X6551122Y70163539D01*
X6483043Y70271885D01*
X6479358Y70279538D01*
X6437096Y70400315D01*
X6435205Y70408599D01*
X6420639Y70537881D01*
X6420400Y70542134D01*
X6420400Y71337866D01*
X6420639Y71342119D01*
X6435205Y71471401D01*
X6437096Y71479685D01*
X6458143Y71539833D01*
X6458143Y71590167D01*
X6437096Y71650315D01*
X6435205Y71658599D01*
X6420639Y71787881D01*
X6420400Y71792134D01*
X6420400Y71963801D01*
X6401056Y72014533D01*
X6344201Y72040000D01*
X2974035Y72040000D01*
X2965907Y72043099D01*
X2960000Y72056286D01*
X2960000Y74225965D01*
X2963099Y74234093D01*
X2976286Y74240000D01*
X3883801Y74240000D01*
X3934533Y74259344D01*
X3960000Y74316199D01*
X3960000Y74737008D01*
X3960468Y74742954D01*
X3973745Y74826782D01*
X3977405Y74838048D01*
X4014574Y74910995D01*
X4021534Y74920575D01*
X4079425Y74978466D01*
X4089005Y74985426D01*
X4161952Y75022595D01*
X4173218Y75026255D01*
X4257046Y75039532D01*
X4262992Y75040000D01*
X5170960Y75040000D01*
X5179088Y75036901D01*
X5184995Y75023714D01*
X5184995Y74740000D01*
X4260000Y74740000D01*
X4260000Y73440000D01*
X6410000Y73440000D01*
X6410000Y74740000D01*
X5485005Y74740000D01*
X5485005Y75025965D01*
X5488104Y75034093D01*
X5501291Y75040000D01*
X8415965Y75040000D01*
X8424093Y75036901D01*
X8430000Y75023714D01*
X8430000Y73215865D01*
X8449344Y73165133D01*
X8481033Y73143942D01*
X8490460Y73140644D01*
X8498115Y73136957D01*
X8606461Y73068878D01*
X8613100Y73063583D01*
X8703583Y72973100D01*
X8708878Y72966461D01*
X8776957Y72858115D01*
X8780642Y72850462D01*
X8822901Y72729692D01*
X8824796Y72721392D01*
X8829334Y72681108D01*
X8875894Y72619239D01*
X10123524Y72102454D01*
X10127376Y72100599D01*
X10175838Y72073815D01*
X10179635Y72071853D01*
X10227627Y72048741D01*
X10234821Y72044220D01*
X10242072Y72038438D01*
X10252725Y72031320D01*
X10260832Y72026840D01*
X10267765Y72021920D01*
X10307447Y71986458D01*
X10310713Y71983700D01*
X10354035Y71949152D01*
X10357226Y71946300D01*
X11601138Y70702388D01*
X11601138Y72695133D01*
X11594162Y72695779D01*
X11399807Y72732111D01*
X11393054Y72734033D01*
X11208697Y72805453D01*
X11202415Y72808581D01*
X11034305Y72912670D01*
X11028719Y72916888D01*
X10882595Y73050097D01*
X10877875Y73055276D01*
X10758724Y73213057D01*
X10755029Y73219025D01*
X10666899Y73396013D01*
X10664364Y73402557D01*
X10610256Y73592726D01*
X10608968Y73599616D01*
X10590725Y73796493D01*
X10590725Y73803507D01*
X10608968Y74000384D01*
X10610256Y74007274D01*
X10664364Y74197443D01*
X10666899Y74203987D01*
X10755029Y74380975D01*
X10758724Y74386943D01*
X10877875Y74544724D01*
X10882595Y74549903D01*
X11028719Y74683112D01*
X11034305Y74687330D01*
X11202415Y74791419D01*
X11208697Y74794547D01*
X11393054Y74865967D01*
X11399807Y74867889D01*
X11594162Y74904221D01*
X11601138Y74904867D01*
X11798862Y74904867D01*
X11805838Y74904221D01*
X12000193Y74867889D01*
X12006946Y74865967D01*
X12191303Y74794547D01*
X12197585Y74791419D01*
X12365695Y74687330D01*
X12371281Y74683112D01*
X12517405Y74549903D01*
X12522125Y74544724D01*
X12641276Y74386943D01*
X12644971Y74380975D01*
X12733101Y74203987D01*
X12735636Y74197443D01*
X12789744Y74007274D01*
X12791032Y74000384D01*
X12809275Y73803507D01*
X12809275Y73796493D01*
X12791032Y73599616D01*
X12789744Y73592726D01*
X12735636Y73402557D01*
X12733101Y73396013D01*
X12644971Y73219025D01*
X12641276Y73213057D01*
X12522125Y73055276D01*
X12517405Y73050097D01*
X12371281Y72916888D01*
X12365695Y72912670D01*
X12197585Y72808581D01*
X12191303Y72805453D01*
X12006946Y72734033D01*
X12000193Y72732111D01*
X11805838Y72695779D01*
X11798862Y72695133D01*
X11601138Y72695133D01*
X11601138Y70702388D01*
X16800253Y65503273D01*
X16803096Y65500091D01*
X16837632Y65456785D01*
X16840390Y65453519D01*
X16875868Y65413819D01*
X16880794Y65406876D01*
X16885272Y65398773D01*
X16892391Y65388119D01*
X16898168Y65380876D01*
X16902694Y65373674D01*
X16925809Y65325674D01*
X16927771Y65321876D01*
X16954550Y65273423D01*
X16956404Y65269573D01*
X17036016Y65077375D01*
X17073302Y65037907D01*
X17118335Y65031274D01*
X17202046Y65044532D01*
X17207992Y65045000D01*
X17775960Y65045000D01*
X17784088Y65041901D01*
X17789995Y65028714D01*
X17789995Y64745000D01*
X17205000Y64745000D01*
X17205000Y63475000D01*
X17789995Y63475000D01*
X17789995Y63189035D01*
X17786896Y63180907D01*
X17773709Y63175000D01*
X17207992Y63175000D01*
X17202041Y63175468D01*
X17197717Y63176153D01*
X17144584Y63164982D01*
X17109600Y63100892D01*
X17109600Y61129118D01*
X17128944Y61078386D01*
X17194330Y61053398D01*
X17202879Y61054361D01*
X17207134Y61054600D01*
X18104040Y61054600D01*
X18104040Y63175000D01*
X18095912Y63178099D01*
X18090005Y63191286D01*
X18090005Y63475000D01*
X18675000Y63475000D01*
X18675000Y63959995D01*
X18675000Y64260005D01*
X18675000Y64745000D01*
X18090005Y64745000D01*
X18090005Y65030965D01*
X18093104Y65039093D01*
X18106291Y65045000D01*
X18672008Y65045000D01*
X18677954Y65044532D01*
X18761782Y65031255D01*
X18773048Y65027595D01*
X18845995Y64990426D01*
X18855575Y64983466D01*
X18913466Y64925575D01*
X18920426Y64915995D01*
X18957595Y64843048D01*
X18961255Y64831782D01*
X18974532Y64747954D01*
X18975000Y64742008D01*
X18975000Y64274040D01*
X18971901Y64265912D01*
X18958714Y64260005D01*
X18675000Y64260005D01*
X18675000Y63959995D01*
X18960965Y63959995D01*
X18969093Y63956896D01*
X18975000Y63943709D01*
X18975000Y63477992D01*
X18974532Y63472046D01*
X18961255Y63388218D01*
X18957595Y63376952D01*
X18920426Y63304005D01*
X18913466Y63294425D01*
X18855575Y63236534D01*
X18845995Y63229574D01*
X18773048Y63192405D01*
X18761782Y63188745D01*
X18677954Y63175468D01*
X18672008Y63175000D01*
X18104040Y63175000D01*
X18104040Y61054600D01*
X18672866Y61054600D01*
X18677119Y61054361D01*
X18806401Y61039795D01*
X18814685Y61037904D01*
X18935462Y60995642D01*
X18943115Y60991957D01*
X19051461Y60923878D01*
X19058100Y60918583D01*
X19148583Y60828100D01*
X19153878Y60821461D01*
X19221957Y60713115D01*
X19225642Y60705462D01*
X19267904Y60584685D01*
X19269795Y60576401D01*
X19282046Y60467667D01*
X19306949Y60419420D01*
X19357766Y60400000D01*
X20219201Y60400000D01*
X20269933Y60419344D01*
X20295400Y60476199D01*
X20295400Y60492866D01*
X20295639Y60497119D01*
X20310205Y60626401D01*
X20312096Y60634685D01*
X20354358Y60755462D01*
X20358043Y60763115D01*
X20426122Y60871461D01*
X20431417Y60878100D01*
X20521900Y60968583D01*
X20528539Y60973878D01*
X20636885Y61041957D01*
X20644538Y61045642D01*
X20765315Y61087904D01*
X20773599Y61089795D01*
X20902881Y61104361D01*
X20907134Y61104600D01*
X20907992Y61104600D01*
X20907992Y63225000D01*
X20902046Y63225468D01*
X20818218Y63238745D01*
X20806952Y63242405D01*
X20734005Y63279574D01*
X20724425Y63286534D01*
X20666534Y63344425D01*
X20659574Y63354005D01*
X20622405Y63426952D01*
X20618745Y63438218D01*
X20605468Y63522046D01*
X20605000Y63527992D01*
X20605000Y63995960D01*
X20608099Y64004088D01*
X20619035Y64008986D01*
X20619035Y64310005D01*
X20610907Y64313104D01*
X20605000Y64326291D01*
X20605000Y64792008D01*
X20605468Y64797954D01*
X20618745Y64881782D01*
X20622405Y64893048D01*
X20659574Y64965995D01*
X20666534Y64975575D01*
X20724425Y65033466D01*
X20734005Y65040426D01*
X20806952Y65077595D01*
X20818218Y65081255D01*
X20902046Y65094532D01*
X20907992Y65095000D01*
X21475960Y65095000D01*
X21484088Y65091901D01*
X21489995Y65078714D01*
X21489995Y64795000D01*
X20905000Y64795000D01*
X20905000Y64310005D01*
X20619035Y64310005D01*
X20619035Y64008986D01*
X20621286Y64009995D01*
X20905000Y64009995D01*
X20905000Y63525000D01*
X21489995Y63525000D01*
X21489995Y63239035D01*
X21486896Y63230907D01*
X21473709Y63225000D01*
X20907992Y63225000D01*
X20907992Y61104600D01*
X21804040Y61104600D01*
X21804040Y63225000D01*
X21795912Y63228099D01*
X21790005Y63241286D01*
X21790005Y63525000D01*
X22375000Y63525000D01*
X22375000Y64009995D01*
X22375000Y64310005D01*
X22375000Y64795000D01*
X21790005Y64795000D01*
X21790005Y65080965D01*
X21793104Y65089093D01*
X21806291Y65095000D01*
X22372008Y65095000D01*
X22377954Y65094532D01*
X22461782Y65081255D01*
X22473048Y65077595D01*
X22545995Y65040426D01*
X22555575Y65033466D01*
X22613466Y64975575D01*
X22620426Y64965995D01*
X22657595Y64893048D01*
X22661255Y64881782D01*
X22674532Y64797954D01*
X22675000Y64792008D01*
X22675000Y64324040D01*
X22671901Y64315912D01*
X22658714Y64310005D01*
X22375000Y64310005D01*
X22375000Y64009995D01*
X22660965Y64009995D01*
X22669093Y64006896D01*
X22675000Y63993709D01*
X22675000Y63527992D01*
X22674532Y63522046D01*
X22661255Y63438218D01*
X22657595Y63426952D01*
X22620426Y63354005D01*
X22613466Y63344425D01*
X22555575Y63286534D01*
X22545995Y63279574D01*
X22473048Y63242405D01*
X22461782Y63238745D01*
X22377954Y63225468D01*
X22372008Y63225000D01*
X21804040Y63225000D01*
X21804040Y61104600D01*
X22372866Y61104600D01*
X22377119Y61104361D01*
X22506401Y61089795D01*
X22514685Y61087904D01*
X22635462Y61045642D01*
X22643115Y61041957D01*
X22673660Y61022764D01*
X22726908Y61012151D01*
X22773704Y61039684D01*
X22790400Y61087283D01*
X22790400Y61215020D01*
X22790639Y61219276D01*
X22796844Y61274350D01*
X22797203Y61278608D01*
X22800187Y61331739D01*
X22801613Y61340132D01*
X22804175Y61349027D01*
X22806673Y61361585D01*
X22807713Y61370808D01*
X22809603Y61379092D01*
X22827196Y61429369D01*
X22828494Y61433442D01*
X22843823Y61486652D01*
X22845232Y61490680D01*
X23209286Y62369590D01*
X23211128Y62373416D01*
X23216653Y62383413D01*
X23221883Y62395101D01*
X23224941Y62403840D01*
X23228634Y62411507D01*
X23256958Y62456586D01*
X23259129Y62460266D01*
X23284894Y62506884D01*
X23289812Y62513816D01*
X23295991Y62520730D01*
X23303690Y62530961D01*
X23308620Y62538807D01*
X23313917Y62545449D01*
X23351574Y62583106D01*
X23354510Y62586212D01*
X23389994Y62625919D01*
X23396334Y62631585D01*
X23403895Y62636950D01*
X23413681Y62645213D01*
X23420235Y62651767D01*
X23426872Y62657059D01*
X23471960Y62685390D01*
X23475515Y62687766D01*
X23518947Y62718584D01*
X23526384Y62722694D01*
X23534954Y62726244D01*
X23546330Y62732121D01*
X23554178Y62737052D01*
X23561838Y62740740D01*
X23612098Y62758327D01*
X23616092Y62759851D01*
X23665296Y62780232D01*
X23673454Y62782583D01*
X23682599Y62784137D01*
X23694996Y62787335D01*
X23703744Y62790396D01*
X23712034Y62792288D01*
X23764955Y62798251D01*
X23769186Y62798849D01*
X23821673Y62807767D01*
X23830166Y62808244D01*
X23839417Y62807724D01*
X23852226Y62808083D01*
X23863570Y62809362D01*
X23867818Y62809600D01*
X24907992Y62809600D01*
X24907992Y63225000D01*
X24902046Y63225468D01*
X24818218Y63238745D01*
X24806952Y63242405D01*
X24734005Y63279574D01*
X24724425Y63286534D01*
X24666534Y63344425D01*
X24659574Y63354005D01*
X24622405Y63426952D01*
X24618745Y63438218D01*
X24605468Y63522046D01*
X24605000Y63527992D01*
X24605000Y63995960D01*
X24608099Y64004088D01*
X24619035Y64008986D01*
X24619035Y64310005D01*
X24610907Y64313104D01*
X24605000Y64326291D01*
X24605000Y64792008D01*
X24605468Y64797954D01*
X24618745Y64881782D01*
X24622405Y64893048D01*
X24659574Y64965995D01*
X24666534Y64975575D01*
X24724425Y65033466D01*
X24734005Y65040426D01*
X24806952Y65077595D01*
X24818218Y65081255D01*
X24902046Y65094532D01*
X24907992Y65095000D01*
X25475960Y65095000D01*
X25484088Y65091901D01*
X25489995Y65078714D01*
X25489995Y64795000D01*
X24905000Y64795000D01*
X24905000Y64310005D01*
X24619035Y64310005D01*
X24619035Y64008986D01*
X24621286Y64009995D01*
X24905000Y64009995D01*
X24905000Y63525000D01*
X25489995Y63525000D01*
X25489995Y63239035D01*
X25486896Y63230907D01*
X25473709Y63225000D01*
X24907992Y63225000D01*
X24907992Y62809600D01*
X25804040Y62809600D01*
X25804040Y63225000D01*
X25795912Y63228099D01*
X25790005Y63241286D01*
X25790005Y63525000D01*
X26375000Y63525000D01*
X26375000Y64009995D01*
X26375000Y64310005D01*
X26375000Y64795000D01*
X25790005Y64795000D01*
X25790005Y65080965D01*
X25793104Y65089093D01*
X25806291Y65095000D01*
X26372008Y65095000D01*
X26377954Y65094532D01*
X26461782Y65081255D01*
X26473048Y65077595D01*
X26545995Y65040426D01*
X26555575Y65033466D01*
X26613466Y64975575D01*
X26620426Y64965995D01*
X26657595Y64893048D01*
X26661255Y64881782D01*
X26674532Y64797954D01*
X26675000Y64792008D01*
X26675000Y64324040D01*
X26671901Y64315912D01*
X26658714Y64310005D01*
X26375000Y64310005D01*
X26375000Y64009995D01*
X26660965Y64009995D01*
X26669093Y64006896D01*
X26675000Y63993709D01*
X26675000Y63527992D01*
X26674532Y63522046D01*
X26661255Y63438218D01*
X26657595Y63426952D01*
X26620426Y63354005D01*
X26613466Y63344425D01*
X26555575Y63286534D01*
X26545995Y63279574D01*
X26473048Y63242405D01*
X26461782Y63238745D01*
X26377954Y63225468D01*
X26372008Y63225000D01*
X25804040Y63225000D01*
X25804040Y62809600D01*
X27991591Y62809600D01*
X28020751Y62815400D01*
X28776404Y63128402D01*
X28815872Y63165688D01*
X28820496Y63219786D01*
X28787929Y63263229D01*
X28747244Y63275000D01*
X28707992Y63275000D01*
X28702046Y63275468D01*
X28618218Y63288745D01*
X28606952Y63292405D01*
X28534005Y63329574D01*
X28524425Y63336534D01*
X28466534Y63394425D01*
X28459574Y63404005D01*
X28422405Y63476952D01*
X28418745Y63488218D01*
X28405468Y63572046D01*
X28405000Y63577992D01*
X28405000Y64045960D01*
X28408099Y64054088D01*
X28419035Y64058986D01*
X28419035Y64360005D01*
X28410907Y64363104D01*
X28405000Y64376291D01*
X28405000Y64842008D01*
X28405468Y64847954D01*
X28418745Y64931782D01*
X28422405Y64943048D01*
X28459574Y65015995D01*
X28466534Y65025575D01*
X28524425Y65083466D01*
X28534005Y65090426D01*
X28606952Y65127595D01*
X28618218Y65131255D01*
X28702046Y65144532D01*
X28707992Y65145000D01*
X29275960Y65145000D01*
X29284088Y65141901D01*
X29289995Y65128714D01*
X29289995Y64845000D01*
X28705000Y64845000D01*
X28705000Y64360005D01*
X28419035Y64360005D01*
X28419035Y64058986D01*
X28421286Y64059995D01*
X28705000Y64059995D01*
X28705000Y63575000D01*
X30175000Y63575000D01*
X30175000Y64845000D01*
X29590005Y64845000D01*
X29590005Y65130965D01*
X29593104Y65139093D01*
X29606291Y65145000D01*
X30172008Y65145000D01*
X30177954Y65144532D01*
X30261782Y65131255D01*
X30273048Y65127595D01*
X30345995Y65090426D01*
X30355575Y65083466D01*
X30413466Y65025575D01*
X30420426Y65015995D01*
X30457595Y64943048D01*
X30461255Y64931782D01*
X30474532Y64847954D01*
X30475000Y64842008D01*
X30475000Y64562487D01*
X30494344Y64511755D01*
X30542554Y64486780D01*
X30605080Y64508606D01*
X34157996Y68061522D01*
X34180191Y68111074D01*
X34163761Y68162823D01*
X34106883Y68191552D01*
X31376351Y68290791D01*
X31372124Y68291183D01*
X31331385Y68297279D01*
X31324380Y68297998D01*
X31285414Y68300186D01*
X31277027Y68301611D01*
X31254410Y68308127D01*
X31244588Y68310266D01*
X31221315Y68313748D01*
X31213083Y68315944D01*
X31176733Y68330165D01*
X31170065Y68332425D01*
X31130493Y68343826D01*
X31126480Y68345230D01*
X29389166Y69064850D01*
X29385326Y69066699D01*
X29375342Y69072217D01*
X29363650Y69077449D01*
X29354904Y69080509D01*
X29347242Y69084199D01*
X29302151Y69112532D01*
X29298469Y69114704D01*
X29251870Y69140458D01*
X29244935Y69145379D01*
X29238028Y69151551D01*
X29227796Y69159252D01*
X29219945Y69164185D01*
X29213295Y69169489D01*
X29175631Y69207153D01*
X29172525Y69210089D01*
X29132834Y69245560D01*
X29127167Y69251901D01*
X29121809Y69259452D01*
X29113545Y69269239D01*
X29106986Y69275798D01*
X29101684Y69282446D01*
X29073341Y69327554D01*
X29070967Y69331107D01*
X29040170Y69374511D01*
X29036054Y69381960D01*
X29032511Y69390512D01*
X29026631Y69401892D01*
X29021698Y69409742D01*
X29018010Y69417400D01*
X29000418Y69467676D01*
X28998894Y69471669D01*
X28978520Y69520855D01*
X28976166Y69529029D01*
X28974615Y69538157D01*
X28971416Y69550560D01*
X28968353Y69559313D01*
X28966462Y69567598D01*
X28960499Y69620521D01*
X28959902Y69624752D01*
X28950983Y69677250D01*
X28950507Y69685734D01*
X28951026Y69694981D01*
X28950667Y69707784D01*
X28949389Y69719128D01*
X28949150Y69723383D01*
X28949150Y70094201D01*
X28929806Y70144933D01*
X28872951Y70170400D01*
X28592134Y70170400D01*
X28587881Y70170639D01*
X28458599Y70185205D01*
X28450315Y70187096D01*
X28329538Y70229358D01*
X28321885Y70233043D01*
X28213539Y70301122D01*
X28206900Y70306417D01*
X28116417Y70396900D01*
X28111122Y70403539D01*
X28085484Y70444342D01*
X28020965Y70480000D01*
X27904040Y70480000D01*
X27895912Y70483099D01*
X27890005Y70496286D01*
X27890005Y70780000D01*
X28140000Y70780000D01*
X28140000Y71980000D01*
X27890005Y71980000D01*
X27890005Y72265965D01*
X27893104Y72274093D01*
X27906291Y72280000D01*
X28020965Y72280000D01*
X28085484Y72315658D01*
X28111122Y72356461D01*
X28116417Y72363100D01*
X28171015Y72417698D01*
X28193210Y72467250D01*
X28171014Y72525460D01*
X28128391Y72568082D01*
X28074511Y72590400D01*
X27319300Y72590400D01*
X27268568Y72571056D01*
X27243593Y72522846D01*
X27270712Y72457237D01*
X27270079Y72456604D01*
X27271605Y72455078D01*
X27271792Y72454625D01*
X27273105Y72453578D01*
X27363583Y72363100D01*
X27368878Y72356461D01*
X27394516Y72315658D01*
X27459035Y72280000D01*
X27575960Y72280000D01*
X27584088Y72276901D01*
X27589995Y72263714D01*
X27589995Y71980000D01*
X27340000Y71980000D01*
X27340000Y70780000D01*
X27589995Y70780000D01*
X27589995Y70494035D01*
X27586896Y70485907D01*
X27573709Y70480000D01*
X27459035Y70480000D01*
X27394516Y70444342D01*
X27368878Y70403539D01*
X27363583Y70396900D01*
X27273100Y70306417D01*
X27266461Y70301122D01*
X27242327Y70285958D01*
X27209663Y70242588D01*
X27214166Y70188480D01*
X27231533Y70165127D01*
X27282820Y70118374D01*
X27287540Y70113195D01*
X27401486Y69962306D01*
X27405181Y69956338D01*
X27489461Y69787081D01*
X27491996Y69780537D01*
X27543741Y69598675D01*
X27545029Y69591785D01*
X27562475Y69403507D01*
X27562475Y69396493D01*
X27545029Y69208215D01*
X27543741Y69201325D01*
X27491996Y69019463D01*
X27489461Y69012919D01*
X27405181Y68843662D01*
X27401486Y68837694D01*
X27287540Y68686805D01*
X27282820Y68681626D01*
X27143078Y68554235D01*
X27137492Y68550017D01*
X26976723Y68450472D01*
X26970450Y68447349D01*
X26794128Y68379042D01*
X26787393Y68377126D01*
X26601520Y68342380D01*
X26594544Y68341734D01*
X26405456Y68341734D01*
X26398480Y68342380D01*
X26212607Y68377126D01*
X26205872Y68379042D01*
X26029550Y68447349D01*
X26023277Y68450472D01*
X25890114Y68532924D01*
X25836797Y68543184D01*
X25809886Y68532924D01*
X25676723Y68450472D01*
X25670450Y68447349D01*
X25494128Y68379042D01*
X25487393Y68377126D01*
X25301520Y68342380D01*
X25294544Y68341734D01*
X25105456Y68341734D01*
X25098480Y68342380D01*
X24912607Y68377126D01*
X24905872Y68379042D01*
X24729550Y68447349D01*
X24723277Y68450472D01*
X24640114Y68501965D01*
X24586797Y68512225D01*
X24559886Y68501965D01*
X24476723Y68450472D01*
X24470450Y68447349D01*
X24294128Y68379042D01*
X24287393Y68377126D01*
X24101520Y68342380D01*
X24094544Y68341734D01*
X23905456Y68341734D01*
X23898480Y68342380D01*
X23712607Y68377126D01*
X23705872Y68379042D01*
X23529550Y68447349D01*
X23523277Y68450472D01*
X23390114Y68532924D01*
X23336797Y68543184D01*
X23309886Y68532924D01*
X23176723Y68450472D01*
X23170450Y68447349D01*
X22994128Y68379042D01*
X22987393Y68377126D01*
X22801520Y68342380D01*
X22794544Y68341734D01*
X22605456Y68341734D01*
X22598480Y68342380D01*
X22412607Y68377126D01*
X22405872Y68379042D01*
X22229550Y68447349D01*
X22223277Y68450472D01*
X22140114Y68501965D01*
X22086797Y68512225D01*
X22059886Y68501965D01*
X21976723Y68450472D01*
X21970450Y68447349D01*
X21794128Y68379042D01*
X21787393Y68377126D01*
X21601520Y68342380D01*
X21594544Y68341734D01*
X21405456Y68341734D01*
X21398480Y68342380D01*
X21212607Y68377126D01*
X21205872Y68379042D01*
X21029550Y68447349D01*
X21023277Y68450472D01*
X20890114Y68532924D01*
X20836797Y68543184D01*
X20809886Y68532924D01*
X20676723Y68450472D01*
X20670450Y68447349D01*
X20494128Y68379042D01*
X20487393Y68377126D01*
X20301520Y68342380D01*
X20294544Y68341734D01*
X20105456Y68341734D01*
X20098480Y68342380D01*
X19912607Y68377126D01*
X19905872Y68379042D01*
X19729550Y68447349D01*
X19723277Y68450472D01*
X19640114Y68501965D01*
X19586797Y68512225D01*
X19559886Y68501965D01*
X19476723Y68450472D01*
X19470450Y68447349D01*
X19294128Y68379042D01*
X19287393Y68377126D01*
X19101520Y68342380D01*
X19094544Y68341734D01*
X18905456Y68341734D01*
X18898480Y68342380D01*
X18712607Y68377126D01*
X18705872Y68379042D01*
X18529550Y68447349D01*
X18523277Y68450472D01*
X18390114Y68532924D01*
X18336797Y68543184D01*
X18309886Y68532924D01*
X18176723Y68450472D01*
X18170450Y68447349D01*
X17994128Y68379042D01*
X17987393Y68377126D01*
X17801520Y68342380D01*
X17794544Y68341734D01*
X17605456Y68341734D01*
X17598480Y68342380D01*
X17412607Y68377126D01*
X17405872Y68379042D01*
X17229550Y68447349D01*
X17223272Y68450475D01*
X17190113Y68471006D01*
X17136796Y68481266D01*
X17109887Y68471006D01*
X17076728Y68450475D01*
X17070450Y68447349D01*
X16894128Y68379042D01*
X16887393Y68377126D01*
X16701520Y68342380D01*
X16694544Y68341734D01*
X16505456Y68341734D01*
X16498480Y68342380D01*
X16312607Y68377126D01*
X16305872Y68379042D01*
X16129550Y68447349D01*
X16123277Y68450472D01*
X15962508Y68550017D01*
X15956922Y68554235D01*
X15817180Y68681626D01*
X15812460Y68686805D01*
X15698514Y68837694D01*
X15694819Y68843662D01*
X15610539Y69012919D01*
X15608004Y69019463D01*
X15556259Y69201325D01*
X15554971Y69208215D01*
X15537525Y69396493D01*
X15537525Y69403507D01*
X15554971Y69591785D01*
X15556259Y69598675D01*
X15608004Y69780537D01*
X15610539Y69787081D01*
X15694819Y69956338D01*
X15698514Y69962306D01*
X15812460Y70113195D01*
X15817181Y70118374D01*
X15819503Y70120491D01*
X15843963Y70168965D01*
X15829940Y70221418D01*
X15808709Y70241322D01*
X15713539Y70301122D01*
X15706900Y70306417D01*
X15616417Y70396900D01*
X15611122Y70403539D01*
X15543043Y70511885D01*
X15539356Y70519540D01*
X15536058Y70528967D01*
X15501045Y70570464D01*
X15464135Y70580000D01*
X13654035Y70580000D01*
X13645907Y70583099D01*
X13640000Y70596286D01*
X13640000Y73510960D01*
X13643099Y73519088D01*
X13656286Y73524995D01*
X13940000Y73524995D01*
X13940000Y72600000D01*
X15240000Y72600000D01*
X15240000Y74750000D01*
X13940000Y74750000D01*
X13940000Y73825005D01*
X13654035Y73825005D01*
X13645907Y73828104D01*
X13640000Y73841291D01*
X13640000Y74747008D01*
X13640468Y74752954D01*
X13653745Y74836782D01*
X13657405Y74848048D01*
X13694574Y74920995D01*
X13701534Y74930575D01*
X13759425Y74988466D01*
X13769005Y74995426D01*
X13841952Y75032595D01*
X13853218Y75036255D01*
X13937046Y75049532D01*
X13942992Y75050000D01*
X14363801Y75050000D01*
X14414533Y75069344D01*
X14440000Y75126199D01*
X14440000Y76035965D01*
X14443099Y76044093D01*
X14456286Y76050000D01*
X16625965Y76050000D01*
X16634093Y76046901D01*
X16640000Y76033714D01*
X16640000Y72665799D01*
X16659344Y72615067D01*
X16716199Y72589600D01*
X16887866Y72589600D01*
X16892119Y72589361D01*
X17021401Y72574795D01*
X17029685Y72572904D01*
X17089833Y72551857D01*
X17140167Y72551857D01*
X17200315Y72572904D01*
X17208599Y72574795D01*
X17337881Y72589361D01*
X17342134Y72589600D01*
X18137866Y72589600D01*
X18142119Y72589361D01*
X18271401Y72574795D01*
X18279685Y72572904D01*
X18339833Y72551857D01*
X18390167Y72551857D01*
X18450315Y72572904D01*
X18458599Y72574795D01*
X18587881Y72589361D01*
X18592134Y72589600D01*
X19387866Y72589600D01*
X19392119Y72589361D01*
X19521401Y72574795D01*
X19529685Y72572904D01*
X19589833Y72551857D01*
X19640167Y72551857D01*
X19700315Y72572904D01*
X19708599Y72574795D01*
X19837881Y72589361D01*
X19842134Y72589600D01*
X20637866Y72589600D01*
X20642119Y72589361D01*
X20771401Y72574795D01*
X20779685Y72572904D01*
X20839833Y72551857D01*
X20890167Y72551857D01*
X20950315Y72572904D01*
X20958599Y72574795D01*
X21087881Y72589361D01*
X21092134Y72589600D01*
X21850193Y72589600D01*
X21900925Y72608944D01*
X21925900Y72657154D01*
X21909095Y72714139D01*
X21881054Y72748306D01*
X21876909Y72754510D01*
X21789154Y72918689D01*
X21786307Y72925562D01*
X21732266Y73103711D01*
X21730813Y73111013D01*
X21712567Y73296274D01*
X21712567Y73303726D01*
X21730813Y73488987D01*
X21732266Y73496289D01*
X21786307Y73674438D01*
X21789154Y73681311D01*
X21876909Y73845490D01*
X21881050Y73851687D01*
X21999145Y73995586D01*
X22004414Y74000855D01*
X22148313Y74118950D01*
X22154510Y74123091D01*
X22318689Y74210846D01*
X22325562Y74213693D01*
X22503711Y74267734D01*
X22511013Y74269187D01*
X22696274Y74287433D01*
X22703726Y74287433D01*
X22888987Y74269187D01*
X22896289Y74267734D01*
X23074438Y74213693D01*
X23081311Y74210846D01*
X23245490Y74123091D01*
X23251687Y74118950D01*
X23363855Y74026896D01*
X23412195Y74009600D01*
X28397865Y74009600D01*
X28402121Y74009361D01*
X28435351Y74005617D01*
X28443882Y74005138D01*
X28475172Y74005138D01*
X28483620Y74004186D01*
X28514130Y73997223D01*
X28522553Y73995792D01*
X28553652Y73992288D01*
X28561934Y73990397D01*
X28591473Y73980061D01*
X28599686Y73977695D01*
X28630192Y73970733D01*
X28638225Y73967922D01*
X28666413Y73954347D01*
X28674307Y73951077D01*
X28703850Y73940739D01*
X28711505Y73937053D01*
X28723259Y73929667D01*
X28776506Y73919053D01*
X28823303Y73946585D01*
X28840000Y73994185D01*
X28840000Y76035965D01*
X28843099Y76044093D01*
X28856286Y76050000D01*
X31025965Y76050000D01*
X31034093Y76046901D01*
X31040000Y76033714D01*
X31040000Y75126199D01*
X31059344Y75075467D01*
X31116199Y75050000D01*
X31537008Y75050000D01*
X31542954Y75049532D01*
X31626782Y75036255D01*
X31638048Y75032595D01*
X31710995Y74995426D01*
X31720575Y74988466D01*
X31778466Y74930575D01*
X31785426Y74920995D01*
X31822595Y74848048D01*
X31826255Y74836782D01*
X31839532Y74752954D01*
X31840000Y74747008D01*
X31840000Y73839040D01*
X31836901Y73830912D01*
X31823714Y73825005D01*
X31540000Y73825005D01*
X31540000Y74750000D01*
X30240000Y74750000D01*
X30240000Y72600000D01*
X31540000Y72600000D01*
X31540000Y73524995D01*
X31825965Y73524995D01*
X31834093Y73521896D01*
X31840000Y73508709D01*
X31840000Y70594035D01*
X31836901Y70585907D01*
X31823714Y70580000D01*
X30444549Y70580000D01*
X30393817Y70560656D01*
X30368350Y70503801D01*
X30368350Y70246305D01*
X30387694Y70195573D01*
X30415389Y70175906D01*
X31540806Y69709742D01*
X31567198Y69703992D01*
X33601138Y69630070D01*
X33601138Y72695133D01*
X33594162Y72695779D01*
X33399807Y72732111D01*
X33393054Y72734033D01*
X33208697Y72805453D01*
X33202415Y72808581D01*
X33034305Y72912670D01*
X33028719Y72916888D01*
X32882595Y73050097D01*
X32877875Y73055276D01*
X32758724Y73213057D01*
X32755029Y73219025D01*
X32666899Y73396013D01*
X32664364Y73402557D01*
X32610256Y73592726D01*
X32608968Y73599616D01*
X32590725Y73796493D01*
X32590725Y73803507D01*
X32608968Y74000384D01*
X32610256Y74007274D01*
X32664364Y74197443D01*
X32666899Y74203987D01*
X32755029Y74380975D01*
X32758724Y74386943D01*
X32877875Y74544724D01*
X32882595Y74549903D01*
X33028719Y74683112D01*
X33034305Y74687330D01*
X33202415Y74791419D01*
X33208697Y74794547D01*
X33393054Y74865967D01*
X33399807Y74867889D01*
X33594162Y74904221D01*
X33601138Y74904867D01*
X33798862Y74904867D01*
X33805838Y74904221D01*
X34000193Y74867889D01*
X34006946Y74865967D01*
X34191303Y74794547D01*
X34197585Y74791419D01*
X34365695Y74687330D01*
X34371281Y74683112D01*
X34517405Y74549903D01*
X34522125Y74544724D01*
X34641276Y74386943D01*
X34644971Y74380975D01*
X34733101Y74203987D01*
X34735636Y74197443D01*
X34789744Y74007274D01*
X34791032Y74000384D01*
X34809275Y73803507D01*
X34809275Y73796493D01*
X34791032Y73599616D01*
X34789744Y73592726D01*
X34735636Y73402557D01*
X34733101Y73396013D01*
X34644971Y73219025D01*
X34641276Y73213057D01*
X34522125Y73055276D01*
X34517405Y73050097D01*
X34371281Y72916888D01*
X34365695Y72912670D01*
X34197585Y72808581D01*
X34191303Y72805453D01*
X34006946Y72734033D01*
X34000193Y72732111D01*
X33805838Y72695779D01*
X33798862Y72695133D01*
X33601138Y72695133D01*
X33601138Y69630070D01*
X34006159Y69615350D01*
X34038087Y69621100D01*
X35184041Y70095770D01*
X35208762Y70112288D01*
X35812775Y70716301D01*
X35815959Y70719146D01*
X35859252Y70753672D01*
X35862516Y70756428D01*
X35902235Y70791922D01*
X35909168Y70796841D01*
X35917281Y70801325D01*
X35927932Y70808442D01*
X35935172Y70814216D01*
X35942376Y70818742D01*
X35990349Y70841845D01*
X35994147Y70843807D01*
X36042623Y70870599D01*
X36046475Y70872454D01*
X36399057Y71018498D01*
X36438525Y71055784D01*
X36443149Y71109882D01*
X36410582Y71153325D01*
X36383899Y71163799D01*
X36312607Y71177126D01*
X36305872Y71179042D01*
X36129550Y71247349D01*
X36123277Y71250472D01*
X35962508Y71350017D01*
X35956922Y71354235D01*
X35817180Y71481626D01*
X35812460Y71486805D01*
X35698514Y71637694D01*
X35694819Y71643662D01*
X35610539Y71812919D01*
X35608004Y71819463D01*
X35556259Y72001325D01*
X35554971Y72008215D01*
X35537525Y72196493D01*
X35537525Y72203507D01*
X35554971Y72391785D01*
X35556259Y72398675D01*
X35608004Y72580537D01*
X35610539Y72587081D01*
X35694819Y72756338D01*
X35698514Y72762306D01*
X35812460Y72913195D01*
X35817180Y72918374D01*
X35956922Y73045765D01*
X35962508Y73049983D01*
X36123277Y73149528D01*
X36129550Y73152651D01*
X36305872Y73220958D01*
X36312607Y73222874D01*
X36498480Y73257620D01*
X36505456Y73258266D01*
X36694544Y73258266D01*
X36701520Y73257620D01*
X36887393Y73222874D01*
X36894128Y73220958D01*
X37070450Y73152651D01*
X37076723Y73149528D01*
X37237492Y73049983D01*
X37243078Y73045765D01*
X37370629Y72929487D01*
X37421964Y72909600D01*
X37543995Y72909600D01*
X37594727Y72928944D01*
X37615918Y72960633D01*
X37619356Y72970460D01*
X37623043Y72978115D01*
X37691122Y73086461D01*
X37696417Y73093100D01*
X37786900Y73183583D01*
X37793539Y73188878D01*
X37901885Y73256957D01*
X37909540Y73260644D01*
X37918967Y73263942D01*
X37960464Y73298955D01*
X37970000Y73335865D01*
X37970000Y75145965D01*
X37973099Y75154093D01*
X37986286Y75160000D01*
X40900960Y75160000D01*
X40909088Y75156901D01*
X40914995Y75143714D01*
X40914995Y74860000D01*
X39990000Y74860000D01*
X39990000Y73560000D01*
X42140000Y73560000D01*
X42140000Y74860000D01*
X41215005Y74860000D01*
X41215005Y75145965D01*
X41218104Y75154093D01*
X41231291Y75160000D01*
X42137008Y75160000D01*
X42142954Y75159532D01*
X42226782Y75146255D01*
X42238048Y75142595D01*
X42310995Y75105426D01*
X42320575Y75098466D01*
X42378466Y75040575D01*
X42385426Y75030995D01*
X42422595Y74958048D01*
X42426255Y74946782D01*
X42439532Y74862954D01*
X42440000Y74857008D01*
X42440000Y74436199D01*
X42459344Y74385467D01*
X42516199Y74360000D01*
X43425965Y74360000D01*
X43434093Y74356901D01*
X43440000Y74343714D01*
X43440000Y72174035D01*
X43436901Y72165907D01*
X43423714Y72160000D01*
X40055799Y72160000D01*
X40005067Y72140656D01*
X39979600Y72083801D01*
X39979600Y71912134D01*
X39979361Y71907881D01*
X39964795Y71778599D01*
X39962904Y71770315D01*
X39941857Y71710167D01*
X39941857Y71659833D01*
X39962904Y71599685D01*
X39964795Y71591401D01*
X39979361Y71462119D01*
X39979600Y71457866D01*
X39979600Y70662134D01*
X39979361Y70657881D01*
X39964795Y70528599D01*
X39962904Y70520315D01*
X39920642Y70399538D01*
X39916957Y70391885D01*
X39848878Y70283539D01*
X39843583Y70276900D01*
X39753100Y70186417D01*
X39746461Y70181122D01*
X39705658Y70155484D01*
X39670000Y70090965D01*
X39670000Y69974040D01*
X39666901Y69965912D01*
X39653714Y69960005D01*
X39370000Y69960005D01*
X39370000Y70210000D01*
X38170000Y70210000D01*
X38170000Y69960005D01*
X37884035Y69960005D01*
X37875907Y69963104D01*
X37870000Y69976291D01*
X37870000Y69977612D01*
X37850656Y70028344D01*
X37802446Y70053319D01*
X37764641Y70048011D01*
X36732009Y69620280D01*
X36707288Y69603762D01*
X36404118Y69300592D01*
X36381923Y69251040D01*
X36398353Y69199291D01*
X36445067Y69171617D01*
X36487159Y69176312D01*
X36579999Y69214768D01*
X36584027Y69216177D01*
X36730553Y69258390D01*
X36738932Y69259814D01*
X36889038Y69268244D01*
X36897533Y69267767D01*
X37045744Y69242585D01*
X37053922Y69240229D01*
X37192815Y69182697D01*
X37200264Y69178580D01*
X37322874Y69091584D01*
X37329215Y69085917D01*
X37432246Y68970625D01*
X37433598Y68971833D01*
X37473408Y68945211D01*
X37527179Y68952739D01*
X37566141Y69010954D01*
X37575205Y69091400D01*
X37577096Y69099685D01*
X37619358Y69220462D01*
X37623043Y69228115D01*
X37691122Y69336461D01*
X37696417Y69343100D01*
X37786900Y69433583D01*
X37793539Y69438878D01*
X37834342Y69464516D01*
X37870000Y69529035D01*
X37870000Y69645960D01*
X37873099Y69654088D01*
X37886286Y69659995D01*
X38170000Y69659995D01*
X38170000Y69410000D01*
X39370000Y69410000D01*
X39370000Y69659995D01*
X39655965Y69659995D01*
X39664093Y69656896D01*
X39670000Y69643709D01*
X39670000Y69529035D01*
X39705658Y69464516D01*
X39746461Y69438878D01*
X39753100Y69433583D01*
X39843583Y69343100D01*
X39848878Y69336461D01*
X39916957Y69228115D01*
X39920642Y69220462D01*
X39962904Y69099685D01*
X39964795Y69091401D01*
X39979361Y68962119D01*
X39979600Y68957866D01*
X39979600Y68162134D01*
X39979361Y68157881D01*
X39964795Y68028599D01*
X39962904Y68020315D01*
X39941857Y67960167D01*
X39941857Y67909833D01*
X39962904Y67849685D01*
X39964795Y67841401D01*
X39979361Y67712119D01*
X39979600Y67707866D01*
X39979600Y67536199D01*
X39998944Y67485467D01*
X40055799Y67460000D01*
X43425965Y67460000D01*
X43434093Y67456901D01*
X43440000Y67443714D01*
X43440000Y65274035D01*
X43436901Y65265907D01*
X43423714Y65260000D01*
X42516199Y65260000D01*
X42465467Y65240656D01*
X42440000Y65183801D01*
X42440000Y64762992D01*
X42439532Y64757046D01*
X42426255Y64673218D01*
X42422595Y64661952D01*
X42385426Y64589005D01*
X42378466Y64579425D01*
X42320575Y64521534D01*
X42310995Y64514574D01*
X42238048Y64477405D01*
X42226782Y64473745D01*
X42142954Y64460468D01*
X42137008Y64460000D01*
X41229040Y64460000D01*
X41220912Y64463099D01*
X41215005Y64476286D01*
X41215005Y64760000D01*
X42140000Y64760000D01*
X42140000Y66060000D01*
X39990000Y66060000D01*
X39990000Y64760000D01*
X40914995Y64760000D01*
X40914995Y64474035D01*
X40911896Y64465907D01*
X40898709Y64460000D01*
X37984035Y64460000D01*
X37975907Y64463099D01*
X37970000Y64476286D01*
X37970000Y66205703D01*
X37950656Y66256435D01*
X37902446Y66281410D01*
X37860741Y66274356D01*
X37840362Y66264543D01*
X37832337Y66261735D01*
X37803140Y66255070D01*
X37794931Y66252705D01*
X37766643Y66242807D01*
X37758355Y66240915D01*
X37728580Y66237560D01*
X37720157Y66236129D01*
X37690956Y66229464D01*
X37682509Y66228513D01*
X37652559Y66228513D01*
X37644028Y66228034D01*
X37612120Y66224439D01*
X37607864Y66224200D01*
X36051605Y66224200D01*
X36022445Y66218400D01*
X35182009Y65870280D01*
X35157288Y65853762D01*
X33866754Y64563228D01*
X33844559Y64513676D01*
X33860989Y64461927D01*
X33927276Y64433438D01*
X33996685Y64439510D01*
X34003315Y64439510D01*
X34211974Y64421255D01*
X34218500Y64420104D01*
X34420829Y64365891D01*
X34427048Y64363627D01*
X34616888Y64275102D01*
X34622621Y64271793D01*
X34750538Y64182224D01*
X34753192Y64178309D01*
X34748037Y64160176D01*
X34548022Y63960161D01*
X34522125Y63981415D01*
X34359646Y64068262D01*
X34183346Y64121742D01*
X34000000Y64139800D01*
X33816654Y64121742D01*
X33640354Y64068262D01*
X33477875Y63981415D01*
X33335461Y63864539D01*
X33218585Y63722125D01*
X33131738Y63559646D01*
X33078258Y63383346D01*
X33060200Y63200000D01*
X33078258Y63016654D01*
X33131738Y62840354D01*
X33218585Y62677875D01*
X33239839Y62651978D01*
X33035750Y62447889D01*
X33031434Y62445956D01*
X33014471Y62454182D01*
X32928207Y62577379D01*
X32924898Y62583112D01*
X32836373Y62772952D01*
X32834109Y62779171D01*
X32779896Y62981500D01*
X32778745Y62988026D01*
X32760490Y63196685D01*
X32760490Y63203315D01*
X32766562Y63272724D01*
X32751713Y63324950D01*
X32705863Y63354031D01*
X32636772Y63333246D01*
X30796237Y61492711D01*
X30779719Y61467990D01*
X30602664Y61040542D01*
X30601121Y60986269D01*
X30619182Y60957501D01*
X30648583Y60928100D01*
X30653878Y60921461D01*
X30721957Y60813115D01*
X30725642Y60805462D01*
X30767904Y60684685D01*
X30769795Y60676401D01*
X30784361Y60547119D01*
X30784600Y60542866D01*
X30784600Y60476199D01*
X30803944Y60425467D01*
X30860799Y60400000D01*
X32388631Y60400000D01*
X32439363Y60419344D01*
X32464595Y60482178D01*
X32450835Y60657014D01*
X32450835Y60662986D01*
X32469441Y60899399D01*
X32470374Y60905286D01*
X32525733Y61135877D01*
X32527580Y61141560D01*
X32618331Y61360655D01*
X32621035Y61365961D01*
X32744943Y61568159D01*
X32748455Y61572993D01*
X32902460Y61753309D01*
X32906691Y61757540D01*
X33087007Y61911545D01*
X33091841Y61915057D01*
X33294039Y62038965D01*
X33302023Y62043033D01*
X33301321Y62044411D01*
X33337168Y62078259D01*
X33341806Y62132355D01*
X33312254Y62173807D01*
X33249463Y62217774D01*
X33246808Y62221691D01*
X33251963Y62239824D01*
X33451978Y62439839D01*
X33477875Y62418585D01*
X33640354Y62331738D01*
X33816654Y62278258D01*
X34000000Y62260200D01*
X34183346Y62278258D01*
X34359646Y62331738D01*
X34522125Y62418585D01*
X34548022Y62439839D01*
X34752111Y62235750D01*
X34754044Y62231434D01*
X34745817Y62214469D01*
X34687746Y62173807D01*
X34657284Y62128863D01*
X34664478Y62075047D01*
X34698624Y62044302D01*
X34697977Y62043033D01*
X34705961Y62038965D01*
X34908159Y61915057D01*
X34912993Y61911545D01*
X34978309Y61855759D01*
X34978309Y62446808D01*
X34960176Y62451963D01*
X34760161Y62651978D01*
X34781415Y62677875D01*
X34868262Y62840354D01*
X34921742Y63016654D01*
X34939800Y63200000D01*
X34921742Y63383346D01*
X34868262Y63559646D01*
X34781415Y63722125D01*
X34760161Y63748022D01*
X34964250Y63952111D01*
X34968566Y63954044D01*
X34985529Y63945818D01*
X35071793Y63822621D01*
X35075102Y63816888D01*
X35163627Y63627048D01*
X35165891Y63620829D01*
X35220104Y63418500D01*
X35221255Y63411974D01*
X35239510Y63203315D01*
X35239510Y63196685D01*
X35221255Y62988026D01*
X35220104Y62981500D01*
X35165891Y62779171D01*
X35163627Y62772952D01*
X35075102Y62583112D01*
X35071793Y62577379D01*
X34982224Y62449462D01*
X34978309Y62446808D01*
X34978309Y61855759D01*
X35093309Y61757540D01*
X35097540Y61753309D01*
X35251545Y61572993D01*
X35255057Y61568159D01*
X35378965Y61365961D01*
X35381669Y61360655D01*
X35472420Y61141560D01*
X35474267Y61135877D01*
X35529626Y60905286D01*
X35530559Y60899399D01*
X35549165Y60662986D01*
X35549165Y60657014D01*
X35535405Y60482178D01*
X35550709Y60430084D01*
X35611369Y60400000D01*
X37103310Y60400000D01*
X37154042Y60419344D01*
X37179508Y60475744D01*
X37190396Y62301202D01*
X37190736Y62306048D01*
X37210596Y62453224D01*
X37213111Y62462592D01*
X37268702Y62597652D01*
X37273511Y62606078D01*
X37361526Y62722627D01*
X37368314Y62729559D01*
X37483005Y62819988D01*
X37491328Y62824972D01*
X37624963Y62883265D01*
X37634773Y62886049D01*
X37797340Y62909221D01*
X37802691Y62909600D01*
X41966426Y62909600D01*
X41973869Y62909964D01*
X42307836Y62942741D01*
X42315233Y62943836D01*
X42644264Y63009165D01*
X42651518Y63010980D01*
X42972546Y63108243D01*
X42979588Y63110759D01*
X43289561Y63239028D01*
X43296322Y63242223D01*
X43592220Y63400252D01*
X43598635Y63404094D01*
X43877611Y63590361D01*
X43883619Y63594814D01*
X44143001Y63807533D01*
X44148543Y63812553D01*
X44385818Y64049665D01*
X44390842Y64055203D01*
X44603748Y64314446D01*
X44608205Y64320451D01*
X44794670Y64599307D01*
X44798516Y64605720D01*
X44956745Y64901497D01*
X44959945Y64908256D01*
X45088423Y65218128D01*
X45090944Y65225167D01*
X45188432Y65546143D01*
X45190252Y65553397D01*
X45255807Y65882373D01*
X45256907Y65889769D01*
X45289903Y66223606D01*
X45290272Y66231075D01*
X45290400Y66599974D01*
X45290400Y73187463D01*
X45290319Y73190982D01*
X45272904Y73567643D01*
X45272254Y73574651D01*
X45222360Y73932331D01*
X45221067Y73939250D01*
X45138376Y74290831D01*
X45136450Y74297600D01*
X45021670Y74640059D01*
X45019127Y74646622D01*
X44873252Y74976997D01*
X44870115Y74983298D01*
X44694365Y75298831D01*
X44690660Y75304815D01*
X44486554Y75602772D01*
X44482312Y75608388D01*
X44251576Y75886253D01*
X44246835Y75891455D01*
X43991455Y76146835D01*
X43986253Y76151576D01*
X43708388Y76382312D01*
X43702772Y76386554D01*
X43404815Y76590660D01*
X43398831Y76594365D01*
X43083302Y76770113D01*
X43077001Y76773250D01*
X42746615Y76919130D01*
X42740052Y76921673D01*
X42397603Y77036450D01*
X42390834Y77038376D01*
X42039250Y77121067D01*
X42032331Y77122360D01*
X41674651Y77172254D01*
X41667643Y77172904D01*
X41290982Y77190319D01*
X41287463Y77190400D01*
X5428156Y77190400D01*
X5421909Y77190143D01*
X5027371Y77157688D01*
X5020776Y77156855D01*
X4632326Y77090438D01*
X4625828Y77089033D01*
X4244626Y76989007D01*
X4238277Y76987041D01*
X3867273Y76854185D01*
X3861118Y76851673D01*
X3503081Y76686974D01*
X3497169Y76683935D01*
X3154864Y76488667D01*
X3149239Y76485125D01*
X2825237Y76260754D01*
X2819942Y76256734D01*
X2516751Y76004996D01*
X2511827Y76000531D01*
X2231713Y75723311D01*
X2227196Y75718433D01*
X1972319Y75417866D01*
X1968245Y75412613D01*
X1740533Y75090970D01*
X1736932Y75085383D01*
X1538114Y74745112D01*
X1535014Y74739231D01*
X1366606Y74382919D01*
X1364031Y74376791D01*
X1227330Y74007191D01*
X1225298Y74000861D01*
X1121324Y73620726D01*
X1119851Y73614244D01*
X1049404Y73226499D01*
X1048502Y73219913D01*
X1012117Y72827505D01*
X1011793Y72820866D01*
X1009601Y72398571D01*
X1009600Y72398175D01*
X1009600Y67300252D01*
X1009599Y67299950D01*
X1009600Y67299950D01*
X1009581Y67295204D01*
X1009580Y67295158D01*
X1009580Y67295017D01*
X1006483Y66901492D01*
G37*
G36*
X8209600Y12404101D02*
X8228944Y12353369D01*
X8277154Y12328394D01*
X8329754Y12341857D01*
X8349561Y12365255D01*
X8350769Y12364496D01*
X8421122Y12476461D01*
X8426417Y12483100D01*
X8516900Y12573583D01*
X8523539Y12578878D01*
X8631885Y12646957D01*
X8639538Y12650642D01*
X8760315Y12692904D01*
X8768599Y12694795D01*
X8897881Y12709361D01*
X8902134Y12709600D01*
X10997866Y12709600D01*
X11002119Y12709361D01*
X11131401Y12694795D01*
X11139685Y12692904D01*
X11260462Y12650642D01*
X11268115Y12646957D01*
X11376461Y12578878D01*
X11383100Y12573583D01*
X11473583Y12483100D01*
X11478878Y12476461D01*
X11546957Y12368115D01*
X11550642Y12360462D01*
X11592904Y12239685D01*
X11594795Y12231401D01*
X11609361Y12102119D01*
X11609600Y12097866D01*
X11609600Y10775489D01*
X11631918Y10721608D01*
X12811608Y9541918D01*
X12865489Y9519600D01*
X13260592Y9519600D01*
X13325562Y9555985D01*
X13424943Y9718159D01*
X13428455Y9722993D01*
X13582460Y9903309D01*
X13586691Y9907540D01*
X13720774Y10022058D01*
X13746789Y10069715D01*
X13720774Y10137942D01*
X13586691Y10252460D01*
X13582460Y10256691D01*
X13428455Y10437007D01*
X13424943Y10441841D01*
X13301035Y10644039D01*
X13298331Y10649345D01*
X13207580Y10868440D01*
X13205733Y10874123D01*
X13150374Y11104714D01*
X13149441Y11110601D01*
X13130835Y11347014D01*
X13130835Y11352986D01*
X13149441Y11589399D01*
X13150374Y11595286D01*
X13205733Y11825877D01*
X13207580Y11831560D01*
X13298331Y12050655D01*
X13301035Y12055961D01*
X13424943Y12258159D01*
X13428455Y12262993D01*
X13582460Y12443309D01*
X13586691Y12447540D01*
X13720774Y12562058D01*
X13746789Y12609715D01*
X13720774Y12677942D01*
X13586691Y12792460D01*
X13582460Y12796691D01*
X13428455Y12977007D01*
X13424943Y12981841D01*
X13301035Y13184039D01*
X13298331Y13189345D01*
X13207580Y13408440D01*
X13205733Y13414123D01*
X13150374Y13644714D01*
X13149441Y13650601D01*
X13130835Y13887014D01*
X13130835Y13892986D01*
X13149441Y14129399D01*
X13150374Y14135286D01*
X13205733Y14365877D01*
X13207580Y14371560D01*
X13298331Y14590655D01*
X13301035Y14595961D01*
X13424943Y14798159D01*
X13428455Y14802993D01*
X13582460Y14983309D01*
X13586691Y14987540D01*
X13767007Y15141545D01*
X13771841Y15145057D01*
X13974039Y15268965D01*
X13979345Y15271669D01*
X14198440Y15362420D01*
X14204123Y15364267D01*
X14434714Y15419626D01*
X14440601Y15420559D01*
X14677014Y15439165D01*
X14682986Y15439165D01*
X14919399Y15420559D01*
X14925286Y15419626D01*
X15155877Y15364267D01*
X15161560Y15362420D01*
X15380655Y15271669D01*
X15385961Y15268965D01*
X15588159Y15145057D01*
X15592993Y15141545D01*
X15773309Y14987540D01*
X15777540Y14983309D01*
X15931545Y14802993D01*
X15935057Y14798159D01*
X16058965Y14595961D01*
X16061669Y14590655D01*
X16152420Y14371560D01*
X16154267Y14365877D01*
X16209626Y14135286D01*
X16210559Y14129399D01*
X16229165Y13892986D01*
X16229165Y13887014D01*
X16210559Y13650601D01*
X16209626Y13644714D01*
X16154267Y13414123D01*
X16152420Y13408440D01*
X16061669Y13189345D01*
X16058965Y13184039D01*
X15935057Y12981841D01*
X15931545Y12977007D01*
X15777540Y12796691D01*
X15773309Y12792460D01*
X15639226Y12677942D01*
X15613211Y12630285D01*
X15639226Y12562058D01*
X15773309Y12447540D01*
X15777540Y12443309D01*
X15931545Y12262993D01*
X15935057Y12258159D01*
X16034438Y12095985D01*
X16099408Y12059600D01*
X19864511Y12059600D01*
X19918392Y12081918D01*
X20665666Y12829192D01*
X20665666Y17041297D01*
X20650471Y17047785D01*
X20597402Y17109922D01*
X20593895Y17114749D01*
X20464814Y17325392D01*
X20462109Y17330698D01*
X20367568Y17558941D01*
X20365721Y17564624D01*
X20308051Y17804843D01*
X20307118Y17810730D01*
X20287735Y18057014D01*
X20287735Y18062986D01*
X20307118Y18309270D01*
X20308051Y18315157D01*
X20365721Y18555376D01*
X20367568Y18561059D01*
X20462109Y18789302D01*
X20464814Y18794608D01*
X20593895Y19005251D01*
X20597402Y19010078D01*
X20652955Y19075122D01*
X20659037Y19078442D01*
X20674695Y19073166D01*
X20873825Y18874036D01*
X20763342Y18716250D01*
X20666653Y18508901D01*
X20607440Y18287913D01*
X20587500Y18060000D01*
X20607440Y17832087D01*
X20666653Y17611099D01*
X20763342Y17403750D01*
X20873825Y17245964D01*
X20671992Y17044131D01*
X20665666Y17041297D01*
X20665666Y12829192D01*
X21897014Y14060540D01*
X21897014Y16447735D01*
X21650730Y16467118D01*
X21644843Y16468051D01*
X21404624Y16525721D01*
X21398941Y16527568D01*
X21170698Y16622109D01*
X21165392Y16624814D01*
X20954749Y16753895D01*
X20949922Y16757402D01*
X20884878Y16812955D01*
X20881558Y16819037D01*
X20886834Y16834695D01*
X21085964Y17033825D01*
X21085964Y19086175D01*
X20884131Y19288008D01*
X20881297Y19294334D01*
X20887785Y19309529D01*
X20949922Y19362598D01*
X20954749Y19366105D01*
X21165392Y19495186D01*
X21170698Y19497891D01*
X21398941Y19592432D01*
X21404624Y19594279D01*
X21644843Y19651949D01*
X21650730Y19652882D01*
X21897014Y19672265D01*
X21902986Y19672265D01*
X22149270Y19652882D01*
X22155157Y19651949D01*
X22395376Y19594279D01*
X22401059Y19592432D01*
X22629302Y19497891D01*
X22634608Y19495186D01*
X22845251Y19366105D01*
X22850078Y19362598D01*
X22915122Y19307045D01*
X22918442Y19300963D01*
X22913166Y19285305D01*
X22714036Y19086175D01*
X22556250Y19196658D01*
X22348901Y19293347D01*
X22127913Y19352560D01*
X21900000Y19372500D01*
X21672087Y19352560D01*
X21451099Y19293347D01*
X21243750Y19196658D01*
X21085964Y19086175D01*
X21085964Y17033825D01*
X21243750Y16923342D01*
X21451099Y16826653D01*
X21672087Y16767440D01*
X21900000Y16747500D01*
X22127913Y16767440D01*
X22348901Y16826653D01*
X22556250Y16923342D01*
X22714036Y17033825D01*
X22915869Y16831992D01*
X22918703Y16825666D01*
X22912215Y16810471D01*
X22850078Y16757402D01*
X22845251Y16753895D01*
X22634608Y16624814D01*
X22629302Y16622109D01*
X22401059Y16527568D01*
X22395376Y16525721D01*
X22155157Y16468051D01*
X22149270Y16467118D01*
X21902986Y16447735D01*
X21897014Y16447735D01*
X21897014Y14060540D01*
X23140963Y15304489D01*
X23140963Y17041558D01*
X23125305Y17046834D01*
X22926175Y17245964D01*
X23036658Y17403750D01*
X23133347Y17611099D01*
X23192560Y17832087D01*
X23212500Y18060000D01*
X23192560Y18287913D01*
X23133347Y18508901D01*
X23036658Y18716250D01*
X22926175Y18874036D01*
X23128008Y19075869D01*
X23134334Y19078703D01*
X23149529Y19072215D01*
X23202598Y19010078D01*
X23206105Y19005251D01*
X23335186Y18794608D01*
X23337891Y18789302D01*
X23432432Y18561059D01*
X23434279Y18555376D01*
X23491949Y18315157D01*
X23492882Y18309270D01*
X23512265Y18062986D01*
X23512265Y18057014D01*
X23492882Y17810730D01*
X23491949Y17804843D01*
X23434279Y17564624D01*
X23432432Y17558941D01*
X23337891Y17330698D01*
X23335186Y17325392D01*
X23206105Y17114749D01*
X23202598Y17109922D01*
X23147045Y17044878D01*
X23140963Y17041558D01*
X23140963Y15304489D01*
X25102411Y17265937D01*
X25124606Y17315489D01*
X25119925Y17346447D01*
X25056710Y17515932D01*
X25055180Y17521142D01*
X24998043Y17783796D01*
X24997270Y17789174D01*
X24978094Y18057288D01*
X24978094Y18062712D01*
X24997270Y18330826D01*
X24998043Y18336204D01*
X25055180Y18598858D01*
X25056710Y18604068D01*
X25150645Y18855920D01*
X25152902Y18860861D01*
X25281721Y19096774D01*
X25284661Y19101348D01*
X25445743Y19316529D01*
X25449295Y19320629D01*
X25639371Y19510705D01*
X25643471Y19514257D01*
X25858652Y19675339D01*
X25863226Y19678279D01*
X25989670Y19747323D01*
X26024927Y19788614D01*
X26023741Y19842896D01*
X25986717Y19882609D01*
X25953152Y19890400D01*
X18291058Y19890400D01*
X18240326Y19871056D01*
X18215351Y19822846D01*
X18219135Y19789034D01*
X18232904Y19749685D01*
X18234795Y19741401D01*
X18249361Y19612119D01*
X18249600Y19607866D01*
X18249600Y18112134D01*
X18249361Y18107881D01*
X18234795Y17978599D01*
X18232904Y17970315D01*
X18190642Y17849538D01*
X18186957Y17841885D01*
X18118878Y17733539D01*
X18113583Y17726900D01*
X18023100Y17636417D01*
X18016461Y17631122D01*
X17908115Y17563043D01*
X17900462Y17559358D01*
X17779685Y17517096D01*
X17771401Y17515205D01*
X17642119Y17500639D01*
X17637866Y17500400D01*
X15715489Y17500400D01*
X15661608Y17478082D01*
X13483274Y15299748D01*
X13480092Y15296905D01*
X13453955Y15276061D01*
X13447583Y15270367D01*
X13425449Y15248233D01*
X13418812Y15242940D01*
X13392310Y15226288D01*
X13385340Y15221343D01*
X13360870Y15201828D01*
X13353677Y15197309D01*
X13325486Y15183733D01*
X13318007Y15179599D01*
X13291508Y15162948D01*
X13283848Y15159259D01*
X13254304Y15148922D01*
X13246408Y15145652D01*
X13218216Y15132075D01*
X13210192Y15129267D01*
X13179690Y15122305D01*
X13171480Y15119940D01*
X13141940Y15109604D01*
X13133653Y15107712D01*
X13102545Y15104207D01*
X13094123Y15102776D01*
X13063621Y15095815D01*
X13055173Y15094863D01*
X13023891Y15094863D01*
X13015360Y15094384D01*
X12982121Y15090639D01*
X12977865Y15090400D01*
X11676614Y15090400D01*
X11625882Y15071056D01*
X11600894Y15022733D01*
X11594795Y14968607D01*
X11592901Y14960308D01*
X11550642Y14839538D01*
X11546957Y14831885D01*
X11478878Y14723539D01*
X11473583Y14716900D01*
X11383100Y14626417D01*
X11376461Y14621122D01*
X11268115Y14553043D01*
X11260462Y14549358D01*
X11139685Y14507096D01*
X11131401Y14505205D01*
X11002119Y14490639D01*
X10997866Y14490400D01*
X8902134Y14490400D01*
X8897881Y14490639D01*
X8768599Y14505205D01*
X8760315Y14507096D01*
X8639538Y14549358D01*
X8631885Y14553043D01*
X8523539Y14621122D01*
X8516900Y14626417D01*
X8426417Y14716900D01*
X8421122Y14723539D01*
X8350769Y14835504D01*
X8348830Y14834285D01*
X8314997Y14866282D01*
X8260724Y14867854D01*
X8219183Y14832893D01*
X8209600Y14795899D01*
X8209600Y12404101D01*
G37*
G36*
X8801224Y10033550D02*
X8819104Y9965224D01*
X12611978Y5793060D01*
X12616439Y5788546D01*
X12725459Y5687049D01*
X12735425Y5679212D01*
X12835828Y5612987D01*
X12846957Y5606910D01*
X12956950Y5558252D01*
X12968933Y5554105D01*
X13085475Y5524360D01*
X13097979Y5522257D01*
X13246412Y5509864D01*
X13252752Y5509600D01*
X18790547Y5509600D01*
X18790547Y6701057D01*
X18784287Y6701576D01*
X18568369Y6737607D01*
X18562268Y6739152D01*
X18355232Y6810226D01*
X18349475Y6812752D01*
X18156957Y6916938D01*
X18151692Y6920378D01*
X17978949Y7054829D01*
X17974320Y7059090D01*
X17826069Y7220134D01*
X17822200Y7225105D01*
X17702473Y7408361D01*
X17699486Y7413881D01*
X17611550Y7614353D01*
X17609510Y7620298D01*
X17555772Y7832503D01*
X17554738Y7838697D01*
X17536660Y8056862D01*
X17536660Y8063138D01*
X17554738Y8281303D01*
X17555772Y8287497D01*
X17609510Y8499702D01*
X17611550Y8505647D01*
X17699486Y8706119D01*
X17702473Y8711639D01*
X17822200Y8894895D01*
X17826069Y8899866D01*
X17974320Y9060910D01*
X17978949Y9065171D01*
X18151691Y9199622D01*
X18156956Y9203062D01*
X18349475Y9307248D01*
X18355232Y9309774D01*
X18562268Y9380848D01*
X18568369Y9382393D01*
X18784287Y9418424D01*
X18790547Y9418943D01*
X19009453Y9418943D01*
X19015713Y9418424D01*
X19231631Y9382393D01*
X19237732Y9380848D01*
X19444768Y9309774D01*
X19450525Y9307248D01*
X19643043Y9203062D01*
X19648308Y9199622D01*
X19821051Y9065171D01*
X19825680Y9060910D01*
X19973931Y8899866D01*
X19977800Y8894895D01*
X20097527Y8711639D01*
X20100514Y8706119D01*
X20188450Y8505647D01*
X20190490Y8499702D01*
X20244228Y8287497D01*
X20245262Y8281303D01*
X20263340Y8063138D01*
X20263340Y8056862D01*
X20245262Y7838697D01*
X20244228Y7832503D01*
X20190490Y7620298D01*
X20188450Y7614353D01*
X20100514Y7413881D01*
X20097527Y7408361D01*
X19977800Y7225105D01*
X19973931Y7220134D01*
X19825680Y7059090D01*
X19821051Y7054829D01*
X19648309Y6920378D01*
X19643044Y6916938D01*
X19450525Y6812752D01*
X19444768Y6810226D01*
X19237732Y6739152D01*
X19231631Y6737607D01*
X19015713Y6701576D01*
X19009453Y6701057D01*
X18790547Y6701057D01*
X18790547Y5509600D01*
X28999137Y5509600D01*
X29003409Y5509720D01*
X29265142Y5524418D01*
X29273634Y5525375D01*
X29513070Y5566057D01*
X29521401Y5567958D01*
X29754796Y5635198D01*
X29762861Y5638020D01*
X29790547Y5649487D01*
X29790547Y6701057D01*
X29784287Y6701576D01*
X29568369Y6737607D01*
X29562268Y6739152D01*
X29355232Y6810226D01*
X29349475Y6812752D01*
X29156957Y6916938D01*
X29151692Y6920378D01*
X28978949Y7054829D01*
X28974320Y7059090D01*
X28826069Y7220134D01*
X28822200Y7225105D01*
X28702473Y7408361D01*
X28699486Y7413881D01*
X28611550Y7614353D01*
X28609510Y7620298D01*
X28555772Y7832503D01*
X28554738Y7838697D01*
X28536660Y8056862D01*
X28536660Y8063138D01*
X28554738Y8281303D01*
X28555772Y8287497D01*
X28609510Y8499702D01*
X28611550Y8505647D01*
X28699486Y8706119D01*
X28702473Y8711639D01*
X28822200Y8894895D01*
X28826069Y8899866D01*
X28974320Y9060910D01*
X28978949Y9065171D01*
X29151691Y9199622D01*
X29156956Y9203062D01*
X29349475Y9307248D01*
X29355232Y9309774D01*
X29562268Y9380848D01*
X29568369Y9382393D01*
X29784287Y9418424D01*
X29790547Y9418943D01*
X30009453Y9418943D01*
X30015713Y9418424D01*
X30231631Y9382393D01*
X30237732Y9380848D01*
X30444768Y9309774D01*
X30450525Y9307248D01*
X30643043Y9203062D01*
X30648308Y9199622D01*
X30821051Y9065171D01*
X30825680Y9060910D01*
X30973931Y8899866D01*
X30977800Y8894895D01*
X31097527Y8711639D01*
X31100514Y8706119D01*
X31188450Y8505647D01*
X31190490Y8499702D01*
X31244228Y8287497D01*
X31245262Y8281303D01*
X31263340Y8063138D01*
X31263340Y8056862D01*
X31245262Y7838697D01*
X31244228Y7832503D01*
X31190490Y7620298D01*
X31188450Y7614353D01*
X31100514Y7413881D01*
X31097527Y7408361D01*
X30977800Y7225105D01*
X30973931Y7220134D01*
X30825680Y7059090D01*
X30821051Y7054829D01*
X30648309Y6920378D01*
X30643044Y6916938D01*
X30450525Y6812752D01*
X30444768Y6810226D01*
X30237732Y6739152D01*
X30231631Y6737607D01*
X30015713Y6701576D01*
X30009453Y6701057D01*
X29790547Y6701057D01*
X29790547Y5649487D01*
X29987251Y5730965D01*
X29994950Y5734673D01*
X30207515Y5852153D01*
X30214750Y5856699D01*
X30412834Y5997248D01*
X30419515Y6002576D01*
X30626123Y6187212D01*
X30626827Y6187849D01*
X30944695Y6479121D01*
X30945905Y6480182D01*
X30985396Y6513319D01*
X30986686Y6514354D01*
X31331441Y6778894D01*
X31332747Y6779851D01*
X31374975Y6809420D01*
X31376339Y6810331D01*
X31742860Y7043831D01*
X31744227Y7044661D01*
X31788858Y7070429D01*
X31790336Y7071239D01*
X32175759Y7271878D01*
X32177248Y7272612D01*
X32223929Y7294379D01*
X32225464Y7295055D01*
X32626907Y7461338D01*
X32628492Y7461954D01*
X32676869Y7479562D01*
X32678451Y7480099D01*
X33092870Y7610765D01*
X33094454Y7611227D01*
X33144242Y7624568D01*
X33145831Y7624956D01*
X33570072Y7719008D01*
X33571722Y7719336D01*
X33622444Y7728280D01*
X33624076Y7728531D01*
X34054891Y7785249D01*
X34056556Y7785431D01*
X34107886Y7789922D01*
X34109524Y7790029D01*
X34543882Y7808994D01*
X34545054Y7809027D01*
X34581566Y7809491D01*
X34582801Y7809488D01*
X40044642Y7709964D01*
X40050302Y7710071D01*
X40326875Y7725602D01*
X40335367Y7726559D01*
X40595630Y7770781D01*
X40603960Y7772682D01*
X40857622Y7845759D01*
X40865688Y7848581D01*
X41109592Y7949610D01*
X41117291Y7953318D01*
X41348342Y8081014D01*
X41355577Y8085560D01*
X41570877Y8238325D01*
X41577558Y8243653D01*
X41774398Y8419560D01*
X41780440Y8425602D01*
X41956347Y8622442D01*
X41961675Y8629123D01*
X42114440Y8844423D01*
X42118986Y8851658D01*
X42246682Y9082709D01*
X42250390Y9090408D01*
X42351419Y9334312D01*
X42354241Y9342378D01*
X42427318Y9596040D01*
X42429219Y9604370D01*
X42473441Y9864633D01*
X42474398Y9873125D01*
X42490085Y10152473D01*
X42490201Y10157516D01*
X42391652Y19902023D01*
X42386807Y19928001D01*
X42333161Y20071094D01*
X42329717Y20078915D01*
X42223080Y20288381D01*
X42218783Y20295766D01*
X42089364Y20491980D01*
X42084266Y20498839D01*
X41933694Y20679324D01*
X41927861Y20685568D01*
X41758012Y20848075D01*
X41751516Y20853627D01*
X41564554Y20996084D01*
X41557477Y21000873D01*
X41323152Y21140987D01*
X41322245Y21141546D01*
X41294501Y21159204D01*
X41293607Y21159790D01*
X38825645Y22828758D01*
X38820649Y22832792D01*
X38676841Y22970596D01*
X38672585Y22975429D01*
X38361042Y23396279D01*
X38360237Y23397408D01*
X38336374Y23432173D01*
X38335644Y23433277D01*
X38061666Y23864654D01*
X37997344Y23900000D01*
X36390034Y23900000D01*
X36339302Y23880656D01*
X36314327Y23832446D01*
X36327790Y23779846D01*
X36349920Y23759015D01*
X36465695Y23687330D01*
X36471281Y23683112D01*
X36617405Y23549903D01*
X36622125Y23544724D01*
X36741276Y23386943D01*
X36744971Y23380975D01*
X36833101Y23203987D01*
X36835636Y23197443D01*
X36889744Y23007274D01*
X36891032Y23000384D01*
X36909275Y22803507D01*
X36909275Y22796493D01*
X36891032Y22599616D01*
X36889744Y22592726D01*
X36835636Y22402557D01*
X36833101Y22396013D01*
X36744971Y22219025D01*
X36741276Y22213057D01*
X36622125Y22055276D01*
X36617405Y22050097D01*
X36471281Y21916888D01*
X36465695Y21912670D01*
X36297585Y21808581D01*
X36291303Y21805453D01*
X36106946Y21734033D01*
X36100193Y21732111D01*
X35905838Y21695779D01*
X35898862Y21695133D01*
X35701138Y21695133D01*
X35694162Y21695779D01*
X35499807Y21732111D01*
X35493054Y21734033D01*
X35308697Y21805453D01*
X35302415Y21808581D01*
X35134305Y21912670D01*
X35128719Y21916888D01*
X34982595Y22050097D01*
X34977875Y22055276D01*
X34858724Y22213057D01*
X34855029Y22219025D01*
X34766899Y22396013D01*
X34764364Y22402557D01*
X34710256Y22592726D01*
X34708968Y22599616D01*
X34690725Y22796493D01*
X34690725Y22803507D01*
X34708968Y23000384D01*
X34710256Y23007274D01*
X34764364Y23197443D01*
X34766899Y23203987D01*
X34855029Y23380975D01*
X34858724Y23386943D01*
X34977875Y23544724D01*
X34982595Y23549903D01*
X35128719Y23683112D01*
X35134305Y23687330D01*
X35250080Y23759015D01*
X35283030Y23802169D01*
X35278884Y23856306D01*
X35239748Y23893939D01*
X35209966Y23900000D01*
X26255089Y23900000D01*
X26201208Y23877682D01*
X25927224Y23603698D01*
X25924040Y23600853D01*
X25880728Y23566312D01*
X25877464Y23563556D01*
X25837764Y23528079D01*
X25830832Y23523161D01*
X25822725Y23518680D01*
X25812072Y23511562D01*
X25804821Y23505780D01*
X25797627Y23501259D01*
X25749635Y23478147D01*
X25745838Y23476185D01*
X25697376Y23449401D01*
X25693524Y23447546D01*
X23300198Y22456198D01*
X23260730Y22418912D01*
X23256106Y22364814D01*
X23288673Y22321371D01*
X23329358Y22309600D01*
X31445761Y22309600D01*
X31450017Y22309361D01*
X31505063Y22303159D01*
X31509321Y22302800D01*
X31562484Y22299814D01*
X31570879Y22298388D01*
X31579774Y22295825D01*
X31592341Y22293325D01*
X31601548Y22292288D01*
X31609833Y22290397D01*
X31660099Y22272808D01*
X31664171Y22271510D01*
X31717404Y22256174D01*
X31721417Y22254769D01*
X33513524Y21512454D01*
X33517376Y21510599D01*
X33565838Y21483815D01*
X33569635Y21481853D01*
X33617627Y21458741D01*
X33624821Y21454220D01*
X33632072Y21448438D01*
X33642725Y21441320D01*
X33650832Y21436840D01*
X33657765Y21431920D01*
X33697447Y21396458D01*
X33700713Y21393700D01*
X33744035Y21359152D01*
X33747226Y21356300D01*
X33800253Y21303273D01*
X33803096Y21300091D01*
X33823940Y21273954D01*
X33829634Y21267582D01*
X33851764Y21245452D01*
X33857060Y21238810D01*
X33873708Y21212315D01*
X33878654Y21205345D01*
X33898169Y21180875D01*
X33902692Y21173676D01*
X33916269Y21145482D01*
X33920403Y21138002D01*
X33937054Y21111503D01*
X33940739Y21103850D01*
X33951077Y21074307D01*
X33954347Y21066413D01*
X33967922Y21038225D01*
X33970733Y21030192D01*
X33977695Y20999686D01*
X33980061Y20991473D01*
X33990397Y20961934D01*
X33992288Y20953652D01*
X33995792Y20922553D01*
X33997223Y20914130D01*
X34004186Y20883620D01*
X34005138Y20875172D01*
X34005138Y20843882D01*
X34005617Y20835351D01*
X34009361Y20802121D01*
X34009600Y20797865D01*
X34009600Y16780571D01*
X34015400Y16751411D01*
X34131025Y16472265D01*
X34172264Y16431026D01*
X34644641Y16235361D01*
X34698914Y16233818D01*
X34740437Y16268801D01*
X34750000Y16305760D01*
X34750000Y16385960D01*
X34753099Y16394088D01*
X34766286Y16399995D01*
X35050000Y16399995D01*
X35050000Y16150000D01*
X36250000Y16150000D01*
X36250000Y16950000D01*
X35050000Y16950000D01*
X35050000Y16700005D01*
X34764035Y16700005D01*
X34755907Y16703104D01*
X34750000Y16716291D01*
X34750000Y16947008D01*
X34750468Y16952954D01*
X34763745Y17036782D01*
X34767405Y17048048D01*
X34804574Y17120995D01*
X34811534Y17130575D01*
X34827682Y17146723D01*
X34850000Y17200604D01*
X34850000Y19385965D01*
X34853099Y19394093D01*
X34866286Y19400000D01*
X37780960Y19400000D01*
X37789088Y19396901D01*
X37794995Y19383714D01*
X37794995Y19100000D01*
X36870000Y19100000D01*
X36870000Y17800000D01*
X39020000Y17800000D01*
X39020000Y19100000D01*
X38095005Y19100000D01*
X38095005Y19385965D01*
X38098104Y19394093D01*
X38111291Y19400000D01*
X39017008Y19400000D01*
X39022954Y19399532D01*
X39106782Y19386255D01*
X39118048Y19382595D01*
X39190995Y19345426D01*
X39200575Y19338466D01*
X39258466Y19280575D01*
X39265426Y19270995D01*
X39302595Y19198048D01*
X39306255Y19186782D01*
X39319532Y19102954D01*
X39320000Y19097008D01*
X39320000Y18676199D01*
X39339344Y18625467D01*
X39396199Y18600000D01*
X40305965Y18600000D01*
X40314093Y18596901D01*
X40320000Y18583714D01*
X40320000Y16414035D01*
X40316901Y16405907D01*
X40303714Y16400000D01*
X36626199Y16400000D01*
X36575467Y16380656D01*
X36550000Y16323801D01*
X36550000Y16269035D01*
X36585658Y16204516D01*
X36626461Y16178878D01*
X36633100Y16173583D01*
X36723583Y16083100D01*
X36728878Y16076461D01*
X36796957Y15968115D01*
X36800642Y15960462D01*
X36842904Y15839685D01*
X36844795Y15831401D01*
X36859361Y15702119D01*
X36859600Y15697866D01*
X36859600Y14902134D01*
X36859361Y14897881D01*
X36844795Y14768599D01*
X36842904Y14760315D01*
X36821857Y14700167D01*
X36821857Y14649833D01*
X36842904Y14589685D01*
X36844795Y14581401D01*
X36859361Y14452119D01*
X36859600Y14447866D01*
X36859600Y13652134D01*
X36859361Y13647881D01*
X36844795Y13518599D01*
X36842904Y13510315D01*
X36821857Y13450167D01*
X36821857Y13399833D01*
X36842904Y13339685D01*
X36844795Y13331401D01*
X36859361Y13202119D01*
X36859600Y13197866D01*
X36859600Y12402134D01*
X36859361Y12397881D01*
X36844795Y12268599D01*
X36842904Y12260315D01*
X36821857Y12200167D01*
X36821857Y12149833D01*
X36842904Y12089685D01*
X36844795Y12081401D01*
X36859361Y11952119D01*
X36859600Y11947866D01*
X36859600Y11776199D01*
X36878944Y11725467D01*
X36935799Y11700000D01*
X40305965Y11700000D01*
X40314093Y11696901D01*
X40320000Y11683714D01*
X40320000Y9514035D01*
X40316901Y9505907D01*
X40303714Y9500000D01*
X39396199Y9500000D01*
X39345467Y9480656D01*
X39320000Y9423801D01*
X39320000Y9002992D01*
X39319532Y8997046D01*
X39306255Y8913218D01*
X39302595Y8901952D01*
X39265426Y8829005D01*
X39258466Y8819425D01*
X39200575Y8761534D01*
X39190995Y8754574D01*
X39118048Y8717405D01*
X39106782Y8713745D01*
X39022954Y8700468D01*
X39017008Y8700000D01*
X38109040Y8700000D01*
X38100912Y8703099D01*
X38095005Y8716286D01*
X38095005Y9000000D01*
X39020000Y9000000D01*
X39020000Y10300000D01*
X36870000Y10300000D01*
X36870000Y9000000D01*
X37794995Y9000000D01*
X37794995Y8714035D01*
X37791896Y8705907D01*
X37778709Y8700000D01*
X34864035Y8700000D01*
X34855907Y8703099D01*
X34850000Y8716286D01*
X34850000Y10524135D01*
X34830656Y10574867D01*
X34798967Y10596058D01*
X34789540Y10599356D01*
X34781885Y10603043D01*
X34673539Y10671122D01*
X34666900Y10676417D01*
X34576417Y10766900D01*
X34571122Y10773539D01*
X34551516Y10804742D01*
X34486997Y10840400D01*
X33467116Y10840400D01*
X33415781Y10820513D01*
X33343078Y10754235D01*
X33337492Y10750017D01*
X33176723Y10650472D01*
X33170450Y10647349D01*
X32994128Y10579042D01*
X32987393Y10577126D01*
X32801520Y10542380D01*
X32794544Y10541734D01*
X32605456Y10541734D01*
X32598480Y10542380D01*
X32412607Y10577126D01*
X32405872Y10579042D01*
X32229550Y10647349D01*
X32223277Y10650472D01*
X32062508Y10750017D01*
X32056922Y10754235D01*
X31917180Y10881626D01*
X31912460Y10886805D01*
X31798514Y11037694D01*
X31794819Y11043662D01*
X31710539Y11212919D01*
X31708004Y11219463D01*
X31656259Y11401325D01*
X31654971Y11408215D01*
X31637525Y11596493D01*
X31637525Y11603507D01*
X31654971Y11791785D01*
X31656259Y11798675D01*
X31708004Y11980537D01*
X31710539Y11987081D01*
X31794819Y12156338D01*
X31798514Y12162306D01*
X31912460Y12313195D01*
X31917180Y12318374D01*
X32056922Y12445765D01*
X32062508Y12449983D01*
X32223277Y12549528D01*
X32229550Y12552651D01*
X32405872Y12620958D01*
X32412607Y12622874D01*
X32598480Y12657620D01*
X32605456Y12658266D01*
X32794544Y12658266D01*
X32801520Y12657620D01*
X32987393Y12622874D01*
X32994128Y12620958D01*
X33170450Y12552651D01*
X33176723Y12549528D01*
X33337492Y12449983D01*
X33343078Y12445765D01*
X33482820Y12318374D01*
X33487536Y12313200D01*
X33505148Y12289878D01*
X33565956Y12259600D01*
X34370952Y12259600D01*
X34421684Y12278944D01*
X34446672Y12344330D01*
X34440639Y12397879D01*
X34440400Y12402134D01*
X34440400Y12482052D01*
X34421056Y12532784D01*
X34393361Y12552451D01*
X33758676Y12815346D01*
X33754824Y12817201D01*
X33706362Y12843985D01*
X33702565Y12845947D01*
X33654573Y12869059D01*
X33647379Y12873580D01*
X33640128Y12879362D01*
X33629475Y12886480D01*
X33621368Y12890961D01*
X33614436Y12895879D01*
X33574736Y12931356D01*
X33571472Y12934112D01*
X33528160Y12968653D01*
X33524976Y12971498D01*
X31799747Y14696727D01*
X31796904Y14699909D01*
X31776060Y14726046D01*
X31770366Y14732418D01*
X31748236Y14754548D01*
X31742940Y14761190D01*
X31726292Y14787685D01*
X31721346Y14794655D01*
X31701831Y14819125D01*
X31697308Y14826324D01*
X31683731Y14854518D01*
X31679597Y14861998D01*
X31662946Y14888497D01*
X31659261Y14896150D01*
X31648923Y14925693D01*
X31645653Y14933587D01*
X31632078Y14961775D01*
X31629267Y14969808D01*
X31622305Y15000314D01*
X31619939Y15008527D01*
X31609603Y15038066D01*
X31607712Y15046348D01*
X31604208Y15077447D01*
X31602777Y15085870D01*
X31595814Y15116380D01*
X31594862Y15124828D01*
X31594862Y15156118D01*
X31594383Y15164649D01*
X31590639Y15197879D01*
X31590400Y15202135D01*
X31590400Y18719429D01*
X31584600Y18748589D01*
X31404229Y19184043D01*
X31387711Y19208764D01*
X31352713Y19243762D01*
X31327992Y19260280D01*
X29820751Y19884600D01*
X29791591Y19890400D01*
X27846848Y19890400D01*
X27796116Y19871056D01*
X27771141Y19822846D01*
X27784604Y19770246D01*
X27810330Y19747323D01*
X27936774Y19678279D01*
X27941348Y19675339D01*
X28156529Y19514257D01*
X28160629Y19510705D01*
X28350705Y19320629D01*
X28354257Y19316529D01*
X28515339Y19101348D01*
X28518279Y19096774D01*
X28647098Y18860861D01*
X28649355Y18855920D01*
X28743290Y18604068D01*
X28744820Y18598858D01*
X28801957Y18336204D01*
X28802730Y18330826D01*
X28821906Y18062712D01*
X28821906Y18057288D01*
X28802730Y17789174D01*
X28801957Y17783796D01*
X28744820Y17521142D01*
X28743290Y17515932D01*
X28649355Y17264080D01*
X28647098Y17259139D01*
X28518279Y17023226D01*
X28515339Y17018652D01*
X28354257Y16803471D01*
X28350705Y16799371D01*
X28160629Y16609295D01*
X28156529Y16605743D01*
X27941348Y16444661D01*
X27936774Y16441721D01*
X27700861Y16312902D01*
X27695920Y16310645D01*
X27444068Y16216710D01*
X27438858Y16215180D01*
X27176204Y16158043D01*
X27170826Y16157270D01*
X26902712Y16138094D01*
X26897288Y16138094D01*
X26629174Y16157270D01*
X26623796Y16158043D01*
X26361142Y16215180D01*
X26355932Y16216710D01*
X26186447Y16279925D01*
X26132153Y16279530D01*
X26105937Y16262411D01*
X20693273Y10849747D01*
X20690091Y10846904D01*
X20663954Y10826060D01*
X20657582Y10820366D01*
X20635452Y10798236D01*
X20628810Y10792940D01*
X20602315Y10776292D01*
X20595345Y10771346D01*
X20570875Y10751831D01*
X20563676Y10747308D01*
X20535482Y10733731D01*
X20528002Y10729597D01*
X20501503Y10712946D01*
X20493850Y10709261D01*
X20464307Y10698923D01*
X20456413Y10695653D01*
X20428225Y10682078D01*
X20420192Y10679267D01*
X20389686Y10672305D01*
X20381473Y10669939D01*
X20351934Y10659603D01*
X20343652Y10657712D01*
X20312553Y10654208D01*
X20304130Y10652777D01*
X20273620Y10645814D01*
X20265172Y10644862D01*
X20233882Y10644862D01*
X20225351Y10644383D01*
X20192121Y10640639D01*
X20187865Y10640400D01*
X16099408Y10640400D01*
X16034438Y10604015D01*
X15935057Y10441841D01*
X15931545Y10437007D01*
X15777540Y10256691D01*
X15773309Y10252460D01*
X15639226Y10137942D01*
X15613211Y10090285D01*
X15639226Y10022058D01*
X15773309Y9907540D01*
X15777540Y9903309D01*
X15931545Y9722993D01*
X15935057Y9718159D01*
X16058965Y9515961D01*
X16061669Y9510655D01*
X16152420Y9291560D01*
X16154267Y9285877D01*
X16209626Y9055286D01*
X16210559Y9049399D01*
X16229165Y8812986D01*
X16229165Y8807014D01*
X16210559Y8570601D01*
X16209626Y8564714D01*
X16154267Y8334123D01*
X16152420Y8328440D01*
X16061669Y8109345D01*
X16058965Y8104039D01*
X15935057Y7901841D01*
X15931545Y7897007D01*
X15777540Y7716691D01*
X15773309Y7712460D01*
X15592993Y7558455D01*
X15588159Y7554943D01*
X15385961Y7431035D01*
X15380655Y7428331D01*
X15161560Y7337580D01*
X15155877Y7335733D01*
X14925286Y7280374D01*
X14919399Y7279441D01*
X14682986Y7260835D01*
X14677014Y7260835D01*
X14440601Y7279441D01*
X14434714Y7280374D01*
X14204123Y7335733D01*
X14198440Y7337580D01*
X13979345Y7428331D01*
X13974039Y7431035D01*
X13771841Y7554943D01*
X13767007Y7558455D01*
X13586691Y7712460D01*
X13582460Y7716691D01*
X13428455Y7897007D01*
X13424943Y7901841D01*
X13325562Y8064015D01*
X13260592Y8100400D01*
X12542135Y8100400D01*
X12537879Y8100639D01*
X12504649Y8104383D01*
X12496118Y8104862D01*
X12464828Y8104862D01*
X12456380Y8105814D01*
X12425870Y8112777D01*
X12417447Y8114208D01*
X12386348Y8117712D01*
X12378066Y8119603D01*
X12348527Y8129939D01*
X12340314Y8132305D01*
X12309808Y8139267D01*
X12301775Y8142078D01*
X12273587Y8155653D01*
X12265693Y8158923D01*
X12236150Y8169261D01*
X12228497Y8172946D01*
X12201998Y8189597D01*
X12194518Y8193731D01*
X12166324Y8207308D01*
X12159125Y8211831D01*
X12134655Y8231346D01*
X12127685Y8236292D01*
X12101190Y8252940D01*
X12094548Y8258236D01*
X12072418Y8280366D01*
X12066046Y8286060D01*
X12039909Y8306904D01*
X12036727Y8309747D01*
X10278392Y10068082D01*
X10224511Y10090400D01*
X8902134Y10090400D01*
X8897884Y10090639D01*
X8884020Y10092201D01*
X8831441Y10078660D01*
X8801224Y10033550D01*
G37*
G04 --- BOARD END --- *
G04 #@! TF.MD5,1c2d2e61199c4b74e013b971c89faed7*
M02*
