M48
; #@! TF.GenerationSoftware,LibrePCB,LibrePCB,1.1.0
; #@! TF.CreationDate,2024-04-23T21:01:02
; #@! TF.ProjectId,motherboard (Version 1),d5d7f40e-06e5-483f-b774-8957b2c1e08f,version_2
; #@! TF.Part,Single
; #@! TF.SameCoordinates
; #@! TF.FileFunction,Plated,1,2,PTH
FMAT,2
METRIC,TZ
; #@! TA.AperFunction,ViaDrill
T1C0.35
; #@! TA.AperFunction,ViaDrill
T2C0.5
; #@! TA.AperFunction,ComponentDrill
T3C1.0
; #@! TA.AperFunction,ComponentDrill
T4C1.016
; #@! TA.AperFunction,ComponentDrill
T5C1.75
%
G90
G05
M71
T1
X22.4Y32.8
X9.8Y75.1
X36.8Y75.2
X29.3Y66.9
X40.8Y14.2
X22.7Y73.3
T2
X16.6Y69.4
X26.5Y69.4
X25.6Y57.4
X36.6Y72.2
X36.5Y67.7
X19.7Y50.2
X27.6Y50.2
X22.7Y69.4
X25.2Y69.4
X32.7Y11.6
X10.4Y64.6
X21.6Y57.1
X20.2Y69.4
X17.9Y57.0
X21.5Y69.4
X17.7Y69.4
X19.0Y69.4
X24.0Y69.4
X29.4Y57.4
X9.8Y68.2
T3
X18.9Y8.06
X29.9Y8.06
T4
X14.68Y8.81
X14.68Y13.89
X14.68Y11.35
X13.68Y27.6
X16.22Y27.6
X18.76Y27.6
X26.38Y27.6
X34.0Y27.6
X21.3Y27.6
X28.92Y27.6
X31.46Y27.6
X23.84Y27.6
X34.0Y50.5
X34.0Y45.42
X34.0Y55.58
X34.0Y32.72
X34.0Y42.88
X34.0Y63.2
X34.0Y47.96
X34.0Y53.04
X34.0Y58.12
X34.0Y60.66
X34.0Y40.34
X34.0Y30.18
X34.0Y35.26
X34.0Y37.8
X13.7Y42.8
X13.7Y47.88
X13.7Y37.72
X13.7Y60.58
X13.7Y50.42
X13.7Y30.1
X13.7Y45.34
X13.7Y40.26
X13.7Y35.18
X13.7Y32.64
X13.7Y52.96
X13.7Y63.12
X13.7Y58.04
X13.7Y55.5
T5
X26.9Y18.06
X21.9Y18.06
T0
M30
