G04 --- HEADER BEGIN --- *
G04 #@! TF.GenerationSoftware,LibrePCB,LibrePCB,1.1.0*
G04 #@! TF.CreationDate,2024-04-23T21:01:02*
G04 #@! TF.ProjectId,motherboard (Version 1),d5d7f40e-06e5-483f-b774-8957b2c1e08f,version_2*
G04 #@! TF.Part,Single*
G04 #@! TF.SameCoordinates*
G04 #@! TF.FileFunction,Soldermask,Bot*
G04 #@! TF.FilePolarity,Negative*
%FSLAX66Y66*%
%MOMM*%
G01*
G75*
G04 --- HEADER END --- *
G04 --- APERTURE LIST BEGIN --- *
%ADD10C,2.0828*%
%ADD11C,1.7112*%
%ADD12C,2.8282*%
%ADD13C,0.5532*%
%ADD14C,0.7032*%
%ADD15C,1.2032*%
G04 --- APERTURE LIST END --- *
G04 --- BOARD BEGIN --- *
D10*
G04 #@! TO.C,J6*
X13700000Y55500000D03*
X13700000Y58040000D03*
X13700000Y63120000D03*
X13700000Y52960000D03*
X13700000Y32640000D03*
X13700000Y35180000D03*
X13700000Y40260000D03*
X13700000Y45340000D03*
X13700000Y30100000D03*
X13700000Y50420000D03*
X13700000Y60580000D03*
X13700000Y37720000D03*
X13700000Y47880000D03*
X13700000Y42800000D03*
G04 #@! TO.C,J7*
X34000000Y37800000D03*
X34000000Y35260000D03*
X34000000Y30180000D03*
X34000000Y40340000D03*
X34000000Y60660000D03*
X34000000Y58120000D03*
X34000000Y53040000D03*
X34000000Y47960000D03*
X34000000Y63200000D03*
X34000000Y42880000D03*
X34000000Y32720000D03*
X34000000Y55580000D03*
X34000000Y45420000D03*
X34000000Y50500000D03*
G04 #@! TO.C,J8*
X23840000Y27600000D03*
X31460000Y27600000D03*
X28920000Y27600000D03*
X21300000Y27600000D03*
X34000000Y27600000D03*
X26380000Y27600000D03*
X18760000Y27600000D03*
X16220000Y27600000D03*
X13680000Y27600000D03*
D11*
G04 #@! TO.C,J4*
X29900000Y8060000D03*
X18900000Y8060000D03*
D12*
X21900000Y18060000D03*
X26900000Y18060000D03*
D10*
G04 #@! TO.C,S1*
X14680000Y11350000D03*
X14680000Y13890000D03*
X14680000Y8810000D03*
D13*
G04 #@! TD*
X22700000Y73300000D03*
D14*
X9800000Y68200000D03*
X29400000Y57400000D03*
D13*
X40800000Y14200000D03*
D14*
X24000000Y69400000D03*
X19000000Y69400000D03*
X17700000Y69400000D03*
D13*
X29300000Y66900000D03*
D14*
X21500000Y69400000D03*
X17900000Y57000000D03*
X20200000Y69400000D03*
D13*
X36800000Y75200000D03*
X9800000Y75100000D03*
D14*
X21600000Y57100000D03*
X10400000Y64600000D03*
X32700000Y11600000D03*
X25200000Y69400000D03*
D13*
X22400000Y32800000D03*
D14*
X22700000Y69400000D03*
X27600000Y50200000D03*
X19700000Y50200000D03*
X36500000Y67700000D03*
X36600000Y72200000D03*
X25600000Y57400000D03*
X26500000Y69400000D03*
X16600000Y69400000D03*
D15*
X33700000Y73800000D03*
X9200000Y22800000D03*
X35800000Y22800000D03*
X11700000Y73800000D03*
G04 --- BOARD END --- *
G04 #@! TF.MD5,0df67ee7554bce7da3224499282eeff2*
M02*
