G04 --- HEADER BEGIN --- *
G04 #@! TF.GenerationSoftware,LibrePCB,LibrePCB,1.1.0*
G04 #@! TF.CreationDate,2024-04-23T21:01:02*
G04 #@! TF.ProjectId,motherboard (Version 1),d5d7f40e-06e5-483f-b774-8957b2c1e08f,version_2*
G04 #@! TF.Part,Single*
G04 #@! TF.SameCoordinates*
G04 #@! TF.FileFunction,Legend,Top*
G04 #@! TF.FilePolarity,Positive*
%FSLAX66Y66*%
%MOMM*%
G01*
G75*
G04 --- HEADER END --- *
G04 --- APERTURE LIST BEGIN --- *
%ADD10C,0.2032*%
%ADD11C,0.1524*%
%ADD12C,0.127*%
%ADD13C,0.2*%
%ADD14C,0.15*%
%ADD15C,0.1905*%
%ADD16C,0.1778*%
%ADD17C,2.0828*%
%AMROUNDEDRECT18*20,1,1.4732,-0.735,0.0,0.735,0.0,0.0*20,1,1.27,-0.8366,0.0,0.8366,0.0,0.0*1,1,0.2032,-0.735,0.635*1,1,0.2032,0.735,0.635*1,1,0.2032,0.735,-0.635*1,1,0.2032,-0.735,-0.635*%
%ADD18ROUNDEDRECT18*%
%AMROUNDEDRECT19*20,1,2.0032,-1.35,0.0,1.35,0.0,90.0*20,1,1.8,-1.4516,0.0,1.4516,0.0,90.0*1,1,0.2032,-0.9,-1.35*1,1,0.2032,-0.9,1.35*1,1,0.2032,0.9,1.35*1,1,0.2032,0.9,-1.35*%
%ADD19ROUNDEDRECT19*%
%AMROUNDEDRECT20*20,1,1.7032,-1.6,0.0,1.6,0.0,0.0*20,1,1.5,-1.7016,0.0,1.7016,0.0,0.0*1,1,0.2032,-1.6,0.75*1,1,0.2032,1.6,0.75*1,1,0.2032,1.6,-0.75*1,1,0.2032,-1.6,-0.75*%
%ADD20ROUNDEDRECT20*%
%ADD21C,0.01*%
%ADD22C,1.7112*%
%ADD23C,2.8282*%
%AMROUNDEDRECT24*20,1,1.6032,-1.05,0.0,1.05,0.0,0.0*20,1,1.4,-1.1516,0.0,1.1516,0.0,0.0*1,1,0.2032,-1.05,0.7*1,1,0.2032,1.05,0.7*1,1,0.2032,1.05,-0.7*1,1,0.2032,-1.05,-0.7*%
%ADD24ROUNDEDRECT24*%
%AMROUNDEDRECT25*20,1,2.0032,-1.35,0.0,1.35,0.0,0.0*20,1,1.8,-1.4516,0.0,1.4516,0.0,0.0*1,1,0.2032,-1.35,0.9*1,1,0.2032,1.35,0.9*1,1,0.2032,1.35,-0.9*1,1,0.2032,-1.35,-0.9*%
%ADD25ROUNDEDRECT25*%
%ADD26C,0.5532*%
%ADD27C,0.7032*%
%ADD28C,1.2032*%
G04 --- APERTURE LIST END --- *
G04 --- BOARD BEGIN --- *
D10*
G04 #@! TO.C,J6*
X13065000Y64390000D02*
X14335000Y64390000D01*
X14970000Y63755000D01*
X14970000Y62485000D01*
X14335000Y61850000D01*
X14970000Y61215000D01*
X14970000Y59945000D01*
X14335000Y59310000D01*
X14970000Y58675000D01*
X14970000Y57405000D01*
X14335000Y56770000D01*
X14970000Y56135000D01*
X14970000Y54865000D01*
X14335000Y54230000D01*
X14970000Y53595000D01*
X14970000Y52325000D01*
X14335000Y51690000D01*
X14970000Y51055000D01*
X14970000Y49785000D01*
X14335000Y49150000D01*
X14970000Y48515000D01*
X14970000Y47245000D01*
X14335000Y46610000D01*
X14970000Y45975000D01*
X14970000Y44705000D01*
X14335000Y44070000D01*
X14970000Y43435000D01*
X14970000Y42165000D01*
X14335000Y41530000D01*
X14970000Y40895000D01*
X14970000Y39625000D01*
X14335000Y38990000D01*
X14970000Y38355000D01*
X14970000Y37085000D01*
X14335000Y36450000D01*
X14970000Y35815000D01*
X14970000Y34545000D01*
X14335000Y33910000D01*
X14970000Y33275000D01*
X14970000Y32005000D01*
X14335000Y31370000D01*
X14970000Y30735000D01*
X14970000Y29465000D01*
X14335000Y28830000D01*
X13065000Y28830000D01*
X12430000Y29465000D01*
X12430000Y30735000D01*
X13065000Y31370000D01*
X12430000Y32005000D01*
X12430000Y33275000D01*
X13065000Y33910000D01*
X12430000Y34545000D01*
X12430000Y35815000D01*
X13065000Y36450000D01*
X12430000Y37085000D01*
X12430000Y38355000D01*
X13065000Y38990000D01*
X12430000Y39625000D01*
X12430000Y40895000D01*
X13065000Y41530000D01*
X12430000Y42165000D01*
X12430000Y43435000D01*
X13065000Y44070000D01*
X12430000Y44705000D01*
X12430000Y45975000D01*
X13065000Y46610000D01*
X12430000Y47245000D01*
X12430000Y48515000D01*
X13065000Y49150000D01*
X12430000Y49785000D01*
X12430000Y51055000D01*
X13065000Y51690000D01*
X12430000Y52325000D01*
X12430000Y53595000D01*
X13065000Y54230000D01*
X12430000Y54865000D01*
X12430000Y56135000D01*
X13065000Y56770000D01*
X12430000Y57405000D01*
X12430000Y58675000D01*
X13065000Y59310000D01*
X12430000Y59945000D01*
X12430000Y61215000D01*
X13065000Y61850000D01*
X12430000Y62485000D01*
X12430000Y63755000D01*
X13065000Y64390000D01*
G04 #@! TO.C,D7*
X26640000Y64310000D02*
X27090000Y64310000D01*
X27090000Y59710000D01*
X26640000Y59710000D01*
X24640000Y59710000D02*
X24190000Y59710000D01*
X24190000Y64310000D01*
X24640000Y64310000D01*
X26640000Y61010000D02*
X24640000Y61010000D01*
G04 #@! TO.C,D2*
X22620000Y54640000D02*
X23070000Y54640000D01*
X23070000Y50040000D01*
X22620000Y50040000D01*
X20620000Y50040000D02*
X20170000Y50040000D01*
X20170000Y54640000D01*
X20620000Y54640000D01*
X22620000Y51340000D02*
X20620000Y51340000D01*
D11*
G04 #@! TO.C,R3*
X28752000Y33995000D02*
X26734000Y33995000D01*
X28777000Y31505000D02*
X26723000Y31505000D01*
D12*
G04 #@! TO.C,F1*
X17953500Y18685000D02*
X17953500Y23235000D01*
X14126500Y23235000D02*
X14126500Y18685000D01*
D10*
G04 #@! TO.C,J7*
X34635000Y28910000D02*
X33365000Y28910000D01*
X32730000Y29545000D01*
X32730000Y30815000D01*
X33365000Y31450000D01*
X32730000Y32085000D01*
X32730000Y33355000D01*
X33365000Y33990000D01*
X32730000Y34625000D01*
X32730000Y35895000D01*
X33365000Y36530000D01*
X32730000Y37165000D01*
X32730000Y38435000D01*
X33365000Y39070000D01*
X32730000Y39705000D01*
X32730000Y40975000D01*
X33365000Y41610000D01*
X32730000Y42245000D01*
X32730000Y43515000D01*
X33365000Y44150000D01*
X32730000Y44785000D01*
X32730000Y46055000D01*
X33365000Y46690000D01*
X32730000Y47325000D01*
X32730000Y48595000D01*
X33365000Y49230000D01*
X32730000Y49865000D01*
X32730000Y51135000D01*
X33365000Y51770000D01*
X32730000Y52405000D01*
X32730000Y53675000D01*
X33365000Y54310000D01*
X32730000Y54945000D01*
X32730000Y56215000D01*
X33365000Y56850000D01*
X32730000Y57485000D01*
X32730000Y58755000D01*
X33365000Y59390000D01*
X32730000Y60025000D01*
X32730000Y61295000D01*
X33365000Y61930000D01*
X32730000Y62565000D01*
X32730000Y63835000D01*
X33365000Y64470000D01*
X34635000Y64470000D01*
X35270000Y63835000D01*
X35270000Y62565000D01*
X34635000Y61930000D01*
X35270000Y61295000D01*
X35270000Y60025000D01*
X34635000Y59390000D01*
X35270000Y58755000D01*
X35270000Y57485000D01*
X34635000Y56850000D01*
X35270000Y56215000D01*
X35270000Y54945000D01*
X34635000Y54310000D01*
X35270000Y53675000D01*
X35270000Y52405000D01*
X34635000Y51770000D01*
X35270000Y51135000D01*
X35270000Y49865000D01*
X34635000Y49230000D01*
X35270000Y48595000D01*
X35270000Y47325000D01*
X34635000Y46690000D01*
X35270000Y46055000D01*
X35270000Y44785000D01*
X34635000Y44150000D01*
X35270000Y43515000D01*
X35270000Y42245000D01*
X34635000Y41610000D01*
X35270000Y40975000D01*
X35270000Y39705000D01*
X34635000Y39070000D01*
X35270000Y38435000D01*
X35270000Y37165000D01*
X34635000Y36530000D01*
X35270000Y35895000D01*
X35270000Y34625000D01*
X34635000Y33990000D01*
X35270000Y33355000D01*
X35270000Y32085000D01*
X34635000Y31450000D01*
X35270000Y30815000D01*
X35270000Y29545000D01*
X34635000Y28910000D01*
G04 #@! TO.C,D4*
X18940000Y64260000D02*
X19390000Y64260000D01*
X19390000Y59660000D01*
X18940000Y59660000D01*
X16940000Y59660000D02*
X16490000Y59660000D01*
X16490000Y64260000D01*
X16940000Y64260000D01*
X18940000Y60960000D02*
X16940000Y60960000D01*
D12*
G04 #@! TO.C,J1*
X36365000Y66910000D02*
X37065000Y67310000D01*
X36365000Y67710000D01*
X36365000Y66910000D01*
X42620000Y65060000D02*
X42620000Y74560000D01*
X38420000Y73030000D02*
X38420000Y74560000D01*
X39670000Y74560000D01*
X39670000Y65060000D02*
X38420000Y65060000D01*
X38420000Y66590000D01*
G04 #@! TO.C,J3*
X31240000Y72280000D02*
X31240000Y71030000D01*
X29710000Y71030000D01*
X29517000Y68848000D02*
X29117000Y69548000D01*
X28717000Y68848000D01*
X29517000Y68848000D01*
X15770000Y71030000D02*
X14240000Y71030000D01*
X14240000Y72280000D01*
X31240000Y75230000D02*
X14240000Y75230000D01*
G04 #@! TO.C,J2*
X10035000Y72590000D02*
X9335000Y72190000D01*
X10035000Y71790000D01*
X10035000Y72590000D01*
X3780000Y74440000D02*
X3780000Y64940000D01*
X7980000Y66470000D02*
X7980000Y64940000D01*
X6730000Y64940000D01*
X6730000Y74440000D02*
X7980000Y74440000D01*
X7980000Y72910000D01*
D10*
G04 #@! TO.C,D3*
X22640000Y64310000D02*
X23090000Y64310000D01*
X23090000Y59710000D01*
X22640000Y59710000D01*
X20640000Y59710000D02*
X20190000Y59710000D01*
X20190000Y64310000D01*
X20640000Y64310000D01*
X22640000Y61010000D02*
X20640000Y61010000D01*
G04 #@! TO.C,J8*
X12410000Y26965000D02*
X12410000Y28235000D01*
X13045000Y28870000D01*
X14315000Y28870000D01*
X14950000Y28235000D01*
X15585000Y28870000D01*
X16855000Y28870000D01*
X17490000Y28235000D01*
X18125000Y28870000D01*
X19395000Y28870000D01*
X20030000Y28235000D01*
X20665000Y28870000D01*
X21935000Y28870000D01*
X22570000Y28235000D01*
X23205000Y28870000D01*
X24475000Y28870000D01*
X25110000Y28235000D01*
X25745000Y28870000D01*
X27015000Y28870000D01*
X27650000Y28235000D01*
X28285000Y28870000D01*
X29555000Y28870000D01*
X30190000Y28235000D01*
X30825000Y28870000D01*
X32095000Y28870000D01*
X32730000Y28235000D01*
X33365000Y28870000D01*
X34635000Y28870000D01*
X35270000Y28235000D01*
X35270000Y26965000D01*
X34635000Y26330000D01*
X33365000Y26330000D01*
X32730000Y26965000D01*
X32095000Y26330000D01*
X30825000Y26330000D01*
X30190000Y26965000D01*
X29555000Y26330000D01*
X28285000Y26330000D01*
X27650000Y26965000D01*
X27015000Y26330000D01*
X25745000Y26330000D01*
X25110000Y26965000D01*
X24475000Y26330000D01*
X23205000Y26330000D01*
X22570000Y26965000D01*
X21935000Y26330000D01*
X20665000Y26330000D01*
X20030000Y26965000D01*
X19395000Y26330000D01*
X18125000Y26330000D01*
X17490000Y26965000D01*
X16855000Y26330000D01*
X15585000Y26330000D01*
X14950000Y26965000D01*
X14315000Y26330000D01*
X13045000Y26330000D01*
X12410000Y26965000D01*
G04 #@! TO.C,D9*
X30440000Y54610000D02*
X30890000Y54610000D01*
X30890000Y50010000D01*
X30440000Y50010000D01*
X28440000Y50010000D02*
X27990000Y50010000D01*
X27990000Y54610000D01*
X28440000Y54610000D01*
X30440000Y51310000D02*
X28440000Y51310000D01*
D12*
G04 #@! TO.C,J5*
X33245000Y11150000D02*
X33945000Y11550000D01*
X33245000Y11950000D01*
X33245000Y11150000D01*
X39500000Y9300000D02*
X39500000Y18800000D01*
X35300000Y17270000D02*
X35300000Y18800000D01*
X36550000Y18800000D01*
X36550000Y9300000D02*
X35300000Y9300000D01*
X35300000Y10830000D01*
D11*
G04 #@! TO.C,J4*
X18900000Y5390000D02*
X29900000Y5390000D01*
X29900000Y18060000D01*
X18900000Y18060000D01*
X18900000Y5390000D01*
D10*
X17813362Y19739819D02*
X19459000Y19739819D01*
X29270362Y19866819D02*
X30916000Y19866819D01*
X30093181Y19044000D02*
X30093181Y20689638D01*
G04 #@! TO.C,D8*
X30440000Y64360000D02*
X30890000Y64360000D01*
X30890000Y59760000D01*
X30440000Y59760000D01*
X28440000Y59760000D02*
X27990000Y59760000D01*
X27990000Y64360000D01*
X28440000Y64360000D01*
X30440000Y61060000D02*
X28440000Y61060000D01*
G04 #@! TO.C,S1*
X12505000Y5535000D02*
X16855000Y5535000D01*
X16855000Y17165000D01*
X12505000Y17165000D01*
X12505000Y5535000D01*
D11*
G04 #@! TO.C,R2*
X26748000Y35825000D02*
X28766000Y35825000D01*
X26723000Y38315000D02*
X28777000Y38315000D01*
D10*
G04 #@! TO.C,D5*
X18940000Y54610000D02*
X19390000Y54610000D01*
X19390000Y50010000D01*
X18940000Y50010000D01*
X16940000Y50010000D02*
X16490000Y50010000D01*
X16490000Y54610000D01*
X16940000Y54610000D01*
X18940000Y51310000D02*
X16940000Y51310000D01*
G04 #@! TO.C,D6*
X26640000Y54660000D02*
X27090000Y54660000D01*
X27090000Y50060000D01*
X26640000Y50060000D01*
X24640000Y50060000D02*
X24190000Y50060000D01*
X24190000Y54660000D01*
X24640000Y54660000D01*
X26640000Y51360000D02*
X24640000Y51360000D01*
D12*
G04 #@! TO.C,D1*
X8700000Y12420000D02*
X8700000Y14780000D01*
X11200000Y14780000D02*
X11200000Y12420000D01*
D13*
X11050000Y17100000D02*
G02*
X10850000Y17100000I-100000J0D01*
G01*
G02*
X11050000Y17100000I100000J0D01*
G01*
D11*
G04 #@! TO.C,R1*
X9005000Y59112000D02*
X9005000Y57094000D01*
X11495000Y59137000D02*
X11495000Y57083000D01*
D14*
G04 #@! TD*
X17979740Y45392341D02*
X17835327Y45464547D01*
X17690914Y45608961D01*
X17475973Y45823901D01*
X17331560Y45896108D01*
X17187147Y45896108D01*
X17259354Y45536754D02*
X17116620Y45608961D01*
X16972207Y45753374D01*
X16900000Y46040521D01*
X16900000Y46544287D01*
X16972207Y46831434D01*
X17116620Y46975847D01*
X17259354Y47048054D01*
X17548180Y47048054D01*
X17690914Y46975847D01*
X17835327Y46831434D01*
X17907533Y46544287D01*
X17907533Y46040521D01*
X17835327Y45753374D01*
X17690914Y45608961D01*
X17548180Y45536754D01*
X17259354Y45536754D01*
X18432000Y47048054D02*
X18432000Y45823901D01*
X18504207Y45681167D01*
X18576413Y45608961D01*
X18719147Y45536754D01*
X19007973Y45536754D01*
X19152386Y45608961D01*
X19222914Y45681167D01*
X19295120Y45823901D01*
X19295120Y47048054D01*
X19747380Y47048054D02*
X20610500Y47048054D01*
X20178940Y45536754D02*
X20178940Y47048054D01*
X22119539Y46327668D02*
X22623306Y46327668D01*
X22839925Y45536754D02*
X22119539Y45536754D01*
X22119539Y47048054D01*
X22839925Y47048054D01*
X24155305Y46975847D02*
X24012571Y47048054D01*
X23795952Y47048054D01*
X23579332Y46975847D01*
X23436598Y46831434D01*
X23364392Y46688700D01*
X23292185Y46399874D01*
X23292185Y46184934D01*
X23364392Y45896108D01*
X23436598Y45753374D01*
X23579332Y45608961D01*
X23795952Y45536754D01*
X23940365Y45536754D01*
X24155305Y45608961D01*
X24227512Y45681167D01*
X24227512Y46184934D01*
X23940365Y46184934D01*
X25183539Y46327668D02*
X25400158Y46257140D01*
X25470686Y46184934D01*
X25542892Y46040521D01*
X25542892Y45823901D01*
X25470686Y45681167D01*
X25400158Y45608961D01*
X25255745Y45536754D01*
X24679772Y45536754D01*
X24679772Y47048054D01*
X25183539Y47048054D01*
X25327952Y46975847D01*
X25400158Y46903641D01*
X25470686Y46760907D01*
X25470686Y46616494D01*
X25400158Y46472081D01*
X25327952Y46399874D01*
X25183539Y46327668D01*
X24679772Y46327668D01*
X26067359Y46903641D02*
X26139565Y46975847D01*
X26282299Y47048054D01*
X26643332Y47048054D01*
X26786066Y46975847D01*
X26858272Y46903641D01*
X26930479Y46760907D01*
X26930479Y46616494D01*
X26858272Y46399874D01*
X25995152Y45536754D01*
X26930479Y45536754D01*
X27454946Y46903641D02*
X27527152Y46975847D01*
X27669886Y47048054D01*
X28030919Y47048054D01*
X28173653Y46975847D01*
X28245859Y46903641D01*
X28318066Y46760907D01*
X28318066Y46616494D01*
X28245859Y46399874D01*
X27382739Y45536754D01*
X28318066Y45536754D01*
X29129680Y47048054D02*
X29274093Y47048054D01*
X29418506Y46975847D01*
X29490712Y46903641D01*
X29561240Y46760907D01*
X29633446Y46472081D01*
X29633446Y46112727D01*
X29561240Y45823901D01*
X29490712Y45681167D01*
X29418506Y45608961D01*
X29274093Y45536754D01*
X29129680Y45536754D01*
X28986946Y45608961D01*
X28914739Y45681167D01*
X28842533Y45823901D01*
X28770326Y46112727D01*
X28770326Y46472081D01*
X28842533Y46760907D01*
X28914739Y46903641D01*
X28986946Y46975847D01*
X29129680Y47048054D01*
X16900000Y44211300D02*
X17763120Y44211300D01*
X17331560Y42700000D02*
X17331560Y44211300D01*
X18215380Y43490914D02*
X18719147Y43490914D01*
X18935766Y42700000D02*
X18215380Y42700000D01*
X18215380Y44211300D01*
X18935766Y44211300D01*
X19532439Y43131560D02*
X20251146Y43131560D01*
X19388026Y42700000D02*
X19891793Y44211300D01*
X20395559Y42700000D01*
X20847819Y42700000D02*
X20847819Y44211300D01*
X21351586Y43131560D01*
X21855352Y44211300D01*
X21855352Y42700000D01*
X24299718Y42844413D02*
X24227511Y42772207D01*
X24012571Y42700000D01*
X23868158Y42700000D01*
X23651538Y42772207D01*
X23508804Y42916620D01*
X23436598Y43059354D01*
X23364391Y43348180D01*
X23364391Y43563120D01*
X23436598Y43851946D01*
X23508804Y43994680D01*
X23651538Y44139093D01*
X23868158Y44211300D01*
X24012571Y44211300D01*
X24227511Y44139093D01*
X24299718Y44066887D01*
X25039125Y43563120D02*
X24896391Y43635327D01*
X24824185Y43707533D01*
X24751978Y43851946D01*
X24751978Y43924153D01*
X24824185Y44066887D01*
X24896391Y44139093D01*
X25039125Y44211300D01*
X25327951Y44211300D01*
X25472364Y44139093D01*
X25542892Y44066887D01*
X25615098Y43924153D01*
X25615098Y43851946D01*
X25542892Y43707533D01*
X25472364Y43635327D01*
X25327951Y43563120D01*
X25039125Y43563120D01*
X24896391Y43490914D01*
X24824185Y43420386D01*
X24751978Y43275973D01*
X24751978Y42987147D01*
X24824185Y42844413D01*
X24896391Y42772207D01*
X25039125Y42700000D01*
X25327951Y42700000D01*
X25472364Y42772207D01*
X25542892Y42844413D01*
X25615098Y42987147D01*
X25615098Y43275973D01*
X25542892Y43420386D01*
X25472364Y43490914D01*
X25327951Y43563120D01*
G04 #@! TO.C,J6*
X15391700Y29565209D02*
X16162943Y29565209D01*
X16316472Y29513633D01*
X16419624Y29410481D01*
X16471200Y29256952D01*
X16471200Y29153800D01*
X15391700Y30445671D02*
X15391700Y30239366D01*
X15443276Y30136214D01*
X15494852Y30085837D01*
X15648381Y29982685D01*
X15854686Y29931109D01*
X16266095Y29931109D01*
X16368048Y29982685D01*
X16419624Y30034261D01*
X16471200Y30136214D01*
X16471200Y30342518D01*
X16419624Y30445671D01*
X16368048Y30496047D01*
X16266095Y30547623D01*
X16008214Y30547623D01*
X15906262Y30496047D01*
X15854686Y30445671D01*
X15803109Y30342518D01*
X15803109Y30136214D01*
X15854686Y30034261D01*
X15906262Y29982685D01*
X16008214Y29931109D01*
G04 #@! TO.C,D7*
X28091000Y62995778D02*
X27291000Y62995778D01*
X27291000Y63186000D01*
X27329222Y63300667D01*
X27405667Y63377111D01*
X27481222Y63414445D01*
X27634111Y63452667D01*
X27747889Y63452667D01*
X27900778Y63414445D01*
X27976333Y63377111D01*
X28052778Y63300667D01*
X28091000Y63186000D01*
X28091000Y62995778D01*
X27291000Y63762667D02*
X27291000Y64296000D01*
X28091000Y63952889D01*
G04 #@! TO.C,D2*
X24071000Y53364000D02*
X23271000Y53364000D01*
X23271000Y53554222D01*
X23309222Y53668889D01*
X23385667Y53745333D01*
X23461222Y53782667D01*
X23614111Y53820889D01*
X23727889Y53820889D01*
X23880778Y53782667D01*
X23956333Y53745333D01*
X24032778Y53668889D01*
X24071000Y53554222D01*
X24071000Y53364000D01*
X23347444Y54169111D02*
X23309222Y54207333D01*
X23271000Y54282889D01*
X23271000Y54474000D01*
X23309222Y54549556D01*
X23347444Y54587778D01*
X23423000Y54626000D01*
X23499444Y54626000D01*
X23614111Y54587778D01*
X24071000Y54130889D01*
X24071000Y54626000D01*
G04 #@! TO.C,R3*
X29484889Y30362500D02*
X29218222Y30743833D01*
X29028000Y30362500D02*
X29028000Y31162500D01*
X29332889Y31162500D01*
X29409333Y31124278D01*
X29446667Y31086056D01*
X29484889Y31010500D01*
X29484889Y30895833D01*
X29446667Y30819389D01*
X29409333Y30781167D01*
X29332889Y30743833D01*
X29028000Y30743833D01*
X29794889Y31162500D02*
X30290000Y31162500D01*
X30023333Y30857611D01*
X30138000Y30857611D01*
X30213556Y30819389D01*
X30251778Y30781167D01*
X30290000Y30705611D01*
X30290000Y30514500D01*
X30251778Y30438944D01*
X30213556Y30400722D01*
X30138000Y30362500D01*
X29909556Y30362500D01*
X29833111Y30400722D01*
X29794889Y30438944D01*
D15*
G04 #@! TO.C,F1*
X13225062Y18319833D02*
X13225062Y17960000D01*
X13790000Y17960000D02*
X12710500Y17960000D01*
X12710500Y18474562D01*
X13790000Y19497476D02*
X13790000Y18880962D01*
X13790000Y19189219D02*
X12710500Y19189219D01*
X12865228Y19086067D01*
X12967181Y18984114D01*
X13018757Y18880962D01*
D14*
G04 #@! TO.C,J7*
X35828800Y63460633D02*
X36600043Y63460633D01*
X36753572Y63409057D01*
X36856724Y63305905D01*
X36908300Y63152376D01*
X36908300Y63049224D01*
X35828800Y63826533D02*
X35828800Y64546200D01*
X36908300Y64083214D01*
G04 #@! TO.C,D4*
X20391000Y62984000D02*
X19591000Y62984000D01*
X19591000Y63174222D01*
X19629222Y63288889D01*
X19705667Y63365333D01*
X19781222Y63402667D01*
X19934111Y63440889D01*
X20047889Y63440889D01*
X20200778Y63402667D01*
X20276333Y63365333D01*
X20352778Y63288889D01*
X20391000Y63174222D01*
X20391000Y62984000D01*
X19857667Y64132222D02*
X20391000Y64132222D01*
X19552778Y63941111D02*
X20124333Y63750889D01*
X20124333Y64246000D01*
D15*
G04 #@! TO.C,J1*
X38400000Y62007087D02*
X39171243Y62007087D01*
X39324772Y61955511D01*
X39427924Y61852359D01*
X39479500Y61698830D01*
X39479500Y61595678D01*
X39479500Y63030001D02*
X39479500Y62413487D01*
X39479500Y62721744D02*
X38400000Y62721744D01*
X38554728Y62618592D01*
X38656681Y62516639D01*
X38708257Y62413487D01*
G04 #@! TO.C,J3*
X17286409Y74889500D02*
X17286409Y74118257D01*
X17234833Y73964728D01*
X17131681Y73861576D01*
X16978152Y73810000D01*
X16875000Y73810000D01*
X17692809Y74889500D02*
X18360900Y74889500D01*
X18001066Y74478091D01*
X18155795Y74478091D01*
X18257747Y74426514D01*
X18309323Y74374938D01*
X18360900Y74272986D01*
X18360900Y74015105D01*
X18309323Y73913152D01*
X18257747Y73861576D01*
X18155795Y73810000D01*
X17847537Y73810000D01*
X17744385Y73861576D01*
X17692809Y73913152D01*
G04 #@! TO.C,J2*
X920500Y64081409D02*
X1691743Y64081409D01*
X1845272Y64029833D01*
X1948424Y63926681D01*
X2000000Y63773152D01*
X2000000Y63670000D01*
X1023652Y64539385D02*
X972076Y64590961D01*
X920500Y64692914D01*
X920500Y64950795D01*
X972076Y65052747D01*
X1023652Y65104323D01*
X1125605Y65155900D01*
X1228757Y65155900D01*
X1383486Y65104323D01*
X2000000Y64487809D01*
X2000000Y65155900D01*
D14*
G04 #@! TO.C,D3*
X24091000Y63034000D02*
X23291000Y63034000D01*
X23291000Y63224222D01*
X23329222Y63338889D01*
X23405667Y63415333D01*
X23481222Y63452667D01*
X23634111Y63490889D01*
X23747889Y63490889D01*
X23900778Y63452667D01*
X23976333Y63415333D01*
X24052778Y63338889D01*
X24091000Y63224222D01*
X24091000Y63034000D01*
X23291000Y63800889D02*
X23291000Y64296000D01*
X23595889Y64029333D01*
X23595889Y64144000D01*
X23634111Y64219556D01*
X23672333Y64257778D01*
X23747889Y64296000D01*
X23939000Y64296000D01*
X24014556Y64257778D01*
X24052778Y64219556D01*
X24091000Y64144000D01*
X24091000Y63915556D01*
X24052778Y63839111D01*
X24014556Y63800889D01*
G04 #@! TO.C,J8*
X21263787Y30471200D02*
X21263787Y29699957D01*
X21212211Y29546428D01*
X21109059Y29443276D01*
X20955530Y29391700D01*
X20852378Y29391700D01*
X21834792Y30008214D02*
X21732839Y30059791D01*
X21681263Y30111367D01*
X21629687Y30214519D01*
X21629687Y30266095D01*
X21681263Y30368048D01*
X21732839Y30419624D01*
X21834792Y30471200D01*
X22041096Y30471200D01*
X22144249Y30419624D01*
X22194625Y30368048D01*
X22246201Y30266095D01*
X22246201Y30214519D01*
X22194625Y30111367D01*
X22144249Y30059791D01*
X22041096Y30008214D01*
X21834792Y30008214D01*
X21732839Y29956638D01*
X21681263Y29906262D01*
X21629687Y29803109D01*
X21629687Y29596805D01*
X21681263Y29494852D01*
X21732839Y29443276D01*
X21834792Y29391700D01*
X22041096Y29391700D01*
X22144249Y29443276D01*
X22194625Y29494852D01*
X22246201Y29596805D01*
X22246201Y29803109D01*
X22194625Y29906262D01*
X22144249Y29956638D01*
X22041096Y30008214D01*
G04 #@! TO.C,D9*
X31891000Y53372222D02*
X31091000Y53372222D01*
X31091000Y53562444D01*
X31129222Y53677111D01*
X31205667Y53753555D01*
X31281222Y53790889D01*
X31434111Y53829111D01*
X31547889Y53829111D01*
X31700778Y53790889D01*
X31776333Y53753555D01*
X31852778Y53677111D01*
X31891000Y53562444D01*
X31891000Y53372222D01*
X31891000Y54215555D02*
X31891000Y54367555D01*
X31852778Y54444000D01*
X31814556Y54482222D01*
X31700778Y54557778D01*
X31547889Y54596000D01*
X31243000Y54596000D01*
X31167444Y54557778D01*
X31129222Y54520444D01*
X31091000Y54444000D01*
X31091000Y54291111D01*
X31129222Y54215555D01*
X31167444Y54177333D01*
X31243000Y54139111D01*
X31434111Y54139111D01*
X31509667Y54177333D01*
X31547889Y54215555D01*
X31586111Y54291111D01*
X31586111Y54444000D01*
X31547889Y54520444D01*
X31509667Y54557778D01*
X31434111Y54596000D01*
D15*
G04 #@! TO.C,J5*
X41280000Y19047087D02*
X42051243Y19047087D01*
X42204772Y18995511D01*
X42307924Y18892359D01*
X42359500Y18738830D01*
X42359500Y18635678D01*
X41280000Y20018425D02*
X41280000Y19505063D01*
X41794562Y19453487D01*
X41742986Y19505063D01*
X41691409Y19608215D01*
X41691409Y19864896D01*
X41742986Y19968049D01*
X41794562Y20018425D01*
X41896514Y20070001D01*
X42154395Y20070001D01*
X42256348Y20018425D01*
X42307924Y19968049D01*
X42359500Y19864896D01*
X42359500Y19608215D01*
X42307924Y19505063D01*
X42256348Y19453487D01*
D14*
G04 #@! TO.C,D8*
X31891000Y63122222D02*
X31091000Y63122222D01*
X31091000Y63312444D01*
X31129222Y63427111D01*
X31205667Y63503555D01*
X31281222Y63540889D01*
X31434111Y63579111D01*
X31547889Y63579111D01*
X31700778Y63540889D01*
X31776333Y63503555D01*
X31852778Y63427111D01*
X31891000Y63312444D01*
X31891000Y63122222D01*
X31434111Y64041111D02*
X31395889Y63965555D01*
X31357667Y63927333D01*
X31281222Y63889111D01*
X31243000Y63889111D01*
X31167444Y63927333D01*
X31129222Y63965555D01*
X31091000Y64041111D01*
X31091000Y64194000D01*
X31129222Y64270444D01*
X31167444Y64307778D01*
X31243000Y64346000D01*
X31281222Y64346000D01*
X31357667Y64307778D01*
X31395889Y64270444D01*
X31434111Y64194000D01*
X31434111Y64041111D01*
X31472333Y63965555D01*
X31509667Y63927333D01*
X31586111Y63889111D01*
X31739000Y63889111D01*
X31814556Y63927333D01*
X31852778Y63965555D01*
X31891000Y64041111D01*
X31891000Y64194000D01*
X31852778Y64270444D01*
X31814556Y64307778D01*
X31739000Y64346000D01*
X31586111Y64346000D01*
X31509667Y64307778D01*
X31472333Y64270444D01*
X31434111Y64194000D01*
D16*
G04 #@! TO.C,S1*
X14183700Y6190907D02*
X14400320Y6118700D01*
X14759673Y6118700D01*
X14904086Y6190907D01*
X14974614Y6263113D01*
X15046820Y6405847D01*
X15046820Y6550260D01*
X14974614Y6694673D01*
X14904086Y6766880D01*
X14759673Y6839086D01*
X14470847Y6909614D01*
X14328113Y6981820D01*
X14255907Y7054027D01*
X14183700Y7198440D01*
X14183700Y7342853D01*
X14255907Y7485587D01*
X14328113Y7557793D01*
X14470847Y7630000D01*
X14831880Y7630000D01*
X15046820Y7557793D01*
X16390000Y6118700D02*
X15526880Y6118700D01*
X15958440Y6118700D02*
X15958440Y7630000D01*
X15814027Y7413380D01*
X15671293Y7270646D01*
X15526880Y7198440D01*
D14*
G04 #@! TO.C,R2*
X25666889Y38657500D02*
X25400222Y39038833D01*
X25210000Y38657500D02*
X25210000Y39457500D01*
X25514889Y39457500D01*
X25591333Y39419278D01*
X25628667Y39381056D01*
X25666889Y39305500D01*
X25666889Y39190833D01*
X25628667Y39114389D01*
X25591333Y39076167D01*
X25514889Y39038833D01*
X25210000Y39038833D01*
X26015111Y39381056D02*
X26053333Y39419278D01*
X26128889Y39457500D01*
X26320000Y39457500D01*
X26395556Y39419278D01*
X26433778Y39381056D01*
X26472000Y39305500D01*
X26472000Y39229056D01*
X26433778Y39114389D01*
X25976889Y38657500D01*
X26472000Y38657500D01*
G04 #@! TO.C,D5*
X20391000Y53372222D02*
X19591000Y53372222D01*
X19591000Y53562444D01*
X19629222Y53677111D01*
X19705667Y53753555D01*
X19781222Y53790889D01*
X19934111Y53829111D01*
X20047889Y53829111D01*
X20200778Y53790889D01*
X20276333Y53753555D01*
X20352778Y53677111D01*
X20391000Y53562444D01*
X20391000Y53372222D01*
X19591000Y54557778D02*
X19591000Y54177333D01*
X19972333Y54139111D01*
X19934111Y54177333D01*
X19895889Y54253778D01*
X19895889Y54444000D01*
X19934111Y54520444D01*
X19972333Y54557778D01*
X20047889Y54596000D01*
X20239000Y54596000D01*
X20314556Y54557778D01*
X20352778Y54520444D01*
X20391000Y54444000D01*
X20391000Y54253778D01*
X20352778Y54177333D01*
X20314556Y54139111D01*
G04 #@! TO.C,D6*
X28091000Y53422222D02*
X27291000Y53422222D01*
X27291000Y53612444D01*
X27329222Y53727111D01*
X27405667Y53803555D01*
X27481222Y53840889D01*
X27634111Y53879111D01*
X27747889Y53879111D01*
X27900778Y53840889D01*
X27976333Y53803555D01*
X28052778Y53727111D01*
X28091000Y53612444D01*
X28091000Y53422222D01*
X27291000Y54570444D02*
X27291000Y54417555D01*
X27329222Y54341111D01*
X27367444Y54303778D01*
X27481222Y54227333D01*
X27634111Y54189111D01*
X27939000Y54189111D01*
X28014556Y54227333D01*
X28052778Y54265555D01*
X28091000Y54341111D01*
X28091000Y54494000D01*
X28052778Y54570444D01*
X28014556Y54607778D01*
X27939000Y54646000D01*
X27747889Y54646000D01*
X27672333Y54607778D01*
X27634111Y54570444D01*
X27595889Y54494000D01*
X27595889Y54341111D01*
X27634111Y54265555D01*
X27672333Y54227333D01*
X27747889Y54189111D01*
D15*
G04 #@! TO.C,D1*
X12934500Y15135572D02*
X11855000Y15135572D01*
X11855000Y15392253D01*
X11906576Y15546981D01*
X12009728Y15650134D01*
X12111681Y15700510D01*
X12317986Y15752086D01*
X12471514Y15752086D01*
X12677819Y15700510D01*
X12779772Y15650134D01*
X12882924Y15546981D01*
X12934500Y15392253D01*
X12934500Y15135572D01*
X12934500Y16775000D02*
X12934500Y16158486D01*
X12934500Y16466743D02*
X11855000Y16466743D01*
X12009728Y16363591D01*
X12111681Y16261638D01*
X12163257Y16158486D01*
D14*
G04 #@! TO.C,R1*
X12637500Y59883111D02*
X12256167Y59616444D01*
X12637500Y59426222D02*
X11837500Y59426222D01*
X11837500Y59731111D01*
X11875722Y59807555D01*
X11913944Y59844889D01*
X11989500Y59883111D01*
X12104167Y59883111D01*
X12180611Y59844889D01*
X12218833Y59807555D01*
X12256167Y59731111D01*
X12256167Y59426222D01*
X12637500Y60650000D02*
X12637500Y60193111D01*
X12637500Y60421555D02*
X11837500Y60421555D01*
X11952167Y60345111D01*
X12027722Y60269555D01*
X12065944Y60193111D01*
%LPC*%
D17*
G04 #@! TO.C,J6*
X13700000Y55500000D03*
X13700000Y58040000D03*
X13700000Y63120000D03*
X13700000Y52960000D03*
X13700000Y32640000D03*
X13700000Y35180000D03*
X13700000Y40260000D03*
X13700000Y45340000D03*
X13700000Y30100000D03*
X13700000Y50420000D03*
X13700000Y60580000D03*
X13700000Y37720000D03*
X13700000Y47880000D03*
X13700000Y42800000D03*
D18*
G04 #@! TO.C,D7*
X25640000Y59860000D03*
X25640000Y64160000D03*
G04 #@! TO.C,D2*
X21620000Y50190000D03*
X21620000Y54490000D03*
D19*
G04 #@! TO.C,R3*
X25550000Y32750000D03*
X29950000Y32750000D03*
D20*
G04 #@! TO.C,F1*
X16040000Y18860000D03*
X16040000Y23060000D03*
D17*
G04 #@! TO.C,J7*
X34000000Y37800000D03*
X34000000Y35260000D03*
X34000000Y30180000D03*
X34000000Y40340000D03*
X34000000Y60660000D03*
X34000000Y58120000D03*
X34000000Y53040000D03*
X34000000Y47960000D03*
X34000000Y63200000D03*
X34000000Y42880000D03*
X34000000Y32720000D03*
X34000000Y55580000D03*
X34000000Y45420000D03*
X34000000Y50500000D03*
D18*
G04 #@! TO.C,D4*
X17940000Y59810000D03*
X17940000Y64110000D03*
D21*
G04 #@! TO.C,J1*
G36*
X38093800Y71536200D02*
X38093800Y70583800D01*
X39446200Y70583800D01*
X39446200Y71536200D01*
X38093800Y71536200D01*
G37*
G36*
X39913800Y74936200D02*
X39913800Y73483800D01*
X42216200Y73483800D01*
X42216200Y74936200D01*
X39913800Y74936200D01*
G37*
G36*
X38093800Y72786200D02*
X38093800Y71833800D01*
X39446200Y71833800D01*
X39446200Y72786200D01*
X38093800Y72786200D01*
G37*
G36*
X38093800Y70286200D02*
X38093800Y69333800D01*
X39446200Y69333800D01*
X39446200Y70286200D01*
X38093800Y70286200D01*
G37*
G36*
X39913800Y66136200D02*
X39913800Y64683800D01*
X42216200Y64683800D01*
X42216200Y66136200D01*
X39913800Y66136200D01*
G37*
G36*
X38093800Y69036200D02*
X38093800Y68083800D01*
X39446200Y68083800D01*
X39446200Y69036200D01*
X38093800Y69036200D01*
G37*
G36*
X38093800Y67786200D02*
X38093800Y66833800D01*
X39446200Y66833800D01*
X39446200Y67786200D01*
X38093800Y67786200D01*
G37*
G04 #@! TO.C,J3*
G36*
X24763800Y70703800D02*
X25716200Y70703800D01*
X25716200Y72056200D01*
X24763800Y72056200D01*
X24763800Y70703800D01*
G37*
G36*
X23513800Y70703800D02*
X24466200Y70703800D01*
X24466200Y72056200D01*
X23513800Y72056200D01*
X23513800Y70703800D01*
G37*
G36*
X28513800Y70703800D02*
X29466200Y70703800D01*
X29466200Y72056200D01*
X28513800Y72056200D01*
X28513800Y70703800D01*
G37*
G36*
X19763800Y70703800D02*
X20716200Y70703800D01*
X20716200Y72056200D01*
X19763800Y72056200D01*
X19763800Y70703800D01*
G37*
G36*
X17263800Y70703800D02*
X18216200Y70703800D01*
X18216200Y72056200D01*
X17263800Y72056200D01*
X17263800Y70703800D01*
G37*
G36*
X21013800Y70703800D02*
X21966200Y70703800D01*
X21966200Y72056200D01*
X21013800Y72056200D01*
X21013800Y70703800D01*
G37*
G36*
X13863800Y72523800D02*
X15316200Y72523800D01*
X15316200Y74826200D01*
X13863800Y74826200D01*
X13863800Y72523800D01*
G37*
G36*
X18513800Y70703800D02*
X19466200Y70703800D01*
X19466200Y72056200D01*
X18513800Y72056200D01*
X18513800Y70703800D01*
G37*
G36*
X27263800Y70703800D02*
X28216200Y70703800D01*
X28216200Y72056200D01*
X27263800Y72056200D01*
X27263800Y70703800D01*
G37*
G36*
X26013800Y70703800D02*
X26966200Y70703800D01*
X26966200Y72056200D01*
X26013800Y72056200D01*
X26013800Y70703800D01*
G37*
G36*
X22263800Y70703800D02*
X23216200Y70703800D01*
X23216200Y72056200D01*
X22263800Y72056200D01*
X22263800Y70703800D01*
G37*
G36*
X30163800Y72523800D02*
X31616200Y72523800D01*
X31616200Y74826200D01*
X30163800Y74826200D01*
X30163800Y72523800D01*
G37*
G36*
X16013800Y70703800D02*
X16966200Y70703800D01*
X16966200Y72056200D01*
X16013800Y72056200D01*
X16013800Y70703800D01*
G37*
G04 #@! TO.C,J2*
G36*
X8306200Y67963800D02*
X8306200Y68916200D01*
X6953800Y68916200D01*
X6953800Y67963800D01*
X8306200Y67963800D01*
G37*
G36*
X6486200Y64563800D02*
X6486200Y66016200D01*
X4183800Y66016200D01*
X4183800Y64563800D01*
X6486200Y64563800D01*
G37*
G36*
X8306200Y66713800D02*
X8306200Y67666200D01*
X6953800Y67666200D01*
X6953800Y66713800D01*
X8306200Y66713800D01*
G37*
G36*
X8306200Y69213800D02*
X8306200Y70166200D01*
X6953800Y70166200D01*
X6953800Y69213800D01*
X8306200Y69213800D01*
G37*
G36*
X6486200Y73363800D02*
X6486200Y74816200D01*
X4183800Y74816200D01*
X4183800Y73363800D01*
X6486200Y73363800D01*
G37*
G36*
X8306200Y70463800D02*
X8306200Y71416200D01*
X6953800Y71416200D01*
X6953800Y70463800D01*
X8306200Y70463800D01*
G37*
G36*
X8306200Y71713800D02*
X8306200Y72666200D01*
X6953800Y72666200D01*
X6953800Y71713800D01*
X8306200Y71713800D01*
G37*
D18*
G04 #@! TO.C,D3*
X21640000Y59860000D03*
X21640000Y64160000D03*
D17*
G04 #@! TO.C,J8*
X23840000Y27600000D03*
X31460000Y27600000D03*
X28920000Y27600000D03*
X21300000Y27600000D03*
X34000000Y27600000D03*
X26380000Y27600000D03*
X18760000Y27600000D03*
X16220000Y27600000D03*
X13680000Y27600000D03*
D18*
G04 #@! TO.C,D9*
X29440000Y50160000D03*
X29440000Y54460000D03*
D21*
G04 #@! TO.C,J5*
G36*
X34973800Y15776200D02*
X34973800Y14823800D01*
X36326200Y14823800D01*
X36326200Y15776200D01*
X34973800Y15776200D01*
G37*
G36*
X36793800Y19176200D02*
X36793800Y17723800D01*
X39096200Y17723800D01*
X39096200Y19176200D01*
X36793800Y19176200D01*
G37*
G36*
X34973800Y17026200D02*
X34973800Y16073800D01*
X36326200Y16073800D01*
X36326200Y17026200D01*
X34973800Y17026200D01*
G37*
G36*
X34973800Y14526200D02*
X34973800Y13573800D01*
X36326200Y13573800D01*
X36326200Y14526200D01*
X34973800Y14526200D01*
G37*
G36*
X36793800Y10376200D02*
X36793800Y8923800D01*
X39096200Y8923800D01*
X39096200Y10376200D01*
X36793800Y10376200D01*
G37*
G36*
X34973800Y13276200D02*
X34973800Y12323800D01*
X36326200Y12323800D01*
X36326200Y13276200D01*
X34973800Y13276200D01*
G37*
G36*
X34973800Y12026200D02*
X34973800Y11073800D01*
X36326200Y11073800D01*
X36326200Y12026200D01*
X34973800Y12026200D01*
G37*
D22*
G04 #@! TO.C,J4*
X29900000Y8060000D03*
X18900000Y8060000D03*
D23*
X21900000Y18060000D03*
X26900000Y18060000D03*
D18*
G04 #@! TO.C,D8*
X29440000Y59910000D03*
X29440000Y64210000D03*
D17*
G04 #@! TO.C,S1*
X14680000Y11350000D03*
X14680000Y13890000D03*
X14680000Y8810000D03*
D19*
G04 #@! TO.C,R2*
X29950000Y37070000D03*
X25550000Y37070000D03*
D18*
G04 #@! TO.C,D5*
X17940000Y50160000D03*
X17940000Y54460000D03*
G04 #@! TO.C,D6*
X25640000Y50210000D03*
X25640000Y54510000D03*
D24*
G04 #@! TO.C,D1*
X9950000Y15800000D03*
X9950000Y11400000D03*
D25*
G04 #@! TO.C,R1*
X10250000Y55910000D03*
X10250000Y60310000D03*
D26*
G04 #@! TD*
X22700000Y73300000D03*
D27*
X9800000Y68200000D03*
X29400000Y57400000D03*
D26*
X40800000Y14200000D03*
D27*
X24000000Y69400000D03*
X19000000Y69400000D03*
X17700000Y69400000D03*
D26*
X29300000Y66900000D03*
D27*
X21500000Y69400000D03*
X17900000Y57000000D03*
X20200000Y69400000D03*
D26*
X36800000Y75200000D03*
X9800000Y75100000D03*
D27*
X21600000Y57100000D03*
X10400000Y64600000D03*
X32700000Y11600000D03*
X25200000Y69400000D03*
D26*
X22400000Y32800000D03*
D27*
X22700000Y69400000D03*
X27600000Y50200000D03*
X19700000Y50200000D03*
X36500000Y67700000D03*
X36600000Y72200000D03*
X25600000Y57400000D03*
X26500000Y69400000D03*
X16600000Y69400000D03*
D28*
X33700000Y73800000D03*
X9200000Y22800000D03*
X35800000Y22800000D03*
X11700000Y73800000D03*
G04 --- BOARD END --- *
G04 #@! TF.MD5,9be1ee2df84327fa4f2b1e579a750d90*
M02*
